G04 #@! TF.GenerationSoftware,KiCad,Pcbnew,8.0.8*
G04 #@! TF.CreationDate,2025-03-03T21:47:54-06:00*
G04 #@! TF.ProjectId,group13_esp,67726f75-7031-4335-9f65-73702e6b6963,rev?*
G04 #@! TF.SameCoordinates,Original*
G04 #@! TF.FileFunction,Legend,Bot*
G04 #@! TF.FilePolarity,Positive*
%FSLAX46Y46*%
G04 Gerber Fmt 4.6, Leading zero omitted, Abs format (unit mm)*
G04 Created by KiCad (PCBNEW 8.0.8) date 2025-03-03 21:47:54*
%MOMM*%
%LPD*%
G01*
G04 APERTURE LIST*
G04 Aperture macros list*
%AMRoundRect*
0 Rectangle with rounded corners*
0 $1 Rounding radius*
0 $2 $3 $4 $5 $6 $7 $8 $9 X,Y pos of 4 corners*
0 Add a 4 corners polygon primitive as box body*
4,1,4,$2,$3,$4,$5,$6,$7,$8,$9,$2,$3,0*
0 Add four circle primitives for the rounded corners*
1,1,$1+$1,$2,$3*
1,1,$1+$1,$4,$5*
1,1,$1+$1,$6,$7*
1,1,$1+$1,$8,$9*
0 Add four rect primitives between the rounded corners*
20,1,$1+$1,$2,$3,$4,$5,0*
20,1,$1+$1,$4,$5,$6,$7,0*
20,1,$1+$1,$6,$7,$8,$9,0*
20,1,$1+$1,$8,$9,$2,$3,0*%
G04 Aperture macros list end*
%ADD10C,3.200000*%
%ADD11O,0.950000X1.950000*%
%ADD12O,0.950000X2.150000*%
%ADD13R,1.700000X1.700000*%
%ADD14O,1.700000X1.700000*%
%ADD15RoundRect,0.250000X-0.845000X0.620000X-0.845000X-0.620000X0.845000X-0.620000X0.845000X0.620000X0*%
%ADD16O,2.190000X1.740000*%
%ADD17C,1.700000*%
%ADD18RoundRect,0.102000X-1.050000X1.050000X-1.050000X-1.050000X1.050000X-1.050000X1.050000X1.050000X0*%
%ADD19C,2.304000*%
%ADD20RoundRect,0.102000X1.050000X1.050000X-1.050000X1.050000X-1.050000X-1.050000X1.050000X-1.050000X0*%
G04 APERTURE END LIST*
%LPC*%
D10*
X82804000Y-125021000D03*
D11*
X124587000Y-124308000D03*
D12*
X124587000Y-127508000D03*
D11*
X133487000Y-124308000D03*
D12*
X133487000Y-127508000D03*
D10*
X166677000Y-41148000D03*
D13*
X162500000Y-111980000D03*
D14*
X162500000Y-109440000D03*
X162500000Y-106900000D03*
X162500000Y-104360000D03*
X162500000Y-101820000D03*
X162500000Y-99280000D03*
X162500000Y-96740000D03*
X162500000Y-94200000D03*
X162500000Y-91660000D03*
X162500000Y-89120000D03*
X162500000Y-86580000D03*
X162500000Y-84040000D03*
X162500000Y-81500000D03*
X162500000Y-78960000D03*
X162500000Y-76420000D03*
X162500000Y-73880000D03*
X162500000Y-71340000D03*
X162500000Y-68800000D03*
X162500000Y-66260000D03*
X162500000Y-63720000D03*
D10*
X166677000Y-125148000D03*
X82804000Y-41021000D03*
D15*
X99500000Y-78960000D03*
D16*
X99500000Y-81500000D03*
X99500000Y-84040000D03*
X99500000Y-86580000D03*
X99500000Y-89120000D03*
X99500000Y-91660000D03*
X99500000Y-94200000D03*
X99500000Y-96740000D03*
D17*
X147200000Y-107600000D03*
X147200000Y-114600000D03*
D18*
X106500000Y-39250000D03*
D19*
X106500000Y-51750000D03*
X101500000Y-39250000D03*
X101500000Y-51750000D03*
D13*
X89472000Y-65159000D03*
D14*
X89472000Y-67699000D03*
X89472000Y-70239000D03*
X89472000Y-72779000D03*
X89472000Y-75319000D03*
X89472000Y-77859000D03*
X89472000Y-80399000D03*
X89472000Y-82939000D03*
X89472000Y-85479000D03*
X89472000Y-88019000D03*
X89472000Y-90559000D03*
X89472000Y-93099000D03*
X89472000Y-95639000D03*
X89472000Y-98179000D03*
X89472000Y-100719000D03*
X89472000Y-103259000D03*
X89472000Y-105799000D03*
X89472000Y-108339000D03*
X89472000Y-110879000D03*
X89472000Y-113419000D03*
D15*
X107750000Y-79250000D03*
D16*
X107750000Y-81790000D03*
X107750000Y-84330000D03*
X107750000Y-86870000D03*
X107750000Y-89410000D03*
X107750000Y-91950000D03*
D20*
X109575000Y-64500000D03*
D19*
X97075000Y-64500000D03*
X109575000Y-59500000D03*
X97075000Y-59500000D03*
%LPD*%
M02*
