G04 #@! TF.GenerationSoftware,KiCad,Pcbnew,8.0.8*
G04 #@! TF.CreationDate,2025-03-03T21:47:54-06:00*
G04 #@! TF.ProjectId,group13_esp,67726f75-7031-4335-9f65-73702e6b6963,rev?*
G04 #@! TF.SameCoordinates,Original*
G04 #@! TF.FileFunction,Copper,L2,Bot*
G04 #@! TF.FilePolarity,Positive*
%FSLAX46Y46*%
G04 Gerber Fmt 4.6, Leading zero omitted, Abs format (unit mm)*
G04 Created by KiCad (PCBNEW 8.0.8) date 2025-03-03 21:47:54*
%MOMM*%
%LPD*%
G01*
G04 APERTURE LIST*
G04 Aperture macros list*
%AMRoundRect*
0 Rectangle with rounded corners*
0 $1 Rounding radius*
0 $2 $3 $4 $5 $6 $7 $8 $9 X,Y pos of 4 corners*
0 Add a 4 corners polygon primitive as box body*
4,1,4,$2,$3,$4,$5,$6,$7,$8,$9,$2,$3,0*
0 Add four circle primitives for the rounded corners*
1,1,$1+$1,$2,$3*
1,1,$1+$1,$4,$5*
1,1,$1+$1,$6,$7*
1,1,$1+$1,$8,$9*
0 Add four rect primitives between the rounded corners*
20,1,$1+$1,$2,$3,$4,$5,0*
20,1,$1+$1,$4,$5,$6,$7,0*
20,1,$1+$1,$6,$7,$8,$9,0*
20,1,$1+$1,$8,$9,$2,$3,0*%
G04 Aperture macros list end*
G04 #@! TA.AperFunction,HeatsinkPad*
%ADD10O,0.950000X1.950000*%
G04 #@! TD*
G04 #@! TA.AperFunction,HeatsinkPad*
%ADD11O,0.950000X2.150000*%
G04 #@! TD*
G04 #@! TA.AperFunction,ComponentPad*
%ADD12R,1.700000X1.700000*%
G04 #@! TD*
G04 #@! TA.AperFunction,ComponentPad*
%ADD13O,1.700000X1.700000*%
G04 #@! TD*
G04 #@! TA.AperFunction,ComponentPad*
%ADD14RoundRect,0.250000X-0.845000X0.620000X-0.845000X-0.620000X0.845000X-0.620000X0.845000X0.620000X0*%
G04 #@! TD*
G04 #@! TA.AperFunction,ComponentPad*
%ADD15O,2.190000X1.740000*%
G04 #@! TD*
G04 #@! TA.AperFunction,ComponentPad*
%ADD16R,2.100000X2.100000*%
G04 #@! TD*
G04 #@! TA.AperFunction,ComponentPad*
%ADD17C,2.100000*%
G04 #@! TD*
G04 #@! TA.AperFunction,HeatsinkPad*
%ADD18C,0.600000*%
G04 #@! TD*
G04 #@! TA.AperFunction,ViaPad*
%ADD19C,0.600000*%
G04 #@! TD*
G04 #@! TA.AperFunction,Conductor*
%ADD20C,0.508000*%
G04 #@! TD*
G04 #@! TA.AperFunction,Conductor*
%ADD21C,0.254000*%
G04 #@! TD*
G04 #@! TA.AperFunction,Conductor*
%ADD22C,0.200000*%
G04 #@! TD*
G04 APERTURE END LIST*
D10*
X124587000Y-124308000D03*
D11*
X124587000Y-127508000D03*
D10*
X133487000Y-124308000D03*
D11*
X133487000Y-127508000D03*
D12*
X162500000Y-111980000D03*
D13*
X162500000Y-109440000D03*
X162500000Y-106900000D03*
X162500000Y-104360000D03*
X162500000Y-101820000D03*
X162500000Y-99280000D03*
X162500000Y-96740000D03*
X162500000Y-94200000D03*
X162500000Y-91660000D03*
X162500000Y-89120000D03*
X162500000Y-86580000D03*
X162500000Y-84040000D03*
X162500000Y-81500000D03*
X162500000Y-78960000D03*
X162500000Y-76420000D03*
X162500000Y-73880000D03*
X162500000Y-71340000D03*
X162500000Y-68800000D03*
X162500000Y-66260000D03*
X162500000Y-63720000D03*
D14*
X99500000Y-78960000D03*
D15*
X99500000Y-81500000D03*
X99500000Y-84040000D03*
X99500000Y-86580000D03*
X99500000Y-89120000D03*
X99500000Y-91660000D03*
X99500000Y-94200000D03*
X99500000Y-96740000D03*
D16*
X106500000Y-39250000D03*
D17*
X106500000Y-51750000D03*
X101500000Y-39250000D03*
X101500000Y-51750000D03*
D12*
X89472000Y-65159000D03*
D13*
X89472000Y-67699000D03*
X89472000Y-70239000D03*
X89472000Y-72779000D03*
X89472000Y-75319000D03*
X89472000Y-77859000D03*
X89472000Y-80399000D03*
X89472000Y-82939000D03*
X89472000Y-85479000D03*
X89472000Y-88019000D03*
X89472000Y-90559000D03*
X89472000Y-93099000D03*
X89472000Y-95639000D03*
X89472000Y-98179000D03*
X89472000Y-100719000D03*
X89472000Y-103259000D03*
X89472000Y-105799000D03*
X89472000Y-108339000D03*
X89472000Y-110879000D03*
X89472000Y-113419000D03*
D18*
X128700000Y-45500000D03*
X128700000Y-46900000D03*
X129400000Y-44800000D03*
X129400000Y-46200000D03*
X129400000Y-47600000D03*
X130100000Y-45500000D03*
X130100000Y-46900000D03*
X130800000Y-44800000D03*
X130800000Y-46200000D03*
X130800000Y-47600000D03*
X131500000Y-45500000D03*
X131500000Y-46900000D03*
D14*
X107750000Y-79250000D03*
D15*
X107750000Y-81790000D03*
X107750000Y-84330000D03*
X107750000Y-86870000D03*
X107750000Y-89410000D03*
X107750000Y-91950000D03*
D16*
X109575000Y-64500000D03*
D17*
X97075000Y-64500000D03*
X109575000Y-59500000D03*
X97075000Y-59500000D03*
D19*
X122936000Y-123698000D03*
X130000000Y-108250000D03*
X115570000Y-113157000D03*
X106500000Y-117000000D03*
X93000000Y-39000000D03*
X109750000Y-99000000D03*
X148000000Y-90000000D03*
X128750000Y-92000000D03*
X134500000Y-111500000D03*
X147500000Y-79000000D03*
X126746000Y-124714000D03*
X143500000Y-80000000D03*
X138250000Y-97000000D03*
X133500000Y-87750000D03*
X134750000Y-104500000D03*
X96000000Y-48500000D03*
X79750000Y-103000000D03*
X111500000Y-82000000D03*
X164750000Y-117500000D03*
X160250000Y-117750000D03*
X93000000Y-62000000D03*
X93500000Y-75500000D03*
X109250000Y-54750000D03*
X113157000Y-113030000D03*
X122936000Y-124587000D03*
X123698000Y-123190000D03*
X116750000Y-54000000D03*
X153250000Y-60500000D03*
X113157000Y-114046000D03*
X119126000Y-120904000D03*
X117000000Y-79250000D03*
X121500000Y-39750000D03*
X88250000Y-48750000D03*
X118377000Y-106680000D03*
X89250000Y-53250000D03*
X115189000Y-109728000D03*
X90500000Y-40750000D03*
X138000000Y-90000000D03*
X141250000Y-79250000D03*
X144500000Y-84750000D03*
X128270000Y-90043000D03*
X125603000Y-119380000D03*
X120329000Y-101079000D03*
X121250000Y-87000000D03*
X121000000Y-92000000D03*
X126746000Y-116205000D03*
X121250000Y-85000000D03*
X122750000Y-89000000D03*
X132377000Y-85250000D03*
X132250000Y-80473000D03*
X126250000Y-85000000D03*
X129250000Y-81250000D03*
X123500000Y-79750000D03*
X149750000Y-71043356D03*
X102250000Y-69750000D03*
X167250000Y-115000000D03*
X106000000Y-96750000D03*
X117250000Y-76500000D03*
X117250000Y-58500000D03*
X124500000Y-58250000D03*
X113750000Y-46250000D03*
X84750000Y-46250000D03*
X158750000Y-126250000D03*
X88250000Y-42000000D03*
X121500000Y-52500000D03*
X87750000Y-43500000D03*
X113750000Y-43500000D03*
X113750000Y-44750000D03*
X86000000Y-44750000D03*
X99250000Y-105750000D03*
X131735616Y-77985618D03*
X132000000Y-64000000D03*
X132250000Y-58500000D03*
X82250000Y-57750000D03*
X127250000Y-59750000D03*
X128500000Y-59750000D03*
X81250000Y-60000000D03*
X82500000Y-98500000D03*
X121750000Y-79750000D03*
X133500000Y-63750000D03*
X133500000Y-58500000D03*
X99250000Y-108250000D03*
X151250000Y-75250000D03*
X154750000Y-99500000D03*
X131000000Y-58500000D03*
X153500000Y-65250000D03*
X96000000Y-113500000D03*
X142875000Y-75057000D03*
X142250000Y-67750000D03*
X155250000Y-96000000D03*
X129750000Y-58500000D03*
X147500000Y-59250000D03*
X147500000Y-43500000D03*
X146000000Y-58500000D03*
X146000000Y-42250000D03*
X158750000Y-78750000D03*
X148750000Y-47500000D03*
X146750000Y-61500000D03*
X144500000Y-61250000D03*
X159750000Y-73880000D03*
X148750000Y-45000000D03*
X119750000Y-74750000D03*
X148750000Y-50000000D03*
X158540000Y-84040000D03*
X134750000Y-63750000D03*
X134750000Y-72725000D03*
X134750000Y-58500000D03*
X119318356Y-73431644D03*
X158750000Y-89000000D03*
X148750000Y-52250000D03*
X128510499Y-126212052D03*
X128734000Y-115305133D03*
X130384593Y-123258837D03*
X129584000Y-115305133D03*
X129111541Y-126813094D03*
X129910000Y-126272000D03*
D20*
X127000000Y-113030000D02*
X130810000Y-113030000D01*
X89250000Y-52750000D02*
X89250000Y-53250000D01*
X107750000Y-79250000D02*
X117000000Y-79250000D01*
X118377000Y-107694658D02*
X116343658Y-109728000D01*
X108004000Y-40754000D02*
X90504000Y-40754000D01*
X92750000Y-65159000D02*
X92750000Y-65250000D01*
X121500000Y-39750000D02*
X108004000Y-39750000D01*
X116343658Y-109728000D02*
X115570000Y-109728000D01*
X88250000Y-51750000D02*
X89250000Y-52750000D01*
X130810000Y-113030000D02*
X140280000Y-122500000D01*
X90504000Y-40754000D02*
X90500000Y-40750000D01*
X99500000Y-75187000D02*
X99500000Y-78960000D01*
X115570000Y-109728000D02*
X115189000Y-109728000D01*
X118377000Y-106680000D02*
X118377000Y-107694658D01*
X160500000Y-122500000D02*
X162500000Y-120500000D01*
X140280000Y-122500000D02*
X160500000Y-122500000D01*
X92750000Y-65250000D02*
X92750000Y-68437000D01*
X108004000Y-39750000D02*
X108004000Y-40754000D01*
X119126000Y-120904000D02*
X127000000Y-113030000D01*
X162500000Y-120500000D02*
X162500000Y-111980000D01*
X88250000Y-48750000D02*
X88250000Y-51750000D01*
X92750000Y-68437000D02*
X99500000Y-75187000D01*
X92659000Y-65159000D02*
X92750000Y-65250000D01*
X89472000Y-65159000D02*
X92659000Y-65159000D01*
D21*
X141250000Y-81500000D02*
X144500000Y-84750000D01*
D22*
X129707000Y-90043000D02*
X129750000Y-90000000D01*
D21*
X141250000Y-79250000D02*
X141250000Y-81500000D01*
D22*
X128270000Y-90043000D02*
X129707000Y-90043000D01*
D21*
X138000000Y-90000000D02*
X129750000Y-90000000D01*
D20*
X121250000Y-85000000D02*
X121250000Y-87000000D01*
X122750000Y-89000000D02*
X121000000Y-90750000D01*
X121000000Y-92000000D02*
X119000000Y-92000000D01*
X126746000Y-116213000D02*
X126746000Y-116205000D01*
X119000000Y-99750000D02*
X120329000Y-101079000D01*
X125603000Y-117356000D02*
X126746000Y-116213000D01*
X125603000Y-119380000D02*
X125603000Y-117356000D01*
X121000000Y-90750000D02*
X121000000Y-92000000D01*
X121250000Y-87500000D02*
X121250000Y-87000000D01*
X119000000Y-92000000D02*
X119000000Y-99750000D01*
X122750000Y-89000000D02*
X121250000Y-87500000D01*
D21*
X132250000Y-85123000D02*
X132250000Y-80473000D01*
X126500000Y-85250000D02*
X126250000Y-85000000D01*
X132377000Y-85250000D02*
X126500000Y-85250000D01*
X132377000Y-85250000D02*
X132250000Y-85123000D01*
X128500000Y-80500000D02*
X124250000Y-80500000D01*
X129250000Y-81250000D02*
X128500000Y-80500000D01*
X124250000Y-80500000D02*
X123500000Y-79750000D01*
D20*
X149750000Y-71043356D02*
X149706644Y-71000000D01*
X149706644Y-71000000D02*
X103500000Y-71000000D01*
X103500000Y-71000000D02*
X102250000Y-69750000D01*
D21*
X97250000Y-93910000D02*
X99500000Y-91660000D01*
X97250000Y-109750000D02*
X97250000Y-93910000D01*
X119385712Y-121531000D02*
X109031000Y-121531000D01*
X167250000Y-116595000D02*
X165400342Y-118444658D01*
X165400342Y-118444658D02*
X165377000Y-118444658D01*
X160740658Y-123081000D02*
X140039342Y-123081000D01*
X109031000Y-121531000D02*
X97250000Y-109750000D01*
X140039342Y-123081000D02*
X130623342Y-113665000D01*
X165377000Y-118444658D02*
X160740658Y-123081000D01*
X130623342Y-113665000D02*
X127251712Y-113665000D01*
X167250000Y-115000000D02*
X167250000Y-116595000D01*
X127251712Y-113665000D02*
X119385712Y-121531000D01*
X106000000Y-96750000D02*
X105250000Y-97500000D01*
X105250000Y-97500000D02*
X100260000Y-97500000D01*
X100260000Y-97500000D02*
X99500000Y-96740000D01*
X103250000Y-90450000D02*
X99500000Y-94200000D01*
X117750000Y-58250000D02*
X124500000Y-58250000D01*
X117250000Y-58500000D02*
X117500000Y-58500000D01*
X117250000Y-76500000D02*
X103250000Y-76500000D01*
X103250000Y-76500000D02*
X103250000Y-90450000D01*
X117500000Y-58500000D02*
X117750000Y-58250000D01*
X99500000Y-84040000D02*
X95991000Y-84040000D01*
X113750000Y-46250000D02*
X84750000Y-46250000D01*
X95991000Y-84040000D02*
X89472000Y-90559000D01*
X96000000Y-89120000D02*
X99500000Y-89120000D01*
X158750000Y-126250000D02*
X156035000Y-123535000D01*
X119573765Y-121985000D02*
X106985000Y-121985000D01*
X127385765Y-114173000D02*
X119573765Y-121985000D01*
X156035000Y-123535000D02*
X139851290Y-123535000D01*
X106985000Y-121985000D02*
X96000000Y-111000000D01*
X130489290Y-114173000D02*
X127385765Y-114173000D01*
X96000000Y-111000000D02*
X96000000Y-89120000D01*
X139851290Y-123535000D02*
X130489290Y-114173000D01*
X95670000Y-86580000D02*
X99500000Y-86580000D01*
X89472000Y-93099000D02*
X94750000Y-87821000D01*
X119000000Y-51750000D02*
X119750000Y-52500000D01*
X88250000Y-42000000D02*
X119000000Y-42000000D01*
X94750000Y-87500000D02*
X95670000Y-86580000D01*
X94750000Y-87821000D02*
X94750000Y-87500000D01*
X119750000Y-52500000D02*
X121500000Y-52500000D01*
X119000000Y-42000000D02*
X119000000Y-51750000D01*
X87750000Y-43500000D02*
X113750000Y-43500000D01*
X113750000Y-44750000D02*
X86000000Y-44750000D01*
X116250000Y-83000000D02*
X116250000Y-105000000D01*
X131652878Y-78068356D02*
X121181644Y-78068356D01*
X132000000Y-64000000D02*
X132000000Y-58750000D01*
X115500000Y-105750000D02*
X99250000Y-105750000D01*
X116250000Y-105000000D02*
X115500000Y-105750000D01*
X131735616Y-77985618D02*
X131652878Y-78068356D01*
X132000000Y-58750000D02*
X132250000Y-58500000D01*
X121181644Y-78068356D02*
X116250000Y-83000000D01*
X116500000Y-60000000D02*
X127000000Y-60000000D01*
X97250000Y-56750000D02*
X113250000Y-56750000D01*
X113250000Y-56750000D02*
X116500000Y-60000000D01*
X83250000Y-56750000D02*
X97250000Y-56750000D01*
X127000000Y-60000000D02*
X127250000Y-59750000D01*
X82250000Y-57750000D02*
X83250000Y-56750000D01*
X128500000Y-59750000D02*
X128500000Y-61000000D01*
X83500000Y-57750000D02*
X81250000Y-60000000D01*
X82821000Y-98179000D02*
X89472000Y-98179000D01*
X103000000Y-61000000D02*
X101000000Y-59000000D01*
X128250000Y-61250000D02*
X103250000Y-61250000D01*
X101000000Y-57750000D02*
X83500000Y-57750000D01*
X128500000Y-61000000D02*
X128250000Y-61250000D01*
X103250000Y-61250000D02*
X103000000Y-61000000D01*
X82500000Y-98500000D02*
X82821000Y-98179000D01*
X101000000Y-59000000D02*
X101000000Y-57750000D01*
X133500000Y-58500000D02*
X133500000Y-63750000D01*
X117000000Y-108250000D02*
X99250000Y-108250000D01*
X117750000Y-107500000D02*
X117000000Y-108250000D01*
X121750000Y-79750000D02*
X117750000Y-83750000D01*
X117750000Y-83750000D02*
X117750000Y-107500000D01*
X130750000Y-65250000D02*
X153500000Y-65250000D01*
X131000000Y-59000000D02*
X130750000Y-59250000D01*
X157000000Y-94500000D02*
X157000000Y-97250000D01*
X151250000Y-88750000D02*
X157000000Y-94500000D01*
X130750000Y-59250000D02*
X130750000Y-65250000D01*
X157000000Y-97250000D02*
X154750000Y-99500000D01*
X153750000Y-65000000D02*
X153500000Y-65250000D01*
X131000000Y-58500000D02*
X131000000Y-59000000D01*
X151250000Y-75250000D02*
X151250000Y-88750000D01*
X89472000Y-113419000D02*
X95919000Y-113419000D01*
X95919000Y-113419000D02*
X96000000Y-113500000D01*
X149500000Y-90250000D02*
X155250000Y-96000000D01*
D22*
X143256000Y-75057000D02*
X143313000Y-75000000D01*
D21*
X129750000Y-58500000D02*
X129750000Y-63500000D01*
D22*
X143313000Y-75000000D02*
X145500000Y-75000000D01*
D21*
X130000000Y-67250000D02*
X141750000Y-67250000D01*
X129750000Y-63500000D02*
X129750000Y-67000000D01*
X141750000Y-67250000D02*
X142250000Y-67750000D01*
D22*
X142875000Y-75057000D02*
X143256000Y-75057000D01*
D21*
X149500000Y-79000000D02*
X149500000Y-90250000D01*
X145500000Y-75000000D02*
X149500000Y-79000000D01*
X129750000Y-67000000D02*
X130000000Y-67250000D01*
X147500000Y-43500000D02*
X147500000Y-59250000D01*
X146000000Y-58500000D02*
X146000000Y-42250000D01*
X157750000Y-77750000D02*
X158750000Y-78750000D01*
X157750000Y-51750000D02*
X157750000Y-77750000D01*
X148750000Y-47500000D02*
X153500000Y-47500000D01*
X153500000Y-47500000D02*
X157750000Y-51750000D01*
X144750000Y-41500000D02*
X144750000Y-59500000D01*
X145500000Y-40750000D02*
X144750000Y-41500000D01*
X162500000Y-68800000D02*
X159750000Y-66050000D01*
X159750000Y-46750000D02*
X153875000Y-40875000D01*
X153875000Y-40875000D02*
X153750000Y-40750000D01*
X144750000Y-59500000D02*
X146750000Y-61500000D01*
X159750000Y-66050000D02*
X159750000Y-46750000D01*
X153750000Y-40750000D02*
X145500000Y-40750000D01*
X155250000Y-39750000D02*
X143500000Y-39750000D01*
X161250000Y-45750000D02*
X155250000Y-39750000D01*
X143500000Y-60250000D02*
X144500000Y-61250000D01*
X143500000Y-39750000D02*
X143500000Y-60250000D01*
X161250000Y-65010000D02*
X161250000Y-45750000D01*
X162500000Y-66260000D02*
X161250000Y-65010000D01*
X152000000Y-45000000D02*
X158500000Y-51500000D01*
X148750000Y-45000000D02*
X152000000Y-45000000D01*
X158500000Y-73500000D02*
X158880000Y-73880000D01*
X158500000Y-51500000D02*
X158500000Y-73500000D01*
X158880000Y-73880000D02*
X159750000Y-73880000D01*
X152750000Y-87750000D02*
X160250000Y-95250000D01*
X160250000Y-102110000D02*
X162500000Y-104360000D01*
X119750000Y-74750000D02*
X119750000Y-75250000D01*
X120750000Y-74250000D02*
X152750000Y-74250000D01*
X119750000Y-75250000D02*
X120750000Y-74250000D01*
X160250000Y-95250000D02*
X160250000Y-102110000D01*
X152750000Y-74250000D02*
X152750000Y-87750000D01*
X157000000Y-52250000D02*
X157000000Y-82500000D01*
X154750000Y-50000000D02*
X157000000Y-52250000D01*
X148750000Y-50000000D02*
X154750000Y-50000000D01*
X157000000Y-82500000D02*
X158540000Y-84040000D01*
X134750000Y-72725000D02*
X154750000Y-72725000D01*
X134750000Y-63750000D02*
X134750000Y-58500000D01*
X154750000Y-86450000D02*
X162500000Y-94200000D01*
X154750000Y-72725000D02*
X154750000Y-86450000D01*
X153750000Y-73431644D02*
X153750000Y-87500000D01*
X161000000Y-94750000D02*
X161000000Y-100320000D01*
X119318356Y-73431644D02*
X153750000Y-73431644D01*
X153750000Y-87500000D02*
X161000000Y-94750000D01*
X161000000Y-100320000D02*
X162500000Y-101820000D01*
X148750000Y-52250000D02*
X155750000Y-52250000D01*
X156250000Y-86500000D02*
X158750000Y-89000000D01*
X155750000Y-52250000D02*
X156250000Y-52750000D01*
X156250000Y-52750000D02*
X156250000Y-86500000D01*
D22*
X128933999Y-126071395D02*
X128793342Y-126212052D01*
X128793342Y-126212052D02*
X128510499Y-126212052D01*
X128933999Y-115505132D02*
X128933999Y-126071395D01*
X128734000Y-115305133D02*
X128933999Y-115505132D01*
D21*
X130990000Y-126272000D02*
X129910000Y-126272000D01*
D22*
X129384001Y-115505132D02*
X129384001Y-126257791D01*
D21*
X130384593Y-123258837D02*
X130603756Y-123478000D01*
X130990000Y-123732000D02*
X130990000Y-126272000D01*
D22*
X129584000Y-115305133D02*
X129384001Y-115505132D01*
D21*
X130603756Y-123478000D02*
X130736000Y-123478000D01*
D22*
X129384001Y-126257791D02*
X129111541Y-126530251D01*
D21*
X130736000Y-123478000D02*
X130990000Y-123732000D01*
D22*
X129111541Y-126530251D02*
X129111541Y-126813094D01*
G04 #@! TA.AperFunction,Conductor*
G36*
X91938539Y-65933185D02*
G01*
X91984294Y-65985989D01*
X91995500Y-66037500D01*
X91995500Y-68357552D01*
X91995499Y-68357578D01*
X91995499Y-68511314D01*
X92016515Y-68616961D01*
X92016515Y-68616963D01*
X92024494Y-68657075D01*
X92024495Y-68657080D01*
X92048053Y-68713955D01*
X92081370Y-68794389D01*
X92129966Y-68867119D01*
X92163942Y-68917968D01*
X92163943Y-68917969D01*
X98709181Y-75463205D01*
X98742666Y-75524528D01*
X98745500Y-75550886D01*
X98745500Y-77465500D01*
X98725815Y-77532539D01*
X98673011Y-77578294D01*
X98621506Y-77589500D01*
X98605001Y-77589500D01*
X98604980Y-77589501D01*
X98502203Y-77600000D01*
X98502200Y-77600001D01*
X98335668Y-77655185D01*
X98335663Y-77655187D01*
X98186342Y-77747289D01*
X98062289Y-77871342D01*
X97970187Y-78020663D01*
X97970185Y-78020668D01*
X97947676Y-78088597D01*
X97915001Y-78187203D01*
X97915001Y-78187204D01*
X97915000Y-78187204D01*
X97904500Y-78289983D01*
X97904500Y-79630001D01*
X97904501Y-79630018D01*
X97915000Y-79732796D01*
X97915001Y-79732799D01*
X97954771Y-79852815D01*
X97970186Y-79899334D01*
X98062288Y-80048656D01*
X98186344Y-80172712D01*
X98335666Y-80264814D01*
X98335667Y-80264814D01*
X98335670Y-80264816D01*
X98336828Y-80265356D01*
X98337488Y-80265937D01*
X98341813Y-80268605D01*
X98341357Y-80269343D01*
X98389268Y-80311527D01*
X98408422Y-80378720D01*
X98388208Y-80445601D01*
X98372108Y-80465420D01*
X98230022Y-80607506D01*
X98103271Y-80781963D01*
X98005372Y-80974098D01*
X97938733Y-81179190D01*
X97927519Y-81250000D01*
X98957291Y-81250000D01*
X98945548Y-81270339D01*
X98905000Y-81421667D01*
X98905000Y-81578333D01*
X98945548Y-81729661D01*
X98957291Y-81750000D01*
X97927519Y-81750000D01*
X97938733Y-81820809D01*
X98005372Y-82025901D01*
X98103271Y-82218036D01*
X98230025Y-82392496D01*
X98230025Y-82392497D01*
X98382502Y-82544974D01*
X98553720Y-82669372D01*
X98596385Y-82724702D01*
X98602364Y-82794316D01*
X98569758Y-82856110D01*
X98553720Y-82870008D01*
X98382177Y-82994642D01*
X98229643Y-83147176D01*
X98229643Y-83147177D01*
X98229641Y-83147179D01*
X98175186Y-83222129D01*
X98102843Y-83321700D01*
X98091076Y-83344795D01*
X98043101Y-83395591D01*
X97980591Y-83412500D01*
X95929195Y-83412500D01*
X95807970Y-83436613D01*
X95807960Y-83436616D01*
X95693773Y-83483913D01*
X95693758Y-83483921D01*
X95648879Y-83513910D01*
X95648877Y-83513912D01*
X95590989Y-83552590D01*
X95590988Y-83552591D01*
X91039340Y-88104240D01*
X90978017Y-88137725D01*
X90908325Y-88132741D01*
X90852392Y-88090869D01*
X90827975Y-88025405D01*
X90827806Y-88020683D01*
X90826350Y-88004039D01*
X90807063Y-87783592D01*
X90745903Y-87555337D01*
X90646035Y-87341171D01*
X90609181Y-87288537D01*
X90510494Y-87147597D01*
X90343402Y-86980506D01*
X90343396Y-86980501D01*
X90157842Y-86850575D01*
X90114217Y-86795998D01*
X90107023Y-86726500D01*
X90138546Y-86664145D01*
X90157842Y-86647425D01*
X90180026Y-86631891D01*
X90343401Y-86517495D01*
X90510495Y-86350401D01*
X90646035Y-86156830D01*
X90745903Y-85942663D01*
X90807063Y-85714408D01*
X90827659Y-85479000D01*
X90807063Y-85243592D01*
X90745903Y-85015337D01*
X90646035Y-84801171D01*
X90621261Y-84765789D01*
X90510494Y-84607597D01*
X90343402Y-84440506D01*
X90343396Y-84440501D01*
X90157842Y-84310575D01*
X90114217Y-84255998D01*
X90107023Y-84186500D01*
X90138546Y-84124145D01*
X90157842Y-84107425D01*
X90254130Y-84040003D01*
X90343401Y-83977495D01*
X90510495Y-83810401D01*
X90646035Y-83616830D01*
X90745903Y-83402663D01*
X90807063Y-83174408D01*
X90827659Y-82939000D01*
X90807063Y-82703592D01*
X90745903Y-82475337D01*
X90646035Y-82261171D01*
X90587680Y-82177830D01*
X90510494Y-82067597D01*
X90343402Y-81900506D01*
X90343396Y-81900501D01*
X90157842Y-81770575D01*
X90114217Y-81715998D01*
X90107023Y-81646500D01*
X90138546Y-81584145D01*
X90157842Y-81567425D01*
X90197009Y-81540000D01*
X90343401Y-81437495D01*
X90510495Y-81270401D01*
X90646035Y-81076830D01*
X90745903Y-80862663D01*
X90807063Y-80634408D01*
X90827659Y-80399000D01*
X90825980Y-80379815D01*
X90815919Y-80264813D01*
X90807063Y-80163592D01*
X90755388Y-79970737D01*
X90745905Y-79935344D01*
X90745904Y-79935343D01*
X90745903Y-79935337D01*
X90646035Y-79721171D01*
X90622551Y-79687631D01*
X90510494Y-79527597D01*
X90343402Y-79360506D01*
X90343396Y-79360501D01*
X90157842Y-79230575D01*
X90114217Y-79175998D01*
X90107023Y-79106500D01*
X90138546Y-79044145D01*
X90157842Y-79027425D01*
X90242374Y-78968235D01*
X90343401Y-78897495D01*
X90510495Y-78730401D01*
X90646035Y-78536830D01*
X90745903Y-78322663D01*
X90807063Y-78094408D01*
X90827659Y-77859000D01*
X90807063Y-77623592D01*
X90745903Y-77395337D01*
X90646035Y-77181171D01*
X90645253Y-77180053D01*
X90510494Y-76987597D01*
X90343402Y-76820506D01*
X90343396Y-76820501D01*
X90157842Y-76690575D01*
X90114217Y-76635998D01*
X90107023Y-76566500D01*
X90138546Y-76504145D01*
X90157842Y-76487425D01*
X90180026Y-76471891D01*
X90343401Y-76357495D01*
X90510495Y-76190401D01*
X90646035Y-75996830D01*
X90745903Y-75782663D01*
X90807063Y-75554408D01*
X90827659Y-75319000D01*
X90807063Y-75083592D01*
X90751907Y-74877745D01*
X90745905Y-74855344D01*
X90745904Y-74855343D01*
X90745903Y-74855337D01*
X90646035Y-74641171D01*
X90621261Y-74605789D01*
X90510494Y-74447597D01*
X90343402Y-74280506D01*
X90343396Y-74280501D01*
X90157842Y-74150575D01*
X90114217Y-74095998D01*
X90107023Y-74026500D01*
X90138546Y-73964145D01*
X90157842Y-73947425D01*
X90254130Y-73880003D01*
X90343401Y-73817495D01*
X90510495Y-73650401D01*
X90646035Y-73456830D01*
X90745903Y-73242663D01*
X90807063Y-73014408D01*
X90827659Y-72779000D01*
X90807063Y-72543592D01*
X90745903Y-72315337D01*
X90646035Y-72101171D01*
X90630157Y-72078494D01*
X90510494Y-71907597D01*
X90343402Y-71740506D01*
X90343396Y-71740501D01*
X90157842Y-71610575D01*
X90114217Y-71555998D01*
X90107023Y-71486500D01*
X90138546Y-71424145D01*
X90157842Y-71407425D01*
X90180026Y-71391891D01*
X90343401Y-71277495D01*
X90510495Y-71110401D01*
X90646035Y-70916830D01*
X90745903Y-70702663D01*
X90807063Y-70474408D01*
X90827659Y-70239000D01*
X90807063Y-70003592D01*
X90745903Y-69775337D01*
X90646035Y-69561171D01*
X90587680Y-69477830D01*
X90510494Y-69367597D01*
X90343402Y-69200506D01*
X90343401Y-69200505D01*
X90157405Y-69070269D01*
X90113781Y-69015692D01*
X90106588Y-68946193D01*
X90138110Y-68883839D01*
X90157405Y-68867119D01*
X90343082Y-68737105D01*
X90510105Y-68570082D01*
X90645600Y-68376578D01*
X90745429Y-68162492D01*
X90745432Y-68162486D01*
X90802636Y-67949000D01*
X89905012Y-67949000D01*
X89937925Y-67891993D01*
X89972000Y-67764826D01*
X89972000Y-67633174D01*
X89937925Y-67506007D01*
X89905012Y-67449000D01*
X90802636Y-67449000D01*
X90802635Y-67448999D01*
X90745432Y-67235513D01*
X90745429Y-67235507D01*
X90645600Y-67021422D01*
X90645599Y-67021420D01*
X90510113Y-66827926D01*
X90510108Y-66827920D01*
X90388053Y-66705865D01*
X90354568Y-66644542D01*
X90359552Y-66574850D01*
X90401424Y-66518917D01*
X90432400Y-66502002D01*
X90564331Y-66452796D01*
X90679546Y-66366546D01*
X90765796Y-66251331D01*
X90816091Y-66116483D01*
X90822500Y-66056873D01*
X90822500Y-66037500D01*
X90842185Y-65970461D01*
X90894989Y-65924706D01*
X90946500Y-65913500D01*
X91871500Y-65913500D01*
X91938539Y-65933185D01*
G37*
G04 #@! TD.AperFunction*
G04 #@! TA.AperFunction,Conductor*
G36*
X170481012Y-37462583D02*
G01*
X170547968Y-37482543D01*
X170593505Y-37535535D01*
X170604500Y-37586582D01*
X170604500Y-129332500D01*
X170584815Y-129399539D01*
X170532011Y-129445294D01*
X170480500Y-129456500D01*
X78989861Y-129456500D01*
X78922822Y-129436815D01*
X78877067Y-129384011D01*
X78865863Y-129333183D01*
X78859249Y-128129448D01*
X123612000Y-128129448D01*
X124233447Y-127508000D01*
X124233447Y-127507999D01*
X123612000Y-126886551D01*
X123612000Y-128129448D01*
X78859249Y-128129448D01*
X78841503Y-124899711D01*
X80953500Y-124899711D01*
X80953500Y-125142288D01*
X80970219Y-125269288D01*
X80985162Y-125382789D01*
X81003360Y-125450706D01*
X81047947Y-125617104D01*
X81121521Y-125794727D01*
X81140776Y-125841212D01*
X81262064Y-126051289D01*
X81262066Y-126051292D01*
X81262067Y-126051293D01*
X81409733Y-126243736D01*
X81409739Y-126243743D01*
X81581256Y-126415260D01*
X81581263Y-126415266D01*
X81694321Y-126502018D01*
X81773711Y-126562936D01*
X81983788Y-126684224D01*
X82207900Y-126777054D01*
X82442211Y-126839838D01*
X82620008Y-126863245D01*
X82682711Y-126871500D01*
X82682712Y-126871500D01*
X82925289Y-126871500D01*
X82987992Y-126863245D01*
X83165789Y-126839838D01*
X83400100Y-126777054D01*
X83624212Y-126684224D01*
X83834289Y-126562936D01*
X84026738Y-126415265D01*
X84089205Y-126352798D01*
X123785350Y-126352798D01*
X123785350Y-126352799D01*
X124362000Y-126929449D01*
X124362000Y-128086551D01*
X123785350Y-128663200D01*
X123785350Y-128663201D01*
X123829667Y-128729526D01*
X123829670Y-128729530D01*
X123965469Y-128865329D01*
X123965473Y-128865332D01*
X124125157Y-128972030D01*
X124125166Y-128972035D01*
X124302602Y-129045531D01*
X124302610Y-129045533D01*
X124490966Y-129082999D01*
X124490970Y-129083000D01*
X124683030Y-129083000D01*
X124683033Y-129082999D01*
X124871389Y-129045533D01*
X124871397Y-129045531D01*
X125048833Y-128972035D01*
X125048842Y-128972030D01*
X125208526Y-128865332D01*
X125208530Y-128865329D01*
X125344330Y-128729529D01*
X125388648Y-128663201D01*
X125388648Y-128663199D01*
X124812000Y-128086551D01*
X124812000Y-127507999D01*
X124940552Y-127507999D01*
X124940552Y-127508000D01*
X125561999Y-128129448D01*
X132512000Y-128129448D01*
X133133447Y-127508000D01*
X133133447Y-127507999D01*
X132512000Y-126886551D01*
X132512000Y-128129448D01*
X125561999Y-128129448D01*
X125562000Y-128129447D01*
X125562000Y-126886552D01*
X125561999Y-126886551D01*
X124940552Y-127507999D01*
X124812000Y-127507999D01*
X124812000Y-126929446D01*
X125388648Y-126352798D01*
X125388648Y-126352797D01*
X125344332Y-126286473D01*
X125344329Y-126286469D01*
X125208530Y-126150670D01*
X125208526Y-126150667D01*
X125048842Y-126043969D01*
X125048833Y-126043964D01*
X124876449Y-125972561D01*
X124822046Y-125928720D01*
X124799981Y-125862426D01*
X124817260Y-125794727D01*
X124868397Y-125747116D01*
X124876449Y-125743439D01*
X125048833Y-125672035D01*
X125048842Y-125672030D01*
X125208526Y-125565332D01*
X125208530Y-125565329D01*
X125344334Y-125429525D01*
X125348594Y-125423147D01*
X125348593Y-125423144D01*
X124802101Y-124876652D01*
X124812000Y-124852755D01*
X124812000Y-124307999D01*
X124940552Y-124307999D01*
X124940552Y-124308000D01*
X125557782Y-124925230D01*
X125557782Y-124925229D01*
X125562000Y-124904029D01*
X125562000Y-123711974D01*
X125557781Y-123690769D01*
X124940552Y-124307999D01*
X124812000Y-124307999D01*
X124812000Y-123763245D01*
X124802100Y-123739345D01*
X125348593Y-123192853D01*
X125344332Y-123186474D01*
X125208525Y-123050666D01*
X125048842Y-122943969D01*
X125048833Y-122943964D01*
X124871397Y-122870468D01*
X124871389Y-122870466D01*
X124683033Y-122833000D01*
X124490966Y-122833000D01*
X124302610Y-122870466D01*
X124302602Y-122870468D01*
X124125166Y-122943964D01*
X124125157Y-122943969D01*
X123965474Y-123050666D01*
X123829663Y-123186478D01*
X123825404Y-123192851D01*
X123825404Y-123192854D01*
X124371898Y-123739348D01*
X124362000Y-123763245D01*
X124362000Y-124852755D01*
X124371898Y-124876652D01*
X123825404Y-125423146D01*
X123829663Y-125429521D01*
X123965474Y-125565333D01*
X124125157Y-125672030D01*
X124125167Y-125672035D01*
X124297550Y-125743439D01*
X124351953Y-125787280D01*
X124374018Y-125853574D01*
X124356739Y-125921274D01*
X124305601Y-125968884D01*
X124297550Y-125972561D01*
X124125167Y-126043964D01*
X124125157Y-126043969D01*
X123965473Y-126150667D01*
X123965469Y-126150670D01*
X123829670Y-126286469D01*
X123829667Y-126286473D01*
X123785350Y-126352798D01*
X84089205Y-126352798D01*
X84198265Y-126243738D01*
X84345936Y-126051289D01*
X84467224Y-125841212D01*
X84560054Y-125617100D01*
X84622838Y-125382789D01*
X84654500Y-125142288D01*
X84654500Y-124899712D01*
X84622838Y-124659211D01*
X84560054Y-124424900D01*
X84467224Y-124200788D01*
X84345936Y-123990711D01*
X84198265Y-123798262D01*
X84198260Y-123798256D01*
X84111976Y-123711972D01*
X123612000Y-123711972D01*
X123612000Y-124904033D01*
X123616216Y-124925230D01*
X123616217Y-124925230D01*
X124233447Y-124308001D01*
X124233447Y-124307999D01*
X123616217Y-123690768D01*
X123612000Y-123711972D01*
X84111976Y-123711972D01*
X84026743Y-123626739D01*
X84026736Y-123626733D01*
X83834293Y-123479067D01*
X83834292Y-123479066D01*
X83834289Y-123479064D01*
X83624212Y-123357776D01*
X83624205Y-123357773D01*
X83400104Y-123264947D01*
X83165785Y-123202161D01*
X82925289Y-123170500D01*
X82925288Y-123170500D01*
X82682712Y-123170500D01*
X82682711Y-123170500D01*
X82442214Y-123202161D01*
X82207895Y-123264947D01*
X81983794Y-123357773D01*
X81983785Y-123357777D01*
X81773706Y-123479067D01*
X81581263Y-123626733D01*
X81581256Y-123626739D01*
X81409739Y-123798256D01*
X81409733Y-123798263D01*
X81262067Y-123990706D01*
X81140777Y-124200785D01*
X81140773Y-124200794D01*
X81047947Y-124424895D01*
X80985161Y-124659214D01*
X80953500Y-124899711D01*
X78841503Y-124899711D01*
X78696450Y-98499996D01*
X81694435Y-98499996D01*
X81694435Y-98500003D01*
X81714630Y-98679249D01*
X81714631Y-98679254D01*
X81774211Y-98849523D01*
X81867341Y-98997737D01*
X81870184Y-99002262D01*
X81997738Y-99129816D01*
X82150478Y-99225789D01*
X82305401Y-99279999D01*
X82320745Y-99285368D01*
X82320750Y-99285369D01*
X82499996Y-99305565D01*
X82500000Y-99305565D01*
X82500004Y-99305565D01*
X82679249Y-99285369D01*
X82679252Y-99285368D01*
X82679255Y-99285368D01*
X82849522Y-99225789D01*
X83002262Y-99129816D01*
X83129816Y-99002262D01*
X83216360Y-98864527D01*
X83268695Y-98818237D01*
X83321354Y-98806500D01*
X88198173Y-98806500D01*
X88265212Y-98826185D01*
X88299748Y-98859376D01*
X88433505Y-99050401D01*
X88600597Y-99217493D01*
X88600603Y-99217498D01*
X88786158Y-99347425D01*
X88829783Y-99402002D01*
X88836977Y-99471500D01*
X88805454Y-99533855D01*
X88786158Y-99550575D01*
X88600597Y-99680505D01*
X88433505Y-99847597D01*
X88297965Y-100041169D01*
X88297964Y-100041171D01*
X88198098Y-100255335D01*
X88198094Y-100255344D01*
X88136938Y-100483586D01*
X88136936Y-100483596D01*
X88116341Y-100718999D01*
X88116341Y-100719000D01*
X88136936Y-100954403D01*
X88136938Y-100954413D01*
X88198094Y-101182655D01*
X88198096Y-101182659D01*
X88198097Y-101182663D01*
X88279082Y-101356335D01*
X88297965Y-101396830D01*
X88297967Y-101396834D01*
X88360652Y-101486356D01*
X88429437Y-101584592D01*
X88433501Y-101590395D01*
X88433506Y-101590402D01*
X88600597Y-101757493D01*
X88600603Y-101757498D01*
X88786158Y-101887425D01*
X88829783Y-101942002D01*
X88836977Y-102011500D01*
X88805454Y-102073855D01*
X88786158Y-102090575D01*
X88600597Y-102220505D01*
X88433505Y-102387597D01*
X88297965Y-102581169D01*
X88297964Y-102581171D01*
X88198098Y-102795335D01*
X88198094Y-102795344D01*
X88136938Y-103023586D01*
X88136936Y-103023596D01*
X88116341Y-103258999D01*
X88116341Y-103259000D01*
X88136936Y-103494403D01*
X88136938Y-103494413D01*
X88198094Y-103722655D01*
X88198096Y-103722659D01*
X88198097Y-103722663D01*
X88279082Y-103896335D01*
X88297965Y-103936830D01*
X88297967Y-103936834D01*
X88360652Y-104026356D01*
X88429437Y-104124592D01*
X88433501Y-104130395D01*
X88433506Y-104130402D01*
X88600597Y-104297493D01*
X88600603Y-104297498D01*
X88786158Y-104427425D01*
X88829783Y-104482002D01*
X88836977Y-104551500D01*
X88805454Y-104613855D01*
X88786158Y-104630575D01*
X88600597Y-104760505D01*
X88433505Y-104927597D01*
X88297965Y-105121169D01*
X88297964Y-105121171D01*
X88198098Y-105335335D01*
X88198094Y-105335344D01*
X88136938Y-105563586D01*
X88136936Y-105563596D01*
X88116341Y-105798999D01*
X88116341Y-105799000D01*
X88136936Y-106034403D01*
X88136938Y-106034413D01*
X88198094Y-106262655D01*
X88198096Y-106262659D01*
X88198097Y-106262663D01*
X88260509Y-106396506D01*
X88297965Y-106476830D01*
X88297967Y-106476834D01*
X88370294Y-106580127D01*
X88429437Y-106664592D01*
X88433501Y-106670395D01*
X88433506Y-106670402D01*
X88600597Y-106837493D01*
X88600603Y-106837498D01*
X88786158Y-106967425D01*
X88829783Y-107022002D01*
X88836977Y-107091500D01*
X88805454Y-107153855D01*
X88786158Y-107170575D01*
X88600597Y-107300505D01*
X88433505Y-107467597D01*
X88297965Y-107661169D01*
X88297964Y-107661171D01*
X88198098Y-107875335D01*
X88198094Y-107875344D01*
X88136938Y-108103586D01*
X88136936Y-108103596D01*
X88116341Y-108338999D01*
X88116341Y-108339000D01*
X88136936Y-108574403D01*
X88136938Y-108574413D01*
X88198094Y-108802655D01*
X88198096Y-108802659D01*
X88198097Y-108802663D01*
X88277760Y-108973500D01*
X88297965Y-109016830D01*
X88297967Y-109016834D01*
X88406281Y-109171521D01*
X88429437Y-109204592D01*
X88433501Y-109210395D01*
X88433506Y-109210402D01*
X88600597Y-109377493D01*
X88600603Y-109377498D01*
X88786158Y-109507425D01*
X88829783Y-109562002D01*
X88836977Y-109631500D01*
X88805454Y-109693855D01*
X88786158Y-109710575D01*
X88600597Y-109840505D01*
X88433505Y-110007597D01*
X88297965Y-110201169D01*
X88297964Y-110201171D01*
X88198098Y-110415335D01*
X88198094Y-110415344D01*
X88136938Y-110643586D01*
X88136936Y-110643596D01*
X88116341Y-110878999D01*
X88116341Y-110879000D01*
X88136936Y-111114403D01*
X88136938Y-111114413D01*
X88198094Y-111342655D01*
X88198096Y-111342659D01*
X88198097Y-111342663D01*
X88224839Y-111400011D01*
X88297965Y-111556830D01*
X88297967Y-111556834D01*
X88433501Y-111750395D01*
X88433506Y-111750402D01*
X88600597Y-111917493D01*
X88600603Y-111917498D01*
X88786158Y-112047425D01*
X88829783Y-112102002D01*
X88836977Y-112171500D01*
X88805454Y-112233855D01*
X88786158Y-112250575D01*
X88600597Y-112380505D01*
X88433505Y-112547597D01*
X88297965Y-112741169D01*
X88297964Y-112741171D01*
X88198098Y-112955335D01*
X88198094Y-112955344D01*
X88136938Y-113183586D01*
X88136936Y-113183596D01*
X88116341Y-113418999D01*
X88116341Y-113419000D01*
X88136936Y-113654403D01*
X88136938Y-113654413D01*
X88198094Y-113882655D01*
X88198096Y-113882659D01*
X88198097Y-113882663D01*
X88198287Y-113883070D01*
X88297965Y-114096830D01*
X88297967Y-114096834D01*
X88380450Y-114214631D01*
X88433505Y-114290401D01*
X88600599Y-114457495D01*
X88658072Y-114497738D01*
X88794165Y-114593032D01*
X88794167Y-114593033D01*
X88794170Y-114593035D01*
X89008337Y-114692903D01*
X89236592Y-114754063D01*
X89424918Y-114770539D01*
X89471999Y-114774659D01*
X89472000Y-114774659D01*
X89472001Y-114774659D01*
X89511234Y-114771226D01*
X89707408Y-114754063D01*
X89935663Y-114692903D01*
X90149830Y-114593035D01*
X90343401Y-114457495D01*
X90510495Y-114290401D01*
X90644252Y-114099375D01*
X90698829Y-114055752D01*
X90745827Y-114046500D01*
X95363060Y-114046500D01*
X95430099Y-114066185D01*
X95450741Y-114082819D01*
X95497738Y-114129816D01*
X95573709Y-114177552D01*
X95632721Y-114214632D01*
X95650478Y-114225789D01*
X95788860Y-114274211D01*
X95820745Y-114285368D01*
X95820750Y-114285369D01*
X95999996Y-114305565D01*
X96000000Y-114305565D01*
X96000004Y-114305565D01*
X96179249Y-114285369D01*
X96179252Y-114285368D01*
X96179255Y-114285368D01*
X96349522Y-114225789D01*
X96502262Y-114129816D01*
X96629816Y-114002262D01*
X96725789Y-113849522D01*
X96785368Y-113679255D01*
X96785369Y-113679249D01*
X96805565Y-113500003D01*
X96805565Y-113499996D01*
X96785369Y-113320750D01*
X96785368Y-113320745D01*
X96738760Y-113187547D01*
X96725789Y-113150478D01*
X96629816Y-112997738D01*
X96502262Y-112870184D01*
X96349523Y-112774211D01*
X96179254Y-112714631D01*
X96179249Y-112714630D01*
X96000004Y-112694435D01*
X95999996Y-112694435D01*
X95820750Y-112714630D01*
X95820745Y-112714631D01*
X95650470Y-112774213D01*
X95644205Y-112777231D01*
X95643298Y-112775349D01*
X95587238Y-112791500D01*
X90745826Y-112791500D01*
X90678787Y-112771815D01*
X90644251Y-112738623D01*
X90510494Y-112547597D01*
X90343402Y-112380506D01*
X90343396Y-112380501D01*
X90157842Y-112250575D01*
X90114217Y-112195998D01*
X90107023Y-112126500D01*
X90138546Y-112064145D01*
X90157842Y-112047425D01*
X90180026Y-112031891D01*
X90343401Y-111917495D01*
X90510495Y-111750401D01*
X90646035Y-111556830D01*
X90745903Y-111342663D01*
X90807063Y-111114408D01*
X90827659Y-110879000D01*
X90807063Y-110643592D01*
X90756206Y-110453788D01*
X90745905Y-110415344D01*
X90745904Y-110415343D01*
X90745903Y-110415337D01*
X90646035Y-110201171D01*
X90639294Y-110191543D01*
X90510494Y-110007597D01*
X90343402Y-109840506D01*
X90343396Y-109840501D01*
X90157842Y-109710575D01*
X90114217Y-109655998D01*
X90107023Y-109586500D01*
X90138546Y-109524145D01*
X90157842Y-109507425D01*
X90218321Y-109465077D01*
X90343401Y-109377495D01*
X90510495Y-109210401D01*
X90646035Y-109016830D01*
X90745903Y-108802663D01*
X90807063Y-108574408D01*
X90827659Y-108339000D01*
X90807063Y-108103592D01*
X90745903Y-107875337D01*
X90646035Y-107661171D01*
X90618958Y-107622500D01*
X90510494Y-107467597D01*
X90343402Y-107300506D01*
X90343396Y-107300501D01*
X90157842Y-107170575D01*
X90114217Y-107115998D01*
X90107023Y-107046500D01*
X90138546Y-106984145D01*
X90157842Y-106967425D01*
X90186341Y-106947470D01*
X90343401Y-106837495D01*
X90510495Y-106670401D01*
X90646035Y-106476830D01*
X90745903Y-106262663D01*
X90807063Y-106034408D01*
X90827659Y-105799000D01*
X90807063Y-105563592D01*
X90745903Y-105335337D01*
X90646035Y-105121171D01*
X90644982Y-105119666D01*
X90510494Y-104927597D01*
X90343402Y-104760506D01*
X90343396Y-104760501D01*
X90157842Y-104630575D01*
X90114217Y-104575998D01*
X90107023Y-104506500D01*
X90138546Y-104444145D01*
X90157842Y-104427425D01*
X90180026Y-104411891D01*
X90343401Y-104297495D01*
X90510495Y-104130401D01*
X90646035Y-103936830D01*
X90745903Y-103722663D01*
X90807063Y-103494408D01*
X90827659Y-103259000D01*
X90807063Y-103023592D01*
X90745903Y-102795337D01*
X90646035Y-102581171D01*
X90596207Y-102510008D01*
X90510494Y-102387597D01*
X90343402Y-102220506D01*
X90343396Y-102220501D01*
X90157842Y-102090575D01*
X90114217Y-102035998D01*
X90107023Y-101966500D01*
X90138546Y-101904145D01*
X90157842Y-101887425D01*
X90190771Y-101864368D01*
X90343401Y-101757495D01*
X90510495Y-101590401D01*
X90646035Y-101396830D01*
X90745903Y-101182663D01*
X90807063Y-100954408D01*
X90827659Y-100719000D01*
X90807063Y-100483592D01*
X90745903Y-100255337D01*
X90646035Y-100041171D01*
X90587680Y-99957830D01*
X90510494Y-99847597D01*
X90343402Y-99680506D01*
X90343396Y-99680501D01*
X90157842Y-99550575D01*
X90114217Y-99495998D01*
X90107023Y-99426500D01*
X90138546Y-99364145D01*
X90157842Y-99347425D01*
X90246468Y-99285368D01*
X90343401Y-99217495D01*
X90510495Y-99050401D01*
X90646035Y-98856830D01*
X90745903Y-98642663D01*
X90807063Y-98414408D01*
X90827659Y-98179000D01*
X90807063Y-97943592D01*
X90745903Y-97715337D01*
X90646035Y-97501171D01*
X90628264Y-97475790D01*
X90510494Y-97307597D01*
X90343402Y-97140506D01*
X90343396Y-97140501D01*
X90157842Y-97010575D01*
X90114217Y-96955998D01*
X90107023Y-96886500D01*
X90138546Y-96824145D01*
X90157842Y-96807425D01*
X90189341Y-96785369D01*
X90343401Y-96677495D01*
X90510495Y-96510401D01*
X90646035Y-96316830D01*
X90745903Y-96102663D01*
X90807063Y-95874408D01*
X90827659Y-95639000D01*
X90807063Y-95403592D01*
X90745903Y-95175337D01*
X90646035Y-94961171D01*
X90587680Y-94877830D01*
X90510494Y-94767597D01*
X90343402Y-94600506D01*
X90343396Y-94600501D01*
X90157842Y-94470575D01*
X90114217Y-94415998D01*
X90107023Y-94346500D01*
X90138546Y-94284145D01*
X90157842Y-94267425D01*
X90242148Y-94208393D01*
X90343401Y-94137495D01*
X90510495Y-93970401D01*
X90646035Y-93776830D01*
X90745903Y-93562663D01*
X90807063Y-93334408D01*
X90827659Y-93099000D01*
X90807063Y-92863592D01*
X90786103Y-92785368D01*
X90780741Y-92765356D01*
X90782404Y-92695506D01*
X90812833Y-92645584D01*
X95237411Y-88221008D01*
X95255166Y-88194435D01*
X95306083Y-88118233D01*
X95353385Y-88004035D01*
X95364070Y-87950318D01*
X95377500Y-87882805D01*
X95377500Y-87811281D01*
X95397185Y-87744242D01*
X95413819Y-87723600D01*
X95893600Y-87243819D01*
X95954923Y-87210334D01*
X95981281Y-87207500D01*
X97980591Y-87207500D01*
X98047630Y-87227185D01*
X98091076Y-87275205D01*
X98102843Y-87298299D01*
X98229641Y-87472821D01*
X98382179Y-87625359D01*
X98468668Y-87688197D01*
X98553294Y-87749682D01*
X98595959Y-87805012D01*
X98601938Y-87874626D01*
X98569332Y-87936421D01*
X98553294Y-87950318D01*
X98382179Y-88074641D01*
X98382177Y-88074643D01*
X98382176Y-88074643D01*
X98229643Y-88227176D01*
X98229643Y-88227177D01*
X98229641Y-88227179D01*
X98195471Y-88274210D01*
X98102843Y-88401700D01*
X98091076Y-88424795D01*
X98043101Y-88475591D01*
X97980591Y-88492500D01*
X95938195Y-88492500D01*
X95816970Y-88516613D01*
X95816960Y-88516616D01*
X95702773Y-88563913D01*
X95702760Y-88563920D01*
X95599992Y-88632588D01*
X95599988Y-88632591D01*
X95512591Y-88719988D01*
X95512588Y-88719992D01*
X95443920Y-88822760D01*
X95443913Y-88822773D01*
X95396616Y-88936960D01*
X95396613Y-88936970D01*
X95372500Y-89058194D01*
X95372500Y-111061807D01*
X95396612Y-111183027D01*
X95396615Y-111183039D01*
X95414204Y-111225501D01*
X95443916Y-111297231D01*
X95443918Y-111297235D01*
X95481118Y-111352910D01*
X95481123Y-111352915D01*
X95512587Y-111400006D01*
X95512591Y-111400011D01*
X106497589Y-122385008D01*
X106565853Y-122453272D01*
X106584994Y-122472413D01*
X106584996Y-122472414D01*
X106586575Y-122473469D01*
X106687767Y-122541083D01*
X106721215Y-122554937D01*
X106801965Y-122588386D01*
X106923192Y-122612499D01*
X106923196Y-122612500D01*
X106923197Y-122612500D01*
X119635569Y-122612500D01*
X119635570Y-122612499D01*
X119756800Y-122588386D01*
X119837549Y-122554937D01*
X119870998Y-122541083D01*
X119973773Y-122472411D01*
X120061176Y-122385008D01*
X124636819Y-117809365D01*
X124698142Y-117775880D01*
X124767834Y-117780864D01*
X124823767Y-117822736D01*
X124848184Y-117888200D01*
X124848500Y-117897046D01*
X124848500Y-119091459D01*
X124841542Y-119132414D01*
X124817631Y-119200745D01*
X124817630Y-119200750D01*
X124797435Y-119379996D01*
X124797435Y-119380003D01*
X124817630Y-119559249D01*
X124817631Y-119559254D01*
X124877211Y-119729523D01*
X124973184Y-119882262D01*
X125100738Y-120009816D01*
X125253478Y-120105789D01*
X125423745Y-120165368D01*
X125423750Y-120165369D01*
X125602996Y-120185565D01*
X125603000Y-120185565D01*
X125603004Y-120185565D01*
X125782249Y-120165369D01*
X125782252Y-120165368D01*
X125782255Y-120165368D01*
X125952522Y-120105789D01*
X126105262Y-120009816D01*
X126232816Y-119882262D01*
X126328789Y-119729522D01*
X126388368Y-119559255D01*
X126394871Y-119501542D01*
X126408565Y-119380003D01*
X126408565Y-119379996D01*
X126388369Y-119200750D01*
X126388368Y-119200745D01*
X126364458Y-119132414D01*
X126357500Y-119091459D01*
X126357500Y-117719886D01*
X126377185Y-117652847D01*
X126393815Y-117632209D01*
X127084874Y-116941150D01*
X127106571Y-116923845D01*
X127248262Y-116834816D01*
X127375816Y-116707262D01*
X127471789Y-116554522D01*
X127531368Y-116384255D01*
X127532817Y-116371399D01*
X127551565Y-116205003D01*
X127551565Y-116204996D01*
X127531369Y-116025750D01*
X127531368Y-116025745D01*
X127471788Y-115855476D01*
X127375815Y-115702737D01*
X127248262Y-115575184D01*
X127148234Y-115512332D01*
X127101943Y-115459997D01*
X127091295Y-115390943D01*
X127119670Y-115327095D01*
X127126510Y-115319672D01*
X127609365Y-114836819D01*
X127670688Y-114803334D01*
X127697046Y-114800500D01*
X127887724Y-114800500D01*
X127954763Y-114820185D01*
X128000518Y-114872989D01*
X128010462Y-114942147D01*
X128004766Y-114965454D01*
X127948632Y-115125875D01*
X127948630Y-115125883D01*
X127928435Y-115305129D01*
X127928435Y-115305136D01*
X127948630Y-115484382D01*
X127948631Y-115484387D01*
X128008211Y-115654656D01*
X128104184Y-115807395D01*
X128231738Y-115934949D01*
X128275472Y-115962429D01*
X128321761Y-116014760D01*
X128333499Y-116067421D01*
X128333499Y-125337912D01*
X128313814Y-125404951D01*
X128261010Y-125450706D01*
X128250453Y-125454954D01*
X128160977Y-125486262D01*
X128008236Y-125582236D01*
X127880683Y-125709789D01*
X127784710Y-125862528D01*
X127725130Y-126032797D01*
X127725129Y-126032802D01*
X127704934Y-126212048D01*
X127704934Y-126212055D01*
X127725129Y-126391301D01*
X127725130Y-126391306D01*
X127784710Y-126561575D01*
X127854100Y-126672007D01*
X127880683Y-126714314D01*
X128008237Y-126841868D01*
X128055396Y-126871500D01*
X128130205Y-126918506D01*
X128160977Y-126937841D01*
X128269424Y-126975788D01*
X128271122Y-126976382D01*
X128327898Y-127017104D01*
X128347209Y-127052467D01*
X128354700Y-127073874D01*
X128385752Y-127162617D01*
X128481725Y-127315356D01*
X128609279Y-127442910D01*
X128762019Y-127538883D01*
X128932286Y-127598462D01*
X128932291Y-127598463D01*
X129111537Y-127618659D01*
X129111541Y-127618659D01*
X129111545Y-127618659D01*
X129290790Y-127598463D01*
X129290793Y-127598462D01*
X129290796Y-127598462D01*
X129461063Y-127538883D01*
X129613803Y-127442910D01*
X129741357Y-127315356D01*
X129837330Y-127162616D01*
X129839593Y-127156147D01*
X129880310Y-127099369D01*
X129942753Y-127073874D01*
X130026484Y-127064440D01*
X130089249Y-127057369D01*
X130089252Y-127057368D01*
X130089255Y-127057368D01*
X130259522Y-126997789D01*
X130385700Y-126918505D01*
X130451672Y-126899500D01*
X131051805Y-126899500D01*
X131150764Y-126879815D01*
X131173035Y-126875385D01*
X131287233Y-126828083D01*
X131390008Y-126759411D01*
X131477411Y-126672008D01*
X131546083Y-126569233D01*
X131549256Y-126561574D01*
X131593383Y-126455039D01*
X131593385Y-126455035D01*
X131607244Y-126385361D01*
X131613722Y-126352798D01*
X132685350Y-126352798D01*
X132685350Y-126352799D01*
X133262000Y-126929449D01*
X133262000Y-128086551D01*
X132685350Y-128663200D01*
X132685350Y-128663201D01*
X132729667Y-128729526D01*
X132729670Y-128729530D01*
X132865469Y-128865329D01*
X132865473Y-128865332D01*
X133025157Y-128972030D01*
X133025166Y-128972035D01*
X133202602Y-129045531D01*
X133202610Y-129045533D01*
X133390966Y-129082999D01*
X133390970Y-129083000D01*
X133583030Y-129083000D01*
X133583033Y-129082999D01*
X133771389Y-129045533D01*
X133771397Y-129045531D01*
X133948833Y-128972035D01*
X133948842Y-128972030D01*
X134108526Y-128865332D01*
X134108530Y-128865329D01*
X134244330Y-128729529D01*
X134288648Y-128663201D01*
X134288648Y-128663199D01*
X133712000Y-128086551D01*
X133712000Y-127507999D01*
X133840552Y-127507999D01*
X133840552Y-127508000D01*
X134461999Y-128129448D01*
X134462000Y-128129447D01*
X134462000Y-126886552D01*
X134461999Y-126886551D01*
X133840552Y-127507999D01*
X133712000Y-127507999D01*
X133712000Y-126929446D01*
X134288648Y-126352798D01*
X134288648Y-126352797D01*
X134244332Y-126286473D01*
X134244329Y-126286469D01*
X134108530Y-126150670D01*
X134108526Y-126150667D01*
X133948842Y-126043969D01*
X133948833Y-126043964D01*
X133776449Y-125972561D01*
X133722046Y-125928720D01*
X133699981Y-125862426D01*
X133717260Y-125794727D01*
X133768397Y-125747116D01*
X133776449Y-125743439D01*
X133948833Y-125672035D01*
X133948842Y-125672030D01*
X134108526Y-125565332D01*
X134108530Y-125565329D01*
X134244334Y-125429525D01*
X134248594Y-125423147D01*
X134248593Y-125423144D01*
X133702101Y-124876652D01*
X133712000Y-124852755D01*
X133712000Y-124307999D01*
X133840552Y-124307999D01*
X133840552Y-124308000D01*
X134457782Y-124925230D01*
X134457782Y-124925229D01*
X134462000Y-124904029D01*
X134462000Y-123711974D01*
X134457781Y-123690769D01*
X133840552Y-124307999D01*
X133712000Y-124307999D01*
X133712000Y-123763245D01*
X133702100Y-123739345D01*
X134248593Y-123192853D01*
X134244332Y-123186474D01*
X134108525Y-123050666D01*
X133948842Y-122943969D01*
X133948833Y-122943964D01*
X133771397Y-122870468D01*
X133771389Y-122870466D01*
X133583033Y-122833000D01*
X133390966Y-122833000D01*
X133202610Y-122870466D01*
X133202602Y-122870468D01*
X133025166Y-122943964D01*
X133025157Y-122943969D01*
X132865474Y-123050666D01*
X132729663Y-123186478D01*
X132725404Y-123192851D01*
X132725404Y-123192854D01*
X133271898Y-123739348D01*
X133262000Y-123763245D01*
X133262000Y-124852755D01*
X133271898Y-124876652D01*
X132725404Y-125423146D01*
X132729663Y-125429521D01*
X132865474Y-125565333D01*
X133025157Y-125672030D01*
X133025167Y-125672035D01*
X133197550Y-125743439D01*
X133251953Y-125787280D01*
X133274018Y-125853574D01*
X133256739Y-125921274D01*
X133205601Y-125968884D01*
X133197550Y-125972561D01*
X133025167Y-126043964D01*
X133025157Y-126043969D01*
X132865473Y-126150667D01*
X132865469Y-126150670D01*
X132729670Y-126286469D01*
X132729667Y-126286473D01*
X132685350Y-126352798D01*
X131613722Y-126352798D01*
X131617500Y-126333805D01*
X131617500Y-123711972D01*
X132512000Y-123711972D01*
X132512000Y-124904033D01*
X132516216Y-124925230D01*
X132516217Y-124925230D01*
X133133447Y-124308001D01*
X133133447Y-124307999D01*
X132516217Y-123690768D01*
X132512000Y-123711972D01*
X131617500Y-123711972D01*
X131617500Y-123670194D01*
X131593386Y-123548970D01*
X131593385Y-123548969D01*
X131593385Y-123548965D01*
X131566798Y-123484777D01*
X131546086Y-123434773D01*
X131546079Y-123434760D01*
X131477412Y-123331993D01*
X131442919Y-123297500D01*
X131390008Y-123244589D01*
X131160348Y-123014929D01*
X131130987Y-122968202D01*
X131110381Y-122909313D01*
X131014408Y-122756574D01*
X130886855Y-122629021D01*
X130734116Y-122533048D01*
X130563847Y-122473468D01*
X130563842Y-122473467D01*
X130384597Y-122453272D01*
X130384589Y-122453272D01*
X130205343Y-122473467D01*
X130205338Y-122473468D01*
X130149456Y-122493023D01*
X130079677Y-122496584D01*
X130019049Y-122461855D01*
X129986822Y-122399862D01*
X129984501Y-122375981D01*
X129984501Y-116067421D01*
X130004186Y-116000382D01*
X130042526Y-115962429D01*
X130086262Y-115934949D01*
X130213816Y-115807395D01*
X130309789Y-115654655D01*
X130369368Y-115484388D01*
X130369369Y-115484382D01*
X130389565Y-115305136D01*
X130389565Y-115305131D01*
X130385505Y-115269101D01*
X130397559Y-115200279D01*
X130444908Y-115148899D01*
X130512518Y-115131274D01*
X130578924Y-115153000D01*
X130596406Y-115167535D01*
X139451278Y-124022408D01*
X139451282Y-124022411D01*
X139554050Y-124091079D01*
X139554063Y-124091086D01*
X139618343Y-124117711D01*
X139668255Y-124138385D01*
X139668259Y-124138385D01*
X139668260Y-124138386D01*
X139789483Y-124162500D01*
X139789486Y-124162500D01*
X139789487Y-124162500D01*
X155723719Y-124162500D01*
X155790758Y-124182185D01*
X155811400Y-124198819D01*
X157924146Y-126311565D01*
X157957631Y-126372888D01*
X157959685Y-126385361D01*
X157964630Y-126429249D01*
X158024210Y-126599521D01*
X158077433Y-126684224D01*
X158120184Y-126752262D01*
X158247738Y-126879816D01*
X158286313Y-126904054D01*
X158386232Y-126966838D01*
X158400478Y-126975789D01*
X158570745Y-127035368D01*
X158570750Y-127035369D01*
X158749996Y-127055565D01*
X158750000Y-127055565D01*
X158750004Y-127055565D01*
X158929249Y-127035369D01*
X158929252Y-127035368D01*
X158929255Y-127035368D01*
X159099522Y-126975789D01*
X159252262Y-126879816D01*
X159379816Y-126752262D01*
X159475789Y-126599522D01*
X159535368Y-126429255D01*
X159536944Y-126415266D01*
X159555565Y-126250003D01*
X159555565Y-126249996D01*
X159535369Y-126070750D01*
X159535368Y-126070745D01*
X159475788Y-125900476D01*
X159379815Y-125747737D01*
X159252262Y-125620184D01*
X159099521Y-125524210D01*
X158929249Y-125464630D01*
X158885361Y-125459685D01*
X158820947Y-125432617D01*
X158811565Y-125424146D01*
X158414130Y-125026711D01*
X164826500Y-125026711D01*
X164826500Y-125269288D01*
X164858161Y-125509785D01*
X164920947Y-125744104D01*
X164997418Y-125928720D01*
X165013776Y-125968212D01*
X165135064Y-126178289D01*
X165135066Y-126178292D01*
X165135067Y-126178293D01*
X165282733Y-126370736D01*
X165282739Y-126370743D01*
X165454256Y-126542260D01*
X165454262Y-126542265D01*
X165646711Y-126689936D01*
X165856788Y-126811224D01*
X166080900Y-126904054D01*
X166315211Y-126966838D01*
X166495586Y-126990584D01*
X166555711Y-126998500D01*
X166555712Y-126998500D01*
X166798289Y-126998500D01*
X166846388Y-126992167D01*
X167038789Y-126966838D01*
X167273100Y-126904054D01*
X167497212Y-126811224D01*
X167707289Y-126689936D01*
X167899738Y-126542265D01*
X168071265Y-126370738D01*
X168218936Y-126178289D01*
X168340224Y-125968212D01*
X168433054Y-125744100D01*
X168495838Y-125509789D01*
X168527500Y-125269288D01*
X168527500Y-125026712D01*
X168495838Y-124786211D01*
X168433054Y-124551900D01*
X168340224Y-124327788D01*
X168218936Y-124117711D01*
X168071265Y-123925262D01*
X168071260Y-123925256D01*
X167899743Y-123753739D01*
X167899736Y-123753733D01*
X167707293Y-123606067D01*
X167707292Y-123606066D01*
X167707289Y-123606064D01*
X167497212Y-123484776D01*
X167497205Y-123484773D01*
X167273104Y-123391947D01*
X167049354Y-123331993D01*
X167038789Y-123329162D01*
X167038788Y-123329161D01*
X167038785Y-123329161D01*
X166798289Y-123297500D01*
X166798288Y-123297500D01*
X166555712Y-123297500D01*
X166555711Y-123297500D01*
X166315214Y-123329161D01*
X166080895Y-123391947D01*
X165856794Y-123484773D01*
X165856785Y-123484777D01*
X165646706Y-123606067D01*
X165454263Y-123753733D01*
X165454256Y-123753739D01*
X165282739Y-123925256D01*
X165282733Y-123925263D01*
X165135067Y-124117706D01*
X165013777Y-124327785D01*
X165013773Y-124327794D01*
X164920947Y-124551895D01*
X164858161Y-124786214D01*
X164826500Y-125026711D01*
X158414130Y-125026711D01*
X157307600Y-123920181D01*
X157274115Y-123858858D01*
X157279099Y-123789166D01*
X157320971Y-123733233D01*
X157386435Y-123708816D01*
X157395281Y-123708500D01*
X160802462Y-123708500D01*
X160802463Y-123708499D01*
X160923693Y-123684386D01*
X161004442Y-123650937D01*
X161037891Y-123637083D01*
X161140666Y-123568411D01*
X161228069Y-123481008D01*
X165721371Y-118987704D01*
X165740151Y-118972291D01*
X165800350Y-118932069D01*
X165887753Y-118844666D01*
X167737411Y-116995008D01*
X167806083Y-116892233D01*
X167853385Y-116778035D01*
X167877500Y-116656804D01*
X167877500Y-116533197D01*
X167877500Y-115541671D01*
X167896507Y-115475698D01*
X167915238Y-115445889D01*
X167938174Y-115409384D01*
X167975788Y-115349524D01*
X167975789Y-115349522D01*
X168035368Y-115179255D01*
X168036689Y-115167535D01*
X168055565Y-115000003D01*
X168055565Y-114999996D01*
X168035369Y-114820750D01*
X168035368Y-114820745D01*
X167975788Y-114650476D01*
X167879815Y-114497737D01*
X167752262Y-114370184D01*
X167599523Y-114274211D01*
X167429254Y-114214631D01*
X167429249Y-114214630D01*
X167250004Y-114194435D01*
X167249996Y-114194435D01*
X167070750Y-114214630D01*
X167070745Y-114214631D01*
X166900476Y-114274211D01*
X166747737Y-114370184D01*
X166620184Y-114497737D01*
X166524211Y-114650476D01*
X166464631Y-114820745D01*
X166464630Y-114820750D01*
X166444435Y-114999996D01*
X166444435Y-115000003D01*
X166464630Y-115179249D01*
X166464631Y-115179254D01*
X166524211Y-115349524D01*
X166603493Y-115475698D01*
X166622500Y-115541671D01*
X166622500Y-116283718D01*
X166602815Y-116350757D01*
X166586181Y-116371399D01*
X165055972Y-117901607D01*
X165037184Y-117917027D01*
X164976988Y-117957250D01*
X163466181Y-119468057D01*
X163404858Y-119501542D01*
X163335166Y-119496558D01*
X163279233Y-119454686D01*
X163254816Y-119389222D01*
X163254500Y-119380376D01*
X163254500Y-113454499D01*
X163274185Y-113387460D01*
X163326989Y-113341705D01*
X163378500Y-113330499D01*
X163397871Y-113330499D01*
X163397872Y-113330499D01*
X163457483Y-113324091D01*
X163592331Y-113273796D01*
X163707546Y-113187546D01*
X163793796Y-113072331D01*
X163844091Y-112937483D01*
X163850500Y-112877873D01*
X163850499Y-111082128D01*
X163844091Y-111022517D01*
X163793796Y-110887669D01*
X163793795Y-110887668D01*
X163793793Y-110887664D01*
X163707547Y-110772455D01*
X163707544Y-110772452D01*
X163592335Y-110686206D01*
X163592328Y-110686202D01*
X163460917Y-110637189D01*
X163404983Y-110595318D01*
X163380566Y-110529853D01*
X163395418Y-110461580D01*
X163416563Y-110433332D01*
X163538495Y-110311401D01*
X163674035Y-110117830D01*
X163773903Y-109903663D01*
X163835063Y-109675408D01*
X163855659Y-109440000D01*
X163835063Y-109204592D01*
X163773903Y-108976337D01*
X163674035Y-108762171D01*
X163574398Y-108619873D01*
X163538494Y-108568597D01*
X163371402Y-108401506D01*
X163371396Y-108401501D01*
X163185842Y-108271575D01*
X163142217Y-108216998D01*
X163135023Y-108147500D01*
X163166546Y-108085145D01*
X163185842Y-108068425D01*
X163251508Y-108022445D01*
X163371401Y-107938495D01*
X163538495Y-107771401D01*
X163674035Y-107577830D01*
X163773903Y-107363663D01*
X163835063Y-107135408D01*
X163855659Y-106900000D01*
X163835063Y-106664592D01*
X163773903Y-106436337D01*
X163674035Y-106222171D01*
X163642923Y-106177737D01*
X163538494Y-106028597D01*
X163371402Y-105861506D01*
X163371396Y-105861501D01*
X163185842Y-105731575D01*
X163142217Y-105676998D01*
X163135023Y-105607500D01*
X163166546Y-105545145D01*
X163185842Y-105528425D01*
X163208026Y-105512891D01*
X163371401Y-105398495D01*
X163538495Y-105231401D01*
X163674035Y-105037830D01*
X163773903Y-104823663D01*
X163835063Y-104595408D01*
X163855659Y-104360000D01*
X163835063Y-104124592D01*
X163773903Y-103896337D01*
X163674035Y-103682171D01*
X163542563Y-103494408D01*
X163538494Y-103488597D01*
X163371402Y-103321506D01*
X163371396Y-103321501D01*
X163185842Y-103191575D01*
X163142217Y-103136998D01*
X163135023Y-103067500D01*
X163166546Y-103005145D01*
X163185842Y-102988425D01*
X163208026Y-102972891D01*
X163371401Y-102858495D01*
X163538495Y-102691401D01*
X163674035Y-102497830D01*
X163773903Y-102283663D01*
X163835063Y-102055408D01*
X163855659Y-101820000D01*
X163835063Y-101584592D01*
X163784753Y-101396830D01*
X163773905Y-101356344D01*
X163773904Y-101356343D01*
X163773903Y-101356337D01*
X163674035Y-101142171D01*
X163629805Y-101079003D01*
X163538494Y-100948597D01*
X163371402Y-100781506D01*
X163371396Y-100781501D01*
X163185842Y-100651575D01*
X163142217Y-100596998D01*
X163135023Y-100527500D01*
X163166546Y-100465145D01*
X163185842Y-100448425D01*
X163328258Y-100348704D01*
X163371401Y-100318495D01*
X163538495Y-100151401D01*
X163674035Y-99957830D01*
X163773903Y-99743663D01*
X163835063Y-99515408D01*
X163855659Y-99280000D01*
X163835063Y-99044592D01*
X163773903Y-98816337D01*
X163674035Y-98602171D01*
X163602497Y-98500003D01*
X163538494Y-98408597D01*
X163371402Y-98241506D01*
X163371396Y-98241501D01*
X163185842Y-98111575D01*
X163142217Y-98056998D01*
X163135023Y-97987500D01*
X163166546Y-97925145D01*
X163185842Y-97908425D01*
X163361602Y-97785356D01*
X163371401Y-97778495D01*
X163538495Y-97611401D01*
X163674035Y-97417830D01*
X163773903Y-97203663D01*
X163835063Y-96975408D01*
X163855659Y-96740000D01*
X163835063Y-96504592D01*
X163773903Y-96276337D01*
X163674035Y-96062171D01*
X163647456Y-96024211D01*
X163538494Y-95868597D01*
X163371402Y-95701506D01*
X163371396Y-95701501D01*
X163185842Y-95571575D01*
X163142217Y-95516998D01*
X163135023Y-95447500D01*
X163166546Y-95385145D01*
X163185842Y-95368425D01*
X163320393Y-95274211D01*
X163371401Y-95238495D01*
X163538495Y-95071401D01*
X163674035Y-94877830D01*
X163773903Y-94663663D01*
X163835063Y-94435408D01*
X163855659Y-94200000D01*
X163835063Y-93964592D01*
X163773903Y-93736337D01*
X163674035Y-93522171D01*
X163665508Y-93509992D01*
X163538494Y-93328597D01*
X163371402Y-93161506D01*
X163371396Y-93161501D01*
X163185842Y-93031575D01*
X163142217Y-92976998D01*
X163135023Y-92907500D01*
X163166546Y-92845145D01*
X163185842Y-92828425D01*
X163247332Y-92785369D01*
X163371401Y-92698495D01*
X163538495Y-92531401D01*
X163674035Y-92337830D01*
X163773903Y-92123663D01*
X163835063Y-91895408D01*
X163855659Y-91660000D01*
X163835063Y-91424592D01*
X163773903Y-91196337D01*
X163674035Y-90982171D01*
X163619749Y-90904641D01*
X163538494Y-90788597D01*
X163371402Y-90621506D01*
X163371396Y-90621501D01*
X163185842Y-90491575D01*
X163142217Y-90436998D01*
X163135023Y-90367500D01*
X163166546Y-90305145D01*
X163185842Y-90288425D01*
X163213541Y-90269030D01*
X163371401Y-90158495D01*
X163538495Y-89991401D01*
X163674035Y-89797830D01*
X163773903Y-89583663D01*
X163835063Y-89355408D01*
X163855659Y-89120000D01*
X163835063Y-88884592D01*
X163773903Y-88656337D01*
X163674035Y-88442171D01*
X163661869Y-88424795D01*
X163538494Y-88248597D01*
X163371402Y-88081506D01*
X163371396Y-88081501D01*
X163185842Y-87951575D01*
X163142217Y-87896998D01*
X163135023Y-87827500D01*
X163166546Y-87765145D01*
X163185842Y-87748425D01*
X163361602Y-87625356D01*
X163371401Y-87618495D01*
X163538495Y-87451401D01*
X163674035Y-87257830D01*
X163773903Y-87043663D01*
X163835063Y-86815408D01*
X163855659Y-86580000D01*
X163835063Y-86344592D01*
X163773903Y-86116337D01*
X163674035Y-85902171D01*
X163670069Y-85896506D01*
X163538494Y-85708597D01*
X163371402Y-85541506D01*
X163371396Y-85541501D01*
X163185842Y-85411575D01*
X163142217Y-85356998D01*
X163135023Y-85287500D01*
X163166546Y-85225145D01*
X163185842Y-85208425D01*
X163208026Y-85192891D01*
X163371401Y-85078495D01*
X163538495Y-84911401D01*
X163674035Y-84717830D01*
X163773903Y-84503663D01*
X163835063Y-84275408D01*
X163855659Y-84040000D01*
X163835063Y-83804592D01*
X163773903Y-83576337D01*
X163674035Y-83362171D01*
X163665508Y-83349992D01*
X163538494Y-83168597D01*
X163371402Y-83001506D01*
X163371396Y-83001501D01*
X163185842Y-82871575D01*
X163142217Y-82816998D01*
X163135023Y-82747500D01*
X163166546Y-82685145D01*
X163185842Y-82668425D01*
X163283574Y-82599992D01*
X163371401Y-82538495D01*
X163538495Y-82371401D01*
X163674035Y-82177830D01*
X163773903Y-81963663D01*
X163835063Y-81735408D01*
X163855659Y-81500000D01*
X163835063Y-81264592D01*
X163783124Y-81070750D01*
X163773905Y-81036344D01*
X163773904Y-81036343D01*
X163773903Y-81036337D01*
X163674035Y-80822171D01*
X163645882Y-80781963D01*
X163538494Y-80628597D01*
X163371402Y-80461506D01*
X163371396Y-80461501D01*
X163185842Y-80331575D01*
X163142217Y-80276998D01*
X163135023Y-80207500D01*
X163166546Y-80145145D01*
X163185842Y-80128425D01*
X163241438Y-80089496D01*
X163371401Y-79998495D01*
X163538495Y-79831401D01*
X163674035Y-79637830D01*
X163773903Y-79423663D01*
X163835063Y-79195408D01*
X163855659Y-78960000D01*
X163835063Y-78724592D01*
X163773903Y-78496337D01*
X163674035Y-78282171D01*
X163649925Y-78247737D01*
X163538494Y-78088597D01*
X163371402Y-77921506D01*
X163371396Y-77921501D01*
X163185842Y-77791575D01*
X163142217Y-77736998D01*
X163135023Y-77667500D01*
X163166546Y-77605145D01*
X163185842Y-77588425D01*
X163265655Y-77532539D01*
X163371401Y-77458495D01*
X163538495Y-77291401D01*
X163674035Y-77097830D01*
X163773903Y-76883663D01*
X163835063Y-76655408D01*
X163855659Y-76420000D01*
X163835063Y-76184592D01*
X163773903Y-75956337D01*
X163674035Y-75742171D01*
X163670705Y-75737414D01*
X163538494Y-75548597D01*
X163371402Y-75381506D01*
X163371396Y-75381501D01*
X163185842Y-75251575D01*
X163142217Y-75196998D01*
X163135023Y-75127500D01*
X163166546Y-75065145D01*
X163185842Y-75048425D01*
X163314745Y-74958166D01*
X163371401Y-74918495D01*
X163538495Y-74751401D01*
X163674035Y-74557830D01*
X163773903Y-74343663D01*
X163835063Y-74115408D01*
X163855659Y-73880000D01*
X163835063Y-73644592D01*
X163778005Y-73431647D01*
X163773905Y-73416344D01*
X163773904Y-73416343D01*
X163773903Y-73416337D01*
X163674035Y-73202171D01*
X163640454Y-73154211D01*
X163538494Y-73008597D01*
X163371402Y-72841506D01*
X163371396Y-72841501D01*
X163185842Y-72711575D01*
X163142217Y-72656998D01*
X163135023Y-72587500D01*
X163166546Y-72525145D01*
X163185842Y-72508425D01*
X163208026Y-72492891D01*
X163371401Y-72378495D01*
X163538495Y-72211401D01*
X163674035Y-72017830D01*
X163773903Y-71803663D01*
X163835063Y-71575408D01*
X163855659Y-71340000D01*
X163835063Y-71104592D01*
X163773903Y-70876337D01*
X163674035Y-70662171D01*
X163589257Y-70541094D01*
X163538494Y-70468597D01*
X163371402Y-70301506D01*
X163371396Y-70301501D01*
X163185842Y-70171575D01*
X163142217Y-70116998D01*
X163135023Y-70047500D01*
X163166546Y-69985145D01*
X163185842Y-69968425D01*
X163241791Y-69929249D01*
X163371401Y-69838495D01*
X163538495Y-69671401D01*
X163674035Y-69477830D01*
X163773903Y-69263663D01*
X163835063Y-69035408D01*
X163855659Y-68800000D01*
X163835063Y-68564592D01*
X163780962Y-68362682D01*
X163773905Y-68336344D01*
X163773904Y-68336343D01*
X163773903Y-68336337D01*
X163674035Y-68122171D01*
X163658176Y-68099521D01*
X163538494Y-67928597D01*
X163371402Y-67761506D01*
X163371396Y-67761501D01*
X163185842Y-67631575D01*
X163142217Y-67576998D01*
X163135023Y-67507500D01*
X163166546Y-67445145D01*
X163185842Y-67428425D01*
X163226421Y-67400011D01*
X163371401Y-67298495D01*
X163538495Y-67131401D01*
X163674035Y-66937830D01*
X163773903Y-66723663D01*
X163835063Y-66495408D01*
X163855659Y-66260000D01*
X163835063Y-66024592D01*
X163776648Y-65806583D01*
X163773905Y-65796344D01*
X163773904Y-65796343D01*
X163773903Y-65796337D01*
X163674035Y-65582171D01*
X163566964Y-65429256D01*
X163538494Y-65388597D01*
X163371402Y-65221506D01*
X163371396Y-65221501D01*
X163185842Y-65091575D01*
X163142217Y-65036998D01*
X163135023Y-64967500D01*
X163166546Y-64905145D01*
X163185842Y-64888425D01*
X163208026Y-64872891D01*
X163371401Y-64758495D01*
X163538495Y-64591401D01*
X163674035Y-64397830D01*
X163773903Y-64183663D01*
X163835063Y-63955408D01*
X163855659Y-63720000D01*
X163835063Y-63484592D01*
X163773903Y-63256337D01*
X163674035Y-63042171D01*
X163648853Y-63006206D01*
X163538494Y-62848597D01*
X163371402Y-62681506D01*
X163371395Y-62681501D01*
X163177834Y-62545967D01*
X163177830Y-62545965D01*
X162963663Y-62446097D01*
X162963659Y-62446096D01*
X162963655Y-62446094D01*
X162735413Y-62384938D01*
X162735403Y-62384936D01*
X162500001Y-62364341D01*
X162499999Y-62364341D01*
X162264596Y-62384936D01*
X162264586Y-62384938D01*
X162033593Y-62446831D01*
X161963743Y-62445168D01*
X161905880Y-62406005D01*
X161878377Y-62341776D01*
X161877500Y-62327056D01*
X161877500Y-45688196D01*
X161873051Y-45665832D01*
X161870001Y-45650500D01*
X161865887Y-45629816D01*
X161853387Y-45566972D01*
X161853384Y-45566963D01*
X161806086Y-45452772D01*
X161806079Y-45452760D01*
X161737411Y-45349992D01*
X161737408Y-45349988D01*
X157414131Y-41026711D01*
X164826500Y-41026711D01*
X164826500Y-41269288D01*
X164858161Y-41509785D01*
X164920947Y-41744104D01*
X165001342Y-41938194D01*
X165013776Y-41968212D01*
X165135064Y-42178289D01*
X165135066Y-42178292D01*
X165135067Y-42178293D01*
X165282733Y-42370736D01*
X165282739Y-42370743D01*
X165454256Y-42542260D01*
X165454263Y-42542266D01*
X165565343Y-42627500D01*
X165646711Y-42689936D01*
X165856788Y-42811224D01*
X166080900Y-42904054D01*
X166315211Y-42966838D01*
X166488853Y-42989698D01*
X166555711Y-42998500D01*
X166555712Y-42998500D01*
X166798289Y-42998500D01*
X166865147Y-42989698D01*
X167038789Y-42966838D01*
X167273100Y-42904054D01*
X167497212Y-42811224D01*
X167707289Y-42689936D01*
X167899738Y-42542265D01*
X168071265Y-42370738D01*
X168218936Y-42178289D01*
X168340224Y-41968212D01*
X168433054Y-41744100D01*
X168495838Y-41509789D01*
X168527500Y-41269288D01*
X168527500Y-41026712D01*
X168495838Y-40786211D01*
X168433054Y-40551900D01*
X168340224Y-40327788D01*
X168218936Y-40117711D01*
X168097917Y-39959996D01*
X168071266Y-39925263D01*
X168071260Y-39925256D01*
X167899743Y-39753739D01*
X167899736Y-39753733D01*
X167707293Y-39606067D01*
X167707292Y-39606066D01*
X167707289Y-39606064D01*
X167535661Y-39506974D01*
X167497214Y-39484777D01*
X167497205Y-39484773D01*
X167273104Y-39391947D01*
X167038785Y-39329161D01*
X166798289Y-39297500D01*
X166798288Y-39297500D01*
X166555712Y-39297500D01*
X166555711Y-39297500D01*
X166315214Y-39329161D01*
X166080895Y-39391947D01*
X165856794Y-39484773D01*
X165856785Y-39484777D01*
X165646706Y-39606067D01*
X165454263Y-39753733D01*
X165454256Y-39753739D01*
X165282739Y-39925256D01*
X165282733Y-39925263D01*
X165135067Y-40117706D01*
X165013777Y-40327785D01*
X165013773Y-40327794D01*
X164920947Y-40551895D01*
X164858161Y-40786214D01*
X164826500Y-41026711D01*
X157414131Y-41026711D01*
X155650010Y-39262590D01*
X155627783Y-39247739D01*
X155627782Y-39247738D01*
X155547239Y-39193920D01*
X155547226Y-39193913D01*
X155513785Y-39180062D01*
X155433035Y-39146614D01*
X155433027Y-39146612D01*
X155311807Y-39122500D01*
X155311803Y-39122500D01*
X143561803Y-39122500D01*
X143438197Y-39122500D01*
X143438195Y-39122500D01*
X143316970Y-39146613D01*
X143316960Y-39146616D01*
X143202773Y-39193913D01*
X143202760Y-39193920D01*
X143099992Y-39262588D01*
X143099988Y-39262591D01*
X143012591Y-39349988D01*
X143012588Y-39349992D01*
X142943920Y-39452760D01*
X142943913Y-39452773D01*
X142896616Y-39566960D01*
X142896613Y-39566970D01*
X142872500Y-39688194D01*
X142872500Y-60311807D01*
X142896612Y-60433027D01*
X142896614Y-60433035D01*
X142929567Y-60512590D01*
X142943915Y-60547229D01*
X142943920Y-60547239D01*
X143010322Y-60646615D01*
X143010323Y-60646616D01*
X143012590Y-60650009D01*
X143674146Y-61311565D01*
X143707631Y-61372888D01*
X143709685Y-61385361D01*
X143714630Y-61429249D01*
X143774210Y-61599521D01*
X143860851Y-61737408D01*
X143870184Y-61752262D01*
X143997738Y-61879816D01*
X144150478Y-61975789D01*
X144320745Y-62035368D01*
X144320750Y-62035369D01*
X144499996Y-62055565D01*
X144500000Y-62055565D01*
X144500004Y-62055565D01*
X144679249Y-62035369D01*
X144679252Y-62035368D01*
X144679255Y-62035368D01*
X144849522Y-61975789D01*
X145002262Y-61879816D01*
X145129816Y-61752262D01*
X145225789Y-61599522D01*
X145285368Y-61429255D01*
X145285369Y-61429249D01*
X145305565Y-61250003D01*
X145305565Y-61243036D01*
X145308562Y-61243036D01*
X145318288Y-61187368D01*
X145365615Y-61135968D01*
X145433217Y-61118314D01*
X145499632Y-61140012D01*
X145517158Y-61154577D01*
X145924146Y-61561565D01*
X145957631Y-61622888D01*
X145959685Y-61635361D01*
X145964630Y-61679249D01*
X146024210Y-61849521D01*
X146043245Y-61879815D01*
X146120184Y-62002262D01*
X146247738Y-62129816D01*
X146400478Y-62225789D01*
X146570745Y-62285368D01*
X146570750Y-62285369D01*
X146749996Y-62305565D01*
X146750000Y-62305565D01*
X146750004Y-62305565D01*
X146929249Y-62285369D01*
X146929252Y-62285368D01*
X146929255Y-62285368D01*
X147099522Y-62225789D01*
X147252262Y-62129816D01*
X147379816Y-62002262D01*
X147475789Y-61849522D01*
X147535368Y-61679255D01*
X147535369Y-61679249D01*
X147555565Y-61500003D01*
X147555565Y-61499996D01*
X147535369Y-61320750D01*
X147535368Y-61320745D01*
X147475788Y-61150476D01*
X147379815Y-60997737D01*
X147252262Y-60870184D01*
X147099521Y-60774210D01*
X146929249Y-60714630D01*
X146885361Y-60709685D01*
X146820947Y-60682617D01*
X146811565Y-60674146D01*
X145592738Y-59455319D01*
X145559253Y-59393996D01*
X145564237Y-59324304D01*
X145606109Y-59268371D01*
X145671573Y-59243954D01*
X145721374Y-59250597D01*
X145820737Y-59285366D01*
X145820743Y-59285367D01*
X145820745Y-59285368D01*
X145820746Y-59285368D01*
X145820750Y-59285369D01*
X145999996Y-59305565D01*
X146000000Y-59305565D01*
X146000004Y-59305565D01*
X146179249Y-59285369D01*
X146179252Y-59285368D01*
X146179255Y-59285368D01*
X146349522Y-59225789D01*
X146377501Y-59208209D01*
X146416439Y-59183742D01*
X146502262Y-59129816D01*
X146502263Y-59129814D01*
X146505627Y-59127701D01*
X146572864Y-59108700D01*
X146639699Y-59129067D01*
X146684914Y-59182335D01*
X146694275Y-59243036D01*
X146694435Y-59243036D01*
X146694435Y-59244071D01*
X146694821Y-59246574D01*
X146694435Y-59250000D01*
X146694435Y-59250003D01*
X146714630Y-59429249D01*
X146714631Y-59429254D01*
X146774211Y-59599523D01*
X146839973Y-59704182D01*
X146870184Y-59752262D01*
X146997738Y-59879816D01*
X147150478Y-59975789D01*
X147219678Y-60000003D01*
X147320745Y-60035368D01*
X147320750Y-60035369D01*
X147499996Y-60055565D01*
X147500000Y-60055565D01*
X147500004Y-60055565D01*
X147679249Y-60035369D01*
X147679252Y-60035368D01*
X147679255Y-60035368D01*
X147849522Y-59975789D01*
X148002262Y-59879816D01*
X148129816Y-59752262D01*
X148225789Y-59599522D01*
X148285368Y-59429255D01*
X148287436Y-59410904D01*
X148305565Y-59250003D01*
X148305565Y-59249996D01*
X148285369Y-59070750D01*
X148285368Y-59070745D01*
X148279430Y-59053776D01*
X148225789Y-58900478D01*
X148193772Y-58849524D01*
X148146506Y-58774300D01*
X148127500Y-58708328D01*
X148127500Y-53028626D01*
X148147185Y-52961587D01*
X148199989Y-52915832D01*
X148269147Y-52905888D01*
X148317471Y-52923632D01*
X148345407Y-52941186D01*
X148400475Y-52975788D01*
X148570745Y-53035368D01*
X148570750Y-53035369D01*
X148749996Y-53055565D01*
X148750000Y-53055565D01*
X148750004Y-53055565D01*
X148929249Y-53035369D01*
X148929252Y-53035368D01*
X148929255Y-53035368D01*
X149099522Y-52975789D01*
X149225700Y-52896505D01*
X149291672Y-52877500D01*
X155438719Y-52877500D01*
X155505758Y-52897185D01*
X155526400Y-52913819D01*
X155586181Y-52973600D01*
X155619666Y-53034923D01*
X155622500Y-53061281D01*
X155622500Y-72635900D01*
X155602815Y-72702939D01*
X155550011Y-72748694D01*
X155480853Y-72758638D01*
X155417297Y-72729613D01*
X155379523Y-72670835D01*
X155376883Y-72660092D01*
X155353386Y-72541970D01*
X155353385Y-72541969D01*
X155353385Y-72541965D01*
X155341816Y-72514035D01*
X155306086Y-72427773D01*
X155306079Y-72427760D01*
X155237411Y-72324992D01*
X155237408Y-72324988D01*
X155150011Y-72237591D01*
X155150007Y-72237588D01*
X155047239Y-72168920D01*
X155047226Y-72168913D01*
X154933039Y-72121616D01*
X154933029Y-72121613D01*
X154811805Y-72097500D01*
X154811803Y-72097500D01*
X135291672Y-72097500D01*
X135225700Y-72078494D01*
X135099520Y-71999209D01*
X135089036Y-71995541D01*
X135032261Y-71954819D01*
X135006514Y-71889866D01*
X135019971Y-71821305D01*
X135068358Y-71770902D01*
X135129992Y-71754500D01*
X149341766Y-71754500D01*
X149395568Y-71766780D01*
X149400474Y-71769143D01*
X149400478Y-71769145D01*
X149400481Y-71769146D01*
X149570737Y-71828722D01*
X149570743Y-71828723D01*
X149570745Y-71828724D01*
X149570746Y-71828724D01*
X149570750Y-71828725D01*
X149749996Y-71848921D01*
X149750000Y-71848921D01*
X149750004Y-71848921D01*
X149929249Y-71828725D01*
X149929252Y-71828724D01*
X149929255Y-71828724D01*
X150099522Y-71769145D01*
X150252262Y-71673172D01*
X150379816Y-71545618D01*
X150475789Y-71392878D01*
X150535368Y-71222611D01*
X150548665Y-71104596D01*
X150555565Y-71043359D01*
X150555565Y-71043352D01*
X150535369Y-70864106D01*
X150535368Y-70864101D01*
X150475789Y-70693834D01*
X150379816Y-70541094D01*
X150252262Y-70413540D01*
X150198589Y-70379815D01*
X150099523Y-70317567D01*
X149929254Y-70257987D01*
X149929249Y-70257986D01*
X149750004Y-70237791D01*
X149749998Y-70237791D01*
X149688512Y-70244719D01*
X149674628Y-70245499D01*
X149626218Y-70245499D01*
X149626198Y-70245500D01*
X103863887Y-70245500D01*
X103796848Y-70225815D01*
X103776206Y-70209181D01*
X102998385Y-69431360D01*
X102980298Y-69405868D01*
X102979494Y-69406374D01*
X102879815Y-69247737D01*
X102752262Y-69120184D01*
X102599523Y-69024211D01*
X102429254Y-68964631D01*
X102429249Y-68964630D01*
X102250004Y-68944435D01*
X102249996Y-68944435D01*
X102070750Y-68964630D01*
X102070745Y-68964631D01*
X101900476Y-69024211D01*
X101747737Y-69120184D01*
X101620184Y-69247737D01*
X101524211Y-69400476D01*
X101464631Y-69570745D01*
X101464630Y-69570750D01*
X101444435Y-69749996D01*
X101444435Y-69750003D01*
X101464630Y-69929249D01*
X101464631Y-69929254D01*
X101524211Y-70099523D01*
X101615935Y-70245500D01*
X101620184Y-70252262D01*
X101747738Y-70379816D01*
X101836320Y-70435476D01*
X101906374Y-70479494D01*
X101905868Y-70480298D01*
X101931360Y-70498385D01*
X103019030Y-71586056D01*
X103019031Y-71586057D01*
X103019034Y-71586059D01*
X103142611Y-71668630D01*
X103203513Y-71693856D01*
X103279920Y-71725505D01*
X103279922Y-71725505D01*
X103279924Y-71725506D01*
X103304104Y-71730315D01*
X103304110Y-71730316D01*
X103425686Y-71754501D01*
X103425688Y-71754501D01*
X103580426Y-71754501D01*
X103580446Y-71754500D01*
X134370008Y-71754500D01*
X134437047Y-71774185D01*
X134482802Y-71826989D01*
X134492746Y-71896147D01*
X134463721Y-71959703D01*
X134410964Y-71995541D01*
X134400479Y-71999209D01*
X134247737Y-72095184D01*
X134120184Y-72222737D01*
X134024211Y-72375476D01*
X133964631Y-72545745D01*
X133964630Y-72545749D01*
X133947924Y-72694028D01*
X133920858Y-72758442D01*
X133863263Y-72797997D01*
X133824704Y-72804144D01*
X119860028Y-72804144D01*
X119794056Y-72785138D01*
X119667879Y-72705855D01*
X119497610Y-72646275D01*
X119497605Y-72646274D01*
X119318360Y-72626079D01*
X119318352Y-72626079D01*
X119139106Y-72646274D01*
X119139101Y-72646275D01*
X118968832Y-72705855D01*
X118816093Y-72801828D01*
X118688540Y-72929381D01*
X118592567Y-73082120D01*
X118532987Y-73252389D01*
X118532986Y-73252394D01*
X118512791Y-73431640D01*
X118512791Y-73431647D01*
X118532986Y-73610893D01*
X118532987Y-73610898D01*
X118592567Y-73781167D01*
X118654670Y-73880003D01*
X118688540Y-73933906D01*
X118816094Y-74061460D01*
X118957920Y-74150575D01*
X118968836Y-74157434D01*
X118992654Y-74165769D01*
X119049430Y-74206490D01*
X119075177Y-74271443D01*
X119061721Y-74340005D01*
X119056693Y-74348781D01*
X119024212Y-74400474D01*
X118964631Y-74570745D01*
X118964630Y-74570750D01*
X118944435Y-74749996D01*
X118944435Y-74750003D01*
X118964630Y-74929249D01*
X118964631Y-74929254D01*
X119024211Y-75099524D01*
X119103493Y-75225698D01*
X119122500Y-75291671D01*
X119122500Y-75311807D01*
X119146612Y-75433027D01*
X119146614Y-75433035D01*
X119170844Y-75491531D01*
X119193915Y-75547229D01*
X119193920Y-75547239D01*
X119262588Y-75650007D01*
X119262591Y-75650011D01*
X119349988Y-75737408D01*
X119349996Y-75737414D01*
X119417905Y-75782789D01*
X119452767Y-75806083D01*
X119486215Y-75819937D01*
X119566965Y-75853386D01*
X119651416Y-75870184D01*
X119688192Y-75877499D01*
X119688196Y-75877500D01*
X119688197Y-75877500D01*
X119811804Y-75877500D01*
X119811805Y-75877499D01*
X119933035Y-75853386D01*
X120013784Y-75819937D01*
X120047233Y-75806083D01*
X120150008Y-75737411D01*
X120237411Y-75650008D01*
X120973600Y-74913819D01*
X121034923Y-74880334D01*
X121061281Y-74877500D01*
X141950904Y-74877500D01*
X142017943Y-74897185D01*
X142063698Y-74949989D01*
X142074124Y-75015384D01*
X142069435Y-75056997D01*
X142069435Y-75057003D01*
X142089630Y-75236249D01*
X142089631Y-75236254D01*
X142149211Y-75406523D01*
X142207648Y-75499524D01*
X142245184Y-75559262D01*
X142372738Y-75686816D01*
X142417007Y-75714632D01*
X142525264Y-75782655D01*
X142525478Y-75782789D01*
X142631627Y-75819932D01*
X142695745Y-75842368D01*
X142695750Y-75842369D01*
X142874996Y-75862565D01*
X142875000Y-75862565D01*
X142875004Y-75862565D01*
X143054249Y-75842369D01*
X143054252Y-75842368D01*
X143054255Y-75842368D01*
X143224522Y-75782789D01*
X143377262Y-75686816D01*
X143409261Y-75654816D01*
X143464848Y-75622722D01*
X143487785Y-75616577D01*
X143487788Y-75616574D01*
X143495299Y-75613465D01*
X143495816Y-75614713D01*
X143548857Y-75600500D01*
X145161719Y-75600500D01*
X145228758Y-75620185D01*
X145249400Y-75636819D01*
X148836181Y-79223600D01*
X148869666Y-79284923D01*
X148872500Y-79311281D01*
X148872500Y-90311807D01*
X148896612Y-90433028D01*
X148896615Y-90433038D01*
X148904712Y-90452584D01*
X148926630Y-90505497D01*
X148926630Y-90505500D01*
X148926631Y-90505500D01*
X148943917Y-90547233D01*
X148943918Y-90547234D01*
X148943919Y-90547236D01*
X149008238Y-90643497D01*
X149012587Y-90650005D01*
X149012591Y-90650010D01*
X154424146Y-96061565D01*
X154457631Y-96122888D01*
X154459685Y-96135361D01*
X154464630Y-96179249D01*
X154524210Y-96349521D01*
X154556229Y-96400478D01*
X154620184Y-96502262D01*
X154747738Y-96629816D01*
X154900478Y-96725789D01*
X154969678Y-96750003D01*
X155070745Y-96785368D01*
X155070750Y-96785369D01*
X155249996Y-96805565D01*
X155250000Y-96805565D01*
X155250004Y-96805565D01*
X155429249Y-96785369D01*
X155429252Y-96785368D01*
X155429255Y-96785368D01*
X155599522Y-96725789D01*
X155752262Y-96629816D01*
X155879816Y-96502262D01*
X155975789Y-96349522D01*
X156035368Y-96179255D01*
X156043999Y-96102655D01*
X156055565Y-96000003D01*
X156055565Y-95999996D01*
X156035369Y-95820750D01*
X156035368Y-95820745D01*
X155975789Y-95650478D01*
X155879816Y-95497738D01*
X155752262Y-95370184D01*
X155749463Y-95368425D01*
X155599521Y-95274210D01*
X155429249Y-95214630D01*
X155385361Y-95209685D01*
X155320947Y-95182617D01*
X155311565Y-95174146D01*
X150163819Y-90026400D01*
X150130334Y-89965077D01*
X150127500Y-89938719D01*
X150127500Y-78938194D01*
X150103386Y-78816970D01*
X150103385Y-78816969D01*
X150103385Y-78816965D01*
X150092706Y-78791183D01*
X150056086Y-78702773D01*
X150056079Y-78702760D01*
X149987412Y-78599993D01*
X149958164Y-78570745D01*
X149900008Y-78512589D01*
X146476600Y-75089181D01*
X146443115Y-75027858D01*
X146448099Y-74958166D01*
X146489971Y-74902233D01*
X146555435Y-74877816D01*
X146564281Y-74877500D01*
X150357489Y-74877500D01*
X150424528Y-74897185D01*
X150470283Y-74949989D01*
X150480227Y-75019147D01*
X150474531Y-75042454D01*
X150464632Y-75070742D01*
X150464630Y-75070750D01*
X150444435Y-75249996D01*
X150444435Y-75250003D01*
X150464630Y-75429249D01*
X150464631Y-75429254D01*
X150524211Y-75599524D01*
X150579062Y-75686817D01*
X150596539Y-75714632D01*
X150603493Y-75725698D01*
X150622500Y-75791671D01*
X150622500Y-88811807D01*
X150646612Y-88933028D01*
X150646613Y-88933032D01*
X150646614Y-88933035D01*
X150679381Y-89012139D01*
X150693917Y-89047233D01*
X150693919Y-89047237D01*
X150693923Y-89047243D01*
X150762585Y-89150003D01*
X150762591Y-89150011D01*
X156336181Y-94723600D01*
X156369666Y-94784923D01*
X156372500Y-94811281D01*
X156372500Y-96938718D01*
X156352815Y-97005757D01*
X156336181Y-97026399D01*
X154688432Y-98674147D01*
X154627109Y-98707632D01*
X154614637Y-98709686D01*
X154570745Y-98714632D01*
X154400478Y-98774210D01*
X154247737Y-98870184D01*
X154120184Y-98997737D01*
X154024211Y-99150476D01*
X153964631Y-99320745D01*
X153964630Y-99320750D01*
X153944435Y-99499996D01*
X153944435Y-99500003D01*
X153964630Y-99679249D01*
X153964631Y-99679254D01*
X154024211Y-99849523D01*
X154092265Y-99957830D01*
X154120184Y-100002262D01*
X154247738Y-100129816D01*
X154400478Y-100225789D01*
X154570745Y-100285368D01*
X154570750Y-100285369D01*
X154749996Y-100305565D01*
X154750000Y-100305565D01*
X154750004Y-100305565D01*
X154929249Y-100285369D01*
X154929252Y-100285368D01*
X154929255Y-100285368D01*
X155099522Y-100225789D01*
X155252262Y-100129816D01*
X155379816Y-100002262D01*
X155475789Y-99849522D01*
X155535368Y-99679255D01*
X155540313Y-99635361D01*
X155567378Y-99570951D01*
X155575842Y-99561575D01*
X157487411Y-97650008D01*
X157503030Y-97626632D01*
X157556083Y-97547233D01*
X157563315Y-97529774D01*
X157585676Y-97475790D01*
X157585676Y-97475789D01*
X157591083Y-97462735D01*
X157603386Y-97433034D01*
X157627500Y-97311803D01*
X157627500Y-97188196D01*
X157627500Y-94438197D01*
X157619387Y-94397411D01*
X157618211Y-94391500D01*
X157603387Y-94316972D01*
X157603386Y-94316965D01*
X157558412Y-94208392D01*
X157556764Y-94203786D01*
X157487414Y-94099996D01*
X157487413Y-94099994D01*
X157479552Y-94092133D01*
X157400008Y-94012589D01*
X151913819Y-88526400D01*
X151880334Y-88465077D01*
X151877500Y-88438719D01*
X151877500Y-87839098D01*
X151897185Y-87772059D01*
X151949989Y-87726304D01*
X152019147Y-87716360D01*
X152082703Y-87745385D01*
X152120477Y-87804163D01*
X152123117Y-87814907D01*
X152146612Y-87933028D01*
X152146614Y-87933034D01*
X152169138Y-87987411D01*
X152169138Y-87987412D01*
X152193917Y-88047234D01*
X152240894Y-88117541D01*
X152240895Y-88117541D01*
X152262588Y-88150008D01*
X152262591Y-88150011D01*
X159586181Y-95473600D01*
X159619666Y-95534923D01*
X159622500Y-95561281D01*
X159622500Y-102171807D01*
X159646612Y-102293028D01*
X159646615Y-102293039D01*
X159679474Y-102372363D01*
X159679475Y-102372367D01*
X159693914Y-102407227D01*
X159693915Y-102407229D01*
X159693917Y-102407233D01*
X159707370Y-102427366D01*
X159720823Y-102447501D01*
X159762590Y-102510010D01*
X159762593Y-102510013D01*
X161159164Y-103906583D01*
X161192649Y-103967906D01*
X161191258Y-104026356D01*
X161164939Y-104124583D01*
X161164936Y-104124596D01*
X161144341Y-104359999D01*
X161144341Y-104360000D01*
X161164936Y-104595403D01*
X161164938Y-104595413D01*
X161226094Y-104823655D01*
X161226096Y-104823659D01*
X161226097Y-104823663D01*
X161309722Y-105002996D01*
X161325965Y-105037830D01*
X161325967Y-105037834D01*
X161461501Y-105231395D01*
X161461506Y-105231402D01*
X161628597Y-105398493D01*
X161628603Y-105398498D01*
X161814158Y-105528425D01*
X161857783Y-105583002D01*
X161864977Y-105652500D01*
X161833454Y-105714855D01*
X161814158Y-105731575D01*
X161628597Y-105861505D01*
X161461505Y-106028597D01*
X161325965Y-106222169D01*
X161325964Y-106222171D01*
X161226098Y-106436335D01*
X161226094Y-106436344D01*
X161164938Y-106664586D01*
X161164936Y-106664596D01*
X161144341Y-106899999D01*
X161144341Y-106900000D01*
X161164936Y-107135403D01*
X161164938Y-107135413D01*
X161226094Y-107363655D01*
X161226096Y-107363659D01*
X161226097Y-107363663D01*
X161295916Y-107513389D01*
X161325965Y-107577830D01*
X161325967Y-107577834D01*
X161461501Y-107771395D01*
X161461506Y-107771402D01*
X161628597Y-107938493D01*
X161628603Y-107938498D01*
X161814158Y-108068425D01*
X161857783Y-108123002D01*
X161864977Y-108192500D01*
X161833454Y-108254855D01*
X161814158Y-108271575D01*
X161628597Y-108401505D01*
X161461505Y-108568597D01*
X161325965Y-108762169D01*
X161325964Y-108762171D01*
X161226098Y-108976335D01*
X161226094Y-108976344D01*
X161164938Y-109204586D01*
X161164936Y-109204596D01*
X161144341Y-109439999D01*
X161144341Y-109440000D01*
X161164936Y-109675403D01*
X161164938Y-109675413D01*
X161226094Y-109903655D01*
X161226096Y-109903659D01*
X161226097Y-109903663D01*
X161325965Y-110117830D01*
X161325967Y-110117834D01*
X161404691Y-110230262D01*
X161461501Y-110311396D01*
X161461506Y-110311402D01*
X161583430Y-110433326D01*
X161616915Y-110494649D01*
X161611931Y-110564341D01*
X161570059Y-110620274D01*
X161539083Y-110637189D01*
X161407669Y-110686203D01*
X161407664Y-110686206D01*
X161292455Y-110772452D01*
X161292452Y-110772455D01*
X161206206Y-110887664D01*
X161206202Y-110887671D01*
X161155908Y-111022517D01*
X161149501Y-111082116D01*
X161149501Y-111082123D01*
X161149500Y-111082135D01*
X161149500Y-112877870D01*
X161149501Y-112877876D01*
X161155908Y-112937483D01*
X161206202Y-113072328D01*
X161206206Y-113072335D01*
X161292452Y-113187544D01*
X161292455Y-113187547D01*
X161407664Y-113273793D01*
X161407671Y-113273797D01*
X161452618Y-113290561D01*
X161542517Y-113324091D01*
X161602127Y-113330500D01*
X161621497Y-113330499D01*
X161688535Y-113350181D01*
X161734292Y-113402983D01*
X161745500Y-113454499D01*
X161745500Y-120136113D01*
X161725815Y-120203152D01*
X161709181Y-120223794D01*
X160223794Y-121709181D01*
X160162471Y-121742666D01*
X160136113Y-121745500D01*
X140643886Y-121745500D01*
X140576847Y-121725815D01*
X140556205Y-121709181D01*
X133360415Y-114513389D01*
X146099500Y-114513389D01*
X146099500Y-114686610D01*
X146123290Y-114836819D01*
X146126598Y-114857701D01*
X146180127Y-115022445D01*
X146258768Y-115176788D01*
X146360586Y-115316928D01*
X146483072Y-115439414D01*
X146623212Y-115541232D01*
X146777555Y-115619873D01*
X146942299Y-115673402D01*
X147113389Y-115700500D01*
X147113390Y-115700500D01*
X147286610Y-115700500D01*
X147286611Y-115700500D01*
X147457701Y-115673402D01*
X147622445Y-115619873D01*
X147776788Y-115541232D01*
X147916928Y-115439414D01*
X148039414Y-115316928D01*
X148141232Y-115176788D01*
X148219873Y-115022445D01*
X148273402Y-114857701D01*
X148300500Y-114686611D01*
X148300500Y-114513389D01*
X148273402Y-114342299D01*
X148219873Y-114177555D01*
X148141232Y-114023212D01*
X148039414Y-113883072D01*
X147916928Y-113760586D01*
X147776788Y-113658768D01*
X147622445Y-113580127D01*
X147457701Y-113526598D01*
X147457699Y-113526597D01*
X147457698Y-113526597D01*
X147326271Y-113505781D01*
X147286611Y-113499500D01*
X147113389Y-113499500D01*
X147073728Y-113505781D01*
X146942302Y-113526597D01*
X146777552Y-113580128D01*
X146623211Y-113658768D01*
X146595014Y-113679255D01*
X146483072Y-113760586D01*
X146483070Y-113760588D01*
X146483069Y-113760588D01*
X146360588Y-113883069D01*
X146360588Y-113883070D01*
X146360586Y-113883072D01*
X146316859Y-113943256D01*
X146258768Y-114023211D01*
X146180128Y-114177552D01*
X146126597Y-114342302D01*
X146099500Y-114513389D01*
X133360415Y-114513389D01*
X131290969Y-112443943D01*
X131290968Y-112443942D01*
X131196028Y-112380506D01*
X131167389Y-112361370D01*
X131167386Y-112361368D01*
X131167385Y-112361368D01*
X131086955Y-112328053D01*
X131030080Y-112304495D01*
X131005894Y-112299684D01*
X130884314Y-112275499D01*
X130884312Y-112275499D01*
X130735688Y-112275499D01*
X130729574Y-112275499D01*
X130729554Y-112275500D01*
X127080446Y-112275500D01*
X127080426Y-112275499D01*
X127074312Y-112275499D01*
X126925688Y-112275499D01*
X126925686Y-112275499D01*
X126804105Y-112299684D01*
X126789540Y-112302581D01*
X126779918Y-112304495D01*
X126779917Y-112304495D01*
X126723045Y-112328052D01*
X126723045Y-112328053D01*
X126642616Y-112361368D01*
X126642609Y-112361371D01*
X126519033Y-112443941D01*
X126466487Y-112496487D01*
X126413941Y-112549034D01*
X126413939Y-112549036D01*
X118807357Y-120155616D01*
X118781869Y-120173705D01*
X118782373Y-120174507D01*
X118623737Y-120274184D01*
X118496184Y-120401737D01*
X118400210Y-120554478D01*
X118340630Y-120724750D01*
X118332898Y-120793383D01*
X118305832Y-120857797D01*
X118248237Y-120897352D01*
X118209678Y-120903500D01*
X109342281Y-120903500D01*
X109275242Y-120883815D01*
X109254600Y-120867181D01*
X97913819Y-109526400D01*
X97880334Y-109465077D01*
X97877500Y-109438719D01*
X97877500Y-105749996D01*
X98444435Y-105749996D01*
X98444435Y-105750003D01*
X98464630Y-105929249D01*
X98464631Y-105929254D01*
X98524211Y-106099523D01*
X98610852Y-106237411D01*
X98620184Y-106252262D01*
X98747738Y-106379816D01*
X98900478Y-106475789D01*
X99045679Y-106526597D01*
X99070745Y-106535368D01*
X99070750Y-106535369D01*
X99249996Y-106555565D01*
X99250000Y-106555565D01*
X99250004Y-106555565D01*
X99429249Y-106535369D01*
X99429252Y-106535368D01*
X99429255Y-106535368D01*
X99599522Y-106475789D01*
X99725700Y-106396505D01*
X99791672Y-106377500D01*
X115561804Y-106377500D01*
X115561805Y-106377499D01*
X115683035Y-106353386D01*
X115763784Y-106319937D01*
X115797233Y-106306083D01*
X115900008Y-106237411D01*
X115987411Y-106150008D01*
X116737411Y-105400008D01*
X116763809Y-105360500D01*
X116806083Y-105297233D01*
X116853385Y-105183035D01*
X116860612Y-105146700D01*
X116876883Y-105064907D01*
X116909268Y-105002996D01*
X116969984Y-104968422D01*
X117039753Y-104972162D01*
X117096425Y-105013029D01*
X117122007Y-105078047D01*
X117122500Y-105089099D01*
X117122500Y-107188719D01*
X117102815Y-107255758D01*
X117086181Y-107276400D01*
X116776400Y-107586181D01*
X116715077Y-107619666D01*
X116688719Y-107622500D01*
X99791672Y-107622500D01*
X99725700Y-107603494D01*
X99599523Y-107524211D01*
X99429254Y-107464631D01*
X99429249Y-107464630D01*
X99250004Y-107444435D01*
X99249996Y-107444435D01*
X99070750Y-107464630D01*
X99070745Y-107464631D01*
X98900476Y-107524211D01*
X98747737Y-107620184D01*
X98620184Y-107747737D01*
X98524211Y-107900476D01*
X98464631Y-108070745D01*
X98464630Y-108070750D01*
X98444435Y-108249996D01*
X98444435Y-108250003D01*
X98464630Y-108429249D01*
X98464631Y-108429254D01*
X98524211Y-108599523D01*
X98536997Y-108619871D01*
X98620184Y-108752262D01*
X98747738Y-108879816D01*
X98774300Y-108896506D01*
X98859417Y-108949989D01*
X98900478Y-108975789D01*
X99017778Y-109016834D01*
X99070745Y-109035368D01*
X99070750Y-109035369D01*
X99249996Y-109055565D01*
X99250000Y-109055565D01*
X99250004Y-109055565D01*
X99429249Y-109035369D01*
X99429252Y-109035368D01*
X99429255Y-109035368D01*
X99599522Y-108975789D01*
X99725700Y-108896505D01*
X99791672Y-108877500D01*
X114609096Y-108877500D01*
X114676135Y-108897185D01*
X114721890Y-108949989D01*
X114731834Y-109019147D01*
X114702809Y-109082703D01*
X114688058Y-109096863D01*
X114559184Y-109225737D01*
X114463211Y-109378476D01*
X114403631Y-109548745D01*
X114403630Y-109548750D01*
X114383435Y-109727996D01*
X114383435Y-109728003D01*
X114403630Y-109907249D01*
X114403631Y-109907254D01*
X114463211Y-110077523D01*
X114508757Y-110150008D01*
X114559184Y-110230262D01*
X114686738Y-110357816D01*
X114748505Y-110396627D01*
X114839022Y-110453503D01*
X114839478Y-110453789D01*
X114941417Y-110489459D01*
X115009745Y-110513368D01*
X115009750Y-110513369D01*
X115188996Y-110533565D01*
X115189000Y-110533565D01*
X115189004Y-110533565D01*
X115368249Y-110513369D01*
X115368251Y-110513368D01*
X115368255Y-110513368D01*
X115368258Y-110513366D01*
X115368262Y-110513366D01*
X115436585Y-110489459D01*
X115477540Y-110482500D01*
X115495688Y-110482500D01*
X116263212Y-110482500D01*
X116263232Y-110482501D01*
X116269346Y-110482501D01*
X116417972Y-110482501D01*
X116539552Y-110458315D01*
X116539552Y-110458316D01*
X116539558Y-110458313D01*
X116563738Y-110453505D01*
X116599600Y-110438649D01*
X116620602Y-110429951D01*
X116620605Y-110429949D01*
X116620613Y-110429946D01*
X116701047Y-110396630D01*
X116824624Y-110314059D01*
X118857963Y-108280718D01*
X118857966Y-108280717D01*
X118963059Y-108175624D01*
X119033136Y-108070745D01*
X119045630Y-108052047D01*
X119045633Y-108052043D01*
X119102503Y-107914741D01*
X119102505Y-107914737D01*
X119113851Y-107857697D01*
X119131501Y-107768972D01*
X119131501Y-107615236D01*
X119131500Y-107615210D01*
X119131500Y-107513389D01*
X146099500Y-107513389D01*
X146099500Y-107686610D01*
X146112929Y-107771402D01*
X146126598Y-107857701D01*
X146180127Y-108022445D01*
X146258768Y-108176788D01*
X146360586Y-108316928D01*
X146483072Y-108439414D01*
X146623212Y-108541232D01*
X146777555Y-108619873D01*
X146942299Y-108673402D01*
X147113389Y-108700500D01*
X147113390Y-108700500D01*
X147286610Y-108700500D01*
X147286611Y-108700500D01*
X147457701Y-108673402D01*
X147622445Y-108619873D01*
X147776788Y-108541232D01*
X147916928Y-108439414D01*
X148039414Y-108316928D01*
X148141232Y-108176788D01*
X148219873Y-108022445D01*
X148273402Y-107857701D01*
X148300500Y-107686611D01*
X148300500Y-107513389D01*
X148273402Y-107342299D01*
X148219873Y-107177555D01*
X148141232Y-107023212D01*
X148039414Y-106883072D01*
X147916928Y-106760586D01*
X147776788Y-106658768D01*
X147622445Y-106580127D01*
X147457701Y-106526598D01*
X147457699Y-106526597D01*
X147457698Y-106526597D01*
X147326271Y-106505781D01*
X147286611Y-106499500D01*
X147113389Y-106499500D01*
X147073728Y-106505781D01*
X146942302Y-106526597D01*
X146777552Y-106580128D01*
X146623211Y-106658768D01*
X146543256Y-106716859D01*
X146483072Y-106760586D01*
X146483070Y-106760588D01*
X146483069Y-106760588D01*
X146360588Y-106883069D01*
X146360588Y-106883070D01*
X146360586Y-106883072D01*
X146316859Y-106943256D01*
X146258768Y-107023211D01*
X146180128Y-107177552D01*
X146126597Y-107342302D01*
X146099500Y-107513389D01*
X119131500Y-107513389D01*
X119131500Y-106968537D01*
X119138459Y-106927582D01*
X119162368Y-106859255D01*
X119182565Y-106680000D01*
X119181483Y-106670401D01*
X119162369Y-106500750D01*
X119162368Y-106500745D01*
X119154000Y-106476830D01*
X119102789Y-106330478D01*
X119006816Y-106177738D01*
X118879262Y-106050184D01*
X118844907Y-106028597D01*
X118726521Y-105954210D01*
X118556249Y-105894630D01*
X118487616Y-105886897D01*
X118423202Y-105859830D01*
X118383647Y-105802235D01*
X118377500Y-105763677D01*
X118377500Y-100493887D01*
X118397185Y-100426848D01*
X118449989Y-100381093D01*
X118519147Y-100371149D01*
X118582703Y-100400174D01*
X118589181Y-100406206D01*
X119580615Y-101397639D01*
X119598704Y-101423130D01*
X119599507Y-101422626D01*
X119603210Y-101428519D01*
X119603211Y-101428522D01*
X119699184Y-101581262D01*
X119826738Y-101708816D01*
X119904207Y-101757493D01*
X119969817Y-101798719D01*
X119979478Y-101804789D01*
X120022946Y-101819999D01*
X120149745Y-101864368D01*
X120149750Y-101864369D01*
X120328996Y-101884565D01*
X120329000Y-101884565D01*
X120329004Y-101884565D01*
X120508249Y-101864369D01*
X120508252Y-101864368D01*
X120508255Y-101864368D01*
X120678522Y-101804789D01*
X120831262Y-101708816D01*
X120958816Y-101581262D01*
X121054789Y-101428522D01*
X121114368Y-101258255D01*
X121122886Y-101182655D01*
X121134565Y-101079003D01*
X121134565Y-101078996D01*
X121114369Y-100899750D01*
X121114368Y-100899745D01*
X121072994Y-100781505D01*
X121054789Y-100729478D01*
X120958816Y-100576738D01*
X120831262Y-100449184D01*
X120678522Y-100353211D01*
X120678519Y-100353210D01*
X120672626Y-100349507D01*
X120673130Y-100348704D01*
X120647639Y-100330615D01*
X119790819Y-99473794D01*
X119757334Y-99412471D01*
X119754500Y-99386113D01*
X119754500Y-92878500D01*
X119774185Y-92811461D01*
X119826989Y-92765706D01*
X119878500Y-92754500D01*
X120711460Y-92754500D01*
X120752415Y-92761459D01*
X120820737Y-92785366D01*
X120820743Y-92785367D01*
X120820745Y-92785368D01*
X120820746Y-92785368D01*
X120820750Y-92785369D01*
X120999996Y-92805565D01*
X121000000Y-92805565D01*
X121000004Y-92805565D01*
X121179249Y-92785369D01*
X121179252Y-92785368D01*
X121179255Y-92785368D01*
X121349522Y-92725789D01*
X121502262Y-92629816D01*
X121629816Y-92502262D01*
X121725789Y-92349522D01*
X121785368Y-92179255D01*
X121805565Y-92000000D01*
X121803415Y-91980922D01*
X121785369Y-91820750D01*
X121785368Y-91820745D01*
X121761458Y-91752414D01*
X121754500Y-91711459D01*
X121754500Y-91113885D01*
X121774185Y-91046846D01*
X121790814Y-91026209D01*
X122774026Y-90042996D01*
X127464435Y-90042996D01*
X127464435Y-90043003D01*
X127484630Y-90222249D01*
X127484631Y-90222254D01*
X127544211Y-90392523D01*
X127586899Y-90460460D01*
X127640184Y-90545262D01*
X127767738Y-90672816D01*
X127850769Y-90724988D01*
X127917915Y-90767179D01*
X127920478Y-90768789D01*
X128025578Y-90805565D01*
X128090745Y-90828368D01*
X128090750Y-90828369D01*
X128269996Y-90848565D01*
X128270000Y-90848565D01*
X128270004Y-90848565D01*
X128449249Y-90828369D01*
X128449252Y-90828368D01*
X128449255Y-90828368D01*
X128619522Y-90768789D01*
X128772262Y-90672816D01*
X128772267Y-90672810D01*
X128775097Y-90670555D01*
X128777275Y-90669665D01*
X128778158Y-90669111D01*
X128778255Y-90669265D01*
X128839783Y-90644145D01*
X128852412Y-90643500D01*
X129620331Y-90643500D01*
X129620347Y-90643501D01*
X129627943Y-90643501D01*
X129786055Y-90643501D01*
X129786057Y-90643501D01*
X129812723Y-90636355D01*
X129830007Y-90631725D01*
X129862099Y-90627500D01*
X137458328Y-90627500D01*
X137524300Y-90646506D01*
X137560275Y-90669111D01*
X137650478Y-90725789D01*
X137768758Y-90767177D01*
X137820745Y-90785368D01*
X137820750Y-90785369D01*
X137999996Y-90805565D01*
X138000000Y-90805565D01*
X138000004Y-90805565D01*
X138179249Y-90785369D01*
X138179252Y-90785368D01*
X138179255Y-90785368D01*
X138349522Y-90725789D01*
X138502262Y-90629816D01*
X138629816Y-90502262D01*
X138725789Y-90349522D01*
X138785368Y-90179255D01*
X138787707Y-90158495D01*
X138805565Y-90000003D01*
X138805565Y-89999996D01*
X138785369Y-89820750D01*
X138785368Y-89820745D01*
X138769040Y-89774083D01*
X138725789Y-89650478D01*
X138723032Y-89646091D01*
X138642460Y-89517861D01*
X138629816Y-89497738D01*
X138502262Y-89370184D01*
X138469379Y-89349522D01*
X138349523Y-89274211D01*
X138179254Y-89214631D01*
X138179249Y-89214630D01*
X138000004Y-89194435D01*
X137999996Y-89194435D01*
X137820750Y-89214630D01*
X137820745Y-89214631D01*
X137650476Y-89274211D01*
X137524300Y-89353494D01*
X137458328Y-89372500D01*
X129688195Y-89372500D01*
X129566970Y-89396613D01*
X129566964Y-89396615D01*
X129526964Y-89413184D01*
X129478974Y-89433061D01*
X129431524Y-89442500D01*
X128852412Y-89442500D01*
X128785373Y-89422815D01*
X128775097Y-89415445D01*
X128772263Y-89413185D01*
X128772262Y-89413184D01*
X128680312Y-89355408D01*
X128619523Y-89317211D01*
X128449254Y-89257631D01*
X128449249Y-89257630D01*
X128270004Y-89237435D01*
X128269996Y-89237435D01*
X128090750Y-89257630D01*
X128090745Y-89257631D01*
X127920476Y-89317211D01*
X127767737Y-89413184D01*
X127640184Y-89540737D01*
X127544211Y-89693476D01*
X127484631Y-89863745D01*
X127484630Y-89863750D01*
X127464435Y-90042996D01*
X122774026Y-90042996D01*
X123068639Y-89748383D01*
X123094130Y-89730301D01*
X123093624Y-89729495D01*
X123099522Y-89725789D01*
X123252262Y-89629816D01*
X123379816Y-89502262D01*
X123475789Y-89349522D01*
X123535368Y-89179255D01*
X123538663Y-89150011D01*
X123555565Y-89000003D01*
X123555565Y-88999996D01*
X123535369Y-88820750D01*
X123535368Y-88820745D01*
X123500113Y-88719992D01*
X123475789Y-88650478D01*
X123379816Y-88497738D01*
X123252262Y-88370184D01*
X123099522Y-88274211D01*
X123099519Y-88274210D01*
X123093626Y-88270507D01*
X123094130Y-88269704D01*
X123068639Y-88251615D01*
X122073635Y-87256611D01*
X122040150Y-87195288D01*
X122038096Y-87155047D01*
X122055565Y-87000003D01*
X122055565Y-86999996D01*
X122035369Y-86820750D01*
X122035367Y-86820742D01*
X122011458Y-86752414D01*
X122004500Y-86711459D01*
X122004500Y-85288537D01*
X122011459Y-85247582D01*
X122019858Y-85223580D01*
X122035368Y-85179255D01*
X122044352Y-85099521D01*
X122055565Y-85000003D01*
X122055565Y-84999996D01*
X125444435Y-84999996D01*
X125444435Y-85000003D01*
X125464630Y-85179249D01*
X125464631Y-85179254D01*
X125524211Y-85349523D01*
X125618563Y-85499682D01*
X125620184Y-85502262D01*
X125747738Y-85629816D01*
X125900478Y-85725789D01*
X126070745Y-85785368D01*
X126070750Y-85785369D01*
X126165999Y-85796100D01*
X126199569Y-85804759D01*
X126316960Y-85853383D01*
X126316965Y-85853385D01*
X126316969Y-85853385D01*
X126316970Y-85853386D01*
X126438193Y-85877500D01*
X126438196Y-85877500D01*
X126438197Y-85877500D01*
X131835328Y-85877500D01*
X131901300Y-85896506D01*
X131974745Y-85942655D01*
X132027478Y-85975789D01*
X132165014Y-86023915D01*
X132197745Y-86035368D01*
X132197750Y-86035369D01*
X132376996Y-86055565D01*
X132377000Y-86055565D01*
X132377004Y-86055565D01*
X132556249Y-86035369D01*
X132556252Y-86035368D01*
X132556255Y-86035368D01*
X132726522Y-85975789D01*
X132879262Y-85879816D01*
X133006816Y-85752262D01*
X133102789Y-85599522D01*
X133162368Y-85429255D01*
X133164992Y-85405965D01*
X133182565Y-85250003D01*
X133182565Y-85249996D01*
X133162369Y-85070750D01*
X133162368Y-85070745D01*
X133114107Y-84932823D01*
X133102789Y-84900478D01*
X133093290Y-84885361D01*
X133055594Y-84825368D01*
X133006816Y-84747738D01*
X132913818Y-84654740D01*
X132880334Y-84593416D01*
X132877500Y-84567059D01*
X132877500Y-81014671D01*
X132896507Y-80948698D01*
X132898487Y-80945548D01*
X132975789Y-80822522D01*
X133035368Y-80652255D01*
X133035369Y-80652249D01*
X133055565Y-80473003D01*
X133055565Y-80472996D01*
X133035369Y-80293750D01*
X133035368Y-80293745D01*
X133013063Y-80230000D01*
X132975789Y-80123478D01*
X132960736Y-80099522D01*
X132920426Y-80035368D01*
X132879816Y-79970738D01*
X132752262Y-79843184D01*
X132733511Y-79831402D01*
X132599523Y-79747211D01*
X132429254Y-79687631D01*
X132429249Y-79687630D01*
X132250004Y-79667435D01*
X132249996Y-79667435D01*
X132070750Y-79687630D01*
X132070745Y-79687631D01*
X131900476Y-79747211D01*
X131747737Y-79843184D01*
X131620184Y-79970737D01*
X131524211Y-80123476D01*
X131464631Y-80293745D01*
X131464630Y-80293750D01*
X131444435Y-80472996D01*
X131444435Y-80473003D01*
X131464630Y-80652249D01*
X131464631Y-80652254D01*
X131524211Y-80822524D01*
X131573194Y-80900478D01*
X131601513Y-80945548D01*
X131603493Y-80948698D01*
X131622500Y-81014671D01*
X131622500Y-84498500D01*
X131602815Y-84565539D01*
X131550011Y-84611294D01*
X131498500Y-84622500D01*
X127026742Y-84622500D01*
X126959703Y-84602815D01*
X126921749Y-84564473D01*
X126879817Y-84497739D01*
X126752262Y-84370184D01*
X126599523Y-84274211D01*
X126429254Y-84214631D01*
X126429249Y-84214630D01*
X126250004Y-84194435D01*
X126249996Y-84194435D01*
X126070750Y-84214630D01*
X126070745Y-84214631D01*
X125900476Y-84274211D01*
X125747737Y-84370184D01*
X125620184Y-84497737D01*
X125524211Y-84650476D01*
X125464631Y-84820745D01*
X125464630Y-84820750D01*
X125444435Y-84999996D01*
X122055565Y-84999996D01*
X122035369Y-84820750D01*
X122035368Y-84820745D01*
X121982737Y-84670334D01*
X121975789Y-84650478D01*
X121879816Y-84497738D01*
X121752262Y-84370184D01*
X121737522Y-84360922D01*
X121599523Y-84274211D01*
X121429254Y-84214631D01*
X121429249Y-84214630D01*
X121250004Y-84194435D01*
X121249996Y-84194435D01*
X121070750Y-84214630D01*
X121070745Y-84214631D01*
X120900476Y-84274211D01*
X120747737Y-84370184D01*
X120620184Y-84497737D01*
X120524211Y-84650476D01*
X120464631Y-84820745D01*
X120464630Y-84820750D01*
X120444435Y-84999996D01*
X120444435Y-85000003D01*
X120464630Y-85179246D01*
X120464632Y-85179256D01*
X120488541Y-85247582D01*
X120495500Y-85288537D01*
X120495500Y-86711459D01*
X120488542Y-86752414D01*
X120464633Y-86820742D01*
X120464630Y-86820750D01*
X120444435Y-86999996D01*
X120444435Y-87000003D01*
X120464630Y-87179246D01*
X120464632Y-87179256D01*
X120488541Y-87247582D01*
X120495500Y-87288537D01*
X120495500Y-87420552D01*
X120495499Y-87420578D01*
X120495499Y-87425688D01*
X120495499Y-87574312D01*
X120495499Y-87574314D01*
X120495498Y-87574314D01*
X120524493Y-87720073D01*
X120524496Y-87720083D01*
X120581366Y-87857381D01*
X120581372Y-87857392D01*
X120663942Y-87980968D01*
X121595293Y-88912319D01*
X121628778Y-88973642D01*
X121623794Y-89043334D01*
X121595293Y-89087681D01*
X120413943Y-90269030D01*
X120413942Y-90269031D01*
X120331372Y-90392607D01*
X120331366Y-90392617D01*
X120305381Y-90455356D01*
X120303267Y-90460459D01*
X120286796Y-90500223D01*
X120277149Y-90523515D01*
X120277148Y-90523516D01*
X120277147Y-90523515D01*
X120274496Y-90529915D01*
X120274493Y-90529927D01*
X120245499Y-90675685D01*
X120245499Y-90830425D01*
X120245500Y-90830446D01*
X120245500Y-91121500D01*
X120225815Y-91188539D01*
X120173011Y-91234294D01*
X120121500Y-91245500D01*
X118925683Y-91245500D01*
X118779927Y-91274493D01*
X118779919Y-91274495D01*
X118642611Y-91331370D01*
X118570390Y-91379626D01*
X118503712Y-91400503D01*
X118436332Y-91382018D01*
X118389642Y-91330038D01*
X118377500Y-91276523D01*
X118377500Y-84061280D01*
X118397185Y-83994241D01*
X118413814Y-83973604D01*
X121811567Y-80575850D01*
X121872888Y-80542367D01*
X121885345Y-80540315D01*
X121929255Y-80535368D01*
X122099522Y-80475789D01*
X122252262Y-80379816D01*
X122379816Y-80252262D01*
X122475789Y-80099522D01*
X122507958Y-80007587D01*
X122548680Y-79950812D01*
X122613633Y-79925065D01*
X122682194Y-79938521D01*
X122732597Y-79986908D01*
X122742041Y-80007587D01*
X122743792Y-80012589D01*
X122774211Y-80099523D01*
X122830645Y-80189336D01*
X122870184Y-80252262D01*
X122997738Y-80379816D01*
X123036381Y-80404097D01*
X123132721Y-80464632D01*
X123150478Y-80475789D01*
X123320745Y-80535368D01*
X123364635Y-80540313D01*
X123429048Y-80567378D01*
X123438433Y-80575852D01*
X123762589Y-80900008D01*
X123808129Y-80945548D01*
X123849994Y-80987413D01*
X123849996Y-80987414D01*
X123952756Y-81056076D01*
X123952760Y-81056078D01*
X123952767Y-81056083D01*
X124024260Y-81085696D01*
X124066965Y-81103385D01*
X124066969Y-81103385D01*
X124066970Y-81103386D01*
X124188194Y-81127500D01*
X124188197Y-81127500D01*
X124311803Y-81127500D01*
X128188719Y-81127500D01*
X128255758Y-81147185D01*
X128276400Y-81163819D01*
X128424146Y-81311565D01*
X128457631Y-81372888D01*
X128459685Y-81385361D01*
X128464630Y-81429249D01*
X128524210Y-81599521D01*
X128538336Y-81622002D01*
X128620184Y-81752262D01*
X128747738Y-81879816D01*
X128780666Y-81900506D01*
X128881179Y-81963663D01*
X128900478Y-81975789D01*
X129025857Y-82019661D01*
X129070745Y-82035368D01*
X129070750Y-82035369D01*
X129249996Y-82055565D01*
X129250000Y-82055565D01*
X129250004Y-82055565D01*
X129429249Y-82035369D01*
X129429252Y-82035368D01*
X129429255Y-82035368D01*
X129599522Y-81975789D01*
X129752262Y-81879816D01*
X129879816Y-81752262D01*
X129975789Y-81599522D01*
X130035368Y-81429255D01*
X130045172Y-81342247D01*
X130055565Y-81250000D01*
X130055565Y-81249996D01*
X130035369Y-81070750D01*
X130035368Y-81070745D01*
X129992662Y-80948698D01*
X129975789Y-80900478D01*
X129879816Y-80747738D01*
X129752262Y-80620184D01*
X129668222Y-80567378D01*
X129599521Y-80524210D01*
X129429249Y-80464630D01*
X129385361Y-80459685D01*
X129320948Y-80432617D01*
X129311566Y-80424146D01*
X128900010Y-80012590D01*
X128878916Y-79998496D01*
X128878915Y-79998495D01*
X128797239Y-79943920D01*
X128797226Y-79943913D01*
X128751772Y-79925086D01*
X128683035Y-79896614D01*
X128683027Y-79896612D01*
X128561807Y-79872500D01*
X128561803Y-79872500D01*
X124561281Y-79872500D01*
X124494242Y-79852815D01*
X124473600Y-79836181D01*
X124325852Y-79688433D01*
X124292367Y-79627110D01*
X124290313Y-79614637D01*
X124285368Y-79570745D01*
X124225789Y-79400478D01*
X124131235Y-79249996D01*
X140444435Y-79249996D01*
X140444435Y-79250003D01*
X140464630Y-79429249D01*
X140464631Y-79429254D01*
X140524211Y-79599524D01*
X140603493Y-79725698D01*
X140622500Y-79791671D01*
X140622500Y-81561807D01*
X140646612Y-81683027D01*
X140646614Y-81683035D01*
X140676282Y-81754659D01*
X140693915Y-81797230D01*
X140731436Y-81853383D01*
X140731436Y-81853384D01*
X140762590Y-81900010D01*
X140762593Y-81900013D01*
X143674146Y-84811565D01*
X143707631Y-84872888D01*
X143709685Y-84885361D01*
X143714630Y-84929249D01*
X143714631Y-84929254D01*
X143714632Y-84929255D01*
X143722538Y-84951849D01*
X143774210Y-85099521D01*
X143864736Y-85243592D01*
X143870184Y-85252262D01*
X143997738Y-85379816D01*
X144150478Y-85475789D01*
X144318667Y-85534641D01*
X144320745Y-85535368D01*
X144320750Y-85535369D01*
X144499996Y-85555565D01*
X144500000Y-85555565D01*
X144500004Y-85555565D01*
X144679249Y-85535369D01*
X144679252Y-85535368D01*
X144679255Y-85535368D01*
X144849522Y-85475789D01*
X145002262Y-85379816D01*
X145129816Y-85252262D01*
X145225789Y-85099522D01*
X145285368Y-84929255D01*
X145287380Y-84911401D01*
X145305565Y-84750003D01*
X145305565Y-84749996D01*
X145285369Y-84570750D01*
X145285368Y-84570745D01*
X145239795Y-84440505D01*
X145225789Y-84400478D01*
X145129816Y-84247738D01*
X145002262Y-84120184D01*
X144874655Y-84040003D01*
X144849521Y-84024210D01*
X144679249Y-83964630D01*
X144635361Y-83959685D01*
X144570947Y-83932617D01*
X144561565Y-83924146D01*
X141913819Y-81276400D01*
X141880334Y-81215077D01*
X141877500Y-81188719D01*
X141877500Y-79791671D01*
X141896507Y-79725698D01*
X141925818Y-79679051D01*
X141951716Y-79637834D01*
X141975788Y-79599524D01*
X141975789Y-79599522D01*
X142035368Y-79429255D01*
X142038610Y-79400480D01*
X142055565Y-79250003D01*
X142055565Y-79249996D01*
X142035369Y-79070750D01*
X142035368Y-79070745D01*
X141998237Y-78964630D01*
X141975789Y-78900478D01*
X141973913Y-78897493D01*
X141894424Y-78770987D01*
X141879816Y-78747738D01*
X141752262Y-78620184D01*
X141720127Y-78599992D01*
X141599523Y-78524211D01*
X141429254Y-78464631D01*
X141429249Y-78464630D01*
X141250004Y-78444435D01*
X141249996Y-78444435D01*
X141070750Y-78464630D01*
X141070745Y-78464631D01*
X140900476Y-78524211D01*
X140747737Y-78620184D01*
X140620184Y-78747737D01*
X140524211Y-78900476D01*
X140464631Y-79070745D01*
X140464630Y-79070750D01*
X140444435Y-79249996D01*
X124131235Y-79249996D01*
X124129816Y-79247738D01*
X124002262Y-79120184D01*
X123941496Y-79082002D01*
X123849523Y-79024211D01*
X123679254Y-78964631D01*
X123679249Y-78964630D01*
X123500004Y-78944435D01*
X123499996Y-78944435D01*
X123320750Y-78964630D01*
X123320745Y-78964631D01*
X123150476Y-79024211D01*
X122997737Y-79120184D01*
X122870184Y-79247737D01*
X122774209Y-79400480D01*
X122742041Y-79492411D01*
X122701320Y-79549187D01*
X122636367Y-79574934D01*
X122567805Y-79561478D01*
X122517403Y-79513090D01*
X122507959Y-79492411D01*
X122475790Y-79400480D01*
X122475789Y-79400478D01*
X122379816Y-79247738D01*
X122252262Y-79120184D01*
X122191496Y-79082002D01*
X122099523Y-79024211D01*
X121929254Y-78964631D01*
X121929249Y-78964630D01*
X121750004Y-78944435D01*
X121749996Y-78944435D01*
X121570750Y-78964630D01*
X121570742Y-78964632D01*
X121471373Y-78999403D01*
X121401594Y-79002964D01*
X121340967Y-78968235D01*
X121308740Y-78906242D01*
X121315146Y-78836666D01*
X121342734Y-78794684D01*
X121405246Y-78732172D01*
X121466568Y-78698690D01*
X121492925Y-78695856D01*
X131325622Y-78695856D01*
X131378520Y-78711104D01*
X131379828Y-78708389D01*
X131386093Y-78711406D01*
X131386094Y-78711407D01*
X131496395Y-78750003D01*
X131556361Y-78770986D01*
X131556366Y-78770987D01*
X131735612Y-78791183D01*
X131735616Y-78791183D01*
X131735620Y-78791183D01*
X131914865Y-78770987D01*
X131914868Y-78770986D01*
X131914871Y-78770986D01*
X132085138Y-78711407D01*
X132237878Y-78615434D01*
X132365432Y-78487880D01*
X132461405Y-78335140D01*
X132520984Y-78164873D01*
X132521382Y-78161342D01*
X132541181Y-77985621D01*
X132541181Y-77985614D01*
X132520985Y-77806368D01*
X132520984Y-77806363D01*
X132480267Y-77690000D01*
X132461405Y-77636096D01*
X132453544Y-77623586D01*
X132386579Y-77517011D01*
X132365432Y-77483356D01*
X132237878Y-77355802D01*
X132085139Y-77259829D01*
X131914870Y-77200249D01*
X131914865Y-77200248D01*
X131735620Y-77180053D01*
X131735612Y-77180053D01*
X131556366Y-77200248D01*
X131556361Y-77200249D01*
X131386092Y-77259829D01*
X131233353Y-77355802D01*
X131184619Y-77404537D01*
X131123296Y-77438022D01*
X131096938Y-77440856D01*
X121119836Y-77440856D01*
X120998617Y-77464968D01*
X120998609Y-77464970D01*
X120954223Y-77483356D01*
X120954222Y-77483356D01*
X120884417Y-77512269D01*
X120884404Y-77512276D01*
X120802560Y-77566963D01*
X120802559Y-77566965D01*
X120798294Y-77569815D01*
X120781630Y-77580949D01*
X117051016Y-81311565D01*
X115849992Y-82512589D01*
X115762589Y-82599992D01*
X115716146Y-82669500D01*
X115693916Y-82702769D01*
X115680061Y-82736214D01*
X115680062Y-82736215D01*
X115655996Y-82794316D01*
X115646614Y-82816965D01*
X115630096Y-82900008D01*
X115630096Y-82900009D01*
X115622500Y-82938195D01*
X115622500Y-104688719D01*
X115602815Y-104755758D01*
X115586181Y-104776400D01*
X115276400Y-105086181D01*
X115215077Y-105119666D01*
X115188719Y-105122500D01*
X99791672Y-105122500D01*
X99725700Y-105103494D01*
X99599523Y-105024211D01*
X99429254Y-104964631D01*
X99429249Y-104964630D01*
X99250004Y-104944435D01*
X99249996Y-104944435D01*
X99070750Y-104964630D01*
X99070745Y-104964631D01*
X98900476Y-105024211D01*
X98747737Y-105120184D01*
X98620184Y-105247737D01*
X98524211Y-105400476D01*
X98464631Y-105570745D01*
X98464630Y-105570750D01*
X98444435Y-105749996D01*
X97877500Y-105749996D01*
X97877500Y-97529774D01*
X97897185Y-97462735D01*
X97949989Y-97416980D01*
X98019147Y-97407036D01*
X98082703Y-97436061D01*
X98101818Y-97456888D01*
X98102842Y-97458298D01*
X98102843Y-97458299D01*
X98229641Y-97632821D01*
X98382179Y-97785359D01*
X98556701Y-97912157D01*
X98748911Y-98010092D01*
X98954074Y-98076754D01*
X99033973Y-98089408D01*
X99167134Y-98110500D01*
X99167139Y-98110500D01*
X99832860Y-98110500D01*
X99832861Y-98110500D01*
X99987330Y-98086034D01*
X100054175Y-98093945D01*
X100076965Y-98103385D01*
X100106653Y-98109290D01*
X100198194Y-98127500D01*
X100198197Y-98127500D01*
X105311804Y-98127500D01*
X105311805Y-98127499D01*
X105433035Y-98103386D01*
X105513784Y-98069937D01*
X105547233Y-98056083D01*
X105650008Y-97987411D01*
X105737411Y-97900008D01*
X106061568Y-97575849D01*
X106122888Y-97542367D01*
X106135345Y-97540315D01*
X106179255Y-97535368D01*
X106349522Y-97475789D01*
X106502262Y-97379816D01*
X106629816Y-97252262D01*
X106725789Y-97099522D01*
X106785368Y-96929255D01*
X106787650Y-96909000D01*
X106805565Y-96750003D01*
X106805565Y-96749996D01*
X106785369Y-96570750D01*
X106785368Y-96570745D01*
X106725788Y-96400476D01*
X106647786Y-96276337D01*
X106629816Y-96247738D01*
X106502262Y-96120184D01*
X106425188Y-96071755D01*
X106349523Y-96024211D01*
X106179254Y-95964631D01*
X106179249Y-95964630D01*
X106000004Y-95944435D01*
X105999996Y-95944435D01*
X105820750Y-95964630D01*
X105820745Y-95964631D01*
X105650476Y-96024211D01*
X105497737Y-96120184D01*
X105370184Y-96247737D01*
X105274210Y-96400478D01*
X105214632Y-96570745D01*
X105209686Y-96614637D01*
X105182618Y-96679051D01*
X105174148Y-96688432D01*
X105026398Y-96836182D01*
X104965078Y-96869666D01*
X104938719Y-96872500D01*
X101219500Y-96872500D01*
X101152461Y-96852815D01*
X101106706Y-96800011D01*
X101095500Y-96748500D01*
X101095500Y-96632133D01*
X101061754Y-96419077D01*
X101061754Y-96419074D01*
X100995092Y-96213911D01*
X100897157Y-96021701D01*
X100770359Y-95847179D01*
X100617821Y-95694641D01*
X100446704Y-95570317D01*
X100404040Y-95514988D01*
X100398061Y-95445374D01*
X100430667Y-95383580D01*
X100446702Y-95369684D01*
X100617821Y-95245359D01*
X100770359Y-95092821D01*
X100897157Y-94918299D01*
X100995092Y-94726089D01*
X101061754Y-94520926D01*
X101085817Y-94369000D01*
X101095500Y-94307866D01*
X101095500Y-94092133D01*
X101061754Y-93879077D01*
X101061754Y-93879074D01*
X100998564Y-93684599D01*
X100996570Y-93614760D01*
X101028813Y-93558604D01*
X103737411Y-90850008D01*
X103754522Y-90824399D01*
X103806083Y-90747233D01*
X103835718Y-90675688D01*
X103853386Y-90633034D01*
X103877500Y-90511803D01*
X103877500Y-90388197D01*
X103877500Y-78579983D01*
X106154500Y-78579983D01*
X106154500Y-79920001D01*
X106154501Y-79920018D01*
X106165000Y-80022796D01*
X106165001Y-80022799D01*
X106205543Y-80145145D01*
X106220186Y-80189334D01*
X106312288Y-80338656D01*
X106436344Y-80462712D01*
X106585666Y-80554814D01*
X106585667Y-80554814D01*
X106585670Y-80554816D01*
X106586828Y-80555356D01*
X106587488Y-80555937D01*
X106591813Y-80558605D01*
X106591357Y-80559343D01*
X106639268Y-80601527D01*
X106658422Y-80668720D01*
X106638208Y-80735601D01*
X106622108Y-80755420D01*
X106480022Y-80897506D01*
X106353271Y-81071963D01*
X106255372Y-81264098D01*
X106188733Y-81469190D01*
X106177519Y-81540000D01*
X107207291Y-81540000D01*
X107195548Y-81560339D01*
X107155000Y-81711667D01*
X107155000Y-81868333D01*
X107195548Y-82019661D01*
X107207291Y-82040000D01*
X106177519Y-82040000D01*
X106188733Y-82110809D01*
X106255372Y-82315901D01*
X106353271Y-82508036D01*
X106480025Y-82682496D01*
X106480025Y-82682497D01*
X106632502Y-82834974D01*
X106803720Y-82959372D01*
X106846385Y-83014702D01*
X106852364Y-83084316D01*
X106819758Y-83146110D01*
X106803720Y-83160008D01*
X106632177Y-83284642D01*
X106479643Y-83437176D01*
X106479643Y-83437177D01*
X106479641Y-83437179D01*
X106451000Y-83476600D01*
X106352843Y-83611700D01*
X106254909Y-83803908D01*
X106188245Y-84009077D01*
X106154500Y-84222133D01*
X106154500Y-84437866D01*
X106188175Y-84650478D01*
X106188246Y-84650926D01*
X106254908Y-84856089D01*
X106352843Y-85048299D01*
X106479641Y-85222821D01*
X106632179Y-85375359D01*
X106753454Y-85463471D01*
X106803294Y-85499682D01*
X106845959Y-85555012D01*
X106851938Y-85624626D01*
X106819332Y-85686421D01*
X106803294Y-85700318D01*
X106783908Y-85714403D01*
X106632179Y-85824641D01*
X106632177Y-85824643D01*
X106632176Y-85824643D01*
X106479643Y-85977176D01*
X106479643Y-85977177D01*
X106479641Y-85977179D01*
X106445686Y-86023914D01*
X106352843Y-86151700D01*
X106254909Y-86343908D01*
X106188245Y-86549077D01*
X106154500Y-86762133D01*
X106154500Y-86977866D01*
X106188245Y-87190922D01*
X106188246Y-87190926D01*
X106254908Y-87396089D01*
X106352843Y-87588299D01*
X106479641Y-87762821D01*
X106632179Y-87915359D01*
X106722479Y-87980966D01*
X106803294Y-88039682D01*
X106845959Y-88095012D01*
X106851938Y-88164626D01*
X106819332Y-88226421D01*
X106803294Y-88240318D01*
X106783908Y-88254403D01*
X106632179Y-88364641D01*
X106632177Y-88364643D01*
X106632176Y-88364643D01*
X106479643Y-88517176D01*
X106479643Y-88517177D01*
X106479641Y-88517179D01*
X106472942Y-88526400D01*
X106352843Y-88691700D01*
X106254909Y-88883908D01*
X106188245Y-89089077D01*
X106154500Y-89302133D01*
X106154500Y-89517866D01*
X106188147Y-89730301D01*
X106188246Y-89730926D01*
X106254908Y-89936089D01*
X106352843Y-90128299D01*
X106479641Y-90302821D01*
X106632179Y-90455359D01*
X106725989Y-90523516D01*
X106803294Y-90579682D01*
X106845959Y-90635012D01*
X106851938Y-90704626D01*
X106819332Y-90766421D01*
X106803294Y-90780318D01*
X106783908Y-90794403D01*
X106632179Y-90904641D01*
X106632177Y-90904643D01*
X106632176Y-90904643D01*
X106479643Y-91057176D01*
X106479643Y-91057177D01*
X106479641Y-91057179D01*
X106475758Y-91062524D01*
X106352843Y-91231700D01*
X106254909Y-91423908D01*
X106188245Y-91629077D01*
X106154500Y-91842133D01*
X106154500Y-92057866D01*
X106188245Y-92270922D01*
X106188246Y-92270926D01*
X106254908Y-92476089D01*
X106352843Y-92668299D01*
X106479641Y-92842821D01*
X106632179Y-92995359D01*
X106806701Y-93122157D01*
X106998911Y-93220092D01*
X107204074Y-93286754D01*
X107283973Y-93299408D01*
X107417134Y-93320500D01*
X107417139Y-93320500D01*
X108082866Y-93320500D01*
X108201230Y-93301752D01*
X108295926Y-93286754D01*
X108501089Y-93220092D01*
X108693299Y-93122157D01*
X108867821Y-92995359D01*
X109020359Y-92842821D01*
X109147157Y-92668299D01*
X109245092Y-92476089D01*
X109311754Y-92270926D01*
X109335078Y-92123663D01*
X109345500Y-92057866D01*
X109345500Y-91842133D01*
X109311754Y-91629077D01*
X109311754Y-91629074D01*
X109245092Y-91423911D01*
X109147157Y-91231701D01*
X109020359Y-91057179D01*
X108867821Y-90904641D01*
X108696704Y-90780317D01*
X108654040Y-90724988D01*
X108648061Y-90655374D01*
X108680667Y-90593580D01*
X108696702Y-90579684D01*
X108867821Y-90455359D01*
X109020359Y-90302821D01*
X109147157Y-90128299D01*
X109245092Y-89936089D01*
X109311754Y-89730926D01*
X109335078Y-89583663D01*
X109345500Y-89517866D01*
X109345500Y-89302133D01*
X109311754Y-89089077D01*
X109311754Y-89089074D01*
X109245092Y-88883911D01*
X109147157Y-88691701D01*
X109020359Y-88517179D01*
X108867821Y-88364641D01*
X108696704Y-88240317D01*
X108654040Y-88184988D01*
X108648061Y-88115374D01*
X108680667Y-88053580D01*
X108696702Y-88039684D01*
X108867821Y-87915359D01*
X109020359Y-87762821D01*
X109147157Y-87588299D01*
X109245092Y-87396089D01*
X109311754Y-87190926D01*
X109335078Y-87043663D01*
X109345500Y-86977866D01*
X109345500Y-86762133D01*
X109311754Y-86549077D01*
X109311754Y-86549074D01*
X109245092Y-86343911D01*
X109147157Y-86151701D01*
X109020359Y-85977179D01*
X108867821Y-85824641D01*
X108696704Y-85700317D01*
X108654040Y-85644988D01*
X108648061Y-85575374D01*
X108680667Y-85513580D01*
X108696702Y-85499684D01*
X108867821Y-85375359D01*
X109020359Y-85222821D01*
X109147157Y-85048299D01*
X109245092Y-84856089D01*
X109311754Y-84650926D01*
X109335078Y-84503663D01*
X109345500Y-84437866D01*
X109345500Y-84222133D01*
X109323002Y-84080095D01*
X109311754Y-84009074D01*
X109245092Y-83803911D01*
X109147157Y-83611701D01*
X109020359Y-83437179D01*
X108867821Y-83284641D01*
X108696279Y-83160008D01*
X108653614Y-83104678D01*
X108647635Y-83035064D01*
X108680241Y-82973269D01*
X108696280Y-82959372D01*
X108867491Y-82834979D01*
X108867497Y-82834974D01*
X109019974Y-82682497D01*
X109019974Y-82682496D01*
X109146728Y-82508036D01*
X109244627Y-82315901D01*
X109311266Y-82110809D01*
X109322481Y-82040000D01*
X108292709Y-82040000D01*
X108304452Y-82019661D01*
X108345000Y-81868333D01*
X108345000Y-81711667D01*
X108304452Y-81560339D01*
X108292709Y-81540000D01*
X109322481Y-81540000D01*
X109311266Y-81469190D01*
X109244627Y-81264098D01*
X109146728Y-81071963D01*
X109019974Y-80897503D01*
X109019974Y-80897502D01*
X108877892Y-80755420D01*
X108844407Y-80694097D01*
X108849391Y-80624405D01*
X108891263Y-80568472D01*
X108913177Y-80555353D01*
X108914323Y-80554817D01*
X108914334Y-80554814D01*
X109063656Y-80462712D01*
X109187712Y-80338656D01*
X109279814Y-80189334D01*
X109312897Y-80089495D01*
X109352670Y-80032051D01*
X109417186Y-80005228D01*
X109430603Y-80004500D01*
X116711460Y-80004500D01*
X116752415Y-80011459D01*
X116820737Y-80035366D01*
X116820743Y-80035367D01*
X116820745Y-80035368D01*
X116820746Y-80035368D01*
X116820750Y-80035369D01*
X116999996Y-80055565D01*
X117000000Y-80055565D01*
X117000004Y-80055565D01*
X117179249Y-80035369D01*
X117179252Y-80035368D01*
X117179255Y-80035368D01*
X117349522Y-79975789D01*
X117502262Y-79879816D01*
X117629816Y-79752262D01*
X117725789Y-79599522D01*
X117785368Y-79429255D01*
X117788610Y-79400480D01*
X117805565Y-79250003D01*
X117805565Y-79249996D01*
X117785369Y-79070750D01*
X117785368Y-79070745D01*
X117748237Y-78964630D01*
X117725789Y-78900478D01*
X117723913Y-78897493D01*
X117644424Y-78770987D01*
X117629816Y-78747738D01*
X117502262Y-78620184D01*
X117470127Y-78599992D01*
X117349523Y-78524211D01*
X117179254Y-78464631D01*
X117179249Y-78464630D01*
X117000004Y-78444435D01*
X116999996Y-78444435D01*
X116820750Y-78464630D01*
X116820737Y-78464633D01*
X116752415Y-78488541D01*
X116711460Y-78495500D01*
X109430603Y-78495500D01*
X109363564Y-78475815D01*
X109317809Y-78423011D01*
X109312897Y-78410504D01*
X109287924Y-78335141D01*
X109279814Y-78310666D01*
X109187712Y-78161344D01*
X109063656Y-78037288D01*
X108937841Y-77959685D01*
X108914336Y-77945187D01*
X108914331Y-77945185D01*
X108876403Y-77932617D01*
X108747797Y-77890001D01*
X108747795Y-77890000D01*
X108645010Y-77879500D01*
X106854998Y-77879500D01*
X106854981Y-77879501D01*
X106752203Y-77890000D01*
X106752200Y-77890001D01*
X106585668Y-77945185D01*
X106585663Y-77945187D01*
X106436342Y-78037289D01*
X106312289Y-78161342D01*
X106220187Y-78310663D01*
X106220185Y-78310668D01*
X106216210Y-78322664D01*
X106165001Y-78477203D01*
X106165001Y-78477204D01*
X106165000Y-78477204D01*
X106154500Y-78579983D01*
X103877500Y-78579983D01*
X103877500Y-77251500D01*
X103897185Y-77184461D01*
X103949989Y-77138706D01*
X104001500Y-77127500D01*
X116708328Y-77127500D01*
X116774300Y-77146506D01*
X116827689Y-77180053D01*
X116900478Y-77225789D01*
X116973956Y-77251500D01*
X117070745Y-77285368D01*
X117070750Y-77285369D01*
X117249996Y-77305565D01*
X117250000Y-77305565D01*
X117250004Y-77305565D01*
X117429249Y-77285369D01*
X117429252Y-77285368D01*
X117429255Y-77285368D01*
X117599522Y-77225789D01*
X117752262Y-77129816D01*
X117879816Y-77002262D01*
X117975789Y-76849522D01*
X118035368Y-76679255D01*
X118035369Y-76679249D01*
X118055565Y-76500003D01*
X118055565Y-76499996D01*
X118035369Y-76320750D01*
X118035368Y-76320745D01*
X117989759Y-76190402D01*
X117975789Y-76150478D01*
X117879816Y-75997738D01*
X117752262Y-75870184D01*
X117599523Y-75774211D01*
X117429254Y-75714631D01*
X117429249Y-75714630D01*
X117250004Y-75694435D01*
X117249996Y-75694435D01*
X117070750Y-75714630D01*
X117070745Y-75714631D01*
X116900476Y-75774211D01*
X116774300Y-75853494D01*
X116708328Y-75872500D01*
X103188195Y-75872500D01*
X103066970Y-75896613D01*
X103066960Y-75896616D01*
X102952773Y-75943913D01*
X102952760Y-75943920D01*
X102849992Y-76012588D01*
X102849988Y-76012591D01*
X102762591Y-76099988D01*
X102762588Y-76099992D01*
X102693920Y-76202760D01*
X102693913Y-76202773D01*
X102646616Y-76316960D01*
X102646613Y-76316970D01*
X102622500Y-76438194D01*
X102622500Y-90138719D01*
X102602815Y-90205758D01*
X102586181Y-90226400D01*
X101290136Y-91522444D01*
X101228813Y-91555929D01*
X101159121Y-91550945D01*
X101103188Y-91509073D01*
X101079982Y-91454161D01*
X101071483Y-91400503D01*
X101061754Y-91339074D01*
X100995092Y-91133911D01*
X100897157Y-90941701D01*
X100770359Y-90767179D01*
X100617821Y-90614641D01*
X100446704Y-90490317D01*
X100404040Y-90434988D01*
X100398061Y-90365374D01*
X100430667Y-90303580D01*
X100446702Y-90289684D01*
X100617821Y-90165359D01*
X100770359Y-90012821D01*
X100897157Y-89838299D01*
X100995092Y-89646089D01*
X101061754Y-89440926D01*
X101076752Y-89346230D01*
X101095500Y-89227866D01*
X101095500Y-89012133D01*
X101073002Y-88870095D01*
X101061754Y-88799074D01*
X100995092Y-88593911D01*
X100897157Y-88401701D01*
X100770359Y-88227179D01*
X100617821Y-88074641D01*
X100446704Y-87950317D01*
X100404040Y-87894988D01*
X100398061Y-87825374D01*
X100430667Y-87763580D01*
X100446702Y-87749684D01*
X100617821Y-87625359D01*
X100770359Y-87472821D01*
X100897157Y-87298299D01*
X100995092Y-87106089D01*
X101061754Y-86900926D01*
X101085817Y-86749000D01*
X101095500Y-86687866D01*
X101095500Y-86472133D01*
X101061754Y-86259077D01*
X101061754Y-86259074D01*
X100995092Y-86053911D01*
X100897157Y-85861701D01*
X100770359Y-85687179D01*
X100617821Y-85534641D01*
X100446704Y-85410317D01*
X100404040Y-85354988D01*
X100398061Y-85285374D01*
X100430667Y-85223580D01*
X100446702Y-85209684D01*
X100617821Y-85085359D01*
X100770359Y-84932821D01*
X100897157Y-84758299D01*
X100995092Y-84566089D01*
X101061754Y-84360926D01*
X101083737Y-84222133D01*
X101095500Y-84147866D01*
X101095500Y-83932133D01*
X101066177Y-83747003D01*
X101061754Y-83719074D01*
X100995092Y-83513911D01*
X100897157Y-83321701D01*
X100770359Y-83147179D01*
X100617821Y-82994641D01*
X100446279Y-82870008D01*
X100403614Y-82814678D01*
X100397635Y-82745064D01*
X100430241Y-82683269D01*
X100446280Y-82669372D01*
X100617491Y-82544979D01*
X100617497Y-82544974D01*
X100769974Y-82392497D01*
X100769974Y-82392496D01*
X100896728Y-82218036D01*
X100994627Y-82025901D01*
X101061266Y-81820809D01*
X101072481Y-81750000D01*
X100042709Y-81750000D01*
X100054452Y-81729661D01*
X100095000Y-81578333D01*
X100095000Y-81421667D01*
X100054452Y-81270339D01*
X100042709Y-81250000D01*
X101072481Y-81250000D01*
X101061266Y-81179190D01*
X100994627Y-80974098D01*
X100896728Y-80781963D01*
X100769974Y-80607503D01*
X100769974Y-80607502D01*
X100627892Y-80465420D01*
X100594407Y-80404097D01*
X100599391Y-80334405D01*
X100641263Y-80278472D01*
X100663177Y-80265353D01*
X100664323Y-80264817D01*
X100664334Y-80264814D01*
X100813656Y-80172712D01*
X100937712Y-80048656D01*
X101029814Y-79899334D01*
X101084999Y-79732797D01*
X101095500Y-79630009D01*
X101095499Y-78289992D01*
X101084999Y-78187203D01*
X101029814Y-78020666D01*
X100937712Y-77871344D01*
X100813656Y-77747288D01*
X100720777Y-77690000D01*
X100664336Y-77655187D01*
X100664331Y-77655185D01*
X100606718Y-77636094D01*
X100497797Y-77600001D01*
X100497795Y-77600000D01*
X100395016Y-77589500D01*
X100395009Y-77589500D01*
X100378500Y-77589500D01*
X100311461Y-77569815D01*
X100265706Y-77517011D01*
X100254500Y-77465500D01*
X100254500Y-75267446D01*
X100254501Y-75267425D01*
X100254501Y-75112685D01*
X100230315Y-74991105D01*
X100230314Y-74991099D01*
X100225506Y-74966924D01*
X100225505Y-74966920D01*
X100218492Y-74949989D01*
X100197861Y-74900182D01*
X100188567Y-74877745D01*
X100168630Y-74829611D01*
X100127607Y-74768216D01*
X100127607Y-74768215D01*
X100086060Y-74706035D01*
X100086054Y-74706028D01*
X99976647Y-74596621D01*
X99976624Y-74596600D01*
X93540819Y-68160794D01*
X93507334Y-68099471D01*
X93504500Y-68073113D01*
X93504500Y-65084687D01*
X93504499Y-65084683D01*
X93494031Y-65032059D01*
X93475505Y-64938920D01*
X93418629Y-64801610D01*
X93389819Y-64758493D01*
X93336060Y-64678035D01*
X93336054Y-64678028D01*
X93230971Y-64572945D01*
X93230964Y-64572939D01*
X93121802Y-64500000D01*
X95519706Y-64500000D01*
X95538853Y-64743297D01*
X95538853Y-64743300D01*
X95538854Y-64743302D01*
X95585818Y-64938920D01*
X95595830Y-64980619D01*
X95689222Y-65206089D01*
X95816737Y-65414173D01*
X95816738Y-65414176D01*
X95816741Y-65414179D01*
X95975241Y-65599759D01*
X96118897Y-65722453D01*
X96160823Y-65758261D01*
X96160826Y-65758262D01*
X96368910Y-65885777D01*
X96594381Y-65979169D01*
X96594378Y-65979169D01*
X96594384Y-65979170D01*
X96594388Y-65979172D01*
X96831698Y-66036146D01*
X97075000Y-66055294D01*
X97318302Y-66036146D01*
X97555612Y-65979172D01*
X97781089Y-65885777D01*
X97989179Y-65758259D01*
X98174759Y-65599759D01*
X98333259Y-65414179D01*
X98460777Y-65206089D01*
X98554172Y-64980612D01*
X98611146Y-64743302D01*
X98630294Y-64500000D01*
X98611146Y-64256698D01*
X98554172Y-64019388D01*
X98527669Y-63955403D01*
X98460777Y-63793910D01*
X98333262Y-63585826D01*
X98333261Y-63585823D01*
X98256051Y-63495422D01*
X98176377Y-63402135D01*
X108024500Y-63402135D01*
X108024500Y-65597870D01*
X108024501Y-65597876D01*
X108030908Y-65657483D01*
X108081202Y-65792328D01*
X108081206Y-65792335D01*
X108167452Y-65907544D01*
X108167455Y-65907547D01*
X108282664Y-65993793D01*
X108282671Y-65993797D01*
X108417517Y-66044091D01*
X108417516Y-66044091D01*
X108424444Y-66044835D01*
X108477127Y-66050500D01*
X110672872Y-66050499D01*
X110732483Y-66044091D01*
X110867331Y-65993796D01*
X110982546Y-65907546D01*
X111068796Y-65792331D01*
X111119091Y-65657483D01*
X111125500Y-65597873D01*
X111125499Y-63402128D01*
X111119091Y-63342517D01*
X111086947Y-63256335D01*
X111068797Y-63207671D01*
X111068793Y-63207664D01*
X110982547Y-63092455D01*
X110982544Y-63092452D01*
X110867335Y-63006206D01*
X110867328Y-63006202D01*
X110732482Y-62955908D01*
X110732483Y-62955908D01*
X110672883Y-62949501D01*
X110672881Y-62949500D01*
X110672873Y-62949500D01*
X110672864Y-62949500D01*
X108477129Y-62949500D01*
X108477123Y-62949501D01*
X108417516Y-62955908D01*
X108282671Y-63006202D01*
X108282664Y-63006206D01*
X108167455Y-63092452D01*
X108167452Y-63092455D01*
X108081206Y-63207664D01*
X108081202Y-63207671D01*
X108030908Y-63342517D01*
X108024677Y-63400478D01*
X108024501Y-63402123D01*
X108024500Y-63402135D01*
X98176377Y-63402135D01*
X98174759Y-63400241D01*
X98006269Y-63256337D01*
X97989176Y-63241738D01*
X97989173Y-63241737D01*
X97781089Y-63114222D01*
X97555618Y-63020830D01*
X97555621Y-63020830D01*
X97449992Y-62995470D01*
X97318302Y-62963854D01*
X97318300Y-62963853D01*
X97318297Y-62963853D01*
X97075000Y-62944706D01*
X96831702Y-62963853D01*
X96831698Y-62963854D01*
X96655301Y-63006204D01*
X96594380Y-63020830D01*
X96368910Y-63114222D01*
X96160826Y-63241737D01*
X96160823Y-63241738D01*
X95975241Y-63400241D01*
X95816738Y-63585823D01*
X95816737Y-63585826D01*
X95689222Y-63793910D01*
X95595830Y-64019380D01*
X95538853Y-64256702D01*
X95519706Y-64500000D01*
X93121802Y-64500000D01*
X93107391Y-64490371D01*
X92970080Y-64433495D01*
X92970072Y-64433493D01*
X92824316Y-64404500D01*
X92824312Y-64404500D01*
X92739446Y-64404500D01*
X92739426Y-64404499D01*
X92733312Y-64404499D01*
X92584688Y-64404499D01*
X92578574Y-64404499D01*
X92578554Y-64404500D01*
X90946499Y-64404500D01*
X90879460Y-64384815D01*
X90833705Y-64332011D01*
X90822499Y-64280500D01*
X90822499Y-64261129D01*
X90822498Y-64261123D01*
X90822497Y-64261116D01*
X90816091Y-64201517D01*
X90809432Y-64183664D01*
X90765797Y-64066671D01*
X90765793Y-64066664D01*
X90679547Y-63951455D01*
X90679544Y-63951452D01*
X90564335Y-63865206D01*
X90564328Y-63865202D01*
X90429482Y-63814908D01*
X90429483Y-63814908D01*
X90369883Y-63808501D01*
X90369881Y-63808500D01*
X90369873Y-63808500D01*
X90369864Y-63808500D01*
X88574129Y-63808500D01*
X88574123Y-63808501D01*
X88514516Y-63814908D01*
X88379671Y-63865202D01*
X88379664Y-63865206D01*
X88264455Y-63951452D01*
X88264452Y-63951455D01*
X88178206Y-64066664D01*
X88178202Y-64066671D01*
X88127908Y-64201517D01*
X88122453Y-64252262D01*
X88121501Y-64261123D01*
X88121500Y-64261135D01*
X88121500Y-66056870D01*
X88121501Y-66056876D01*
X88127908Y-66116483D01*
X88178202Y-66251328D01*
X88178206Y-66251335D01*
X88264452Y-66366544D01*
X88264455Y-66366547D01*
X88379664Y-66452793D01*
X88379671Y-66452797D01*
X88379674Y-66452798D01*
X88511598Y-66502002D01*
X88567531Y-66543873D01*
X88591949Y-66609337D01*
X88577098Y-66677610D01*
X88555947Y-66705865D01*
X88433886Y-66827926D01*
X88298400Y-67021420D01*
X88298399Y-67021422D01*
X88198570Y-67235507D01*
X88198567Y-67235513D01*
X88141364Y-67448999D01*
X88141364Y-67449000D01*
X89038988Y-67449000D01*
X89006075Y-67506007D01*
X88972000Y-67633174D01*
X88972000Y-67764826D01*
X89006075Y-67891993D01*
X89038988Y-67949000D01*
X88141364Y-67949000D01*
X88198567Y-68162486D01*
X88198570Y-68162492D01*
X88298399Y-68376578D01*
X88433894Y-68570082D01*
X88600917Y-68737105D01*
X88786595Y-68867119D01*
X88830219Y-68921696D01*
X88837412Y-68991195D01*
X88805890Y-69053549D01*
X88786595Y-69070269D01*
X88600594Y-69200508D01*
X88433505Y-69367597D01*
X88297965Y-69561169D01*
X88297964Y-69561171D01*
X88198098Y-69775335D01*
X88198094Y-69775344D01*
X88136938Y-70003586D01*
X88136936Y-70003596D01*
X88116341Y-70238999D01*
X88116341Y-70239000D01*
X88136936Y-70474403D01*
X88136938Y-70474413D01*
X88198094Y-70702655D01*
X88198096Y-70702659D01*
X88198097Y-70702663D01*
X88273377Y-70864101D01*
X88297965Y-70916830D01*
X88297967Y-70916834D01*
X88406281Y-71071521D01*
X88429437Y-71104592D01*
X88433501Y-71110395D01*
X88433506Y-71110402D01*
X88600597Y-71277493D01*
X88600603Y-71277498D01*
X88786158Y-71407425D01*
X88829783Y-71462002D01*
X88836977Y-71531500D01*
X88805454Y-71593855D01*
X88786158Y-71610575D01*
X88600597Y-71740505D01*
X88433505Y-71907597D01*
X88297965Y-72101169D01*
X88297964Y-72101171D01*
X88198098Y-72315335D01*
X88198094Y-72315344D01*
X88136938Y-72543586D01*
X88136936Y-72543596D01*
X88116341Y-72778999D01*
X88116341Y-72779000D01*
X88136936Y-73014403D01*
X88136938Y-73014413D01*
X88198094Y-73242655D01*
X88198096Y-73242659D01*
X88198097Y-73242663D01*
X88261083Y-73377737D01*
X88297965Y-73456830D01*
X88297967Y-73456834D01*
X88349534Y-73530478D01*
X88429437Y-73644592D01*
X88433501Y-73650395D01*
X88433506Y-73650402D01*
X88600597Y-73817493D01*
X88600603Y-73817498D01*
X88786158Y-73947425D01*
X88829783Y-74002002D01*
X88836977Y-74071500D01*
X88805454Y-74133855D01*
X88786158Y-74150575D01*
X88600597Y-74280505D01*
X88433505Y-74447597D01*
X88297965Y-74641169D01*
X88297964Y-74641171D01*
X88198098Y-74855335D01*
X88198094Y-74855344D01*
X88136938Y-75083586D01*
X88136936Y-75083596D01*
X88116341Y-75318999D01*
X88116341Y-75319000D01*
X88136936Y-75554403D01*
X88136938Y-75554413D01*
X88198094Y-75782655D01*
X88198096Y-75782659D01*
X88198097Y-75782663D01*
X88273289Y-75943913D01*
X88297965Y-75996830D01*
X88297967Y-75996834D01*
X88370197Y-76099988D01*
X88429437Y-76184592D01*
X88433501Y-76190395D01*
X88433506Y-76190402D01*
X88600597Y-76357493D01*
X88600603Y-76357498D01*
X88786158Y-76487425D01*
X88829783Y-76542002D01*
X88836977Y-76611500D01*
X88805454Y-76673855D01*
X88786158Y-76690575D01*
X88600597Y-76820505D01*
X88433505Y-76987597D01*
X88297965Y-77181169D01*
X88297964Y-77181171D01*
X88198098Y-77395335D01*
X88198094Y-77395344D01*
X88136938Y-77623586D01*
X88136936Y-77623596D01*
X88116341Y-77858999D01*
X88116341Y-77859000D01*
X88136936Y-78094403D01*
X88136938Y-78094413D01*
X88198094Y-78322655D01*
X88198096Y-78322659D01*
X88198097Y-78322663D01*
X88279082Y-78496335D01*
X88297965Y-78536830D01*
X88297967Y-78536834D01*
X88342192Y-78599993D01*
X88429437Y-78724592D01*
X88433501Y-78730395D01*
X88433506Y-78730402D01*
X88600597Y-78897493D01*
X88600603Y-78897498D01*
X88786158Y-79027425D01*
X88829783Y-79082002D01*
X88836977Y-79151500D01*
X88805454Y-79213855D01*
X88786158Y-79230575D01*
X88600597Y-79360505D01*
X88433505Y-79527597D01*
X88297965Y-79721169D01*
X88297964Y-79721171D01*
X88198098Y-79935335D01*
X88198094Y-79935344D01*
X88136938Y-80163586D01*
X88136936Y-80163596D01*
X88116341Y-80398999D01*
X88116341Y-80399000D01*
X88136936Y-80634403D01*
X88136938Y-80634413D01*
X88198094Y-80862655D01*
X88198096Y-80862659D01*
X88198097Y-80862663D01*
X88295128Y-81070745D01*
X88297965Y-81076830D01*
X88297967Y-81076834D01*
X88394767Y-81215077D01*
X88429437Y-81264592D01*
X88433501Y-81270395D01*
X88433506Y-81270402D01*
X88600597Y-81437493D01*
X88600603Y-81437498D01*
X88786158Y-81567425D01*
X88829783Y-81622002D01*
X88836977Y-81691500D01*
X88805454Y-81753855D01*
X88786158Y-81770575D01*
X88600597Y-81900505D01*
X88433505Y-82067597D01*
X88297965Y-82261169D01*
X88297964Y-82261171D01*
X88198098Y-82475335D01*
X88198094Y-82475344D01*
X88136938Y-82703586D01*
X88136936Y-82703596D01*
X88116341Y-82938999D01*
X88116341Y-82939000D01*
X88136936Y-83174403D01*
X88136938Y-83174413D01*
X88198094Y-83402655D01*
X88198096Y-83402659D01*
X88198097Y-83402663D01*
X88261083Y-83537737D01*
X88297965Y-83616830D01*
X88297967Y-83616834D01*
X88349534Y-83690478D01*
X88429437Y-83804592D01*
X88433501Y-83810395D01*
X88433506Y-83810402D01*
X88600597Y-83977493D01*
X88600603Y-83977498D01*
X88786158Y-84107425D01*
X88829783Y-84162002D01*
X88836977Y-84231500D01*
X88805454Y-84293855D01*
X88786158Y-84310575D01*
X88600597Y-84440505D01*
X88433505Y-84607597D01*
X88297965Y-84801169D01*
X88297964Y-84801171D01*
X88198098Y-85015335D01*
X88198094Y-85015344D01*
X88136938Y-85243586D01*
X88136936Y-85243596D01*
X88116341Y-85478999D01*
X88116341Y-85479000D01*
X88136936Y-85714403D01*
X88136938Y-85714413D01*
X88198094Y-85942655D01*
X88198096Y-85942659D01*
X88198097Y-85942663D01*
X88241326Y-86035368D01*
X88297965Y-86156830D01*
X88297967Y-86156834D01*
X88338750Y-86215077D01*
X88429437Y-86344592D01*
X88433501Y-86350395D01*
X88433506Y-86350402D01*
X88600597Y-86517493D01*
X88600603Y-86517498D01*
X88786158Y-86647425D01*
X88829783Y-86702002D01*
X88836977Y-86771500D01*
X88805454Y-86833855D01*
X88786158Y-86850575D01*
X88600597Y-86980505D01*
X88433505Y-87147597D01*
X88297965Y-87341169D01*
X88297964Y-87341171D01*
X88198098Y-87555335D01*
X88198094Y-87555344D01*
X88136938Y-87783586D01*
X88136936Y-87783596D01*
X88116341Y-88018999D01*
X88116341Y-88019000D01*
X88136936Y-88254403D01*
X88136938Y-88254413D01*
X88198094Y-88482655D01*
X88198096Y-88482659D01*
X88198097Y-88482663D01*
X88268009Y-88632589D01*
X88297965Y-88696830D01*
X88297967Y-88696834D01*
X88314180Y-88719988D01*
X88429437Y-88884592D01*
X88433501Y-88890395D01*
X88433506Y-88890402D01*
X88600597Y-89057493D01*
X88600603Y-89057498D01*
X88786158Y-89187425D01*
X88829783Y-89242002D01*
X88836977Y-89311500D01*
X88805454Y-89373855D01*
X88786158Y-89390575D01*
X88600597Y-89520505D01*
X88433505Y-89687597D01*
X88297965Y-89881169D01*
X88297964Y-89881171D01*
X88198098Y-90095335D01*
X88198094Y-90095344D01*
X88136938Y-90323586D01*
X88136936Y-90323596D01*
X88116341Y-90558999D01*
X88116341Y-90559000D01*
X88136936Y-90794403D01*
X88136938Y-90794413D01*
X88198094Y-91022655D01*
X88198096Y-91022659D01*
X88198097Y-91022663D01*
X88279082Y-91196335D01*
X88297965Y-91236830D01*
X88297967Y-91236834D01*
X88364163Y-91331371D01*
X88429437Y-91424592D01*
X88433501Y-91430395D01*
X88433506Y-91430402D01*
X88600597Y-91597493D01*
X88600603Y-91597498D01*
X88786158Y-91727425D01*
X88829783Y-91782002D01*
X88836977Y-91851500D01*
X88805454Y-91913855D01*
X88786158Y-91930575D01*
X88600597Y-92060505D01*
X88433505Y-92227597D01*
X88297965Y-92421169D01*
X88297964Y-92421171D01*
X88198098Y-92635335D01*
X88198094Y-92635344D01*
X88136938Y-92863586D01*
X88136936Y-92863596D01*
X88116341Y-93098999D01*
X88116341Y-93099000D01*
X88136936Y-93334403D01*
X88136938Y-93334413D01*
X88198094Y-93562655D01*
X88198096Y-93562659D01*
X88198097Y-93562663D01*
X88249973Y-93673911D01*
X88297965Y-93776830D01*
X88297967Y-93776834D01*
X88369557Y-93879074D01*
X88429437Y-93964592D01*
X88433501Y-93970395D01*
X88433506Y-93970402D01*
X88600597Y-94137493D01*
X88600603Y-94137498D01*
X88786158Y-94267425D01*
X88829783Y-94322002D01*
X88836977Y-94391500D01*
X88805454Y-94453855D01*
X88786158Y-94470575D01*
X88600597Y-94600505D01*
X88433505Y-94767597D01*
X88297965Y-94961169D01*
X88297964Y-94961171D01*
X88198098Y-95175335D01*
X88198094Y-95175344D01*
X88136938Y-95403586D01*
X88136936Y-95403596D01*
X88116341Y-95638999D01*
X88116341Y-95639000D01*
X88136936Y-95874403D01*
X88136938Y-95874413D01*
X88198094Y-96102655D01*
X88198096Y-96102659D01*
X88198097Y-96102663D01*
X88233810Y-96179249D01*
X88297965Y-96316830D01*
X88297967Y-96316834D01*
X88356536Y-96400478D01*
X88429437Y-96504592D01*
X88433501Y-96510395D01*
X88433506Y-96510402D01*
X88600597Y-96677493D01*
X88600603Y-96677498D01*
X88786158Y-96807425D01*
X88829783Y-96862002D01*
X88836977Y-96931500D01*
X88805454Y-96993855D01*
X88786158Y-97010575D01*
X88600597Y-97140505D01*
X88433505Y-97307597D01*
X88299749Y-97498623D01*
X88245172Y-97542248D01*
X88198174Y-97551500D01*
X82759192Y-97551500D01*
X82637973Y-97575611D01*
X82637973Y-97575612D01*
X82637970Y-97575613D01*
X82637966Y-97575614D01*
X82571070Y-97603323D01*
X82571068Y-97603323D01*
X82523768Y-97622916D01*
X82523764Y-97622918D01*
X82433793Y-97683035D01*
X82433782Y-97683043D01*
X82424890Y-97688983D01*
X82369898Y-97709093D01*
X82320745Y-97714632D01*
X82150478Y-97774210D01*
X81997737Y-97870184D01*
X81870184Y-97997737D01*
X81774211Y-98150476D01*
X81714631Y-98320745D01*
X81714630Y-98320750D01*
X81694435Y-98499996D01*
X78696450Y-98499996D01*
X78605502Y-81947364D01*
X78605500Y-81946683D01*
X78605500Y-59999996D01*
X80444435Y-59999996D01*
X80444435Y-60000003D01*
X80464630Y-60179249D01*
X80464631Y-60179254D01*
X80524211Y-60349523D01*
X80590379Y-60454828D01*
X80620184Y-60502262D01*
X80747738Y-60629816D01*
X80779875Y-60650009D01*
X80882721Y-60714632D01*
X80900478Y-60725789D01*
X81002517Y-60761494D01*
X81070745Y-60785368D01*
X81070750Y-60785369D01*
X81249996Y-60805565D01*
X81250000Y-60805565D01*
X81250004Y-60805565D01*
X81429249Y-60785369D01*
X81429252Y-60785368D01*
X81429255Y-60785368D01*
X81599522Y-60725789D01*
X81752262Y-60629816D01*
X81879816Y-60502262D01*
X81975789Y-60349522D01*
X82035368Y-60179255D01*
X82040313Y-60135361D01*
X82067378Y-60070951D01*
X82075842Y-60061575D01*
X83723600Y-58413819D01*
X83784923Y-58380334D01*
X83811281Y-58377500D01*
X95726343Y-58377500D01*
X95793382Y-58397185D01*
X95839137Y-58449989D01*
X95849081Y-58519147D01*
X95820636Y-58582029D01*
X95817146Y-58586115D01*
X95817144Y-58586118D01*
X95689668Y-58794138D01*
X95596303Y-59019542D01*
X95539348Y-59256780D01*
X95520207Y-59500000D01*
X95539348Y-59743219D01*
X95596303Y-59980457D01*
X95689668Y-60205861D01*
X95813504Y-60407942D01*
X96435689Y-59785756D01*
X96454668Y-59831574D01*
X96531274Y-59946224D01*
X96628776Y-60043726D01*
X96743426Y-60120332D01*
X96789242Y-60139309D01*
X96167056Y-60761494D01*
X96369138Y-60885331D01*
X96594542Y-60978696D01*
X96831780Y-61035651D01*
X96831779Y-61035651D01*
X97075000Y-61054792D01*
X97318219Y-61035651D01*
X97555457Y-60978696D01*
X97780861Y-60885331D01*
X97982942Y-60761494D01*
X97360757Y-60139309D01*
X97406574Y-60120332D01*
X97521224Y-60043726D01*
X97618726Y-59946224D01*
X97695332Y-59831574D01*
X97714309Y-59785757D01*
X98336494Y-60407942D01*
X98460331Y-60205861D01*
X98553696Y-59980457D01*
X98610651Y-59743219D01*
X98629792Y-59500000D01*
X98610651Y-59256780D01*
X98553696Y-59019542D01*
X98460331Y-58794138D01*
X98332855Y-58586118D01*
X98332853Y-58586115D01*
X98329364Y-58582029D01*
X98300796Y-58518266D01*
X98311235Y-58449181D01*
X98357367Y-58396706D01*
X98423657Y-58377500D01*
X100248500Y-58377500D01*
X100315539Y-58397185D01*
X100361294Y-58449989D01*
X100372500Y-58501500D01*
X100372500Y-59061807D01*
X100396612Y-59183027D01*
X100396614Y-59183035D01*
X100427127Y-59256699D01*
X100443913Y-59297226D01*
X100443920Y-59297239D01*
X100510322Y-59396615D01*
X100510323Y-59396616D01*
X100512590Y-59400009D01*
X102512589Y-61400008D01*
X102849988Y-61737408D01*
X102849992Y-61737411D01*
X102952760Y-61806079D01*
X102952773Y-61806086D01*
X103057636Y-61849521D01*
X103066965Y-61853385D01*
X103066969Y-61853385D01*
X103066970Y-61853386D01*
X103188193Y-61877500D01*
X103188196Y-61877500D01*
X128311804Y-61877500D01*
X128311805Y-61877499D01*
X128433035Y-61853386D01*
X128513784Y-61819937D01*
X128547233Y-61806083D01*
X128650008Y-61737411D01*
X128737411Y-61650008D01*
X128910819Y-61476600D01*
X128972142Y-61443115D01*
X129041834Y-61448099D01*
X129097767Y-61489971D01*
X129122184Y-61555435D01*
X129122500Y-61564281D01*
X129122500Y-67061807D01*
X129146612Y-67183028D01*
X129146614Y-67183034D01*
X129178702Y-67260500D01*
X129193915Y-67297229D01*
X129193923Y-67297243D01*
X129262585Y-67400003D01*
X129262591Y-67400011D01*
X129599988Y-67737408D01*
X129599992Y-67737411D01*
X129702760Y-67806079D01*
X129702773Y-67806086D01*
X129816960Y-67853383D01*
X129816965Y-67853385D01*
X129816969Y-67853385D01*
X129816970Y-67853386D01*
X129938193Y-67877500D01*
X129938196Y-67877500D01*
X129938197Y-67877500D01*
X141358539Y-67877500D01*
X141425578Y-67897185D01*
X141471333Y-67949989D01*
X141475581Y-67960546D01*
X141524210Y-68099521D01*
X141565306Y-68164925D01*
X141620184Y-68252262D01*
X141747738Y-68379816D01*
X141900478Y-68475789D01*
X142001997Y-68511312D01*
X142070745Y-68535368D01*
X142070750Y-68535369D01*
X142249996Y-68555565D01*
X142250000Y-68555565D01*
X142250004Y-68555565D01*
X142429249Y-68535369D01*
X142429252Y-68535368D01*
X142429255Y-68535368D01*
X142599522Y-68475789D01*
X142752262Y-68379816D01*
X142879816Y-68252262D01*
X142975789Y-68099522D01*
X143035368Y-67929255D01*
X143035442Y-67928597D01*
X143055565Y-67750003D01*
X143055565Y-67749996D01*
X143035369Y-67570750D01*
X143035368Y-67570745D01*
X143012715Y-67506007D01*
X142975789Y-67400478D01*
X142879816Y-67247738D01*
X142752262Y-67120184D01*
X142659356Y-67061807D01*
X142599521Y-67024210D01*
X142429249Y-66964630D01*
X142385361Y-66959685D01*
X142320948Y-66932617D01*
X142311566Y-66924146D01*
X142150013Y-66762593D01*
X142150009Y-66762590D01*
X142150008Y-66762589D01*
X142127292Y-66747411D01*
X142127290Y-66747409D01*
X142047235Y-66693918D01*
X142047228Y-66693914D01*
X142007600Y-66677500D01*
X141933035Y-66646614D01*
X141933027Y-66646612D01*
X141811807Y-66622500D01*
X141811803Y-66622500D01*
X130501500Y-66622500D01*
X130434461Y-66602815D01*
X130388706Y-66550011D01*
X130377500Y-66498500D01*
X130377500Y-65960485D01*
X130397185Y-65893446D01*
X130449989Y-65847691D01*
X130519147Y-65837747D01*
X130548951Y-65845923D01*
X130566965Y-65853385D01*
X130566969Y-65853385D01*
X130566970Y-65853386D01*
X130688194Y-65877500D01*
X130688197Y-65877500D01*
X130811803Y-65877500D01*
X152958328Y-65877500D01*
X153024300Y-65896506D01*
X153141998Y-65970461D01*
X153150478Y-65975789D01*
X153320745Y-66035368D01*
X153320750Y-66035369D01*
X153499996Y-66055565D01*
X153500000Y-66055565D01*
X153500004Y-66055565D01*
X153679249Y-66035369D01*
X153679252Y-66035368D01*
X153679255Y-66035368D01*
X153849522Y-65975789D01*
X154002262Y-65879816D01*
X154129816Y-65752262D01*
X154225789Y-65599522D01*
X154285368Y-65429255D01*
X154296100Y-65333991D01*
X154304759Y-65300428D01*
X154306081Y-65297235D01*
X154306083Y-65297233D01*
X154353385Y-65183035D01*
X154377500Y-65061804D01*
X154377500Y-64938197D01*
X154377500Y-64938194D01*
X154353386Y-64816971D01*
X154353385Y-64816970D01*
X154353385Y-64816966D01*
X154306083Y-64702768D01*
X154289556Y-64678034D01*
X154237412Y-64599993D01*
X154237406Y-64599986D01*
X154150013Y-64512593D01*
X154150006Y-64512587D01*
X154047242Y-64443923D01*
X154047235Y-64443919D01*
X154047232Y-64443917D01*
X154047228Y-64443915D01*
X154047224Y-64443913D01*
X153933038Y-64396616D01*
X153933028Y-64396613D01*
X153811805Y-64372500D01*
X153811803Y-64372500D01*
X153688196Y-64372500D01*
X153688194Y-64372500D01*
X153566970Y-64396613D01*
X153566960Y-64396616D01*
X153449575Y-64445239D01*
X153416006Y-64453898D01*
X153320750Y-64464630D01*
X153150478Y-64524210D01*
X153024300Y-64603494D01*
X152958328Y-64622500D01*
X135296446Y-64622500D01*
X135229407Y-64602815D01*
X135183652Y-64550011D01*
X135173708Y-64480853D01*
X135202733Y-64417297D01*
X135230472Y-64393507D01*
X135252262Y-64379816D01*
X135379816Y-64252262D01*
X135475789Y-64099522D01*
X135535368Y-63929255D01*
X135548974Y-63808500D01*
X135555565Y-63750003D01*
X135555565Y-63749996D01*
X135535369Y-63570750D01*
X135535368Y-63570745D01*
X135476369Y-63402135D01*
X135475789Y-63400478D01*
X135396505Y-63274299D01*
X135377500Y-63208328D01*
X135377500Y-59041671D01*
X135396507Y-58975698D01*
X135403461Y-58964632D01*
X135475789Y-58849522D01*
X135535368Y-58679255D01*
X135545862Y-58586118D01*
X135555565Y-58500003D01*
X135555565Y-58499996D01*
X135535369Y-58320750D01*
X135535368Y-58320745D01*
X135475788Y-58150476D01*
X135436582Y-58088080D01*
X135379816Y-57997738D01*
X135252262Y-57870184D01*
X135099523Y-57774211D01*
X134929254Y-57714631D01*
X134929249Y-57714630D01*
X134750004Y-57694435D01*
X134749996Y-57694435D01*
X134570750Y-57714630D01*
X134570745Y-57714631D01*
X134400476Y-57774211D01*
X134247737Y-57870184D01*
X134212681Y-57905241D01*
X134151358Y-57938726D01*
X134081666Y-57933742D01*
X134037319Y-57905241D01*
X134002262Y-57870184D01*
X133849523Y-57774211D01*
X133679254Y-57714631D01*
X133679249Y-57714630D01*
X133500004Y-57694435D01*
X133499996Y-57694435D01*
X133320750Y-57714630D01*
X133320745Y-57714631D01*
X133150476Y-57774211D01*
X132997737Y-57870184D01*
X132962681Y-57905241D01*
X132901358Y-57938726D01*
X132831666Y-57933742D01*
X132787319Y-57905241D01*
X132752262Y-57870184D01*
X132599523Y-57774211D01*
X132429254Y-57714631D01*
X132429249Y-57714630D01*
X132250004Y-57694435D01*
X132249996Y-57694435D01*
X132070750Y-57714630D01*
X132070745Y-57714631D01*
X131900476Y-57774211D01*
X131747737Y-57870184D01*
X131712681Y-57905241D01*
X131651358Y-57938726D01*
X131581666Y-57933742D01*
X131537319Y-57905241D01*
X131502262Y-57870184D01*
X131349523Y-57774211D01*
X131179254Y-57714631D01*
X131179249Y-57714630D01*
X131000004Y-57694435D01*
X130999996Y-57694435D01*
X130820750Y-57714630D01*
X130820745Y-57714631D01*
X130650476Y-57774211D01*
X130497737Y-57870184D01*
X130462681Y-57905241D01*
X130401358Y-57938726D01*
X130331666Y-57933742D01*
X130287319Y-57905241D01*
X130252262Y-57870184D01*
X130099523Y-57774211D01*
X129929254Y-57714631D01*
X129929249Y-57714630D01*
X129750004Y-57694435D01*
X129749996Y-57694435D01*
X129570750Y-57714630D01*
X129570745Y-57714631D01*
X129400476Y-57774211D01*
X129247737Y-57870184D01*
X129120184Y-57997737D01*
X129024211Y-58150476D01*
X128964631Y-58320745D01*
X128964630Y-58320750D01*
X128944435Y-58499996D01*
X128944435Y-58500003D01*
X128964630Y-58679249D01*
X128964631Y-58679254D01*
X129024212Y-58849525D01*
X129030504Y-58859539D01*
X129049504Y-58926776D01*
X129029136Y-58993611D01*
X128975867Y-59038824D01*
X128906611Y-59048061D01*
X128859539Y-59030504D01*
X128849525Y-59024212D01*
X128679254Y-58964631D01*
X128679249Y-58964630D01*
X128500004Y-58944435D01*
X128499996Y-58944435D01*
X128320750Y-58964630D01*
X128320745Y-58964631D01*
X128150476Y-59024211D01*
X127997737Y-59120184D01*
X127962681Y-59155241D01*
X127901358Y-59188726D01*
X127831666Y-59183742D01*
X127787319Y-59155241D01*
X127752262Y-59120184D01*
X127599523Y-59024211D01*
X127429254Y-58964631D01*
X127429249Y-58964630D01*
X127250004Y-58944435D01*
X127249996Y-58944435D01*
X127070750Y-58964630D01*
X127070745Y-58964631D01*
X126900476Y-59024211D01*
X126747737Y-59120184D01*
X126620182Y-59247739D01*
X126578251Y-59314473D01*
X126525917Y-59360763D01*
X126473258Y-59372500D01*
X117796446Y-59372500D01*
X117729407Y-59352815D01*
X117683652Y-59300011D01*
X117673708Y-59230853D01*
X117702733Y-59167297D01*
X117730472Y-59143507D01*
X117752262Y-59129816D01*
X117875278Y-59006800D01*
X117894064Y-58991382D01*
X117900008Y-58987411D01*
X117973600Y-58913819D01*
X118034923Y-58880334D01*
X118061281Y-58877500D01*
X123958328Y-58877500D01*
X124024300Y-58896506D01*
X124132721Y-58964632D01*
X124150478Y-58975789D01*
X124320745Y-59035368D01*
X124320750Y-59035369D01*
X124499996Y-59055565D01*
X124500000Y-59055565D01*
X124500004Y-59055565D01*
X124679249Y-59035369D01*
X124679252Y-59035368D01*
X124679255Y-59035368D01*
X124849522Y-58975789D01*
X125002262Y-58879816D01*
X125129816Y-58752262D01*
X125225789Y-58599522D01*
X125285368Y-58429255D01*
X125285369Y-58429249D01*
X125305565Y-58250003D01*
X125305565Y-58249996D01*
X125285369Y-58070750D01*
X125285368Y-58070745D01*
X125259011Y-57995422D01*
X125225789Y-57900478D01*
X125129816Y-57747738D01*
X125002262Y-57620184D01*
X124975700Y-57603494D01*
X124849523Y-57524211D01*
X124679254Y-57464631D01*
X124679249Y-57464630D01*
X124500004Y-57444435D01*
X124499996Y-57444435D01*
X124320750Y-57464630D01*
X124320745Y-57464631D01*
X124150476Y-57524211D01*
X124024300Y-57603494D01*
X123958328Y-57622500D01*
X117688194Y-57622500D01*
X117566970Y-57646613D01*
X117566960Y-57646616D01*
X117452766Y-57693917D01*
X117450661Y-57695042D01*
X117449434Y-57695297D01*
X117447139Y-57696248D01*
X117446958Y-57695812D01*
X117382256Y-57709273D01*
X117378343Y-57708894D01*
X117250004Y-57694435D01*
X117249996Y-57694435D01*
X117070750Y-57714630D01*
X117070745Y-57714631D01*
X116900476Y-57774211D01*
X116747737Y-57870184D01*
X116620184Y-57997737D01*
X116524211Y-58150476D01*
X116464631Y-58320745D01*
X116464630Y-58320750D01*
X116444435Y-58499996D01*
X116444435Y-58500003D01*
X116464630Y-58679249D01*
X116464633Y-58679262D01*
X116499402Y-58778624D01*
X116502964Y-58848403D01*
X116468236Y-58909030D01*
X116406242Y-58941258D01*
X116336667Y-58934853D01*
X116294680Y-58907260D01*
X113650011Y-56262591D01*
X113650007Y-56262588D01*
X113547239Y-56193920D01*
X113547226Y-56193913D01*
X113513785Y-56180062D01*
X113433035Y-56146614D01*
X113433027Y-56146612D01*
X113311807Y-56122500D01*
X113311803Y-56122500D01*
X97311803Y-56122500D01*
X83311804Y-56122500D01*
X83188197Y-56122500D01*
X83188192Y-56122500D01*
X83066973Y-56146611D01*
X83066973Y-56146612D01*
X83066970Y-56146613D01*
X83066966Y-56146614D01*
X83000070Y-56174323D01*
X83000068Y-56174323D01*
X82952770Y-56193915D01*
X82849989Y-56262590D01*
X82188432Y-56924147D01*
X82127109Y-56957632D01*
X82114637Y-56959686D01*
X82070745Y-56964632D01*
X81900478Y-57024210D01*
X81747737Y-57120184D01*
X81620184Y-57247737D01*
X81524211Y-57400476D01*
X81464631Y-57570745D01*
X81464630Y-57570750D01*
X81444435Y-57749996D01*
X81444435Y-57750003D01*
X81464630Y-57929249D01*
X81464631Y-57929254D01*
X81524211Y-58099523D01*
X81613571Y-58241737D01*
X81620184Y-58252262D01*
X81747738Y-58379816D01*
X81760416Y-58387782D01*
X81806706Y-58440118D01*
X81817353Y-58509171D01*
X81788977Y-58573019D01*
X81782123Y-58580456D01*
X81188432Y-59174147D01*
X81127109Y-59207632D01*
X81114637Y-59209686D01*
X81070745Y-59214632D01*
X80900478Y-59274210D01*
X80747737Y-59370184D01*
X80620184Y-59497737D01*
X80524211Y-59650476D01*
X80464631Y-59820745D01*
X80464630Y-59820750D01*
X80444435Y-59999996D01*
X78605500Y-59999996D01*
X78605500Y-48749996D01*
X87444435Y-48749996D01*
X87444435Y-48750003D01*
X87464630Y-48929246D01*
X87464632Y-48929256D01*
X87488541Y-48997582D01*
X87495500Y-49038537D01*
X87495500Y-51670552D01*
X87495499Y-51670578D01*
X87495499Y-51824313D01*
X87510650Y-51900477D01*
X87510650Y-51900479D01*
X87524493Y-51970072D01*
X87524495Y-51970080D01*
X87542103Y-52012589D01*
X87581368Y-52107385D01*
X87581372Y-52107392D01*
X87663942Y-52230968D01*
X87663943Y-52230969D01*
X88426364Y-52993388D01*
X88459849Y-53054711D01*
X88461903Y-53094952D01*
X88444435Y-53249995D01*
X88444435Y-53250003D01*
X88464630Y-53429249D01*
X88464631Y-53429254D01*
X88524211Y-53599523D01*
X88620184Y-53752262D01*
X88747738Y-53879816D01*
X88900478Y-53975789D01*
X89070745Y-54035368D01*
X89070750Y-54035369D01*
X89249996Y-54055565D01*
X89250000Y-54055565D01*
X89250004Y-54055565D01*
X89429249Y-54035369D01*
X89429252Y-54035368D01*
X89429255Y-54035368D01*
X89599522Y-53975789D01*
X89752262Y-53879816D01*
X89879816Y-53752262D01*
X89975789Y-53599522D01*
X90035368Y-53429255D01*
X90035369Y-53429249D01*
X90055565Y-53250003D01*
X90055565Y-53249996D01*
X90035369Y-53070750D01*
X90035368Y-53070745D01*
X90011458Y-53002414D01*
X90004500Y-52961459D01*
X90004500Y-52830446D01*
X90004501Y-52830425D01*
X90004501Y-52675685D01*
X89975506Y-52529925D01*
X89975504Y-52529919D01*
X89964997Y-52504552D01*
X89964987Y-52504531D01*
X89964975Y-52504500D01*
X89944923Y-52456089D01*
X89938349Y-52440219D01*
X89918633Y-52392617D01*
X89918631Y-52392613D01*
X89918630Y-52392611D01*
X89868085Y-52316965D01*
X89836059Y-52269034D01*
X89836057Y-52269031D01*
X89726647Y-52159621D01*
X89726624Y-52159600D01*
X89317025Y-51750000D01*
X99945207Y-51750000D01*
X99964348Y-51993219D01*
X100021303Y-52230457D01*
X100114668Y-52455861D01*
X100238504Y-52657942D01*
X100860690Y-52035756D01*
X100879668Y-52081574D01*
X100956274Y-52196224D01*
X101053776Y-52293726D01*
X101168426Y-52370332D01*
X101214242Y-52389309D01*
X100592056Y-53011494D01*
X100794138Y-53135331D01*
X101019542Y-53228696D01*
X101256780Y-53285651D01*
X101256779Y-53285651D01*
X101500000Y-53304792D01*
X101743219Y-53285651D01*
X101980457Y-53228696D01*
X102205861Y-53135331D01*
X102407942Y-53011494D01*
X101785757Y-52389309D01*
X101831574Y-52370332D01*
X101946224Y-52293726D01*
X102043726Y-52196224D01*
X102120332Y-52081574D01*
X102139309Y-52035757D01*
X102761494Y-52657942D01*
X102885331Y-52455861D01*
X102978696Y-52230457D01*
X103035651Y-51993219D01*
X103054792Y-51750000D01*
X104944706Y-51750000D01*
X104963853Y-51993297D01*
X104963853Y-51993300D01*
X104963854Y-51993302D01*
X105004821Y-52163941D01*
X105020830Y-52230619D01*
X105114222Y-52456088D01*
X105241737Y-52664173D01*
X105241738Y-52664176D01*
X105254612Y-52679249D01*
X105400241Y-52849759D01*
X105465960Y-52905888D01*
X105585823Y-53008261D01*
X105585826Y-53008262D01*
X105793910Y-53135777D01*
X106019381Y-53229169D01*
X106019378Y-53229169D01*
X106019384Y-53229170D01*
X106019388Y-53229172D01*
X106256698Y-53286146D01*
X106500000Y-53305294D01*
X106743302Y-53286146D01*
X106980612Y-53229172D01*
X107206089Y-53135777D01*
X107414179Y-53008259D01*
X107599759Y-52849759D01*
X107758259Y-52664179D01*
X107885777Y-52456089D01*
X107885777Y-52456088D01*
X107885778Y-52456088D01*
X107979024Y-52230969D01*
X107979172Y-52230612D01*
X108036146Y-51993302D01*
X108055294Y-51750000D01*
X108036146Y-51506698D01*
X107979172Y-51269388D01*
X107951577Y-51202767D01*
X107885777Y-51043910D01*
X107758262Y-50835826D01*
X107758261Y-50835823D01*
X107709410Y-50778626D01*
X107599759Y-50650241D01*
X107477063Y-50545449D01*
X107414176Y-50491738D01*
X107414173Y-50491737D01*
X107206089Y-50364222D01*
X106980618Y-50270830D01*
X106980621Y-50270830D01*
X106874992Y-50245470D01*
X106743302Y-50213854D01*
X106743300Y-50213853D01*
X106743297Y-50213853D01*
X106500000Y-50194706D01*
X106256702Y-50213853D01*
X106019380Y-50270830D01*
X105793910Y-50364222D01*
X105585826Y-50491737D01*
X105585823Y-50491738D01*
X105400241Y-50650241D01*
X105241738Y-50835823D01*
X105241737Y-50835826D01*
X105114222Y-51043910D01*
X105020830Y-51269380D01*
X104963853Y-51506702D01*
X104944706Y-51750000D01*
X103054792Y-51750000D01*
X103035651Y-51506780D01*
X102978696Y-51269542D01*
X102885331Y-51044138D01*
X102761494Y-50842056D01*
X102139309Y-51464241D01*
X102120332Y-51418426D01*
X102043726Y-51303776D01*
X101946224Y-51206274D01*
X101831574Y-51129668D01*
X101785755Y-51110689D01*
X102407942Y-50488504D01*
X102205861Y-50364668D01*
X101980457Y-50271303D01*
X101743219Y-50214348D01*
X101743220Y-50214348D01*
X101500000Y-50195207D01*
X101256780Y-50214348D01*
X101019542Y-50271303D01*
X100794146Y-50364665D01*
X100794141Y-50364668D01*
X100592056Y-50488504D01*
X101214242Y-51110690D01*
X101168426Y-51129668D01*
X101053776Y-51206274D01*
X100956274Y-51303776D01*
X100879668Y-51418426D01*
X100860690Y-51464242D01*
X100238504Y-50842056D01*
X100114668Y-51044141D01*
X100114665Y-51044146D01*
X100021303Y-51269542D01*
X99964348Y-51506780D01*
X99945207Y-51750000D01*
X89317025Y-51750000D01*
X89040819Y-51473794D01*
X89007334Y-51412471D01*
X89004500Y-51386113D01*
X89004500Y-49038537D01*
X89011459Y-48997582D01*
X89035368Y-48929255D01*
X89055565Y-48750000D01*
X89035368Y-48570745D01*
X88975789Y-48400478D01*
X88879816Y-48247738D01*
X88752262Y-48120184D01*
X88599523Y-48024211D01*
X88429254Y-47964631D01*
X88429249Y-47964630D01*
X88250004Y-47944435D01*
X88249996Y-47944435D01*
X88070750Y-47964630D01*
X88070745Y-47964631D01*
X87900476Y-48024211D01*
X87747737Y-48120184D01*
X87620184Y-48247737D01*
X87524211Y-48400476D01*
X87464631Y-48570745D01*
X87464630Y-48570750D01*
X87444435Y-48749996D01*
X78605500Y-48749996D01*
X78605500Y-46249996D01*
X83944435Y-46249996D01*
X83944435Y-46250003D01*
X83964630Y-46429249D01*
X83964631Y-46429254D01*
X84024211Y-46599523D01*
X84055933Y-46650008D01*
X84120184Y-46752262D01*
X84247738Y-46879816D01*
X84400478Y-46975789D01*
X84442297Y-46990422D01*
X84570745Y-47035368D01*
X84570750Y-47035369D01*
X84749996Y-47055565D01*
X84750000Y-47055565D01*
X84750004Y-47055565D01*
X84929249Y-47035369D01*
X84929252Y-47035368D01*
X84929255Y-47035368D01*
X85099522Y-46975789D01*
X85225700Y-46896505D01*
X85291672Y-46877500D01*
X113208328Y-46877500D01*
X113274299Y-46896505D01*
X113400478Y-46975789D01*
X113442297Y-46990422D01*
X113570745Y-47035368D01*
X113570750Y-47035369D01*
X113749996Y-47055565D01*
X113750000Y-47055565D01*
X113750004Y-47055565D01*
X113929249Y-47035369D01*
X113929252Y-47035368D01*
X113929255Y-47035368D01*
X114099522Y-46975789D01*
X114252262Y-46879816D01*
X114379816Y-46752262D01*
X114475789Y-46599522D01*
X114535368Y-46429255D01*
X114535369Y-46429249D01*
X114555565Y-46250003D01*
X114555565Y-46249996D01*
X114535369Y-46070750D01*
X114535368Y-46070745D01*
X114475788Y-45900476D01*
X114403461Y-45785369D01*
X114379816Y-45747738D01*
X114252262Y-45620184D01*
X114228084Y-45604992D01*
X114181796Y-45552661D01*
X114171146Y-45483607D01*
X114199521Y-45419758D01*
X114228082Y-45395009D01*
X114252262Y-45379816D01*
X114379816Y-45252262D01*
X114475789Y-45099522D01*
X114535368Y-44929255D01*
X114555565Y-44750000D01*
X114535368Y-44570745D01*
X114475789Y-44400478D01*
X114379816Y-44247738D01*
X114344759Y-44212681D01*
X114311274Y-44151358D01*
X114316258Y-44081666D01*
X114344759Y-44037319D01*
X114357867Y-44024211D01*
X114379816Y-44002262D01*
X114475789Y-43849522D01*
X114535368Y-43679255D01*
X114555565Y-43500000D01*
X114535368Y-43320745D01*
X114475789Y-43150478D01*
X114379816Y-42997738D01*
X114252262Y-42870184D01*
X114230473Y-42856493D01*
X114184183Y-42804159D01*
X114173535Y-42735106D01*
X114201910Y-42671257D01*
X114260299Y-42632885D01*
X114296446Y-42627500D01*
X118248500Y-42627500D01*
X118315539Y-42647185D01*
X118361294Y-42699989D01*
X118372500Y-42751500D01*
X118372500Y-51811807D01*
X118396612Y-51933027D01*
X118396614Y-51933035D01*
X118429567Y-52012590D01*
X118443915Y-52047230D01*
X118481436Y-52103383D01*
X118481436Y-52103384D01*
X118512590Y-52150010D01*
X118512593Y-52150013D01*
X119262589Y-52900008D01*
X119324040Y-52961459D01*
X119349993Y-52987412D01*
X119452760Y-53056079D01*
X119452773Y-53056086D01*
X119566960Y-53103383D01*
X119566965Y-53103385D01*
X119566969Y-53103385D01*
X119566970Y-53103386D01*
X119688194Y-53127500D01*
X119688197Y-53127500D01*
X120958328Y-53127500D01*
X121024299Y-53146505D01*
X121150478Y-53225789D01*
X121219678Y-53250003D01*
X121320745Y-53285368D01*
X121320750Y-53285369D01*
X121499996Y-53305565D01*
X121500000Y-53305565D01*
X121500004Y-53305565D01*
X121679249Y-53285369D01*
X121679252Y-53285368D01*
X121679255Y-53285368D01*
X121849522Y-53225789D01*
X122002262Y-53129816D01*
X122129816Y-53002262D01*
X122225789Y-52849522D01*
X122285368Y-52679255D01*
X122285770Y-52675688D01*
X122305565Y-52500003D01*
X122305565Y-52499996D01*
X122285369Y-52320750D01*
X122285368Y-52320745D01*
X122275914Y-52293726D01*
X122225789Y-52150478D01*
X122196198Y-52103385D01*
X122139148Y-52012590D01*
X122129816Y-51997738D01*
X122002262Y-51870184D01*
X121975700Y-51853494D01*
X121849523Y-51774211D01*
X121679254Y-51714631D01*
X121679249Y-51714630D01*
X121500004Y-51694435D01*
X121499996Y-51694435D01*
X121320750Y-51714630D01*
X121320745Y-51714631D01*
X121150476Y-51774211D01*
X121024300Y-51853494D01*
X120958328Y-51872500D01*
X120061281Y-51872500D01*
X119994242Y-51852815D01*
X119973600Y-51836181D01*
X119663819Y-51526400D01*
X119630334Y-51465077D01*
X119627500Y-51438719D01*
X119627500Y-41938194D01*
X119603386Y-41816970D01*
X119603385Y-41816969D01*
X119603385Y-41816965D01*
X119603383Y-41816960D01*
X119556086Y-41702773D01*
X119556079Y-41702760D01*
X119487411Y-41599992D01*
X119487408Y-41599988D01*
X119400011Y-41512591D01*
X119400007Y-41512588D01*
X119297239Y-41443920D01*
X119297226Y-41443913D01*
X119183039Y-41396616D01*
X119183029Y-41396613D01*
X119061805Y-41372500D01*
X119061803Y-41372500D01*
X108730149Y-41372500D01*
X108663110Y-41352815D01*
X108617355Y-41300011D01*
X108607411Y-41230853D01*
X108627046Y-41179610D01*
X108672629Y-41111390D01*
X108729505Y-40974080D01*
X108758500Y-40828312D01*
X108758500Y-40628500D01*
X108778185Y-40561461D01*
X108830989Y-40515706D01*
X108882500Y-40504500D01*
X121211460Y-40504500D01*
X121252415Y-40511459D01*
X121320737Y-40535366D01*
X121320743Y-40535367D01*
X121320745Y-40535368D01*
X121320746Y-40535368D01*
X121320750Y-40535369D01*
X121499996Y-40555565D01*
X121500000Y-40555565D01*
X121500004Y-40555565D01*
X121679249Y-40535369D01*
X121679252Y-40535368D01*
X121679255Y-40535368D01*
X121849522Y-40475789D01*
X122002262Y-40379816D01*
X122129816Y-40252262D01*
X122225789Y-40099522D01*
X122285368Y-39929255D01*
X122293413Y-39857853D01*
X122305565Y-39750003D01*
X122305565Y-39749996D01*
X122285369Y-39570750D01*
X122285368Y-39570745D01*
X122284044Y-39566960D01*
X122225789Y-39400478D01*
X122129816Y-39247738D01*
X122002262Y-39120184D01*
X121849523Y-39024211D01*
X121679254Y-38964631D01*
X121679249Y-38964630D01*
X121500004Y-38944435D01*
X121499996Y-38944435D01*
X121320750Y-38964630D01*
X121320737Y-38964633D01*
X121252415Y-38988541D01*
X121211460Y-38995500D01*
X108174499Y-38995500D01*
X108107460Y-38975815D01*
X108061705Y-38923011D01*
X108050499Y-38871500D01*
X108050499Y-38152129D01*
X108050498Y-38152123D01*
X108050497Y-38152116D01*
X108044091Y-38092517D01*
X107993796Y-37957669D01*
X107993795Y-37957668D01*
X107993793Y-37957664D01*
X107907547Y-37842455D01*
X107907544Y-37842452D01*
X107792335Y-37756206D01*
X107792328Y-37756202D01*
X107657482Y-37705908D01*
X107657483Y-37705908D01*
X107597883Y-37699501D01*
X107597881Y-37699500D01*
X107597873Y-37699500D01*
X107597864Y-37699500D01*
X105402129Y-37699500D01*
X105402123Y-37699501D01*
X105342516Y-37705908D01*
X105207671Y-37756202D01*
X105207664Y-37756206D01*
X105092455Y-37842452D01*
X105092452Y-37842455D01*
X105006206Y-37957664D01*
X105006202Y-37957671D01*
X104955908Y-38092517D01*
X104949703Y-38150241D01*
X104949500Y-38152127D01*
X104949500Y-39024211D01*
X104949501Y-39875500D01*
X104929816Y-39942539D01*
X104877013Y-39988294D01*
X104825501Y-39999500D01*
X103053375Y-39999500D01*
X102986336Y-39979815D01*
X102940581Y-39927011D01*
X102930637Y-39857853D01*
X102938814Y-39828048D01*
X102979168Y-39730623D01*
X102979169Y-39730621D01*
X102979170Y-39730616D01*
X102979172Y-39730612D01*
X103036146Y-39493302D01*
X103055294Y-39250000D01*
X103036146Y-39006698D01*
X102979172Y-38769388D01*
X102885777Y-38543911D01*
X102885777Y-38543910D01*
X102758262Y-38335826D01*
X102758261Y-38335823D01*
X102722453Y-38293897D01*
X102599759Y-38150241D01*
X102477063Y-38045449D01*
X102414176Y-37991738D01*
X102414173Y-37991737D01*
X102206089Y-37864222D01*
X101980618Y-37770830D01*
X101980621Y-37770830D01*
X101874992Y-37745470D01*
X101743302Y-37713854D01*
X101743300Y-37713853D01*
X101743297Y-37713853D01*
X101500000Y-37694706D01*
X101256702Y-37713853D01*
X101256698Y-37713854D01*
X101080301Y-37756204D01*
X101019380Y-37770830D01*
X100793910Y-37864222D01*
X100585826Y-37991737D01*
X100585823Y-37991738D01*
X100400241Y-38150241D01*
X100241738Y-38335823D01*
X100241737Y-38335826D01*
X100114222Y-38543910D01*
X100020830Y-38769380D01*
X99963853Y-39006702D01*
X99944706Y-39250000D01*
X99963853Y-39493297D01*
X100020830Y-39730621D01*
X100020831Y-39730623D01*
X100061186Y-39828048D01*
X100068655Y-39897517D01*
X100037380Y-39959996D01*
X99977291Y-39995648D01*
X99946625Y-39999500D01*
X90799972Y-39999500D01*
X90759017Y-39992542D01*
X90679254Y-39964631D01*
X90679249Y-39964630D01*
X90500004Y-39944435D01*
X90499996Y-39944435D01*
X90320750Y-39964630D01*
X90320745Y-39964631D01*
X90150476Y-40024211D01*
X89997737Y-40120184D01*
X89870184Y-40247737D01*
X89774211Y-40400476D01*
X89714631Y-40570745D01*
X89714630Y-40570750D01*
X89694435Y-40749996D01*
X89694435Y-40750003D01*
X89714630Y-40929249D01*
X89714631Y-40929254D01*
X89774211Y-41099523D01*
X89826367Y-41182528D01*
X89845367Y-41249765D01*
X89824999Y-41316600D01*
X89771731Y-41361814D01*
X89721373Y-41372500D01*
X88791672Y-41372500D01*
X88725700Y-41353494D01*
X88599523Y-41274211D01*
X88429254Y-41214631D01*
X88429249Y-41214630D01*
X88250004Y-41194435D01*
X88249996Y-41194435D01*
X88070750Y-41214630D01*
X88070745Y-41214631D01*
X87900476Y-41274211D01*
X87747737Y-41370184D01*
X87620184Y-41497737D01*
X87524211Y-41650476D01*
X87464631Y-41820745D01*
X87464630Y-41820750D01*
X87444435Y-41999996D01*
X87444435Y-42000003D01*
X87464630Y-42179249D01*
X87464631Y-42179254D01*
X87524211Y-42349523D01*
X87620184Y-42502262D01*
X87625254Y-42507332D01*
X87658739Y-42568655D01*
X87653755Y-42638347D01*
X87611883Y-42694280D01*
X87576703Y-42710577D01*
X87577318Y-42712332D01*
X87400476Y-42774211D01*
X87247737Y-42870184D01*
X87120184Y-42997737D01*
X87024211Y-43150476D01*
X86964631Y-43320745D01*
X86964630Y-43320750D01*
X86944435Y-43499996D01*
X86944435Y-43500003D01*
X86964630Y-43679249D01*
X86964631Y-43679254D01*
X87024211Y-43849523D01*
X87076367Y-43932528D01*
X87095367Y-43999765D01*
X87074999Y-44066600D01*
X87021731Y-44111814D01*
X86971373Y-44122500D01*
X86541672Y-44122500D01*
X86475700Y-44103494D01*
X86349523Y-44024211D01*
X86179254Y-43964631D01*
X86179249Y-43964630D01*
X86000004Y-43944435D01*
X85999996Y-43944435D01*
X85820750Y-43964630D01*
X85820745Y-43964631D01*
X85650476Y-44024211D01*
X85497737Y-44120184D01*
X85370184Y-44247737D01*
X85274211Y-44400476D01*
X85214631Y-44570745D01*
X85214630Y-44570750D01*
X85194435Y-44749996D01*
X85194435Y-44750003D01*
X85214630Y-44929249D01*
X85214631Y-44929254D01*
X85274211Y-45099523D01*
X85370184Y-45252262D01*
X85497738Y-45379816D01*
X85519526Y-45393506D01*
X85565817Y-45445841D01*
X85576465Y-45514894D01*
X85548090Y-45578743D01*
X85489701Y-45617115D01*
X85453554Y-45622500D01*
X85291672Y-45622500D01*
X85225700Y-45603494D01*
X85099523Y-45524211D01*
X84929254Y-45464631D01*
X84929249Y-45464630D01*
X84750004Y-45444435D01*
X84749996Y-45444435D01*
X84570750Y-45464630D01*
X84570745Y-45464631D01*
X84400476Y-45524211D01*
X84247737Y-45620184D01*
X84120184Y-45747737D01*
X84024211Y-45900476D01*
X83964631Y-46070745D01*
X83964630Y-46070750D01*
X83944435Y-46249996D01*
X78605500Y-46249996D01*
X78605500Y-40899711D01*
X80953500Y-40899711D01*
X80953500Y-41142288D01*
X80985161Y-41382785D01*
X81047947Y-41617104D01*
X81132298Y-41820745D01*
X81140776Y-41841212D01*
X81262064Y-42051289D01*
X81262066Y-42051292D01*
X81262067Y-42051293D01*
X81409733Y-42243736D01*
X81409739Y-42243743D01*
X81581256Y-42415260D01*
X81581262Y-42415265D01*
X81773711Y-42562936D01*
X81983788Y-42684224D01*
X82207900Y-42777054D01*
X82442211Y-42839838D01*
X82622586Y-42863584D01*
X82682711Y-42871500D01*
X82682712Y-42871500D01*
X82925289Y-42871500D01*
X82973388Y-42865167D01*
X83165789Y-42839838D01*
X83400100Y-42777054D01*
X83624212Y-42684224D01*
X83834289Y-42562936D01*
X84026738Y-42415265D01*
X84198265Y-42243738D01*
X84345936Y-42051289D01*
X84467224Y-41841212D01*
X84560054Y-41617100D01*
X84622838Y-41382789D01*
X84654500Y-41142288D01*
X84654500Y-40899712D01*
X84622838Y-40659211D01*
X84560054Y-40424900D01*
X84467224Y-40200788D01*
X84345936Y-39990711D01*
X84198265Y-39798262D01*
X84198260Y-39798256D01*
X84026743Y-39626739D01*
X84026736Y-39626733D01*
X83834293Y-39479067D01*
X83834292Y-39479066D01*
X83834289Y-39479064D01*
X83624212Y-39357776D01*
X83555132Y-39329162D01*
X83400104Y-39264947D01*
X83165785Y-39202161D01*
X82925289Y-39170500D01*
X82925288Y-39170500D01*
X82682712Y-39170500D01*
X82682711Y-39170500D01*
X82442214Y-39202161D01*
X82207895Y-39264947D01*
X81983794Y-39357773D01*
X81983785Y-39357777D01*
X81773706Y-39479067D01*
X81581263Y-39626733D01*
X81581256Y-39626739D01*
X81409739Y-39798256D01*
X81409733Y-39798263D01*
X81262067Y-39990706D01*
X81140777Y-40200785D01*
X81140773Y-40200794D01*
X81047947Y-40424895D01*
X80985161Y-40659214D01*
X80953500Y-40899711D01*
X78605500Y-40899711D01*
X78605500Y-37209523D01*
X78625185Y-37142484D01*
X78677989Y-37096729D01*
X78730006Y-37085524D01*
X170481012Y-37462583D01*
G37*
G04 #@! TD.AperFunction*
M02*
