M48
; DRILL file {KiCad 8.0.8} date 2025-03-03T21:48:32-0600
; FORMAT={-:-/ absolute / metric / decimal}
; #@! TF.CreationDate,2025-03-03T21:48:32-06:00
; #@! TF.GenerationSoftware,Kicad,Pcbnew,8.0.8
; #@! TF.FileFunction,Plated,1,2,PTH
FMAT,2
METRIC
; #@! TA.AperFunction,Plated,PTH,ViaDrill
T1C0.300
; #@! TA.AperFunction,Plated,PTH,ComponentDrill
T2C0.300
; #@! TA.AperFunction,Plated,PTH,ComponentDrill
T3C0.450
; #@! TA.AperFunction,Plated,PTH,ComponentDrill
T4C1.000
; #@! TA.AperFunction,Plated,PTH,ComponentDrill
T5C1.190
; #@! TA.AperFunction,Plated,PTH,ComponentDrill
T6C1.400
%
G90
G05
T1
X79.75Y-103.0
X81.25Y-60.0
X82.25Y-57.75
X82.5Y-98.5
X84.75Y-46.25
X86.0Y-44.75
X87.75Y-43.5
X88.25Y-42.0
X88.25Y-48.75
X89.25Y-53.25
X90.5Y-40.75
X93.0Y-39.0
X93.0Y-62.0
X93.5Y-75.5
X96.0Y-48.5
X96.0Y-113.5
X99.25Y-105.75
X99.25Y-108.25
X102.25Y-69.75
X106.0Y-96.75
X106.5Y-117.0
X109.25Y-54.75
X109.75Y-99.0
X111.5Y-82.0
X113.157Y-113.03
X113.157Y-114.046
X113.75Y-43.5
X113.75Y-44.75
X113.75Y-46.25
X115.189Y-109.728
X115.57Y-113.157
X116.75Y-54.0
X117.0Y-79.25
X117.25Y-58.5
X117.25Y-76.5
X118.377Y-106.68
X119.126Y-120.904
X119.318Y-73.432
X119.75Y-74.75
X120.329Y-101.079
X121.0Y-92.0
X121.25Y-85.0
X121.25Y-87.0
X121.5Y-39.75
X121.5Y-52.5
X121.75Y-79.75
X122.75Y-89.0
X122.936Y-123.698
X122.936Y-124.587
X123.5Y-79.75
X123.698Y-123.19
X124.5Y-58.25
X125.603Y-119.38
X126.25Y-85.0
X126.746Y-116.205
X126.746Y-124.714
X127.25Y-59.75
X128.27Y-90.043
X128.5Y-59.75
X128.51Y-126.212
X128.734Y-115.305
X128.75Y-92.0
X129.112Y-126.813
X129.25Y-81.25
X129.584Y-115.305
X129.75Y-58.5
X129.91Y-126.272
X130.0Y-108.25
X130.385Y-123.259
X131.0Y-58.5
X131.736Y-77.986
X132.0Y-64.0
X132.25Y-58.5
X132.25Y-80.473
X132.377Y-85.25
X133.5Y-58.5
X133.5Y-63.75
X133.5Y-87.75
X134.5Y-111.5
X134.75Y-58.5
X134.75Y-63.75
X134.75Y-72.725
X134.75Y-104.5
X138.0Y-90.0
X138.25Y-97.0
X141.25Y-79.25
X142.25Y-67.75
X142.875Y-75.057
X143.5Y-80.0
X144.5Y-61.25
X144.5Y-84.75
X146.0Y-42.25
X146.0Y-58.5
X146.75Y-61.5
X147.5Y-43.5
X147.5Y-59.25
X147.5Y-79.0
X148.0Y-90.0
X148.75Y-45.0
X148.75Y-47.5
X148.75Y-50.0
X148.75Y-52.25
X149.75Y-71.043
X151.25Y-75.25
X153.25Y-60.5
X153.5Y-65.25
X154.75Y-99.5
X155.25Y-96.0
X158.54Y-84.04
X158.75Y-78.75
X158.75Y-89.0
X158.75Y-126.25
X159.75Y-73.88
X160.25Y-117.75
X164.75Y-117.5
X167.25Y-115.0
T2
X128.7Y-45.5
X128.7Y-46.9
X129.4Y-44.8
X129.4Y-46.2
X129.4Y-47.6
X130.1Y-45.5
X130.1Y-46.9
X130.8Y-44.8
X130.8Y-46.2
X130.8Y-47.6
X131.5Y-45.5
X131.5Y-46.9
T4
X89.472Y-65.159
X89.472Y-67.699
X89.472Y-70.239
X89.472Y-72.779
X89.472Y-75.319
X89.472Y-77.859
X89.472Y-80.399
X89.472Y-82.939
X89.472Y-85.479
X89.472Y-88.019
X89.472Y-90.559
X89.472Y-93.099
X89.472Y-95.639
X89.472Y-98.179
X89.472Y-100.719
X89.472Y-103.259
X89.472Y-105.799
X89.472Y-108.339
X89.472Y-110.879
X89.472Y-113.419
X162.5Y-63.72
X162.5Y-66.26
X162.5Y-68.8
X162.5Y-71.34
X162.5Y-73.88
X162.5Y-76.42
X162.5Y-78.96
X162.5Y-81.5
X162.5Y-84.04
X162.5Y-86.58
X162.5Y-89.12
X162.5Y-91.66
X162.5Y-94.2
X162.5Y-96.74
X162.5Y-99.28
X162.5Y-101.82
X162.5Y-104.36
X162.5Y-106.9
X162.5Y-109.44
X162.5Y-111.98
T5
X99.5Y-78.96
X99.5Y-81.5
X99.5Y-84.04
X99.5Y-86.58
X99.5Y-89.12
X99.5Y-91.66
X99.5Y-94.2
X99.5Y-96.74
X107.75Y-79.25
X107.75Y-81.79
X107.75Y-84.33
X107.75Y-86.87
X107.75Y-89.41
X107.75Y-91.95
T6
X97.075Y-59.5
X97.075Y-64.5
X101.5Y-39.25
X101.5Y-51.75
X106.5Y-39.25
X106.5Y-51.75
X109.575Y-59.5
X109.575Y-64.5
T3
G00X124.587Y-123.808
M15
G01X124.587Y-124.808
M16
G05
G00X124.587Y-126.908
M15
G01X124.587Y-128.108
M16
G05
G00X133.487Y-123.808
M15
G01X133.487Y-124.808
M16
G05
G00X133.487Y-126.908
M15
G01X133.487Y-128.108
M16
G05
M30
