G04 #@! TF.GenerationSoftware,KiCad,Pcbnew,8.0.8*
G04 #@! TF.CreationDate,2025-03-03T22:19:49-06:00*
G04 #@! TF.ProjectId,group13_buttons,67726f75-7031-4335-9f62-7574746f6e73,rev?*
G04 #@! TF.SameCoordinates,Original*
G04 #@! TF.FileFunction,Legend,Top*
G04 #@! TF.FilePolarity,Positive*
%FSLAX46Y46*%
G04 Gerber Fmt 4.6, Leading zero omitted, Abs format (unit mm)*
G04 Created by KiCad (PCBNEW 8.0.8) date 2025-03-03 22:19:49*
%MOMM*%
%LPD*%
G01*
G04 APERTURE LIST*
G04 Aperture macros list*
%AMRoundRect*
0 Rectangle with rounded corners*
0 $1 Rounding radius*
0 $2 $3 $4 $5 $6 $7 $8 $9 X,Y pos of 4 corners*
0 Add a 4 corners polygon primitive as box body*
4,1,4,$2,$3,$4,$5,$6,$7,$8,$9,$2,$3,0*
0 Add four circle primitives for the rounded corners*
1,1,$1+$1,$2,$3*
1,1,$1+$1,$4,$5*
1,1,$1+$1,$6,$7*
1,1,$1+$1,$8,$9*
0 Add four rect primitives between the rounded corners*
20,1,$1+$1,$2,$3,$4,$5,0*
20,1,$1+$1,$4,$5,$6,$7,0*
20,1,$1+$1,$6,$7,$8,$9,0*
20,1,$1+$1,$8,$9,$2,$3,0*%
G04 Aperture macros list end*
%ADD10C,0.150000*%
%ADD11C,0.200000*%
%ADD12C,0.127000*%
%ADD13C,0.120000*%
%ADD14C,2.304000*%
%ADD15RoundRect,0.102000X-1.050000X-1.050000X1.050000X-1.050000X1.050000X1.050000X-1.050000X1.050000X0*%
%ADD16RoundRect,0.250000X-0.350000X-0.450000X0.350000X-0.450000X0.350000X0.450000X-0.350000X0.450000X0*%
%ADD17RoundRect,0.250000X0.350000X0.450000X-0.350000X0.450000X-0.350000X-0.450000X0.350000X-0.450000X0*%
%ADD18RoundRect,0.250000X-0.450000X0.350000X-0.450000X-0.350000X0.450000X-0.350000X0.450000X0.350000X0*%
%ADD19O,2.190000X1.740000*%
%ADD20RoundRect,0.250000X-0.845000X0.620000X-0.845000X-0.620000X0.845000X-0.620000X0.845000X0.620000X0*%
%ADD21C,3.200000*%
%ADD22RoundRect,0.250000X0.475000X-0.337500X0.475000X0.337500X-0.475000X0.337500X-0.475000X-0.337500X0*%
%ADD23R,1.600000X1.600000*%
G04 APERTURE END LIST*
D10*
X166905095Y-190820200D02*
X167047952Y-190867819D01*
X167047952Y-190867819D02*
X167286047Y-190867819D01*
X167286047Y-190867819D02*
X167381285Y-190820200D01*
X167381285Y-190820200D02*
X167428904Y-190772580D01*
X167428904Y-190772580D02*
X167476523Y-190677342D01*
X167476523Y-190677342D02*
X167476523Y-190582104D01*
X167476523Y-190582104D02*
X167428904Y-190486866D01*
X167428904Y-190486866D02*
X167381285Y-190439247D01*
X167381285Y-190439247D02*
X167286047Y-190391628D01*
X167286047Y-190391628D02*
X167095571Y-190344009D01*
X167095571Y-190344009D02*
X167000333Y-190296390D01*
X167000333Y-190296390D02*
X166952714Y-190248771D01*
X166952714Y-190248771D02*
X166905095Y-190153533D01*
X166905095Y-190153533D02*
X166905095Y-190058295D01*
X166905095Y-190058295D02*
X166952714Y-189963057D01*
X166952714Y-189963057D02*
X167000333Y-189915438D01*
X167000333Y-189915438D02*
X167095571Y-189867819D01*
X167095571Y-189867819D02*
X167333666Y-189867819D01*
X167333666Y-189867819D02*
X167476523Y-189915438D01*
X168047952Y-190296390D02*
X167952714Y-190248771D01*
X167952714Y-190248771D02*
X167905095Y-190201152D01*
X167905095Y-190201152D02*
X167857476Y-190105914D01*
X167857476Y-190105914D02*
X167857476Y-190058295D01*
X167857476Y-190058295D02*
X167905095Y-189963057D01*
X167905095Y-189963057D02*
X167952714Y-189915438D01*
X167952714Y-189915438D02*
X168047952Y-189867819D01*
X168047952Y-189867819D02*
X168238428Y-189867819D01*
X168238428Y-189867819D02*
X168333666Y-189915438D01*
X168333666Y-189915438D02*
X168381285Y-189963057D01*
X168381285Y-189963057D02*
X168428904Y-190058295D01*
X168428904Y-190058295D02*
X168428904Y-190105914D01*
X168428904Y-190105914D02*
X168381285Y-190201152D01*
X168381285Y-190201152D02*
X168333666Y-190248771D01*
X168333666Y-190248771D02*
X168238428Y-190296390D01*
X168238428Y-190296390D02*
X168047952Y-190296390D01*
X168047952Y-190296390D02*
X167952714Y-190344009D01*
X167952714Y-190344009D02*
X167905095Y-190391628D01*
X167905095Y-190391628D02*
X167857476Y-190486866D01*
X167857476Y-190486866D02*
X167857476Y-190677342D01*
X167857476Y-190677342D02*
X167905095Y-190772580D01*
X167905095Y-190772580D02*
X167952714Y-190820200D01*
X167952714Y-190820200D02*
X168047952Y-190867819D01*
X168047952Y-190867819D02*
X168238428Y-190867819D01*
X168238428Y-190867819D02*
X168333666Y-190820200D01*
X168333666Y-190820200D02*
X168381285Y-190772580D01*
X168381285Y-190772580D02*
X168428904Y-190677342D01*
X168428904Y-190677342D02*
X168428904Y-190486866D01*
X168428904Y-190486866D02*
X168381285Y-190391628D01*
X168381285Y-190391628D02*
X168333666Y-190344009D01*
X168333666Y-190344009D02*
X168238428Y-190296390D01*
X166778095Y-170754200D02*
X166920952Y-170801819D01*
X166920952Y-170801819D02*
X167159047Y-170801819D01*
X167159047Y-170801819D02*
X167254285Y-170754200D01*
X167254285Y-170754200D02*
X167301904Y-170706580D01*
X167301904Y-170706580D02*
X167349523Y-170611342D01*
X167349523Y-170611342D02*
X167349523Y-170516104D01*
X167349523Y-170516104D02*
X167301904Y-170420866D01*
X167301904Y-170420866D02*
X167254285Y-170373247D01*
X167254285Y-170373247D02*
X167159047Y-170325628D01*
X167159047Y-170325628D02*
X166968571Y-170278009D01*
X166968571Y-170278009D02*
X166873333Y-170230390D01*
X166873333Y-170230390D02*
X166825714Y-170182771D01*
X166825714Y-170182771D02*
X166778095Y-170087533D01*
X166778095Y-170087533D02*
X166778095Y-169992295D01*
X166778095Y-169992295D02*
X166825714Y-169897057D01*
X166825714Y-169897057D02*
X166873333Y-169849438D01*
X166873333Y-169849438D02*
X166968571Y-169801819D01*
X166968571Y-169801819D02*
X167206666Y-169801819D01*
X167206666Y-169801819D02*
X167349523Y-169849438D01*
X167682857Y-169801819D02*
X168349523Y-169801819D01*
X168349523Y-169801819D02*
X167920952Y-170801819D01*
X167032095Y-150942200D02*
X167174952Y-150989819D01*
X167174952Y-150989819D02*
X167413047Y-150989819D01*
X167413047Y-150989819D02*
X167508285Y-150942200D01*
X167508285Y-150942200D02*
X167555904Y-150894580D01*
X167555904Y-150894580D02*
X167603523Y-150799342D01*
X167603523Y-150799342D02*
X167603523Y-150704104D01*
X167603523Y-150704104D02*
X167555904Y-150608866D01*
X167555904Y-150608866D02*
X167508285Y-150561247D01*
X167508285Y-150561247D02*
X167413047Y-150513628D01*
X167413047Y-150513628D02*
X167222571Y-150466009D01*
X167222571Y-150466009D02*
X167127333Y-150418390D01*
X167127333Y-150418390D02*
X167079714Y-150370771D01*
X167079714Y-150370771D02*
X167032095Y-150275533D01*
X167032095Y-150275533D02*
X167032095Y-150180295D01*
X167032095Y-150180295D02*
X167079714Y-150085057D01*
X167079714Y-150085057D02*
X167127333Y-150037438D01*
X167127333Y-150037438D02*
X167222571Y-149989819D01*
X167222571Y-149989819D02*
X167460666Y-149989819D01*
X167460666Y-149989819D02*
X167603523Y-150037438D01*
X168460666Y-149989819D02*
X168270190Y-149989819D01*
X168270190Y-149989819D02*
X168174952Y-150037438D01*
X168174952Y-150037438D02*
X168127333Y-150085057D01*
X168127333Y-150085057D02*
X168032095Y-150227914D01*
X168032095Y-150227914D02*
X167984476Y-150418390D01*
X167984476Y-150418390D02*
X167984476Y-150799342D01*
X167984476Y-150799342D02*
X168032095Y-150894580D01*
X168032095Y-150894580D02*
X168079714Y-150942200D01*
X168079714Y-150942200D02*
X168174952Y-150989819D01*
X168174952Y-150989819D02*
X168365428Y-150989819D01*
X168365428Y-150989819D02*
X168460666Y-150942200D01*
X168460666Y-150942200D02*
X168508285Y-150894580D01*
X168508285Y-150894580D02*
X168555904Y-150799342D01*
X168555904Y-150799342D02*
X168555904Y-150561247D01*
X168555904Y-150561247D02*
X168508285Y-150466009D01*
X168508285Y-150466009D02*
X168460666Y-150418390D01*
X168460666Y-150418390D02*
X168365428Y-150370771D01*
X168365428Y-150370771D02*
X168174952Y-150370771D01*
X168174952Y-150370771D02*
X168079714Y-150418390D01*
X168079714Y-150418390D02*
X168032095Y-150466009D01*
X168032095Y-150466009D02*
X167984476Y-150561247D01*
X166414095Y-130716200D02*
X166556952Y-130763819D01*
X166556952Y-130763819D02*
X166795047Y-130763819D01*
X166795047Y-130763819D02*
X166890285Y-130716200D01*
X166890285Y-130716200D02*
X166937904Y-130668580D01*
X166937904Y-130668580D02*
X166985523Y-130573342D01*
X166985523Y-130573342D02*
X166985523Y-130478104D01*
X166985523Y-130478104D02*
X166937904Y-130382866D01*
X166937904Y-130382866D02*
X166890285Y-130335247D01*
X166890285Y-130335247D02*
X166795047Y-130287628D01*
X166795047Y-130287628D02*
X166604571Y-130240009D01*
X166604571Y-130240009D02*
X166509333Y-130192390D01*
X166509333Y-130192390D02*
X166461714Y-130144771D01*
X166461714Y-130144771D02*
X166414095Y-130049533D01*
X166414095Y-130049533D02*
X166414095Y-129954295D01*
X166414095Y-129954295D02*
X166461714Y-129859057D01*
X166461714Y-129859057D02*
X166509333Y-129811438D01*
X166509333Y-129811438D02*
X166604571Y-129763819D01*
X166604571Y-129763819D02*
X166842666Y-129763819D01*
X166842666Y-129763819D02*
X166985523Y-129811438D01*
X167890285Y-129763819D02*
X167414095Y-129763819D01*
X167414095Y-129763819D02*
X167366476Y-130240009D01*
X167366476Y-130240009D02*
X167414095Y-130192390D01*
X167414095Y-130192390D02*
X167509333Y-130144771D01*
X167509333Y-130144771D02*
X167747428Y-130144771D01*
X167747428Y-130144771D02*
X167842666Y-130192390D01*
X167842666Y-130192390D02*
X167890285Y-130240009D01*
X167890285Y-130240009D02*
X167937904Y-130335247D01*
X167937904Y-130335247D02*
X167937904Y-130573342D01*
X167937904Y-130573342D02*
X167890285Y-130668580D01*
X167890285Y-130668580D02*
X167842666Y-130716200D01*
X167842666Y-130716200D02*
X167747428Y-130763819D01*
X167747428Y-130763819D02*
X167509333Y-130763819D01*
X167509333Y-130763819D02*
X167414095Y-130716200D01*
X167414095Y-130716200D02*
X167366476Y-130668580D01*
X142489095Y-173371200D02*
X142631952Y-173418819D01*
X142631952Y-173418819D02*
X142870047Y-173418819D01*
X142870047Y-173418819D02*
X142965285Y-173371200D01*
X142965285Y-173371200D02*
X143012904Y-173323580D01*
X143012904Y-173323580D02*
X143060523Y-173228342D01*
X143060523Y-173228342D02*
X143060523Y-173133104D01*
X143060523Y-173133104D02*
X143012904Y-173037866D01*
X143012904Y-173037866D02*
X142965285Y-172990247D01*
X142965285Y-172990247D02*
X142870047Y-172942628D01*
X142870047Y-172942628D02*
X142679571Y-172895009D01*
X142679571Y-172895009D02*
X142584333Y-172847390D01*
X142584333Y-172847390D02*
X142536714Y-172799771D01*
X142536714Y-172799771D02*
X142489095Y-172704533D01*
X142489095Y-172704533D02*
X142489095Y-172609295D01*
X142489095Y-172609295D02*
X142536714Y-172514057D01*
X142536714Y-172514057D02*
X142584333Y-172466438D01*
X142584333Y-172466438D02*
X142679571Y-172418819D01*
X142679571Y-172418819D02*
X142917666Y-172418819D01*
X142917666Y-172418819D02*
X143060523Y-172466438D01*
X143917666Y-172752152D02*
X143917666Y-173418819D01*
X143679571Y-172371200D02*
X143441476Y-173085485D01*
X143441476Y-173085485D02*
X144060523Y-173085485D01*
X142489095Y-153371200D02*
X142631952Y-153418819D01*
X142631952Y-153418819D02*
X142870047Y-153418819D01*
X142870047Y-153418819D02*
X142965285Y-153371200D01*
X142965285Y-153371200D02*
X143012904Y-153323580D01*
X143012904Y-153323580D02*
X143060523Y-153228342D01*
X143060523Y-153228342D02*
X143060523Y-153133104D01*
X143060523Y-153133104D02*
X143012904Y-153037866D01*
X143012904Y-153037866D02*
X142965285Y-152990247D01*
X142965285Y-152990247D02*
X142870047Y-152942628D01*
X142870047Y-152942628D02*
X142679571Y-152895009D01*
X142679571Y-152895009D02*
X142584333Y-152847390D01*
X142584333Y-152847390D02*
X142536714Y-152799771D01*
X142536714Y-152799771D02*
X142489095Y-152704533D01*
X142489095Y-152704533D02*
X142489095Y-152609295D01*
X142489095Y-152609295D02*
X142536714Y-152514057D01*
X142536714Y-152514057D02*
X142584333Y-152466438D01*
X142584333Y-152466438D02*
X142679571Y-152418819D01*
X142679571Y-152418819D02*
X142917666Y-152418819D01*
X142917666Y-152418819D02*
X143060523Y-152466438D01*
X143393857Y-152418819D02*
X144012904Y-152418819D01*
X144012904Y-152418819D02*
X143679571Y-152799771D01*
X143679571Y-152799771D02*
X143822428Y-152799771D01*
X143822428Y-152799771D02*
X143917666Y-152847390D01*
X143917666Y-152847390D02*
X143965285Y-152895009D01*
X143965285Y-152895009D02*
X144012904Y-152990247D01*
X144012904Y-152990247D02*
X144012904Y-153228342D01*
X144012904Y-153228342D02*
X143965285Y-153323580D01*
X143965285Y-153323580D02*
X143917666Y-153371200D01*
X143917666Y-153371200D02*
X143822428Y-153418819D01*
X143822428Y-153418819D02*
X143536714Y-153418819D01*
X143536714Y-153418819D02*
X143441476Y-153371200D01*
X143441476Y-153371200D02*
X143393857Y-153323580D01*
X142489095Y-133371200D02*
X142631952Y-133418819D01*
X142631952Y-133418819D02*
X142870047Y-133418819D01*
X142870047Y-133418819D02*
X142965285Y-133371200D01*
X142965285Y-133371200D02*
X143012904Y-133323580D01*
X143012904Y-133323580D02*
X143060523Y-133228342D01*
X143060523Y-133228342D02*
X143060523Y-133133104D01*
X143060523Y-133133104D02*
X143012904Y-133037866D01*
X143012904Y-133037866D02*
X142965285Y-132990247D01*
X142965285Y-132990247D02*
X142870047Y-132942628D01*
X142870047Y-132942628D02*
X142679571Y-132895009D01*
X142679571Y-132895009D02*
X142584333Y-132847390D01*
X142584333Y-132847390D02*
X142536714Y-132799771D01*
X142536714Y-132799771D02*
X142489095Y-132704533D01*
X142489095Y-132704533D02*
X142489095Y-132609295D01*
X142489095Y-132609295D02*
X142536714Y-132514057D01*
X142536714Y-132514057D02*
X142584333Y-132466438D01*
X142584333Y-132466438D02*
X142679571Y-132418819D01*
X142679571Y-132418819D02*
X142917666Y-132418819D01*
X142917666Y-132418819D02*
X143060523Y-132466438D01*
X143441476Y-132514057D02*
X143489095Y-132466438D01*
X143489095Y-132466438D02*
X143584333Y-132418819D01*
X143584333Y-132418819D02*
X143822428Y-132418819D01*
X143822428Y-132418819D02*
X143917666Y-132466438D01*
X143917666Y-132466438D02*
X143965285Y-132514057D01*
X143965285Y-132514057D02*
X144012904Y-132609295D01*
X144012904Y-132609295D02*
X144012904Y-132704533D01*
X144012904Y-132704533D02*
X143965285Y-132847390D01*
X143965285Y-132847390D02*
X143393857Y-133418819D01*
X143393857Y-133418819D02*
X144012904Y-133418819D01*
X146839095Y-120716200D02*
X146981952Y-120763819D01*
X146981952Y-120763819D02*
X147220047Y-120763819D01*
X147220047Y-120763819D02*
X147315285Y-120716200D01*
X147315285Y-120716200D02*
X147362904Y-120668580D01*
X147362904Y-120668580D02*
X147410523Y-120573342D01*
X147410523Y-120573342D02*
X147410523Y-120478104D01*
X147410523Y-120478104D02*
X147362904Y-120382866D01*
X147362904Y-120382866D02*
X147315285Y-120335247D01*
X147315285Y-120335247D02*
X147220047Y-120287628D01*
X147220047Y-120287628D02*
X147029571Y-120240009D01*
X147029571Y-120240009D02*
X146934333Y-120192390D01*
X146934333Y-120192390D02*
X146886714Y-120144771D01*
X146886714Y-120144771D02*
X146839095Y-120049533D01*
X146839095Y-120049533D02*
X146839095Y-119954295D01*
X146839095Y-119954295D02*
X146886714Y-119859057D01*
X146886714Y-119859057D02*
X146934333Y-119811438D01*
X146934333Y-119811438D02*
X147029571Y-119763819D01*
X147029571Y-119763819D02*
X147267666Y-119763819D01*
X147267666Y-119763819D02*
X147410523Y-119811438D01*
X148362904Y-120763819D02*
X147791476Y-120763819D01*
X148077190Y-120763819D02*
X148077190Y-119763819D01*
X148077190Y-119763819D02*
X147981952Y-119906676D01*
X147981952Y-119906676D02*
X147886714Y-120001914D01*
X147886714Y-120001914D02*
X147791476Y-120049533D01*
X162277333Y-180454819D02*
X161944000Y-179978628D01*
X161705905Y-180454819D02*
X161705905Y-179454819D01*
X161705905Y-179454819D02*
X162086857Y-179454819D01*
X162086857Y-179454819D02*
X162182095Y-179502438D01*
X162182095Y-179502438D02*
X162229714Y-179550057D01*
X162229714Y-179550057D02*
X162277333Y-179645295D01*
X162277333Y-179645295D02*
X162277333Y-179788152D01*
X162277333Y-179788152D02*
X162229714Y-179883390D01*
X162229714Y-179883390D02*
X162182095Y-179931009D01*
X162182095Y-179931009D02*
X162086857Y-179978628D01*
X162086857Y-179978628D02*
X161705905Y-179978628D01*
X162848762Y-179883390D02*
X162753524Y-179835771D01*
X162753524Y-179835771D02*
X162705905Y-179788152D01*
X162705905Y-179788152D02*
X162658286Y-179692914D01*
X162658286Y-179692914D02*
X162658286Y-179645295D01*
X162658286Y-179645295D02*
X162705905Y-179550057D01*
X162705905Y-179550057D02*
X162753524Y-179502438D01*
X162753524Y-179502438D02*
X162848762Y-179454819D01*
X162848762Y-179454819D02*
X163039238Y-179454819D01*
X163039238Y-179454819D02*
X163134476Y-179502438D01*
X163134476Y-179502438D02*
X163182095Y-179550057D01*
X163182095Y-179550057D02*
X163229714Y-179645295D01*
X163229714Y-179645295D02*
X163229714Y-179692914D01*
X163229714Y-179692914D02*
X163182095Y-179788152D01*
X163182095Y-179788152D02*
X163134476Y-179835771D01*
X163134476Y-179835771D02*
X163039238Y-179883390D01*
X163039238Y-179883390D02*
X162848762Y-179883390D01*
X162848762Y-179883390D02*
X162753524Y-179931009D01*
X162753524Y-179931009D02*
X162705905Y-179978628D01*
X162705905Y-179978628D02*
X162658286Y-180073866D01*
X162658286Y-180073866D02*
X162658286Y-180264342D01*
X162658286Y-180264342D02*
X162705905Y-180359580D01*
X162705905Y-180359580D02*
X162753524Y-180407200D01*
X162753524Y-180407200D02*
X162848762Y-180454819D01*
X162848762Y-180454819D02*
X163039238Y-180454819D01*
X163039238Y-180454819D02*
X163134476Y-180407200D01*
X163134476Y-180407200D02*
X163182095Y-180359580D01*
X163182095Y-180359580D02*
X163229714Y-180264342D01*
X163229714Y-180264342D02*
X163229714Y-180073866D01*
X163229714Y-180073866D02*
X163182095Y-179978628D01*
X163182095Y-179978628D02*
X163134476Y-179931009D01*
X163134476Y-179931009D02*
X163039238Y-179883390D01*
X159356333Y-163180819D02*
X159023000Y-162704628D01*
X158784905Y-163180819D02*
X158784905Y-162180819D01*
X158784905Y-162180819D02*
X159165857Y-162180819D01*
X159165857Y-162180819D02*
X159261095Y-162228438D01*
X159261095Y-162228438D02*
X159308714Y-162276057D01*
X159308714Y-162276057D02*
X159356333Y-162371295D01*
X159356333Y-162371295D02*
X159356333Y-162514152D01*
X159356333Y-162514152D02*
X159308714Y-162609390D01*
X159308714Y-162609390D02*
X159261095Y-162657009D01*
X159261095Y-162657009D02*
X159165857Y-162704628D01*
X159165857Y-162704628D02*
X158784905Y-162704628D01*
X159689667Y-162180819D02*
X160356333Y-162180819D01*
X160356333Y-162180819D02*
X159927762Y-163180819D01*
X161769333Y-139941819D02*
X161436000Y-139465628D01*
X161197905Y-139941819D02*
X161197905Y-138941819D01*
X161197905Y-138941819D02*
X161578857Y-138941819D01*
X161578857Y-138941819D02*
X161674095Y-138989438D01*
X161674095Y-138989438D02*
X161721714Y-139037057D01*
X161721714Y-139037057D02*
X161769333Y-139132295D01*
X161769333Y-139132295D02*
X161769333Y-139275152D01*
X161769333Y-139275152D02*
X161721714Y-139370390D01*
X161721714Y-139370390D02*
X161674095Y-139418009D01*
X161674095Y-139418009D02*
X161578857Y-139465628D01*
X161578857Y-139465628D02*
X161197905Y-139465628D01*
X162626476Y-138941819D02*
X162436000Y-138941819D01*
X162436000Y-138941819D02*
X162340762Y-138989438D01*
X162340762Y-138989438D02*
X162293143Y-139037057D01*
X162293143Y-139037057D02*
X162197905Y-139179914D01*
X162197905Y-139179914D02*
X162150286Y-139370390D01*
X162150286Y-139370390D02*
X162150286Y-139751342D01*
X162150286Y-139751342D02*
X162197905Y-139846580D01*
X162197905Y-139846580D02*
X162245524Y-139894200D01*
X162245524Y-139894200D02*
X162340762Y-139941819D01*
X162340762Y-139941819D02*
X162531238Y-139941819D01*
X162531238Y-139941819D02*
X162626476Y-139894200D01*
X162626476Y-139894200D02*
X162674095Y-139846580D01*
X162674095Y-139846580D02*
X162721714Y-139751342D01*
X162721714Y-139751342D02*
X162721714Y-139513247D01*
X162721714Y-139513247D02*
X162674095Y-139418009D01*
X162674095Y-139418009D02*
X162626476Y-139370390D01*
X162626476Y-139370390D02*
X162531238Y-139322771D01*
X162531238Y-139322771D02*
X162340762Y-139322771D01*
X162340762Y-139322771D02*
X162245524Y-139370390D01*
X162245524Y-139370390D02*
X162197905Y-139418009D01*
X162197905Y-139418009D02*
X162150286Y-139513247D01*
X162293333Y-121526819D02*
X161960000Y-121050628D01*
X161721905Y-121526819D02*
X161721905Y-120526819D01*
X161721905Y-120526819D02*
X162102857Y-120526819D01*
X162102857Y-120526819D02*
X162198095Y-120574438D01*
X162198095Y-120574438D02*
X162245714Y-120622057D01*
X162245714Y-120622057D02*
X162293333Y-120717295D01*
X162293333Y-120717295D02*
X162293333Y-120860152D01*
X162293333Y-120860152D02*
X162245714Y-120955390D01*
X162245714Y-120955390D02*
X162198095Y-121003009D01*
X162198095Y-121003009D02*
X162102857Y-121050628D01*
X162102857Y-121050628D02*
X161721905Y-121050628D01*
X163198095Y-120526819D02*
X162721905Y-120526819D01*
X162721905Y-120526819D02*
X162674286Y-121003009D01*
X162674286Y-121003009D02*
X162721905Y-120955390D01*
X162721905Y-120955390D02*
X162817143Y-120907771D01*
X162817143Y-120907771D02*
X163055238Y-120907771D01*
X163055238Y-120907771D02*
X163150476Y-120955390D01*
X163150476Y-120955390D02*
X163198095Y-121003009D01*
X163198095Y-121003009D02*
X163245714Y-121098247D01*
X163245714Y-121098247D02*
X163245714Y-121336342D01*
X163245714Y-121336342D02*
X163198095Y-121431580D01*
X163198095Y-121431580D02*
X163150476Y-121479200D01*
X163150476Y-121479200D02*
X163055238Y-121526819D01*
X163055238Y-121526819D02*
X162817143Y-121526819D01*
X162817143Y-121526819D02*
X162721905Y-121479200D01*
X162721905Y-121479200D02*
X162674286Y-121431580D01*
X154657333Y-170548819D02*
X154324000Y-170072628D01*
X154085905Y-170548819D02*
X154085905Y-169548819D01*
X154085905Y-169548819D02*
X154466857Y-169548819D01*
X154466857Y-169548819D02*
X154562095Y-169596438D01*
X154562095Y-169596438D02*
X154609714Y-169644057D01*
X154609714Y-169644057D02*
X154657333Y-169739295D01*
X154657333Y-169739295D02*
X154657333Y-169882152D01*
X154657333Y-169882152D02*
X154609714Y-169977390D01*
X154609714Y-169977390D02*
X154562095Y-170025009D01*
X154562095Y-170025009D02*
X154466857Y-170072628D01*
X154466857Y-170072628D02*
X154085905Y-170072628D01*
X155514476Y-169882152D02*
X155514476Y-170548819D01*
X155276381Y-169501200D02*
X155038286Y-170215485D01*
X155038286Y-170215485D02*
X155657333Y-170215485D01*
X152117333Y-153655819D02*
X151784000Y-153179628D01*
X151545905Y-153655819D02*
X151545905Y-152655819D01*
X151545905Y-152655819D02*
X151926857Y-152655819D01*
X151926857Y-152655819D02*
X152022095Y-152703438D01*
X152022095Y-152703438D02*
X152069714Y-152751057D01*
X152069714Y-152751057D02*
X152117333Y-152846295D01*
X152117333Y-152846295D02*
X152117333Y-152989152D01*
X152117333Y-152989152D02*
X152069714Y-153084390D01*
X152069714Y-153084390D02*
X152022095Y-153132009D01*
X152022095Y-153132009D02*
X151926857Y-153179628D01*
X151926857Y-153179628D02*
X151545905Y-153179628D01*
X152450667Y-152655819D02*
X153069714Y-152655819D01*
X153069714Y-152655819D02*
X152736381Y-153036771D01*
X152736381Y-153036771D02*
X152879238Y-153036771D01*
X152879238Y-153036771D02*
X152974476Y-153084390D01*
X152974476Y-153084390D02*
X153022095Y-153132009D01*
X153022095Y-153132009D02*
X153069714Y-153227247D01*
X153069714Y-153227247D02*
X153069714Y-153465342D01*
X153069714Y-153465342D02*
X153022095Y-153560580D01*
X153022095Y-153560580D02*
X152974476Y-153608200D01*
X152974476Y-153608200D02*
X152879238Y-153655819D01*
X152879238Y-153655819D02*
X152593524Y-153655819D01*
X152593524Y-153655819D02*
X152498286Y-153608200D01*
X152498286Y-153608200D02*
X152450667Y-153560580D01*
X154530333Y-130797819D02*
X154197000Y-130321628D01*
X153958905Y-130797819D02*
X153958905Y-129797819D01*
X153958905Y-129797819D02*
X154339857Y-129797819D01*
X154339857Y-129797819D02*
X154435095Y-129845438D01*
X154435095Y-129845438D02*
X154482714Y-129893057D01*
X154482714Y-129893057D02*
X154530333Y-129988295D01*
X154530333Y-129988295D02*
X154530333Y-130131152D01*
X154530333Y-130131152D02*
X154482714Y-130226390D01*
X154482714Y-130226390D02*
X154435095Y-130274009D01*
X154435095Y-130274009D02*
X154339857Y-130321628D01*
X154339857Y-130321628D02*
X153958905Y-130321628D01*
X154911286Y-129893057D02*
X154958905Y-129845438D01*
X154958905Y-129845438D02*
X155054143Y-129797819D01*
X155054143Y-129797819D02*
X155292238Y-129797819D01*
X155292238Y-129797819D02*
X155387476Y-129845438D01*
X155387476Y-129845438D02*
X155435095Y-129893057D01*
X155435095Y-129893057D02*
X155482714Y-129988295D01*
X155482714Y-129988295D02*
X155482714Y-130083533D01*
X155482714Y-130083533D02*
X155435095Y-130226390D01*
X155435095Y-130226390D02*
X154863667Y-130797819D01*
X154863667Y-130797819D02*
X155482714Y-130797819D01*
X158595819Y-119062666D02*
X158119628Y-119395999D01*
X158595819Y-119634094D02*
X157595819Y-119634094D01*
X157595819Y-119634094D02*
X157595819Y-119253142D01*
X157595819Y-119253142D02*
X157643438Y-119157904D01*
X157643438Y-119157904D02*
X157691057Y-119110285D01*
X157691057Y-119110285D02*
X157786295Y-119062666D01*
X157786295Y-119062666D02*
X157929152Y-119062666D01*
X157929152Y-119062666D02*
X158024390Y-119110285D01*
X158024390Y-119110285D02*
X158072009Y-119157904D01*
X158072009Y-119157904D02*
X158119628Y-119253142D01*
X158119628Y-119253142D02*
X158119628Y-119634094D01*
X158595819Y-118110285D02*
X158595819Y-118681713D01*
X158595819Y-118395999D02*
X157595819Y-118395999D01*
X157595819Y-118395999D02*
X157738676Y-118491237D01*
X157738676Y-118491237D02*
X157833914Y-118586475D01*
X157833914Y-118586475D02*
X157881533Y-118681713D01*
X182290819Y-142486333D02*
X183005104Y-142486333D01*
X183005104Y-142486333D02*
X183147961Y-142533952D01*
X183147961Y-142533952D02*
X183243200Y-142629190D01*
X183243200Y-142629190D02*
X183290819Y-142772047D01*
X183290819Y-142772047D02*
X183290819Y-142867285D01*
X182386057Y-142057761D02*
X182338438Y-142010142D01*
X182338438Y-142010142D02*
X182290819Y-141914904D01*
X182290819Y-141914904D02*
X182290819Y-141676809D01*
X182290819Y-141676809D02*
X182338438Y-141581571D01*
X182338438Y-141581571D02*
X182386057Y-141533952D01*
X182386057Y-141533952D02*
X182481295Y-141486333D01*
X182481295Y-141486333D02*
X182576533Y-141486333D01*
X182576533Y-141486333D02*
X182719390Y-141533952D01*
X182719390Y-141533952D02*
X183290819Y-142105380D01*
X183290819Y-142105380D02*
X183290819Y-141486333D01*
X146414095Y-180763819D02*
X146414095Y-179763819D01*
X146414095Y-180240009D02*
X146985523Y-180240009D01*
X146985523Y-180763819D02*
X146985523Y-179763819D01*
X147414095Y-179859057D02*
X147461714Y-179811438D01*
X147461714Y-179811438D02*
X147556952Y-179763819D01*
X147556952Y-179763819D02*
X147795047Y-179763819D01*
X147795047Y-179763819D02*
X147890285Y-179811438D01*
X147890285Y-179811438D02*
X147937904Y-179859057D01*
X147937904Y-179859057D02*
X147985523Y-179954295D01*
X147985523Y-179954295D02*
X147985523Y-180049533D01*
X147985523Y-180049533D02*
X147937904Y-180192390D01*
X147937904Y-180192390D02*
X147366476Y-180763819D01*
X147366476Y-180763819D02*
X147985523Y-180763819D01*
X166839095Y-116563819D02*
X166839095Y-115563819D01*
X166839095Y-116040009D02*
X167410523Y-116040009D01*
X167410523Y-116563819D02*
X167410523Y-115563819D01*
X168410523Y-116563819D02*
X167839095Y-116563819D01*
X168124809Y-116563819D02*
X168124809Y-115563819D01*
X168124809Y-115563819D02*
X168029571Y-115706676D01*
X168029571Y-115706676D02*
X167934333Y-115801914D01*
X167934333Y-115801914D02*
X167839095Y-115849533D01*
X177522580Y-133197166D02*
X177570200Y-133244785D01*
X177570200Y-133244785D02*
X177617819Y-133387642D01*
X177617819Y-133387642D02*
X177617819Y-133482880D01*
X177617819Y-133482880D02*
X177570200Y-133625737D01*
X177570200Y-133625737D02*
X177474961Y-133720975D01*
X177474961Y-133720975D02*
X177379723Y-133768594D01*
X177379723Y-133768594D02*
X177189247Y-133816213D01*
X177189247Y-133816213D02*
X177046390Y-133816213D01*
X177046390Y-133816213D02*
X176855914Y-133768594D01*
X176855914Y-133768594D02*
X176760676Y-133720975D01*
X176760676Y-133720975D02*
X176665438Y-133625737D01*
X176665438Y-133625737D02*
X176617819Y-133482880D01*
X176617819Y-133482880D02*
X176617819Y-133387642D01*
X176617819Y-133387642D02*
X176665438Y-133244785D01*
X176665438Y-133244785D02*
X176713057Y-133197166D01*
X177617819Y-132244785D02*
X177617819Y-132816213D01*
X177617819Y-132530499D02*
X176617819Y-132530499D01*
X176617819Y-132530499D02*
X176760676Y-132625737D01*
X176760676Y-132625737D02*
X176855914Y-132720975D01*
X176855914Y-132720975D02*
X176903533Y-132816213D01*
X179986095Y-174290819D02*
X179986095Y-175100342D01*
X179986095Y-175100342D02*
X180033714Y-175195580D01*
X180033714Y-175195580D02*
X180081333Y-175243200D01*
X180081333Y-175243200D02*
X180176571Y-175290819D01*
X180176571Y-175290819D02*
X180367047Y-175290819D01*
X180367047Y-175290819D02*
X180462285Y-175243200D01*
X180462285Y-175243200D02*
X180509904Y-175195580D01*
X180509904Y-175195580D02*
X180557523Y-175100342D01*
X180557523Y-175100342D02*
X180557523Y-174290819D01*
X181557523Y-175290819D02*
X180986095Y-175290819D01*
X181271809Y-175290819D02*
X181271809Y-174290819D01*
X181271809Y-174290819D02*
X181176571Y-174433676D01*
X181176571Y-174433676D02*
X181081333Y-174528914D01*
X181081333Y-174528914D02*
X180986095Y-174576533D01*
D11*
X159476000Y-187809000D02*
G75*
G02*
X159276000Y-187809000I-100000J0D01*
G01*
X159276000Y-187809000D02*
G75*
G02*
X159476000Y-187809000I100000J0D01*
G01*
D12*
X173601000Y-196309000D02*
X161601000Y-196309000D01*
X161601000Y-184309000D02*
X173601000Y-184309000D01*
X173601000Y-184309000D02*
X173601000Y-186109000D01*
X173601000Y-194509000D02*
X173601000Y-196309000D01*
X173601000Y-191309000D02*
X173601000Y-189309000D01*
X161601000Y-184309000D02*
X161601000Y-186109000D01*
X161601000Y-196309000D02*
X161601000Y-194509000D01*
X161601000Y-191309000D02*
X161601000Y-189309000D01*
X161601000Y-171309000D02*
X161601000Y-169309000D01*
X161601000Y-176309000D02*
X161601000Y-174509000D01*
X161601000Y-164309000D02*
X161601000Y-166109000D01*
X173601000Y-171309000D02*
X173601000Y-169309000D01*
X173601000Y-174509000D02*
X173601000Y-176309000D01*
X173601000Y-164309000D02*
X173601000Y-166109000D01*
X161601000Y-164309000D02*
X173601000Y-164309000D01*
X173601000Y-176309000D02*
X161601000Y-176309000D01*
D11*
X159476000Y-167809000D02*
G75*
G02*
X159276000Y-167809000I-100000J0D01*
G01*
X159276000Y-167809000D02*
G75*
G02*
X159476000Y-167809000I100000J0D01*
G01*
D12*
X161601000Y-151309000D02*
X161601000Y-149309000D01*
X161601000Y-156309000D02*
X161601000Y-154509000D01*
X161601000Y-144309000D02*
X161601000Y-146109000D01*
X173601000Y-151309000D02*
X173601000Y-149309000D01*
X173601000Y-154509000D02*
X173601000Y-156309000D01*
X173601000Y-144309000D02*
X173601000Y-146109000D01*
X161601000Y-144309000D02*
X173601000Y-144309000D01*
X173601000Y-156309000D02*
X161601000Y-156309000D01*
D11*
X159476000Y-147809000D02*
G75*
G02*
X159276000Y-147809000I-100000J0D01*
G01*
X159276000Y-147809000D02*
G75*
G02*
X159476000Y-147809000I100000J0D01*
G01*
D12*
X161601000Y-131309000D02*
X161601000Y-129309000D01*
X161601000Y-136309000D02*
X161601000Y-134509000D01*
X161601000Y-124309000D02*
X161601000Y-126109000D01*
X173601000Y-131309000D02*
X173601000Y-129309000D01*
X173601000Y-134509000D02*
X173601000Y-136309000D01*
X173601000Y-124309000D02*
X173601000Y-126109000D01*
X161601000Y-124309000D02*
X173601000Y-124309000D01*
X173601000Y-136309000D02*
X161601000Y-136309000D01*
D11*
X159476000Y-127809000D02*
G75*
G02*
X159276000Y-127809000I-100000J0D01*
G01*
X159276000Y-127809000D02*
G75*
G02*
X159476000Y-127809000I100000J0D01*
G01*
X139476000Y-177809000D02*
G75*
G02*
X139276000Y-177809000I-100000J0D01*
G01*
X139276000Y-177809000D02*
G75*
G02*
X139476000Y-177809000I100000J0D01*
G01*
D12*
X153601000Y-186309000D02*
X141601000Y-186309000D01*
X141601000Y-174309000D02*
X153601000Y-174309000D01*
X153601000Y-174309000D02*
X153601000Y-176109000D01*
X153601000Y-184509000D02*
X153601000Y-186309000D01*
X153601000Y-181309000D02*
X153601000Y-179309000D01*
X141601000Y-174309000D02*
X141601000Y-176109000D01*
X141601000Y-186309000D02*
X141601000Y-184509000D01*
X141601000Y-181309000D02*
X141601000Y-179309000D01*
X141601000Y-161309000D02*
X141601000Y-159309000D01*
X141601000Y-166309000D02*
X141601000Y-164509000D01*
X141601000Y-154309000D02*
X141601000Y-156109000D01*
X153601000Y-161309000D02*
X153601000Y-159309000D01*
X153601000Y-164509000D02*
X153601000Y-166309000D01*
X153601000Y-154309000D02*
X153601000Y-156109000D01*
X141601000Y-154309000D02*
X153601000Y-154309000D01*
X153601000Y-166309000D02*
X141601000Y-166309000D01*
D11*
X139476000Y-157809000D02*
G75*
G02*
X139276000Y-157809000I-100000J0D01*
G01*
X139276000Y-157809000D02*
G75*
G02*
X139476000Y-157809000I100000J0D01*
G01*
D12*
X141601000Y-141309000D02*
X141601000Y-139309000D01*
X141601000Y-146309000D02*
X141601000Y-144509000D01*
X141601000Y-134309000D02*
X141601000Y-136109000D01*
X153601000Y-141309000D02*
X153601000Y-139309000D01*
X153601000Y-144509000D02*
X153601000Y-146309000D01*
X153601000Y-134309000D02*
X153601000Y-136109000D01*
X141601000Y-134309000D02*
X153601000Y-134309000D01*
X153601000Y-146309000D02*
X141601000Y-146309000D01*
D11*
X139476000Y-137809000D02*
G75*
G02*
X139276000Y-137809000I-100000J0D01*
G01*
X139276000Y-137809000D02*
G75*
G02*
X139476000Y-137809000I100000J0D01*
G01*
D12*
X141601000Y-121309000D02*
X141601000Y-119309000D01*
X141601000Y-126309000D02*
X141601000Y-124509000D01*
X141601000Y-114309000D02*
X141601000Y-116109000D01*
X153601000Y-121309000D02*
X153601000Y-119309000D01*
X153601000Y-124509000D02*
X153601000Y-126309000D01*
X153601000Y-114309000D02*
X153601000Y-116109000D01*
X141601000Y-114309000D02*
X153601000Y-114309000D01*
X153601000Y-126309000D02*
X141601000Y-126309000D01*
D11*
X139476000Y-117809000D02*
G75*
G02*
X139276000Y-117809000I-100000J0D01*
G01*
X139276000Y-117809000D02*
G75*
G02*
X139476000Y-117809000I100000J0D01*
G01*
D13*
X162216936Y-182385000D02*
X162671064Y-182385000D01*
X162216936Y-180915000D02*
X162671064Y-180915000D01*
X159750064Y-160341000D02*
X159295936Y-160341000D01*
X159750064Y-161811000D02*
X159295936Y-161811000D01*
X161708936Y-141872000D02*
X162163064Y-141872000D01*
X161708936Y-140402000D02*
X162163064Y-140402000D01*
X162232936Y-123457000D02*
X162687064Y-123457000D01*
X162232936Y-121987000D02*
X162687064Y-121987000D01*
X154596936Y-172479000D02*
X155051064Y-172479000D01*
X154596936Y-171009000D02*
X155051064Y-171009000D01*
X152511064Y-150816000D02*
X152056936Y-150816000D01*
X152511064Y-152286000D02*
X152056936Y-152286000D01*
X154469936Y-132728000D02*
X154924064Y-132728000D01*
X154469936Y-131258000D02*
X154924064Y-131258000D01*
X155756000Y-118668936D02*
X155756000Y-119123064D01*
X157226000Y-118668936D02*
X157226000Y-119123064D01*
X175726000Y-148613000D02*
X181746000Y-148613000D01*
X181746000Y-148613000D02*
X181746000Y-135693000D01*
X181146000Y-148033000D02*
X181746000Y-148033000D01*
X176726000Y-147233000D02*
X175726000Y-147233000D01*
X175726000Y-146983000D02*
X176726000Y-146983000D01*
X177256000Y-146983000D02*
X176726000Y-147233000D01*
X181146000Y-146433000D02*
X181146000Y-148033000D01*
X181746000Y-146433000D02*
X181146000Y-146433000D01*
X181146000Y-145493000D02*
X181746000Y-145493000D01*
X181146000Y-143893000D02*
X181146000Y-145493000D01*
X181746000Y-143893000D02*
X181146000Y-143893000D01*
X181146000Y-142953000D02*
X181746000Y-142953000D01*
X181146000Y-141353000D02*
X181146000Y-142953000D01*
X181746000Y-141353000D02*
X181146000Y-141353000D01*
X181146000Y-140413000D02*
X181746000Y-140413000D01*
X181146000Y-138813000D02*
X181146000Y-140413000D01*
X181746000Y-138813000D02*
X181146000Y-138813000D01*
X181146000Y-137873000D02*
X181746000Y-137873000D01*
X175726000Y-137323000D02*
X176726000Y-137323000D01*
X177256000Y-137323000D02*
X177256000Y-146983000D01*
X175726000Y-137073000D02*
X176726000Y-137073000D01*
X176726000Y-137073000D02*
X176726000Y-147233000D01*
X176726000Y-137073000D02*
X177256000Y-137323000D01*
X181146000Y-136273000D02*
X181146000Y-137873000D01*
X181746000Y-136273000D02*
X181146000Y-136273000D01*
X175726000Y-135693000D02*
X175726000Y-148613000D01*
X181746000Y-135693000D02*
X175726000Y-135693000D01*
X180716000Y-135403000D02*
X176716000Y-135403000D01*
X179578000Y-133291752D02*
X179578000Y-132769248D01*
X178108000Y-133291752D02*
X178108000Y-132769248D01*
X185888000Y-173896000D02*
X185888000Y-153336000D01*
X185888000Y-153336000D02*
X175608000Y-153336000D01*
X183398000Y-173836000D02*
X183398000Y-153396000D01*
X183398000Y-153396000D02*
X178098000Y-153396000D01*
X181748000Y-173836000D02*
X183398000Y-173836000D01*
X178098000Y-173836000D02*
X179748000Y-173836000D01*
X178098000Y-153396000D02*
X178098000Y-173836000D01*
X175608000Y-173896000D02*
X185888000Y-173896000D01*
X175608000Y-153336000D02*
X175608000Y-173896000D01*
X179748000Y-173836000D02*
G75*
G02*
X181748000Y-173836000I1000000J0D01*
G01*
%LPC*%
D14*
X173851000Y-192809000D03*
X161351000Y-192809000D03*
X173851000Y-187809000D03*
D15*
X161351000Y-187809000D03*
X161351000Y-167809000D03*
D14*
X173851000Y-167809000D03*
X161351000Y-172809000D03*
X173851000Y-172809000D03*
D15*
X161351000Y-147809000D03*
D14*
X173851000Y-147809000D03*
X161351000Y-152809000D03*
X173851000Y-152809000D03*
D15*
X161351000Y-127809000D03*
D14*
X173851000Y-127809000D03*
X161351000Y-132809000D03*
X173851000Y-132809000D03*
X153851000Y-182809000D03*
X141351000Y-182809000D03*
X153851000Y-177809000D03*
D15*
X141351000Y-177809000D03*
X141351000Y-157809000D03*
D14*
X153851000Y-157809000D03*
X141351000Y-162809000D03*
X153851000Y-162809000D03*
D15*
X141351000Y-137809000D03*
D14*
X153851000Y-137809000D03*
X141351000Y-142809000D03*
X153851000Y-142809000D03*
D15*
X141351000Y-117809000D03*
D14*
X153851000Y-117809000D03*
X141351000Y-122809000D03*
X153851000Y-122809000D03*
D16*
X163444000Y-181650000D03*
X161444000Y-181650000D03*
D17*
X158523000Y-161076000D03*
X160523000Y-161076000D03*
D16*
X162936000Y-141137000D03*
X160936000Y-141137000D03*
X163460000Y-122722000D03*
X161460000Y-122722000D03*
X155824000Y-171744000D03*
X153824000Y-171744000D03*
D17*
X151284000Y-151551000D03*
X153284000Y-151551000D03*
D16*
X155697000Y-131993000D03*
X153697000Y-131993000D03*
D18*
X156491000Y-119896000D03*
X156491000Y-117896000D03*
D19*
X178716000Y-147233000D03*
X178716000Y-144693000D03*
X178716000Y-142153000D03*
X178716000Y-139613000D03*
D20*
X178716000Y-137073000D03*
D21*
X147601000Y-190309000D03*
X167601000Y-120309000D03*
D22*
X178843000Y-131993000D03*
X178843000Y-134068000D03*
D23*
X184558000Y-172506000D03*
X184558000Y-169966000D03*
X184558000Y-167426000D03*
X184558000Y-164886000D03*
X184558000Y-162346000D03*
X184558000Y-159806000D03*
X184558000Y-157266000D03*
X184558000Y-154726000D03*
X176938000Y-154726000D03*
X176938000Y-157266000D03*
X176938000Y-159806000D03*
X176938000Y-162346000D03*
X176938000Y-164886000D03*
X176938000Y-167426000D03*
X176938000Y-169966000D03*
X176938000Y-172506000D03*
%LPD*%
M02*
