M48
; DRILL file {KiCad 8.0.8} date 2025-03-03T22:19:52-0600
; FORMAT={-:-/ absolute / metric / decimal}
; #@! TF.CreationDate,2025-03-03T22:19:52-06:00
; #@! TF.GenerationSoftware,Kicad,Pcbnew,8.0.8
; #@! TF.FileFunction,Plated,1,2,PTH
FMAT,2
METRIC
; #@! TA.AperFunction,Plated,PTH,ViaDrill
T1C0.300
; #@! TA.AperFunction,Plated,PTH,ComponentDrill
T2C1.190
; #@! TA.AperFunction,Plated,PTH,ComponentDrill
T3C1.400
%
G90
G05
T1
X143.156Y-176.189
X156.11Y-121.706
X156.491Y-153.837
X157.126Y-173.522
X158.777Y-170.855
X158.904Y-120.817
X158.904Y-141.01
X161.063Y-159.044
X163.476Y-170.22
X165.0Y-121.96
X178.462Y-151.678
X180.24Y-167.299
X180.367Y-144.82
X181.002Y-159.806
X181.002Y-168.188
X182.526Y-167.426
T2
X178.716Y-137.073
X178.716Y-139.613
X178.716Y-142.153
X178.716Y-144.693
X178.716Y-147.233
T3
X141.351Y-117.809
X141.351Y-122.809
X141.351Y-137.809
X141.351Y-142.809
X141.351Y-157.809
X141.351Y-162.809
X141.351Y-177.809
X141.351Y-182.809
X153.851Y-117.809
X153.851Y-122.809
X153.851Y-137.809
X153.851Y-142.809
X153.851Y-157.809
X153.851Y-162.809
X153.851Y-177.809
X153.851Y-182.809
X161.351Y-127.809
X161.351Y-132.809
X161.351Y-147.809
X161.351Y-152.809
X161.351Y-167.809
X161.351Y-172.809
X161.351Y-187.809
X161.351Y-192.809
X173.851Y-127.809
X173.851Y-132.809
X173.851Y-147.809
X173.851Y-152.809
X173.851Y-167.809
X173.851Y-172.809
X173.851Y-187.809
X173.851Y-192.809
M30
