G04 #@! TF.GenerationSoftware,KiCad,Pcbnew,8.0.8*
G04 #@! TF.CreationDate,2025-03-03T22:19:49-06:00*
G04 #@! TF.ProjectId,group13_buttons,67726f75-7031-4335-9f62-7574746f6e73,rev?*
G04 #@! TF.SameCoordinates,Original*
G04 #@! TF.FileFunction,Copper,L1,Top*
G04 #@! TF.FilePolarity,Positive*
%FSLAX46Y46*%
G04 Gerber Fmt 4.6, Leading zero omitted, Abs format (unit mm)*
G04 Created by KiCad (PCBNEW 8.0.8) date 2025-03-03 22:19:49*
%MOMM*%
%LPD*%
G01*
G04 APERTURE LIST*
G04 Aperture macros list*
%AMRoundRect*
0 Rectangle with rounded corners*
0 $1 Rounding radius*
0 $2 $3 $4 $5 $6 $7 $8 $9 X,Y pos of 4 corners*
0 Add a 4 corners polygon primitive as box body*
4,1,4,$2,$3,$4,$5,$6,$7,$8,$9,$2,$3,0*
0 Add four circle primitives for the rounded corners*
1,1,$1+$1,$2,$3*
1,1,$1+$1,$4,$5*
1,1,$1+$1,$6,$7*
1,1,$1+$1,$8,$9*
0 Add four rect primitives between the rounded corners*
20,1,$1+$1,$2,$3,$4,$5,0*
20,1,$1+$1,$4,$5,$6,$7,0*
20,1,$1+$1,$6,$7,$8,$9,0*
20,1,$1+$1,$8,$9,$2,$3,0*%
G04 Aperture macros list end*
G04 #@! TA.AperFunction,ComponentPad*
%ADD10C,2.100000*%
G04 #@! TD*
G04 #@! TA.AperFunction,ComponentPad*
%ADD11R,2.100000X2.100000*%
G04 #@! TD*
G04 #@! TA.AperFunction,SMDPad,CuDef*
%ADD12RoundRect,0.250000X-0.350000X-0.450000X0.350000X-0.450000X0.350000X0.450000X-0.350000X0.450000X0*%
G04 #@! TD*
G04 #@! TA.AperFunction,SMDPad,CuDef*
%ADD13RoundRect,0.250000X0.350000X0.450000X-0.350000X0.450000X-0.350000X-0.450000X0.350000X-0.450000X0*%
G04 #@! TD*
G04 #@! TA.AperFunction,SMDPad,CuDef*
%ADD14RoundRect,0.250000X-0.450000X0.350000X-0.450000X-0.350000X0.450000X-0.350000X0.450000X0.350000X0*%
G04 #@! TD*
G04 #@! TA.AperFunction,ComponentPad*
%ADD15O,2.190000X1.740000*%
G04 #@! TD*
G04 #@! TA.AperFunction,ComponentPad*
%ADD16RoundRect,0.250000X-0.845000X0.620000X-0.845000X-0.620000X0.845000X-0.620000X0.845000X0.620000X0*%
G04 #@! TD*
G04 #@! TA.AperFunction,SMDPad,CuDef*
%ADD17RoundRect,0.250000X0.475000X-0.337500X0.475000X0.337500X-0.475000X0.337500X-0.475000X-0.337500X0*%
G04 #@! TD*
G04 #@! TA.AperFunction,SMDPad,CuDef*
%ADD18R,1.600000X1.600000*%
G04 #@! TD*
G04 #@! TA.AperFunction,ViaPad*
%ADD19C,0.600000*%
G04 #@! TD*
G04 #@! TA.AperFunction,Conductor*
%ADD20C,0.508000*%
G04 #@! TD*
G04 #@! TA.AperFunction,Conductor*
%ADD21C,0.254000*%
G04 #@! TD*
G04 APERTURE END LIST*
D10*
X173851000Y-192809000D03*
X161351000Y-192809000D03*
X173851000Y-187809000D03*
D11*
X161351000Y-187809000D03*
X161351000Y-167809000D03*
D10*
X173851000Y-167809000D03*
X161351000Y-172809000D03*
X173851000Y-172809000D03*
D11*
X161351000Y-147809000D03*
D10*
X173851000Y-147809000D03*
X161351000Y-152809000D03*
X173851000Y-152809000D03*
D11*
X161351000Y-127809000D03*
D10*
X173851000Y-127809000D03*
X161351000Y-132809000D03*
X173851000Y-132809000D03*
X153851000Y-182809000D03*
X141351000Y-182809000D03*
X153851000Y-177809000D03*
D11*
X141351000Y-177809000D03*
X141351000Y-157809000D03*
D10*
X153851000Y-157809000D03*
X141351000Y-162809000D03*
X153851000Y-162809000D03*
D11*
X141351000Y-137809000D03*
D10*
X153851000Y-137809000D03*
X141351000Y-142809000D03*
X153851000Y-142809000D03*
D11*
X141351000Y-117809000D03*
D10*
X153851000Y-117809000D03*
X141351000Y-122809000D03*
X153851000Y-122809000D03*
D12*
X163444000Y-181650000D03*
X161444000Y-181650000D03*
D13*
X158523000Y-161076000D03*
X160523000Y-161076000D03*
D12*
X162936000Y-141137000D03*
X160936000Y-141137000D03*
X163460000Y-122722000D03*
X161460000Y-122722000D03*
X155824000Y-171744000D03*
X153824000Y-171744000D03*
D13*
X151284000Y-151551000D03*
X153284000Y-151551000D03*
D12*
X155697000Y-131993000D03*
X153697000Y-131993000D03*
D14*
X156491000Y-119896000D03*
X156491000Y-117896000D03*
D15*
X178716000Y-147233000D03*
X178716000Y-144693000D03*
X178716000Y-142153000D03*
X178716000Y-139613000D03*
D16*
X178716000Y-137073000D03*
D17*
X178843000Y-131993000D03*
X178843000Y-134068000D03*
D18*
X184558000Y-172506000D03*
X184558000Y-169966000D03*
X184558000Y-167426000D03*
X184558000Y-164886000D03*
X184558000Y-162346000D03*
X184558000Y-159806000D03*
X184558000Y-157266000D03*
X184558000Y-154726000D03*
X176938000Y-154726000D03*
X176938000Y-157266000D03*
X176938000Y-159806000D03*
X176938000Y-162346000D03*
X176938000Y-164886000D03*
X176938000Y-167426000D03*
X176938000Y-169966000D03*
X176938000Y-172506000D03*
D19*
X143156000Y-176189000D03*
X163476000Y-170220000D03*
X158777000Y-170855000D03*
X161063000Y-159044000D03*
X180367000Y-144820000D03*
X180240000Y-167299000D03*
X181002000Y-159806000D03*
X181002000Y-168188000D03*
X182526000Y-167426000D03*
X178462000Y-151678000D03*
X156491000Y-153837000D03*
X158904000Y-141010000D03*
X157126000Y-173522000D03*
X156110000Y-121706000D03*
X165000000Y-121960000D03*
X158904000Y-120817000D03*
D20*
X149522000Y-182809000D02*
X159522000Y-192809000D01*
X159522000Y-192809000D02*
X161351000Y-192809000D01*
X141351000Y-182809000D02*
X149522000Y-182809000D01*
X174154000Y-172506000D02*
X173851000Y-172809000D01*
X176938000Y-172506000D02*
X174154000Y-172506000D01*
X175237000Y-134195000D02*
X173851000Y-132809000D01*
X178716000Y-134195000D02*
X175237000Y-134195000D01*
X178843000Y-134068000D02*
X178716000Y-134195000D01*
X178716000Y-137073000D02*
X178716000Y-134195000D01*
D21*
X180367000Y-144312000D02*
X178716000Y-142661000D01*
X180367000Y-144820000D02*
X180367000Y-144312000D01*
X183504000Y-172506000D02*
X180240000Y-169242000D01*
X180240000Y-169242000D02*
X180240000Y-167299000D01*
X178716000Y-142661000D02*
X178716000Y-142153000D01*
X184558000Y-172506000D02*
X183504000Y-172506000D01*
X181002000Y-146979000D02*
X178716000Y-144693000D01*
X181002000Y-159806000D02*
X181002000Y-146979000D01*
X182780000Y-169966000D02*
X181002000Y-168188000D01*
X184558000Y-169966000D02*
X182780000Y-169966000D01*
X184558000Y-167426000D02*
X182526000Y-167426000D01*
X175647000Y-166013000D02*
X173851000Y-167809000D01*
X185685000Y-166013000D02*
X175647000Y-166013000D01*
X185685000Y-163473000D02*
X185685000Y-166013000D01*
X184558000Y-162346000D02*
X185685000Y-163473000D01*
X178462000Y-158790000D02*
X178462000Y-151678000D01*
X184558000Y-164886000D02*
X178462000Y-158790000D01*
X161164928Y-157809000D02*
X153851000Y-157809000D01*
X168241928Y-164886000D02*
X161164928Y-157809000D01*
X176938000Y-164886000D02*
X168241928Y-164886000D01*
X162474000Y-169186000D02*
X153851000Y-177809000D01*
X175178000Y-169186000D02*
X162474000Y-169186000D01*
X176938000Y-167426000D02*
X175178000Y-169186000D01*
X155228000Y-139186000D02*
X153851000Y-137809000D01*
X155228000Y-149275425D02*
X155228000Y-139186000D01*
X168298575Y-162346000D02*
X155228000Y-149275425D01*
X176938000Y-162346000D02*
X168298575Y-162346000D01*
X157518000Y-150923373D02*
X157518000Y-118923000D01*
X157518000Y-118923000D02*
X156491000Y-117896000D01*
X176938000Y-159806000D02*
X166400627Y-159806000D01*
X166400627Y-159806000D02*
X157518000Y-150923373D01*
X176938000Y-149011000D02*
X178716000Y-147233000D01*
X176938000Y-154726000D02*
X176938000Y-149011000D01*
D20*
X159847000Y-134313000D02*
X161351000Y-132809000D01*
X159847000Y-151305000D02*
X159847000Y-134313000D01*
X161351000Y-152809000D02*
X159847000Y-151305000D01*
X161351000Y-192809000D02*
X173851000Y-192809000D01*
X141351000Y-162809000D02*
X153851000Y-162809000D01*
X161351000Y-152809000D02*
X173851000Y-152809000D01*
X141351000Y-142809000D02*
X153851000Y-142809000D01*
X141351000Y-122809000D02*
X153851000Y-122809000D01*
X141351000Y-182809000D02*
X153851000Y-182809000D01*
X153851000Y-182809000D02*
X153851000Y-180309000D01*
X153851000Y-180309000D02*
X161351000Y-172809000D01*
X161351000Y-172809000D02*
X173851000Y-172809000D01*
X139847000Y-181305000D02*
X141351000Y-182809000D01*
X139847000Y-164512000D02*
X139847000Y-181305000D01*
X141351000Y-163008000D02*
X139847000Y-164512000D01*
X141351000Y-162809000D02*
X141351000Y-163008000D01*
X139847000Y-161305000D02*
X141351000Y-162809000D01*
X139847000Y-144313000D02*
X139847000Y-161305000D01*
X141351000Y-142809000D02*
X139847000Y-144313000D01*
X139847000Y-141305000D02*
X141351000Y-142809000D01*
X139847000Y-124313000D02*
X139847000Y-141305000D01*
X141351000Y-122809000D02*
X139847000Y-124313000D01*
X161351000Y-132809000D02*
X173851000Y-132809000D01*
X173851000Y-187809000D02*
X161351000Y-187809000D01*
X161444000Y-187716000D02*
X161351000Y-187809000D01*
X161444000Y-181650000D02*
X161444000Y-187716000D01*
X161351000Y-167809000D02*
X173851000Y-167809000D01*
X160682000Y-167140000D02*
X161351000Y-167809000D01*
X160682000Y-160949000D02*
X160682000Y-167140000D01*
X173851000Y-147809000D02*
X161351000Y-147809000D01*
X160936000Y-147394000D02*
X161351000Y-147809000D01*
X160936000Y-141137000D02*
X160936000Y-147394000D01*
X153443000Y-157401000D02*
X153851000Y-157809000D01*
X153443000Y-151424000D02*
X153443000Y-157401000D01*
X161351000Y-122831000D02*
X161460000Y-122722000D01*
X161351000Y-127809000D02*
X161351000Y-122831000D01*
X173851000Y-127809000D02*
X161351000Y-127809000D01*
X153851000Y-157809000D02*
X141351000Y-157809000D01*
X153851000Y-177809000D02*
X141351000Y-177809000D01*
X153851000Y-171771000D02*
X153824000Y-171744000D01*
X153851000Y-177809000D02*
X153851000Y-171771000D01*
X141351000Y-117809000D02*
X153851000Y-117809000D01*
X141351000Y-137809000D02*
X153851000Y-137809000D01*
X153697000Y-137655000D02*
X153851000Y-137809000D01*
X153697000Y-131993000D02*
X153697000Y-137655000D01*
X153851000Y-117809000D02*
X156658000Y-117809000D01*
D21*
X184558000Y-159806000D02*
X186139000Y-161387000D01*
X186139000Y-161387000D02*
X186139000Y-175521000D01*
X186139000Y-175521000D02*
X173851000Y-187809000D01*
G04 #@! TA.AperFunction,Conductor*
G36*
X179551033Y-166660185D02*
G01*
X179596788Y-166712989D01*
X179606732Y-166782147D01*
X179588987Y-166830473D01*
X179514211Y-166949475D01*
X179454631Y-167119745D01*
X179454630Y-167119750D01*
X179434435Y-167298996D01*
X179434435Y-167299003D01*
X179454630Y-167478249D01*
X179454631Y-167478254D01*
X179514211Y-167648524D01*
X179593493Y-167774698D01*
X179612500Y-167840671D01*
X179612500Y-169303807D01*
X179636612Y-169425028D01*
X179636613Y-169425032D01*
X179636614Y-169425035D01*
X179660721Y-169483232D01*
X179683914Y-169539227D01*
X179683921Y-169539239D01*
X179701791Y-169565984D01*
X179701793Y-169565987D01*
X179701797Y-169565992D01*
X179739806Y-169622876D01*
X179752590Y-169642010D01*
X179752591Y-169642011D01*
X183016589Y-172906008D01*
X183070039Y-172959458D01*
X183103994Y-172993413D01*
X183103996Y-172993414D01*
X183202390Y-173059159D01*
X183247196Y-173112771D01*
X183257500Y-173162260D01*
X183257500Y-173353869D01*
X183257501Y-173353876D01*
X183263908Y-173413483D01*
X183314202Y-173548328D01*
X183314206Y-173548335D01*
X183400452Y-173663544D01*
X183400455Y-173663547D01*
X183515664Y-173749793D01*
X183515671Y-173749797D01*
X183650517Y-173800091D01*
X183650516Y-173800091D01*
X183657444Y-173800835D01*
X183710127Y-173806500D01*
X185387500Y-173806499D01*
X185454539Y-173826184D01*
X185500294Y-173878987D01*
X185511500Y-173930499D01*
X185511500Y-175209718D01*
X185491815Y-175276757D01*
X185475181Y-175297399D01*
X174468787Y-186303792D01*
X174407464Y-186337277D01*
X174337772Y-186332293D01*
X174333665Y-186330677D01*
X174331624Y-186329831D01*
X174331621Y-186329830D01*
X174223166Y-186303792D01*
X174094302Y-186272854D01*
X174094300Y-186272853D01*
X174094297Y-186272853D01*
X173851000Y-186253706D01*
X173607702Y-186272853D01*
X173607698Y-186272854D01*
X173431301Y-186315204D01*
X173370380Y-186329830D01*
X173144910Y-186423222D01*
X172936826Y-186550737D01*
X172936823Y-186550738D01*
X172751241Y-186709241D01*
X172592738Y-186894823D01*
X172592737Y-186894825D01*
X172531173Y-186995290D01*
X172479362Y-187042165D01*
X172425446Y-187054500D01*
X163025499Y-187054500D01*
X162958460Y-187034815D01*
X162912705Y-186982011D01*
X162901499Y-186930500D01*
X162901499Y-186711129D01*
X162901498Y-186711123D01*
X162901497Y-186711116D01*
X162895091Y-186651517D01*
X162844796Y-186516669D01*
X162844795Y-186516668D01*
X162844793Y-186516664D01*
X162758547Y-186401455D01*
X162758544Y-186401452D01*
X162643335Y-186315206D01*
X162643328Y-186315202D01*
X162508482Y-186264908D01*
X162508483Y-186264908D01*
X162448883Y-186258501D01*
X162448881Y-186258500D01*
X162448873Y-186258500D01*
X162448865Y-186258500D01*
X162322500Y-186258500D01*
X162255461Y-186238815D01*
X162209706Y-186186011D01*
X162198500Y-186134500D01*
X162198500Y-182801490D01*
X162218185Y-182734451D01*
X162257408Y-182695948D01*
X162262656Y-182692712D01*
X162356675Y-182598692D01*
X162417994Y-182565210D01*
X162487686Y-182570194D01*
X162532034Y-182598695D01*
X162625654Y-182692315D01*
X162774875Y-182784356D01*
X162774880Y-182784358D01*
X162941302Y-182839505D01*
X162941309Y-182839506D01*
X163044019Y-182849999D01*
X163193999Y-182849999D01*
X163694000Y-182849999D01*
X163843972Y-182849999D01*
X163843986Y-182849998D01*
X163946697Y-182839505D01*
X164113119Y-182784358D01*
X164113124Y-182784356D01*
X164262345Y-182692315D01*
X164386315Y-182568345D01*
X164478356Y-182419124D01*
X164478358Y-182419119D01*
X164533505Y-182252697D01*
X164533506Y-182252690D01*
X164543999Y-182149986D01*
X164544000Y-182149973D01*
X164544000Y-181900000D01*
X163694000Y-181900000D01*
X163694000Y-182849999D01*
X163193999Y-182849999D01*
X163194000Y-182849998D01*
X163194000Y-181400000D01*
X163694000Y-181400000D01*
X164543999Y-181400000D01*
X164543999Y-181150028D01*
X164543998Y-181150013D01*
X164533505Y-181047302D01*
X164478358Y-180880880D01*
X164478356Y-180880875D01*
X164386315Y-180731654D01*
X164262345Y-180607684D01*
X164113124Y-180515643D01*
X164113119Y-180515641D01*
X163946697Y-180460494D01*
X163946690Y-180460493D01*
X163843986Y-180450000D01*
X163694000Y-180450000D01*
X163694000Y-181400000D01*
X163194000Y-181400000D01*
X163194000Y-180450000D01*
X163044027Y-180450000D01*
X163044012Y-180450001D01*
X162941302Y-180460494D01*
X162774880Y-180515641D01*
X162774875Y-180515643D01*
X162625657Y-180607682D01*
X162532034Y-180701305D01*
X162470710Y-180734789D01*
X162401019Y-180729805D01*
X162356672Y-180701304D01*
X162262657Y-180607289D01*
X162262656Y-180607288D01*
X162113334Y-180515186D01*
X161946797Y-180460001D01*
X161946795Y-180460000D01*
X161844010Y-180449500D01*
X161043998Y-180449500D01*
X161043980Y-180449501D01*
X160941203Y-180460000D01*
X160941200Y-180460001D01*
X160774668Y-180515185D01*
X160774663Y-180515187D01*
X160625342Y-180607289D01*
X160501289Y-180731342D01*
X160409187Y-180880663D01*
X160409185Y-180880668D01*
X160409115Y-180880880D01*
X160354001Y-181047203D01*
X160354001Y-181047204D01*
X160354000Y-181047204D01*
X160343500Y-181149983D01*
X160343500Y-182150001D01*
X160343501Y-182150019D01*
X160354000Y-182252796D01*
X160354001Y-182252799D01*
X160379049Y-182328388D01*
X160409186Y-182419334D01*
X160501288Y-182568656D01*
X160625344Y-182692712D01*
X160630591Y-182695948D01*
X160677318Y-182747892D01*
X160689500Y-182801490D01*
X160689500Y-186134500D01*
X160669815Y-186201539D01*
X160617011Y-186247294D01*
X160565500Y-186258500D01*
X160253130Y-186258500D01*
X160253123Y-186258501D01*
X160193516Y-186264908D01*
X160058671Y-186315202D01*
X160058664Y-186315206D01*
X159943455Y-186401452D01*
X159943452Y-186401455D01*
X159857206Y-186516664D01*
X159857202Y-186516671D01*
X159806908Y-186651517D01*
X159800703Y-186709241D01*
X159800501Y-186711123D01*
X159800500Y-186711135D01*
X159800500Y-188906870D01*
X159800501Y-188906876D01*
X159806908Y-188966483D01*
X159857202Y-189101328D01*
X159857206Y-189101335D01*
X159943452Y-189216544D01*
X159943455Y-189216547D01*
X160058664Y-189302793D01*
X160058671Y-189302797D01*
X160193517Y-189353091D01*
X160193516Y-189353091D01*
X160200444Y-189353835D01*
X160253127Y-189359500D01*
X162448872Y-189359499D01*
X162508483Y-189353091D01*
X162643331Y-189302796D01*
X162758546Y-189216546D01*
X162844796Y-189101331D01*
X162895091Y-188966483D01*
X162901500Y-188906873D01*
X162901500Y-188687500D01*
X162921185Y-188620461D01*
X162973989Y-188574706D01*
X163025500Y-188563500D01*
X172425446Y-188563500D01*
X172492485Y-188583185D01*
X172531173Y-188622710D01*
X172592737Y-188723174D01*
X172592738Y-188723176D01*
X172592741Y-188723179D01*
X172751241Y-188908759D01*
X172894897Y-189031453D01*
X172936823Y-189067261D01*
X172936826Y-189067262D01*
X173144910Y-189194777D01*
X173370381Y-189288169D01*
X173370378Y-189288169D01*
X173370384Y-189288170D01*
X173370388Y-189288172D01*
X173607698Y-189345146D01*
X173851000Y-189364294D01*
X174094302Y-189345146D01*
X174331612Y-189288172D01*
X174557089Y-189194777D01*
X174765179Y-189067259D01*
X174950759Y-188908759D01*
X175109259Y-188723179D01*
X175236777Y-188515089D01*
X175330172Y-188289612D01*
X175387146Y-188052302D01*
X175406294Y-187809000D01*
X175387146Y-187565698D01*
X175330172Y-187328388D01*
X175329329Y-187326354D01*
X175329239Y-187325520D01*
X175328666Y-187323754D01*
X175329036Y-187323633D01*
X175321854Y-187256889D01*
X175353122Y-187194407D01*
X175356177Y-187191240D01*
X186379821Y-176167597D01*
X186441142Y-176134114D01*
X186510834Y-176139098D01*
X186566767Y-176180970D01*
X186591184Y-176246434D01*
X186591500Y-176255280D01*
X186591500Y-196514005D01*
X186571815Y-196581044D01*
X186519011Y-196626799D01*
X186468161Y-196638003D01*
X175500625Y-196696498D01*
X175499964Y-196696500D01*
X139716500Y-196696500D01*
X139649461Y-196676815D01*
X139603706Y-196624011D01*
X139592500Y-196572500D01*
X139592500Y-190187711D01*
X145750500Y-190187711D01*
X145750500Y-190430288D01*
X145782161Y-190670785D01*
X145844947Y-190905104D01*
X145937773Y-191129205D01*
X145937776Y-191129212D01*
X146059064Y-191339289D01*
X146059066Y-191339292D01*
X146059067Y-191339293D01*
X146206733Y-191531736D01*
X146206739Y-191531743D01*
X146378256Y-191703260D01*
X146378262Y-191703265D01*
X146570711Y-191850936D01*
X146780788Y-191972224D01*
X147004900Y-192065054D01*
X147239211Y-192127838D01*
X147419586Y-192151584D01*
X147479711Y-192159500D01*
X147479712Y-192159500D01*
X147722289Y-192159500D01*
X147770388Y-192153167D01*
X147962789Y-192127838D01*
X148197100Y-192065054D01*
X148421212Y-191972224D01*
X148631289Y-191850936D01*
X148823738Y-191703265D01*
X148995265Y-191531738D01*
X149142936Y-191339289D01*
X149264224Y-191129212D01*
X149357054Y-190905100D01*
X149419838Y-190670789D01*
X149451500Y-190430288D01*
X149451500Y-190187712D01*
X149419838Y-189947211D01*
X149357054Y-189712900D01*
X149264224Y-189488788D01*
X149142936Y-189278711D01*
X148995265Y-189086262D01*
X148995260Y-189086256D01*
X148823743Y-188914739D01*
X148823736Y-188914733D01*
X148631293Y-188767067D01*
X148631292Y-188767066D01*
X148631289Y-188767064D01*
X148421212Y-188645776D01*
X148365526Y-188622710D01*
X148197104Y-188552947D01*
X147962785Y-188490161D01*
X147722289Y-188458500D01*
X147722288Y-188458500D01*
X147479712Y-188458500D01*
X147479711Y-188458500D01*
X147239214Y-188490161D01*
X147004895Y-188552947D01*
X146780794Y-188645773D01*
X146780785Y-188645777D01*
X146570706Y-188767067D01*
X146378263Y-188914733D01*
X146378256Y-188914739D01*
X146206739Y-189086256D01*
X146206733Y-189086263D01*
X146059067Y-189278706D01*
X145937777Y-189488785D01*
X145937773Y-189488794D01*
X145844947Y-189712895D01*
X145782161Y-189947214D01*
X145750500Y-190187711D01*
X139592500Y-190187711D01*
X139592500Y-183173798D01*
X139612185Y-183106759D01*
X139664989Y-183061004D01*
X139734147Y-183051060D01*
X139797703Y-183080085D01*
X139835477Y-183138863D01*
X139837065Y-183144818D01*
X139871828Y-183289612D01*
X139871830Y-183289619D01*
X139965222Y-183515089D01*
X140092737Y-183723173D01*
X140092738Y-183723176D01*
X140092741Y-183723179D01*
X140251241Y-183908759D01*
X140394897Y-184031453D01*
X140436823Y-184067261D01*
X140436826Y-184067262D01*
X140644910Y-184194777D01*
X140870381Y-184288169D01*
X140870378Y-184288169D01*
X140870384Y-184288170D01*
X140870388Y-184288172D01*
X141107698Y-184345146D01*
X141351000Y-184364294D01*
X141594302Y-184345146D01*
X141831612Y-184288172D01*
X142057089Y-184194777D01*
X142265179Y-184067259D01*
X142450759Y-183908759D01*
X142609259Y-183723179D01*
X142670827Y-183622710D01*
X142722638Y-183575835D01*
X142776554Y-183563500D01*
X149158113Y-183563500D01*
X149225152Y-183583185D01*
X149245794Y-183599819D01*
X158931600Y-193285624D01*
X158931621Y-193285647D01*
X159041030Y-193395056D01*
X159041034Y-193395059D01*
X159105598Y-193438199D01*
X159164611Y-193477630D01*
X159245043Y-193510945D01*
X159245044Y-193510946D01*
X159268603Y-193520704D01*
X159301920Y-193534505D01*
X159301929Y-193534506D01*
X159301930Y-193534507D01*
X159326103Y-193539315D01*
X159326110Y-193539316D01*
X159447686Y-193563501D01*
X159447688Y-193563501D01*
X159602426Y-193563501D01*
X159602446Y-193563500D01*
X159925446Y-193563500D01*
X159992485Y-193583185D01*
X160031173Y-193622710D01*
X160092737Y-193723174D01*
X160092738Y-193723176D01*
X160092741Y-193723179D01*
X160251241Y-193908759D01*
X160394897Y-194031453D01*
X160436823Y-194067261D01*
X160436826Y-194067262D01*
X160644910Y-194194777D01*
X160870381Y-194288169D01*
X160870378Y-194288169D01*
X160870384Y-194288170D01*
X160870388Y-194288172D01*
X161107698Y-194345146D01*
X161351000Y-194364294D01*
X161594302Y-194345146D01*
X161831612Y-194288172D01*
X162057089Y-194194777D01*
X162265179Y-194067259D01*
X162450759Y-193908759D01*
X162609259Y-193723179D01*
X162670827Y-193622710D01*
X162722638Y-193575835D01*
X162776554Y-193563500D01*
X172425446Y-193563500D01*
X172492485Y-193583185D01*
X172531173Y-193622710D01*
X172592737Y-193723174D01*
X172592738Y-193723176D01*
X172592741Y-193723179D01*
X172751241Y-193908759D01*
X172894897Y-194031453D01*
X172936823Y-194067261D01*
X172936826Y-194067262D01*
X173144910Y-194194777D01*
X173370381Y-194288169D01*
X173370378Y-194288169D01*
X173370384Y-194288170D01*
X173370388Y-194288172D01*
X173607698Y-194345146D01*
X173851000Y-194364294D01*
X174094302Y-194345146D01*
X174331612Y-194288172D01*
X174557089Y-194194777D01*
X174765179Y-194067259D01*
X174950759Y-193908759D01*
X175109259Y-193723179D01*
X175236777Y-193515089D01*
X175330172Y-193289612D01*
X175387146Y-193052302D01*
X175406294Y-192809000D01*
X175387146Y-192565698D01*
X175330172Y-192328388D01*
X175236777Y-192102911D01*
X175236777Y-192102910D01*
X175109262Y-191894826D01*
X175109261Y-191894823D01*
X175071774Y-191850932D01*
X174950759Y-191709241D01*
X174828063Y-191604449D01*
X174765176Y-191550738D01*
X174765173Y-191550737D01*
X174557089Y-191423222D01*
X174331618Y-191329830D01*
X174331621Y-191329830D01*
X174225992Y-191304470D01*
X174094302Y-191272854D01*
X174094300Y-191272853D01*
X174094297Y-191272853D01*
X173851000Y-191253706D01*
X173607702Y-191272853D01*
X173370380Y-191329830D01*
X173144910Y-191423222D01*
X172936826Y-191550737D01*
X172936823Y-191550738D01*
X172751241Y-191709241D01*
X172592738Y-191894823D01*
X172592737Y-191894825D01*
X172531173Y-191995290D01*
X172479362Y-192042165D01*
X172425446Y-192054500D01*
X162776554Y-192054500D01*
X162709515Y-192034815D01*
X162670827Y-191995290D01*
X162609262Y-191894825D01*
X162609261Y-191894823D01*
X162571774Y-191850932D01*
X162450759Y-191709241D01*
X162328063Y-191604449D01*
X162265176Y-191550738D01*
X162265173Y-191550737D01*
X162057089Y-191423222D01*
X161831618Y-191329830D01*
X161831621Y-191329830D01*
X161725992Y-191304470D01*
X161594302Y-191272854D01*
X161594300Y-191272853D01*
X161594297Y-191272853D01*
X161351000Y-191253706D01*
X161107702Y-191272853D01*
X160870380Y-191329830D01*
X160644910Y-191423222D01*
X160436826Y-191550737D01*
X160436823Y-191550738D01*
X160251241Y-191709241D01*
X160092738Y-191894823D01*
X160092737Y-191894825D01*
X160031173Y-191995290D01*
X159979362Y-192042165D01*
X159925446Y-192054500D01*
X159885886Y-192054500D01*
X159818847Y-192034815D01*
X159798205Y-192018181D01*
X151555206Y-183775181D01*
X151521721Y-183713858D01*
X151526705Y-183644166D01*
X151568577Y-183588233D01*
X151634041Y-183563816D01*
X151642887Y-183563500D01*
X152425446Y-183563500D01*
X152492485Y-183583185D01*
X152531173Y-183622710D01*
X152592737Y-183723174D01*
X152592738Y-183723176D01*
X152592741Y-183723179D01*
X152751241Y-183908759D01*
X152894897Y-184031453D01*
X152936823Y-184067261D01*
X152936826Y-184067262D01*
X153144910Y-184194777D01*
X153370381Y-184288169D01*
X153370378Y-184288169D01*
X153370384Y-184288170D01*
X153370388Y-184288172D01*
X153607698Y-184345146D01*
X153851000Y-184364294D01*
X154094302Y-184345146D01*
X154331612Y-184288172D01*
X154557089Y-184194777D01*
X154765179Y-184067259D01*
X154950759Y-183908759D01*
X155109259Y-183723179D01*
X155236777Y-183515089D01*
X155330172Y-183289612D01*
X155387146Y-183052302D01*
X155406294Y-182809000D01*
X155387146Y-182565698D01*
X155330172Y-182328388D01*
X155330169Y-182328380D01*
X155236777Y-182102910D01*
X155109262Y-181894826D01*
X155109261Y-181894823D01*
X155073453Y-181852897D01*
X154950759Y-181709241D01*
X154765179Y-181550741D01*
X154735494Y-181532550D01*
X154664709Y-181489172D01*
X154617834Y-181437360D01*
X154605500Y-181383445D01*
X154605500Y-180672885D01*
X154625185Y-180605846D01*
X154641814Y-180585209D01*
X160876494Y-174350528D01*
X160937815Y-174317045D01*
X160993118Y-174317636D01*
X161107698Y-174345146D01*
X161351000Y-174364294D01*
X161594302Y-174345146D01*
X161831612Y-174288172D01*
X162057089Y-174194777D01*
X162265179Y-174067259D01*
X162450759Y-173908759D01*
X162609259Y-173723179D01*
X162670827Y-173622710D01*
X162722638Y-173575835D01*
X162776554Y-173563500D01*
X172425446Y-173563500D01*
X172492485Y-173583185D01*
X172531173Y-173622710D01*
X172592737Y-173723174D01*
X172592738Y-173723176D01*
X172646449Y-173786063D01*
X172751241Y-173908759D01*
X172894897Y-174031453D01*
X172936823Y-174067261D01*
X172936826Y-174067262D01*
X173144910Y-174194777D01*
X173370381Y-174288169D01*
X173370378Y-174288169D01*
X173370384Y-174288170D01*
X173370388Y-174288172D01*
X173607698Y-174345146D01*
X173851000Y-174364294D01*
X174094302Y-174345146D01*
X174331612Y-174288172D01*
X174557089Y-174194777D01*
X174765179Y-174067259D01*
X174950759Y-173908759D01*
X175109259Y-173723179D01*
X175236777Y-173515089D01*
X175236779Y-173515085D01*
X175310524Y-173337048D01*
X175354365Y-173282644D01*
X175420659Y-173260579D01*
X175425085Y-173260500D01*
X175516079Y-173260500D01*
X175583118Y-173280185D01*
X175628873Y-173332989D01*
X175639369Y-173371248D01*
X175643908Y-173413483D01*
X175694202Y-173548328D01*
X175694206Y-173548335D01*
X175780452Y-173663544D01*
X175780455Y-173663547D01*
X175895664Y-173749793D01*
X175895671Y-173749797D01*
X176030517Y-173800091D01*
X176030516Y-173800091D01*
X176037444Y-173800835D01*
X176090127Y-173806500D01*
X177785872Y-173806499D01*
X177845483Y-173800091D01*
X177980331Y-173749796D01*
X178095546Y-173663546D01*
X178181796Y-173548331D01*
X178232091Y-173413483D01*
X178238500Y-173353873D01*
X178238499Y-171658128D01*
X178232091Y-171598517D01*
X178214270Y-171550737D01*
X178181797Y-171463671D01*
X178181793Y-171463664D01*
X178095547Y-171348455D01*
X178077511Y-171334953D01*
X178035640Y-171279019D01*
X178030657Y-171209327D01*
X178064143Y-171148004D01*
X178077515Y-171136418D01*
X178095191Y-171123186D01*
X178181350Y-171008093D01*
X178181354Y-171008086D01*
X178231596Y-170873379D01*
X178231598Y-170873372D01*
X178237999Y-170813844D01*
X178238000Y-170813827D01*
X178238000Y-170216000D01*
X175638000Y-170216000D01*
X175638000Y-170813844D01*
X175644401Y-170873372D01*
X175644403Y-170873379D01*
X175694645Y-171008086D01*
X175694649Y-171008093D01*
X175780808Y-171123185D01*
X175798486Y-171136419D01*
X175840357Y-171192352D01*
X175845342Y-171262044D01*
X175811858Y-171323367D01*
X175798490Y-171334951D01*
X175780455Y-171348452D01*
X175780452Y-171348455D01*
X175694206Y-171463664D01*
X175694202Y-171463671D01*
X175661729Y-171550738D01*
X175643909Y-171598517D01*
X175639367Y-171640757D01*
X175612631Y-171705306D01*
X175555239Y-171745154D01*
X175516079Y-171751500D01*
X175044017Y-171751500D01*
X174976978Y-171731815D01*
X174954608Y-171712293D01*
X174954210Y-171712692D01*
X174950764Y-171709247D01*
X174950759Y-171709241D01*
X174821113Y-171598513D01*
X174765176Y-171550738D01*
X174765173Y-171550737D01*
X174557089Y-171423222D01*
X174331618Y-171329830D01*
X174331621Y-171329830D01*
X174225992Y-171304470D01*
X174094302Y-171272854D01*
X174094300Y-171272853D01*
X174094297Y-171272853D01*
X173851000Y-171253706D01*
X173607702Y-171272853D01*
X173607698Y-171272854D01*
X173395984Y-171323683D01*
X173370380Y-171329830D01*
X173144910Y-171423222D01*
X172936826Y-171550737D01*
X172936823Y-171550738D01*
X172751241Y-171709241D01*
X172592738Y-171894823D01*
X172592737Y-171894825D01*
X172531173Y-171995290D01*
X172479362Y-172042165D01*
X172425446Y-172054500D01*
X162776554Y-172054500D01*
X162709515Y-172034815D01*
X162670827Y-171995290D01*
X162609262Y-171894825D01*
X162609261Y-171894823D01*
X162573453Y-171852897D01*
X162450759Y-171709241D01*
X162321113Y-171598513D01*
X162265176Y-171550738D01*
X162265173Y-171550737D01*
X162057089Y-171423222D01*
X161831618Y-171329830D01*
X161831621Y-171329830D01*
X161725992Y-171304470D01*
X161594302Y-171272854D01*
X161594300Y-171272853D01*
X161594297Y-171272853D01*
X161566038Y-171270629D01*
X161500750Y-171245744D01*
X161459279Y-171189513D01*
X161454793Y-171119787D01*
X161488085Y-171059332D01*
X162697600Y-169849819D01*
X162758923Y-169816334D01*
X162785281Y-169813500D01*
X175239804Y-169813500D01*
X175239805Y-169813499D01*
X175361035Y-169789386D01*
X175441784Y-169755937D01*
X175475233Y-169742083D01*
X175503826Y-169722977D01*
X175570502Y-169702099D01*
X175621176Y-169716000D01*
X178238000Y-169716000D01*
X178238000Y-169118172D01*
X178237999Y-169118155D01*
X178231598Y-169058627D01*
X178231596Y-169058620D01*
X178181354Y-168923913D01*
X178181350Y-168923906D01*
X178095190Y-168808812D01*
X178095189Y-168808811D01*
X178077513Y-168795579D01*
X178035641Y-168739646D01*
X178030657Y-168669954D01*
X178064142Y-168608631D01*
X178077500Y-168597055D01*
X178095546Y-168583546D01*
X178181796Y-168468331D01*
X178232091Y-168333483D01*
X178238500Y-168273873D01*
X178238499Y-166764499D01*
X178258184Y-166697461D01*
X178310987Y-166651706D01*
X178362499Y-166640500D01*
X179483994Y-166640500D01*
X179551033Y-166660185D01*
G37*
G04 #@! TD.AperFunction*
G04 #@! TA.AperFunction,Conductor*
G36*
X160920686Y-158456185D02*
G01*
X160941328Y-158472819D01*
X167841916Y-165373408D01*
X167841920Y-165373411D01*
X167944688Y-165442079D01*
X167944701Y-165442086D01*
X168058888Y-165489383D01*
X168058893Y-165489385D01*
X168058897Y-165489385D01*
X168058898Y-165489386D01*
X168180121Y-165513500D01*
X168180124Y-165513500D01*
X168180125Y-165513500D01*
X174959718Y-165513500D01*
X175026757Y-165533185D01*
X175072512Y-165585989D01*
X175082456Y-165655147D01*
X175053431Y-165718703D01*
X175047399Y-165725181D01*
X174468787Y-166303792D01*
X174407464Y-166337277D01*
X174337772Y-166332293D01*
X174333665Y-166330677D01*
X174331624Y-166329831D01*
X174331621Y-166329830D01*
X174223166Y-166303792D01*
X174094302Y-166272854D01*
X174094300Y-166272853D01*
X174094297Y-166272853D01*
X173851000Y-166253706D01*
X173607702Y-166272853D01*
X173607698Y-166272854D01*
X173431301Y-166315204D01*
X173370380Y-166329830D01*
X173144910Y-166423222D01*
X172936826Y-166550737D01*
X172936823Y-166550738D01*
X172751241Y-166709241D01*
X172592738Y-166894823D01*
X172592737Y-166894825D01*
X172531173Y-166995290D01*
X172479362Y-167042165D01*
X172425446Y-167054500D01*
X163025499Y-167054500D01*
X162958460Y-167034815D01*
X162912705Y-166982011D01*
X162901499Y-166930500D01*
X162901499Y-166711129D01*
X162901498Y-166711123D01*
X162901497Y-166711116D01*
X162895091Y-166651517D01*
X162891031Y-166640632D01*
X162844797Y-166516671D01*
X162844793Y-166516664D01*
X162758547Y-166401455D01*
X162758544Y-166401452D01*
X162643335Y-166315206D01*
X162643328Y-166315202D01*
X162508482Y-166264908D01*
X162508483Y-166264908D01*
X162448883Y-166258501D01*
X162448881Y-166258500D01*
X162448873Y-166258500D01*
X162448865Y-166258500D01*
X161560500Y-166258500D01*
X161493461Y-166238815D01*
X161447706Y-166186011D01*
X161436500Y-166134500D01*
X161436500Y-162074700D01*
X161456185Y-162007661D01*
X161463237Y-161997785D01*
X161465703Y-161994664D01*
X161465712Y-161994656D01*
X161557814Y-161845334D01*
X161612999Y-161678797D01*
X161623500Y-161576009D01*
X161623499Y-160575992D01*
X161617183Y-160514166D01*
X161612999Y-160473203D01*
X161612998Y-160473200D01*
X161599843Y-160433500D01*
X161557814Y-160306666D01*
X161465712Y-160157344D01*
X161341656Y-160033288D01*
X161192334Y-159941186D01*
X161025797Y-159886001D01*
X161025795Y-159886000D01*
X160923010Y-159875500D01*
X160122998Y-159875500D01*
X160122980Y-159875501D01*
X160020203Y-159886000D01*
X160020200Y-159886001D01*
X159853668Y-159941185D01*
X159853663Y-159941187D01*
X159704345Y-160033287D01*
X159610327Y-160127305D01*
X159549003Y-160160789D01*
X159479312Y-160155805D01*
X159434965Y-160127304D01*
X159341345Y-160033684D01*
X159192124Y-159941643D01*
X159192119Y-159941641D01*
X159025697Y-159886494D01*
X159025690Y-159886493D01*
X158922986Y-159876000D01*
X158773000Y-159876000D01*
X158773000Y-162275999D01*
X158922972Y-162275999D01*
X158922986Y-162275998D01*
X159025697Y-162265505D01*
X159192119Y-162210358D01*
X159192124Y-162210356D01*
X159341342Y-162118317D01*
X159434964Y-162024695D01*
X159496287Y-161991210D01*
X159565979Y-161996194D01*
X159610327Y-162024695D01*
X159704344Y-162118712D01*
X159853666Y-162210814D01*
X159853673Y-162210816D01*
X159855894Y-162211852D01*
X159857168Y-162212973D01*
X159859813Y-162214605D01*
X159859534Y-162215056D01*
X159908338Y-162258019D01*
X159927500Y-162324239D01*
X159927500Y-166381493D01*
X159907815Y-166448532D01*
X159902767Y-166455803D01*
X159857206Y-166516665D01*
X159857202Y-166516671D01*
X159806908Y-166651517D01*
X159800703Y-166709241D01*
X159800501Y-166711123D01*
X159800500Y-166711135D01*
X159800500Y-168906870D01*
X159800501Y-168906876D01*
X159806908Y-168966483D01*
X159857202Y-169101328D01*
X159857206Y-169101335D01*
X159943452Y-169216544D01*
X159943455Y-169216547D01*
X160058664Y-169302793D01*
X160058671Y-169302797D01*
X160193517Y-169353091D01*
X160193516Y-169353091D01*
X160200444Y-169353835D01*
X160253127Y-169359500D01*
X161113718Y-169359499D01*
X161180757Y-169379183D01*
X161226512Y-169431987D01*
X161236456Y-169501146D01*
X161207431Y-169564702D01*
X161201399Y-169571180D01*
X154817181Y-175955399D01*
X154755858Y-175988884D01*
X154686166Y-175983900D01*
X154630233Y-175942028D01*
X154605816Y-175876564D01*
X154605500Y-175867718D01*
X154605500Y-172875230D01*
X154625185Y-172808191D01*
X154641818Y-172787549D01*
X154642653Y-172786713D01*
X154642656Y-172786712D01*
X154736675Y-172692692D01*
X154797994Y-172659210D01*
X154867686Y-172664194D01*
X154912034Y-172692695D01*
X155005654Y-172786315D01*
X155154875Y-172878356D01*
X155154880Y-172878358D01*
X155321302Y-172933505D01*
X155321309Y-172933506D01*
X155424019Y-172943999D01*
X155573999Y-172943999D01*
X156074000Y-172943999D01*
X156223972Y-172943999D01*
X156223986Y-172943998D01*
X156326697Y-172933505D01*
X156493119Y-172878358D01*
X156493124Y-172878356D01*
X156642345Y-172786315D01*
X156766315Y-172662345D01*
X156858356Y-172513124D01*
X156858358Y-172513119D01*
X156913505Y-172346697D01*
X156913506Y-172346690D01*
X156923999Y-172243986D01*
X156924000Y-172243973D01*
X156924000Y-171994000D01*
X156074000Y-171994000D01*
X156074000Y-172943999D01*
X155573999Y-172943999D01*
X155574000Y-172943998D01*
X155574000Y-171494000D01*
X156074000Y-171494000D01*
X156923999Y-171494000D01*
X156923999Y-171244028D01*
X156923998Y-171244013D01*
X156913505Y-171141302D01*
X156858358Y-170974880D01*
X156858356Y-170974875D01*
X156766315Y-170825654D01*
X156642345Y-170701684D01*
X156493124Y-170609643D01*
X156493119Y-170609641D01*
X156326697Y-170554494D01*
X156326690Y-170554493D01*
X156223986Y-170544000D01*
X156074000Y-170544000D01*
X156074000Y-171494000D01*
X155574000Y-171494000D01*
X155574000Y-170544000D01*
X155424027Y-170544000D01*
X155424012Y-170544001D01*
X155321302Y-170554494D01*
X155154880Y-170609641D01*
X155154875Y-170609643D01*
X155005657Y-170701682D01*
X154912034Y-170795305D01*
X154850710Y-170828789D01*
X154781019Y-170823805D01*
X154736672Y-170795304D01*
X154642657Y-170701289D01*
X154642656Y-170701288D01*
X154508002Y-170618233D01*
X154493336Y-170609187D01*
X154493331Y-170609185D01*
X154446950Y-170593816D01*
X154326797Y-170554001D01*
X154326795Y-170554000D01*
X154224010Y-170543500D01*
X153423998Y-170543500D01*
X153423980Y-170543501D01*
X153321203Y-170554000D01*
X153321200Y-170554001D01*
X153154668Y-170609185D01*
X153154663Y-170609187D01*
X153005342Y-170701289D01*
X152881289Y-170825342D01*
X152789187Y-170974663D01*
X152789185Y-170974668D01*
X152778029Y-171008335D01*
X152734001Y-171141203D01*
X152734001Y-171141204D01*
X152734000Y-171141204D01*
X152723500Y-171243983D01*
X152723500Y-172244001D01*
X152723501Y-172244019D01*
X152734000Y-172346796D01*
X152734001Y-172346799D01*
X152789115Y-172513119D01*
X152789186Y-172513334D01*
X152881288Y-172662656D01*
X153005344Y-172786712D01*
X153037597Y-172806606D01*
X153084321Y-172858551D01*
X153096500Y-172912143D01*
X153096500Y-176383445D01*
X153076815Y-176450484D01*
X153037291Y-176489172D01*
X152936822Y-176550740D01*
X152751241Y-176709241D01*
X152592738Y-176894823D01*
X152592737Y-176894825D01*
X152531173Y-176995290D01*
X152479362Y-177042165D01*
X152425446Y-177054500D01*
X143025499Y-177054500D01*
X142958460Y-177034815D01*
X142912705Y-176982011D01*
X142901499Y-176930500D01*
X142901499Y-176711129D01*
X142901498Y-176711123D01*
X142895091Y-176651516D01*
X142844797Y-176516671D01*
X142844793Y-176516664D01*
X142758547Y-176401455D01*
X142758544Y-176401452D01*
X142643335Y-176315206D01*
X142643328Y-176315202D01*
X142508482Y-176264908D01*
X142508483Y-176264908D01*
X142448883Y-176258501D01*
X142448881Y-176258500D01*
X142448873Y-176258500D01*
X142448865Y-176258500D01*
X140725500Y-176258500D01*
X140658461Y-176238815D01*
X140612706Y-176186011D01*
X140601500Y-176134500D01*
X140601500Y-164875885D01*
X140621185Y-164808846D01*
X140637815Y-164788208D01*
X141042414Y-164383608D01*
X141103735Y-164350125D01*
X141139813Y-164347673D01*
X141351000Y-164364294D01*
X141594302Y-164345146D01*
X141831612Y-164288172D01*
X142057089Y-164194777D01*
X142265179Y-164067259D01*
X142450759Y-163908759D01*
X142609259Y-163723179D01*
X142627607Y-163693237D01*
X142670827Y-163622710D01*
X142722638Y-163575835D01*
X142776554Y-163563500D01*
X152425446Y-163563500D01*
X152492485Y-163583185D01*
X152531173Y-163622710D01*
X152592737Y-163723174D01*
X152592738Y-163723176D01*
X152592741Y-163723179D01*
X152751241Y-163908759D01*
X152894897Y-164031453D01*
X152936823Y-164067261D01*
X152936826Y-164067262D01*
X153144910Y-164194777D01*
X153370381Y-164288169D01*
X153370378Y-164288169D01*
X153370384Y-164288170D01*
X153370388Y-164288172D01*
X153607698Y-164345146D01*
X153851000Y-164364294D01*
X154094302Y-164345146D01*
X154331612Y-164288172D01*
X154557089Y-164194777D01*
X154765179Y-164067259D01*
X154950759Y-163908759D01*
X155109259Y-163723179D01*
X155236777Y-163515089D01*
X155330172Y-163289612D01*
X155387146Y-163052302D01*
X155406294Y-162809000D01*
X155387146Y-162565698D01*
X155330172Y-162328388D01*
X155330169Y-162328380D01*
X155236777Y-162102910D01*
X155109262Y-161894826D01*
X155109261Y-161894823D01*
X155066810Y-161845119D01*
X154950759Y-161709241D01*
X154816414Y-161594500D01*
X154794737Y-161575986D01*
X157423001Y-161575986D01*
X157433494Y-161678697D01*
X157488641Y-161845119D01*
X157488643Y-161845124D01*
X157580684Y-161994345D01*
X157704654Y-162118315D01*
X157853875Y-162210356D01*
X157853880Y-162210358D01*
X158020302Y-162265505D01*
X158020309Y-162265506D01*
X158123019Y-162275999D01*
X158272999Y-162275999D01*
X158273000Y-162275998D01*
X158273000Y-161326000D01*
X157423001Y-161326000D01*
X157423001Y-161575986D01*
X154794737Y-161575986D01*
X154765176Y-161550738D01*
X154765173Y-161550737D01*
X154557089Y-161423222D01*
X154331618Y-161329830D01*
X154331621Y-161329830D01*
X154194334Y-161296870D01*
X154094302Y-161272854D01*
X154094300Y-161272853D01*
X154094297Y-161272853D01*
X153851000Y-161253706D01*
X153607702Y-161272853D01*
X153370380Y-161329830D01*
X153144910Y-161423222D01*
X152936826Y-161550737D01*
X152936823Y-161550738D01*
X152751241Y-161709241D01*
X152592738Y-161894823D01*
X152592737Y-161894825D01*
X152531173Y-161995290D01*
X152479362Y-162042165D01*
X152425446Y-162054500D01*
X142776554Y-162054500D01*
X142709515Y-162034815D01*
X142670827Y-161995290D01*
X142609262Y-161894825D01*
X142609261Y-161894823D01*
X142566810Y-161845119D01*
X142450759Y-161709241D01*
X142316414Y-161594500D01*
X142265176Y-161550738D01*
X142265173Y-161550737D01*
X142057089Y-161423222D01*
X141831618Y-161329830D01*
X141831621Y-161329830D01*
X141694334Y-161296870D01*
X141594302Y-161272854D01*
X141594300Y-161272853D01*
X141594297Y-161272853D01*
X141351000Y-161253706D01*
X141107700Y-161272853D01*
X140993121Y-161300361D01*
X140923338Y-161296870D01*
X140876493Y-161267468D01*
X140637819Y-161028794D01*
X140604334Y-160967471D01*
X140601500Y-160941113D01*
X140601500Y-160576013D01*
X157423000Y-160576013D01*
X157423000Y-160826000D01*
X158273000Y-160826000D01*
X158273000Y-159876000D01*
X158123027Y-159876000D01*
X158123012Y-159876001D01*
X158020302Y-159886494D01*
X157853880Y-159941641D01*
X157853875Y-159941643D01*
X157704654Y-160033684D01*
X157580684Y-160157654D01*
X157488643Y-160306875D01*
X157488641Y-160306880D01*
X157433494Y-160473302D01*
X157433493Y-160473309D01*
X157423000Y-160576013D01*
X140601500Y-160576013D01*
X140601500Y-159483499D01*
X140621185Y-159416460D01*
X140673989Y-159370705D01*
X140725500Y-159359499D01*
X142448871Y-159359499D01*
X142448872Y-159359499D01*
X142508483Y-159353091D01*
X142643331Y-159302796D01*
X142758546Y-159216546D01*
X142844796Y-159101331D01*
X142895091Y-158966483D01*
X142901500Y-158906873D01*
X142901500Y-158687500D01*
X142921185Y-158620461D01*
X142973989Y-158574706D01*
X143025500Y-158563500D01*
X152425446Y-158563500D01*
X152492485Y-158583185D01*
X152531173Y-158622710D01*
X152592737Y-158723174D01*
X152592738Y-158723176D01*
X152592741Y-158723179D01*
X152751241Y-158908759D01*
X152894897Y-159031453D01*
X152936823Y-159067261D01*
X152936826Y-159067262D01*
X153144910Y-159194777D01*
X153370381Y-159288169D01*
X153370378Y-159288169D01*
X153370384Y-159288170D01*
X153370388Y-159288172D01*
X153607698Y-159345146D01*
X153851000Y-159364294D01*
X154094302Y-159345146D01*
X154331612Y-159288172D01*
X154557089Y-159194777D01*
X154765179Y-159067259D01*
X154950759Y-158908759D01*
X155109259Y-158723179D01*
X155236777Y-158515089D01*
X155237624Y-158513043D01*
X155238153Y-158512387D01*
X155238988Y-158510749D01*
X155239332Y-158510924D01*
X155281467Y-158458642D01*
X155347762Y-158436579D01*
X155352184Y-158436500D01*
X160853647Y-158436500D01*
X160920686Y-158456185D01*
G37*
G04 #@! TD.AperFunction*
G04 #@! TA.AperFunction,Conductor*
G36*
X152492485Y-143583185D02*
G01*
X152531173Y-143622710D01*
X152592737Y-143723174D01*
X152592738Y-143723176D01*
X152592741Y-143723179D01*
X152751241Y-143908759D01*
X152881954Y-144020398D01*
X152936823Y-144067261D01*
X152936826Y-144067262D01*
X153144910Y-144194777D01*
X153370381Y-144288169D01*
X153370378Y-144288169D01*
X153370384Y-144288170D01*
X153370388Y-144288172D01*
X153607698Y-144345146D01*
X153851000Y-144364294D01*
X154094302Y-144345146D01*
X154331612Y-144288172D01*
X154429048Y-144247812D01*
X154498516Y-144240344D01*
X154560995Y-144271619D01*
X154596648Y-144331707D01*
X154600500Y-144362374D01*
X154600500Y-149337232D01*
X154624612Y-149458453D01*
X154624614Y-149458460D01*
X154641162Y-149498410D01*
X154641163Y-149498412D01*
X154671914Y-149572653D01*
X154671915Y-149572655D01*
X154699798Y-149614385D01*
X154699800Y-149614387D01*
X154740587Y-149675431D01*
X154740591Y-149675436D01*
X167898563Y-162833408D01*
X167898567Y-162833411D01*
X168001335Y-162902079D01*
X168001348Y-162902086D01*
X168115535Y-162949383D01*
X168115540Y-162949385D01*
X168115544Y-162949385D01*
X168115545Y-162949386D01*
X168236768Y-162973500D01*
X168236771Y-162973500D01*
X168236772Y-162973500D01*
X175513501Y-162973500D01*
X175580540Y-162993185D01*
X175626295Y-163045989D01*
X175637501Y-163097500D01*
X175637501Y-163193876D01*
X175643908Y-163253483D01*
X175694202Y-163388328D01*
X175694206Y-163388335D01*
X175780452Y-163503544D01*
X175780453Y-163503544D01*
X175780454Y-163503546D01*
X175798070Y-163516733D01*
X175798071Y-163516734D01*
X175839941Y-163572668D01*
X175844925Y-163642360D01*
X175811439Y-163703683D01*
X175798071Y-163715266D01*
X175780452Y-163728455D01*
X175694206Y-163843664D01*
X175694202Y-163843671D01*
X175643908Y-163978517D01*
X175637501Y-164038116D01*
X175637501Y-164038123D01*
X175637500Y-164038135D01*
X175637500Y-164134500D01*
X175617815Y-164201539D01*
X175565011Y-164247294D01*
X175513500Y-164258500D01*
X168553209Y-164258500D01*
X168486170Y-164238815D01*
X168465528Y-164222181D01*
X161564939Y-157321591D01*
X161564935Y-157321588D01*
X161462167Y-157252920D01*
X161462154Y-157252913D01*
X161428713Y-157239062D01*
X161347963Y-157205614D01*
X161347955Y-157205612D01*
X161226735Y-157181500D01*
X161226731Y-157181500D01*
X155352184Y-157181500D01*
X155285145Y-157161815D01*
X155239390Y-157109011D01*
X155237624Y-157104956D01*
X155236777Y-157102912D01*
X155236773Y-157102904D01*
X155109262Y-156894826D01*
X155109261Y-156894823D01*
X155043208Y-156817485D01*
X154950759Y-156709241D01*
X154828063Y-156604449D01*
X154765176Y-156550738D01*
X154765173Y-156550737D01*
X154557089Y-156423222D01*
X154331618Y-156329830D01*
X154331616Y-156329829D01*
X154292549Y-156320449D01*
X154231959Y-156285657D01*
X154199796Y-156223630D01*
X154197500Y-156199876D01*
X154197500Y-152549700D01*
X154217185Y-152482661D01*
X154224237Y-152472785D01*
X154226703Y-152469664D01*
X154226712Y-152469656D01*
X154318814Y-152320334D01*
X154373999Y-152153797D01*
X154384500Y-152051009D01*
X154384499Y-151050992D01*
X154382231Y-151028794D01*
X154373999Y-150948203D01*
X154373998Y-150948200D01*
X154371650Y-150941113D01*
X154318814Y-150781666D01*
X154226712Y-150632344D01*
X154102656Y-150508288D01*
X153953334Y-150416186D01*
X153786797Y-150361001D01*
X153786795Y-150361000D01*
X153684010Y-150350500D01*
X152883998Y-150350500D01*
X152883980Y-150350501D01*
X152781203Y-150361000D01*
X152781200Y-150361001D01*
X152614668Y-150416185D01*
X152614663Y-150416187D01*
X152465345Y-150508287D01*
X152371327Y-150602305D01*
X152310003Y-150635789D01*
X152240312Y-150630805D01*
X152195965Y-150602304D01*
X152102345Y-150508684D01*
X151953124Y-150416643D01*
X151953119Y-150416641D01*
X151786697Y-150361494D01*
X151786690Y-150361493D01*
X151683986Y-150351000D01*
X151534000Y-150351000D01*
X151534000Y-152750999D01*
X151683972Y-152750999D01*
X151683986Y-152750998D01*
X151786697Y-152740505D01*
X151953119Y-152685358D01*
X151953124Y-152685356D01*
X152102342Y-152593317D01*
X152195964Y-152499695D01*
X152257287Y-152466210D01*
X152326979Y-152471194D01*
X152371327Y-152499695D01*
X152465344Y-152593712D01*
X152614666Y-152685814D01*
X152614673Y-152685816D01*
X152616894Y-152686852D01*
X152618168Y-152687973D01*
X152620813Y-152689605D01*
X152620534Y-152690056D01*
X152669338Y-152733019D01*
X152688500Y-152799239D01*
X152688500Y-156736954D01*
X152668815Y-156803993D01*
X152658791Y-156817485D01*
X152592741Y-156894819D01*
X152592739Y-156894823D01*
X152531173Y-156995290D01*
X152479362Y-157042165D01*
X152425446Y-157054500D01*
X143025499Y-157054500D01*
X142958460Y-157034815D01*
X142912705Y-156982011D01*
X142901499Y-156930500D01*
X142901499Y-156711129D01*
X142901498Y-156711123D01*
X142895091Y-156651516D01*
X142844797Y-156516671D01*
X142844793Y-156516664D01*
X142758547Y-156401455D01*
X142758544Y-156401452D01*
X142643335Y-156315206D01*
X142643328Y-156315202D01*
X142508482Y-156264908D01*
X142508483Y-156264908D01*
X142448883Y-156258501D01*
X142448881Y-156258500D01*
X142448873Y-156258500D01*
X142448865Y-156258500D01*
X140725500Y-156258500D01*
X140658461Y-156238815D01*
X140612706Y-156186011D01*
X140601500Y-156134500D01*
X140601500Y-152050986D01*
X150184001Y-152050986D01*
X150194494Y-152153697D01*
X150249641Y-152320119D01*
X150249643Y-152320124D01*
X150341684Y-152469345D01*
X150465654Y-152593315D01*
X150614875Y-152685356D01*
X150614880Y-152685358D01*
X150781302Y-152740505D01*
X150781309Y-152740506D01*
X150884019Y-152750999D01*
X151033999Y-152750999D01*
X151034000Y-152750998D01*
X151034000Y-151801000D01*
X150184001Y-151801000D01*
X150184001Y-152050986D01*
X140601500Y-152050986D01*
X140601500Y-151051013D01*
X150184000Y-151051013D01*
X150184000Y-151301000D01*
X151034000Y-151301000D01*
X151034000Y-150351000D01*
X150884027Y-150351000D01*
X150884012Y-150351001D01*
X150781302Y-150361494D01*
X150614880Y-150416641D01*
X150614875Y-150416643D01*
X150465654Y-150508684D01*
X150341684Y-150632654D01*
X150249643Y-150781875D01*
X150249641Y-150781880D01*
X150194494Y-150948302D01*
X150194493Y-150948309D01*
X150184000Y-151051013D01*
X140601500Y-151051013D01*
X140601500Y-144676885D01*
X140621185Y-144609846D01*
X140637815Y-144589208D01*
X140876494Y-144350528D01*
X140937815Y-144317045D01*
X140993118Y-144317636D01*
X141107698Y-144345146D01*
X141351000Y-144364294D01*
X141594302Y-144345146D01*
X141831612Y-144288172D01*
X142057089Y-144194777D01*
X142265179Y-144067259D01*
X142450759Y-143908759D01*
X142609259Y-143723179D01*
X142670827Y-143622710D01*
X142722638Y-143575835D01*
X142776554Y-143563500D01*
X152425446Y-143563500D01*
X152492485Y-143583185D01*
G37*
G04 #@! TD.AperFunction*
G04 #@! TA.AperFunction,Conductor*
G36*
X186534539Y-113717185D02*
G01*
X186580294Y-113769989D01*
X186591500Y-113821500D01*
X186591500Y-160652719D01*
X186571815Y-160719758D01*
X186519011Y-160765513D01*
X186449853Y-160775457D01*
X186386297Y-160746432D01*
X186379819Y-160740400D01*
X185894818Y-160255399D01*
X185861333Y-160194076D01*
X185858499Y-160167718D01*
X185858499Y-158958129D01*
X185858498Y-158958123D01*
X185858497Y-158958116D01*
X185852091Y-158898517D01*
X185801796Y-158763669D01*
X185801795Y-158763668D01*
X185801793Y-158763664D01*
X185715547Y-158648455D01*
X185715546Y-158648454D01*
X185697930Y-158635267D01*
X185656058Y-158579334D01*
X185651074Y-158509642D01*
X185684558Y-158448319D01*
X185697930Y-158436733D01*
X185698136Y-158436579D01*
X185715546Y-158423546D01*
X185801796Y-158308331D01*
X185852091Y-158173483D01*
X185858500Y-158113873D01*
X185858499Y-156418128D01*
X185852091Y-156358517D01*
X185841391Y-156329830D01*
X185801797Y-156223671D01*
X185801793Y-156223664D01*
X185715547Y-156108455D01*
X185697511Y-156094953D01*
X185655640Y-156039019D01*
X185650657Y-155969327D01*
X185684143Y-155908004D01*
X185697515Y-155896418D01*
X185715191Y-155883186D01*
X185801350Y-155768093D01*
X185801354Y-155768086D01*
X185851596Y-155633379D01*
X185851598Y-155633372D01*
X185857999Y-155573844D01*
X185858000Y-155573827D01*
X185858000Y-154976000D01*
X183258000Y-154976000D01*
X183258000Y-155573844D01*
X183264401Y-155633372D01*
X183264403Y-155633379D01*
X183314645Y-155768086D01*
X183314649Y-155768093D01*
X183400808Y-155883185D01*
X183418486Y-155896419D01*
X183460357Y-155952352D01*
X183465342Y-156022044D01*
X183431858Y-156083367D01*
X183418490Y-156094951D01*
X183400455Y-156108452D01*
X183400452Y-156108455D01*
X183314206Y-156223664D01*
X183314202Y-156223671D01*
X183263908Y-156358517D01*
X183259292Y-156401455D01*
X183257501Y-156418123D01*
X183257500Y-156418135D01*
X183257500Y-158113870D01*
X183257501Y-158113876D01*
X183263908Y-158173483D01*
X183314202Y-158308328D01*
X183314206Y-158308335D01*
X183400452Y-158423544D01*
X183400453Y-158423544D01*
X183400454Y-158423546D01*
X183417758Y-158436500D01*
X183418071Y-158436734D01*
X183459941Y-158492668D01*
X183464925Y-158562360D01*
X183431439Y-158623683D01*
X183418071Y-158635266D01*
X183400452Y-158648455D01*
X183314206Y-158763664D01*
X183314202Y-158763671D01*
X183263908Y-158898517D01*
X183257501Y-158958116D01*
X183257501Y-158958123D01*
X183257500Y-158958135D01*
X183257500Y-160653870D01*
X183257501Y-160653876D01*
X183263908Y-160713483D01*
X183314202Y-160848328D01*
X183314206Y-160848335D01*
X183400452Y-160963544D01*
X183400453Y-160963544D01*
X183400454Y-160963546D01*
X183418070Y-160976733D01*
X183418071Y-160976734D01*
X183459941Y-161032668D01*
X183464925Y-161102360D01*
X183431439Y-161163683D01*
X183418071Y-161175266D01*
X183400452Y-161188455D01*
X183314206Y-161303664D01*
X183314202Y-161303671D01*
X183263908Y-161438517D01*
X183257501Y-161498116D01*
X183257501Y-161498123D01*
X183257500Y-161498135D01*
X183257500Y-162398719D01*
X183237815Y-162465758D01*
X183185011Y-162511513D01*
X183115853Y-162521457D01*
X183052297Y-162492432D01*
X183045819Y-162486400D01*
X181298228Y-160738809D01*
X181264743Y-160677486D01*
X181269727Y-160607794D01*
X181311599Y-160551861D01*
X181344959Y-160534085D01*
X181351522Y-160531789D01*
X181504262Y-160435816D01*
X181631816Y-160308262D01*
X181727789Y-160155522D01*
X181787368Y-159985255D01*
X181792282Y-159941641D01*
X181807565Y-159806003D01*
X181807565Y-159805996D01*
X181787369Y-159626750D01*
X181787368Y-159626745D01*
X181754254Y-159532111D01*
X181727789Y-159456478D01*
X181726180Y-159453918D01*
X181648506Y-159330300D01*
X181629500Y-159264328D01*
X181629500Y-153878155D01*
X183258000Y-153878155D01*
X183258000Y-154476000D01*
X184308000Y-154476000D01*
X184808000Y-154476000D01*
X185858000Y-154476000D01*
X185858000Y-153878172D01*
X185857999Y-153878155D01*
X185851598Y-153818627D01*
X185851596Y-153818620D01*
X185801354Y-153683913D01*
X185801350Y-153683906D01*
X185715190Y-153568812D01*
X185715187Y-153568809D01*
X185600093Y-153482649D01*
X185600086Y-153482645D01*
X185465379Y-153432403D01*
X185465372Y-153432401D01*
X185405844Y-153426000D01*
X184808000Y-153426000D01*
X184808000Y-154476000D01*
X184308000Y-154476000D01*
X184308000Y-153426000D01*
X183710155Y-153426000D01*
X183650627Y-153432401D01*
X183650620Y-153432403D01*
X183515913Y-153482645D01*
X183515906Y-153482649D01*
X183400812Y-153568809D01*
X183400809Y-153568812D01*
X183314649Y-153683906D01*
X183314645Y-153683913D01*
X183264403Y-153818620D01*
X183264401Y-153818627D01*
X183258000Y-153878155D01*
X181629500Y-153878155D01*
X181629500Y-146917194D01*
X181605386Y-146795970D01*
X181605385Y-146795969D01*
X181605385Y-146795965D01*
X181568497Y-146706908D01*
X181558086Y-146681773D01*
X181558079Y-146681760D01*
X181489412Y-146578993D01*
X181461156Y-146550737D01*
X181402008Y-146491589D01*
X180663228Y-145752809D01*
X180629743Y-145691486D01*
X180634727Y-145621794D01*
X180676599Y-145565861D01*
X180709959Y-145548085D01*
X180716522Y-145545789D01*
X180869262Y-145449816D01*
X180996816Y-145322262D01*
X181092789Y-145169522D01*
X181152368Y-144999255D01*
X181172565Y-144820000D01*
X181170409Y-144800866D01*
X181152369Y-144640750D01*
X181152368Y-144640745D01*
X181132911Y-144585139D01*
X181092789Y-144470478D01*
X181030959Y-144372077D01*
X181013506Y-144344300D01*
X180994500Y-144278328D01*
X180994500Y-144250196D01*
X180991744Y-144236342D01*
X180983476Y-144194777D01*
X180970386Y-144128966D01*
X180925407Y-144020379D01*
X180923763Y-144015784D01*
X180854414Y-143911996D01*
X180854413Y-143911994D01*
X180851177Y-143908758D01*
X180767008Y-143824589D01*
X180062037Y-143119618D01*
X180028552Y-143058295D01*
X180033536Y-142988603D01*
X180049401Y-142959051D01*
X180113154Y-142871303D01*
X180113153Y-142871303D01*
X180113157Y-142871299D01*
X180211092Y-142679089D01*
X180277754Y-142473926D01*
X180301103Y-142326505D01*
X180311500Y-142260866D01*
X180311500Y-142045133D01*
X180277754Y-141832077D01*
X180277754Y-141832074D01*
X180211092Y-141626911D01*
X180113157Y-141434701D01*
X179986359Y-141260179D01*
X179833821Y-141107641D01*
X179662279Y-140983008D01*
X179619614Y-140927678D01*
X179613635Y-140858064D01*
X179646241Y-140796269D01*
X179662280Y-140782372D01*
X179833491Y-140657979D01*
X179833497Y-140657974D01*
X179985974Y-140505497D01*
X179985974Y-140505496D01*
X180112728Y-140331036D01*
X180210627Y-140138901D01*
X180277266Y-139933809D01*
X180288481Y-139863000D01*
X179258709Y-139863000D01*
X179270452Y-139842661D01*
X179311000Y-139691333D01*
X179311000Y-139534667D01*
X179270452Y-139383339D01*
X179258709Y-139363000D01*
X180288481Y-139363000D01*
X180277266Y-139292190D01*
X180210627Y-139087098D01*
X180112728Y-138894963D01*
X179985974Y-138720503D01*
X179985974Y-138720502D01*
X179843892Y-138578420D01*
X179810407Y-138517097D01*
X179815391Y-138447405D01*
X179857263Y-138391472D01*
X179879177Y-138378353D01*
X179880323Y-138377817D01*
X179880334Y-138377814D01*
X180029656Y-138285712D01*
X180153712Y-138161656D01*
X180245814Y-138012334D01*
X180300999Y-137845797D01*
X180311500Y-137743009D01*
X180311499Y-136402992D01*
X180300999Y-136300203D01*
X180245814Y-136133666D01*
X180153712Y-135984344D01*
X180029656Y-135860288D01*
X179880334Y-135768186D01*
X179713797Y-135713001D01*
X179713795Y-135713000D01*
X179611016Y-135702500D01*
X179611009Y-135702500D01*
X179594500Y-135702500D01*
X179527461Y-135682815D01*
X179481706Y-135630011D01*
X179470500Y-135578500D01*
X179470500Y-135235138D01*
X179490185Y-135168099D01*
X179542989Y-135122344D01*
X179555488Y-135117435D01*
X179637334Y-135090314D01*
X179786656Y-134998212D01*
X179910712Y-134874156D01*
X180002814Y-134724834D01*
X180057999Y-134558297D01*
X180068500Y-134455509D01*
X180068499Y-133680492D01*
X180057999Y-133577703D01*
X180002814Y-133411166D01*
X179910712Y-133261844D01*
X179786656Y-133137788D01*
X179783342Y-133135743D01*
X179781546Y-133133748D01*
X179780989Y-133133307D01*
X179781064Y-133133211D01*
X179736618Y-133083797D01*
X179725397Y-133014834D01*
X179753240Y-132950752D01*
X179783348Y-132924665D01*
X179786342Y-132922818D01*
X179910315Y-132798845D01*
X180002356Y-132649624D01*
X180002358Y-132649619D01*
X180057505Y-132483197D01*
X180057506Y-132483190D01*
X180067999Y-132380486D01*
X180068000Y-132380473D01*
X180068000Y-132243000D01*
X177618001Y-132243000D01*
X177618001Y-132380486D01*
X177628494Y-132483197D01*
X177683641Y-132649619D01*
X177683643Y-132649624D01*
X177775684Y-132798845D01*
X177899655Y-132922816D01*
X177899659Y-132922819D01*
X177902656Y-132924668D01*
X177904279Y-132926472D01*
X177905323Y-132927298D01*
X177905181Y-132927476D01*
X177949381Y-132976616D01*
X177960602Y-133045579D01*
X177932759Y-133109661D01*
X177902661Y-133135741D01*
X177899349Y-133137783D01*
X177899343Y-133137788D01*
X177775287Y-133261844D01*
X177701425Y-133381596D01*
X177649477Y-133428321D01*
X177595886Y-133440500D01*
X175600887Y-133440500D01*
X175533848Y-133420815D01*
X175513206Y-133404181D01*
X175392530Y-133283505D01*
X175359045Y-133222182D01*
X175359638Y-133166875D01*
X175387146Y-133052302D01*
X175406294Y-132809000D01*
X175387146Y-132565698D01*
X175330172Y-132328388D01*
X175330169Y-132328380D01*
X175236777Y-132102910D01*
X175109262Y-131894826D01*
X175109261Y-131894823D01*
X175073453Y-131852897D01*
X174950759Y-131709241D01*
X174829309Y-131605513D01*
X177618000Y-131605513D01*
X177618000Y-131743000D01*
X178593000Y-131743000D01*
X179093000Y-131743000D01*
X180067999Y-131743000D01*
X180067999Y-131605528D01*
X180067998Y-131605513D01*
X180057505Y-131502802D01*
X180002358Y-131336380D01*
X180002356Y-131336375D01*
X179910315Y-131187154D01*
X179786345Y-131063184D01*
X179637124Y-130971143D01*
X179637119Y-130971141D01*
X179470697Y-130915994D01*
X179470690Y-130915993D01*
X179367986Y-130905500D01*
X179093000Y-130905500D01*
X179093000Y-131743000D01*
X178593000Y-131743000D01*
X178593000Y-130905500D01*
X178318029Y-130905500D01*
X178318012Y-130905501D01*
X178215302Y-130915994D01*
X178048880Y-130971141D01*
X178048875Y-130971143D01*
X177899654Y-131063184D01*
X177775684Y-131187154D01*
X177683643Y-131336375D01*
X177683641Y-131336380D01*
X177628494Y-131502802D01*
X177628493Y-131502809D01*
X177618000Y-131605513D01*
X174829309Y-131605513D01*
X174828063Y-131604449D01*
X174765176Y-131550738D01*
X174765173Y-131550737D01*
X174557089Y-131423222D01*
X174331619Y-131329830D01*
X174331613Y-131329828D01*
X174331612Y-131329828D01*
X174094302Y-131272854D01*
X174094300Y-131272853D01*
X174094297Y-131272853D01*
X173851000Y-131253706D01*
X173607702Y-131272853D01*
X173370380Y-131329830D01*
X173144910Y-131423222D01*
X172936826Y-131550737D01*
X172936823Y-131550738D01*
X172751241Y-131709241D01*
X172592738Y-131894823D01*
X172592737Y-131894825D01*
X172531173Y-131995290D01*
X172479362Y-132042165D01*
X172425446Y-132054500D01*
X162776554Y-132054500D01*
X162709515Y-132034815D01*
X162670827Y-131995290D01*
X162609262Y-131894825D01*
X162609261Y-131894823D01*
X162573453Y-131852897D01*
X162450759Y-131709241D01*
X162328063Y-131604449D01*
X162265176Y-131550738D01*
X162265173Y-131550737D01*
X162057089Y-131423222D01*
X161831619Y-131329830D01*
X161831613Y-131329828D01*
X161831612Y-131329828D01*
X161594302Y-131272854D01*
X161594300Y-131272853D01*
X161594297Y-131272853D01*
X161351000Y-131253706D01*
X161107702Y-131272853D01*
X160870380Y-131329830D01*
X160644910Y-131423222D01*
X160436826Y-131550737D01*
X160436823Y-131550738D01*
X160251241Y-131709241D01*
X160092738Y-131894823D01*
X160092737Y-131894826D01*
X159965222Y-132102910D01*
X159871830Y-132328380D01*
X159814853Y-132565702D01*
X159795706Y-132809000D01*
X159814853Y-133052299D01*
X159842361Y-133166878D01*
X159838870Y-133236661D01*
X159809468Y-133283506D01*
X159260943Y-133832030D01*
X159260942Y-133832031D01*
X159178372Y-133955607D01*
X159178366Y-133955618D01*
X159121496Y-134092916D01*
X159121493Y-134092926D01*
X159092499Y-134238685D01*
X159092499Y-134393425D01*
X159092500Y-134393446D01*
X159092500Y-151225552D01*
X159092499Y-151225578D01*
X159092499Y-151311091D01*
X159072814Y-151378130D01*
X159020010Y-151423885D01*
X158950852Y-151433829D01*
X158887296Y-151404804D01*
X158880818Y-151398772D01*
X158181819Y-150699773D01*
X158148334Y-150638450D01*
X158145500Y-150612092D01*
X158145500Y-126711135D01*
X159800500Y-126711135D01*
X159800500Y-128906870D01*
X159800501Y-128906876D01*
X159806908Y-128966483D01*
X159857202Y-129101328D01*
X159857206Y-129101335D01*
X159943452Y-129216544D01*
X159943455Y-129216547D01*
X160058664Y-129302793D01*
X160058671Y-129302797D01*
X160193517Y-129353091D01*
X160193516Y-129353091D01*
X160200444Y-129353835D01*
X160253127Y-129359500D01*
X162448872Y-129359499D01*
X162508483Y-129353091D01*
X162643331Y-129302796D01*
X162758546Y-129216546D01*
X162844796Y-129101331D01*
X162895091Y-128966483D01*
X162901500Y-128906873D01*
X162901500Y-128687500D01*
X162921185Y-128620461D01*
X162973989Y-128574706D01*
X163025500Y-128563500D01*
X172425446Y-128563500D01*
X172492485Y-128583185D01*
X172531173Y-128622710D01*
X172592737Y-128723174D01*
X172592738Y-128723176D01*
X172592741Y-128723179D01*
X172751241Y-128908759D01*
X172894897Y-129031453D01*
X172936823Y-129067261D01*
X172936826Y-129067262D01*
X173144910Y-129194777D01*
X173370381Y-129288169D01*
X173370378Y-129288169D01*
X173370384Y-129288170D01*
X173370388Y-129288172D01*
X173607698Y-129345146D01*
X173851000Y-129364294D01*
X174094302Y-129345146D01*
X174331612Y-129288172D01*
X174557089Y-129194777D01*
X174765179Y-129067259D01*
X174950759Y-128908759D01*
X175109259Y-128723179D01*
X175236777Y-128515089D01*
X175330172Y-128289612D01*
X175387146Y-128052302D01*
X175406294Y-127809000D01*
X175387146Y-127565698D01*
X175330172Y-127328388D01*
X175236777Y-127102911D01*
X175236777Y-127102910D01*
X175109262Y-126894826D01*
X175109261Y-126894823D01*
X175073453Y-126852897D01*
X174950759Y-126709241D01*
X174828063Y-126604449D01*
X174765176Y-126550738D01*
X174765173Y-126550737D01*
X174557089Y-126423222D01*
X174331618Y-126329830D01*
X174331621Y-126329830D01*
X174225992Y-126304470D01*
X174094302Y-126272854D01*
X174094300Y-126272853D01*
X174094297Y-126272853D01*
X173851000Y-126253706D01*
X173607702Y-126272853D01*
X173607698Y-126272854D01*
X173431301Y-126315204D01*
X173370380Y-126329830D01*
X173144910Y-126423222D01*
X172936826Y-126550737D01*
X172936823Y-126550738D01*
X172751241Y-126709241D01*
X172592738Y-126894823D01*
X172592737Y-126894825D01*
X172531173Y-126995290D01*
X172479362Y-127042165D01*
X172425446Y-127054500D01*
X163025499Y-127054500D01*
X162958460Y-127034815D01*
X162912705Y-126982011D01*
X162901499Y-126930500D01*
X162901499Y-126711129D01*
X162901498Y-126711123D01*
X162901497Y-126711116D01*
X162895091Y-126651517D01*
X162844796Y-126516669D01*
X162844795Y-126516668D01*
X162844793Y-126516664D01*
X162758547Y-126401455D01*
X162758544Y-126401452D01*
X162643335Y-126315206D01*
X162643328Y-126315202D01*
X162508482Y-126264908D01*
X162508483Y-126264908D01*
X162448883Y-126258501D01*
X162448881Y-126258500D01*
X162448873Y-126258500D01*
X162448865Y-126258500D01*
X162229500Y-126258500D01*
X162162461Y-126238815D01*
X162116706Y-126186011D01*
X162105500Y-126134500D01*
X162105500Y-123940722D01*
X162125185Y-123873683D01*
X162164401Y-123835184D01*
X162278656Y-123764712D01*
X162372675Y-123670692D01*
X162433994Y-123637210D01*
X162503686Y-123642194D01*
X162548034Y-123670695D01*
X162641654Y-123764315D01*
X162790875Y-123856356D01*
X162790880Y-123856358D01*
X162957302Y-123911505D01*
X162957309Y-123911506D01*
X163060019Y-123921999D01*
X163209999Y-123921999D01*
X163710000Y-123921999D01*
X163859972Y-123921999D01*
X163859986Y-123921998D01*
X163962697Y-123911505D01*
X164129119Y-123856358D01*
X164129124Y-123856356D01*
X164278345Y-123764315D01*
X164402315Y-123640345D01*
X164494356Y-123491124D01*
X164494358Y-123491119D01*
X164549505Y-123324697D01*
X164549506Y-123324690D01*
X164559999Y-123221986D01*
X164560000Y-123221973D01*
X164560000Y-122972000D01*
X163710000Y-122972000D01*
X163710000Y-123921999D01*
X163209999Y-123921999D01*
X163210000Y-123921998D01*
X163210000Y-122472000D01*
X163710000Y-122472000D01*
X164559999Y-122472000D01*
X164559999Y-122222028D01*
X164559998Y-122222013D01*
X164549505Y-122119302D01*
X164494358Y-121952880D01*
X164494356Y-121952875D01*
X164402315Y-121803654D01*
X164278345Y-121679684D01*
X164129124Y-121587643D01*
X164129119Y-121587641D01*
X163962697Y-121532494D01*
X163962690Y-121532493D01*
X163859986Y-121522000D01*
X163710000Y-121522000D01*
X163710000Y-122472000D01*
X163210000Y-122472000D01*
X163210000Y-121522000D01*
X163060027Y-121522000D01*
X163060012Y-121522001D01*
X162957302Y-121532494D01*
X162790880Y-121587641D01*
X162790875Y-121587643D01*
X162641657Y-121679682D01*
X162548034Y-121773305D01*
X162486710Y-121806789D01*
X162417019Y-121801805D01*
X162372672Y-121773304D01*
X162278657Y-121679289D01*
X162278656Y-121679288D01*
X162129334Y-121587186D01*
X161962797Y-121532001D01*
X161962795Y-121532000D01*
X161860010Y-121521500D01*
X161059998Y-121521500D01*
X161059980Y-121521501D01*
X160957203Y-121532000D01*
X160957200Y-121532001D01*
X160790668Y-121587185D01*
X160790663Y-121587187D01*
X160641342Y-121679289D01*
X160517289Y-121803342D01*
X160425187Y-121952663D01*
X160425185Y-121952668D01*
X160425115Y-121952880D01*
X160370001Y-122119203D01*
X160370001Y-122119204D01*
X160370000Y-122119204D01*
X160359500Y-122221983D01*
X160359500Y-123222001D01*
X160359501Y-123222019D01*
X160370000Y-123324796D01*
X160370001Y-123324799D01*
X160425115Y-123491119D01*
X160425186Y-123491334D01*
X160517096Y-123640345D01*
X160517289Y-123640657D01*
X160560181Y-123683549D01*
X160593666Y-123744872D01*
X160596500Y-123771230D01*
X160596500Y-126134500D01*
X160576815Y-126201539D01*
X160524011Y-126247294D01*
X160472501Y-126258500D01*
X160253130Y-126258500D01*
X160253123Y-126258501D01*
X160193516Y-126264908D01*
X160058671Y-126315202D01*
X160058664Y-126315206D01*
X159943455Y-126401452D01*
X159943452Y-126401455D01*
X159857206Y-126516664D01*
X159857202Y-126516671D01*
X159806908Y-126651517D01*
X159800703Y-126709241D01*
X159800501Y-126711123D01*
X159800500Y-126711135D01*
X158145500Y-126711135D01*
X158145500Y-120187711D01*
X165750500Y-120187711D01*
X165750500Y-120430288D01*
X165782161Y-120670785D01*
X165844947Y-120905104D01*
X165890751Y-121015684D01*
X165937776Y-121129212D01*
X166059064Y-121339289D01*
X166059066Y-121339292D01*
X166059067Y-121339293D01*
X166206733Y-121531736D01*
X166206739Y-121531743D01*
X166378256Y-121703260D01*
X166378262Y-121703265D01*
X166570711Y-121850936D01*
X166780788Y-121972224D01*
X167004900Y-122065054D01*
X167239211Y-122127838D01*
X167419586Y-122151584D01*
X167479711Y-122159500D01*
X167479712Y-122159500D01*
X167722289Y-122159500D01*
X167770388Y-122153167D01*
X167962789Y-122127838D01*
X168197100Y-122065054D01*
X168421212Y-121972224D01*
X168631289Y-121850936D01*
X168823738Y-121703265D01*
X168995265Y-121531738D01*
X169142936Y-121339289D01*
X169264224Y-121129212D01*
X169357054Y-120905100D01*
X169419838Y-120670789D01*
X169451500Y-120430288D01*
X169451500Y-120187712D01*
X169419838Y-119947211D01*
X169357054Y-119712900D01*
X169264224Y-119488788D01*
X169142936Y-119278711D01*
X168995265Y-119086262D01*
X168995260Y-119086256D01*
X168823743Y-118914739D01*
X168823736Y-118914733D01*
X168631293Y-118767067D01*
X168631292Y-118767066D01*
X168631289Y-118767064D01*
X168421212Y-118645776D01*
X168421205Y-118645773D01*
X168197104Y-118552947D01*
X167962785Y-118490161D01*
X167722289Y-118458500D01*
X167722288Y-118458500D01*
X167479712Y-118458500D01*
X167479711Y-118458500D01*
X167239214Y-118490161D01*
X167004895Y-118552947D01*
X166780794Y-118645773D01*
X166780785Y-118645777D01*
X166570706Y-118767067D01*
X166378263Y-118914733D01*
X166378256Y-118914739D01*
X166206739Y-119086256D01*
X166206733Y-119086263D01*
X166059067Y-119278706D01*
X165937777Y-119488785D01*
X165937773Y-119488794D01*
X165844947Y-119712895D01*
X165782161Y-119947214D01*
X165750500Y-120187711D01*
X158145500Y-120187711D01*
X158145500Y-118861194D01*
X158121386Y-118739970D01*
X158121385Y-118739969D01*
X158121385Y-118739965D01*
X158110902Y-118714656D01*
X158074086Y-118625773D01*
X158074079Y-118625760D01*
X158005412Y-118522993D01*
X157972580Y-118490161D01*
X157918008Y-118435589D01*
X157727818Y-118245399D01*
X157694333Y-118184076D01*
X157691499Y-118157718D01*
X157691499Y-117495998D01*
X157691498Y-117495981D01*
X157680999Y-117393203D01*
X157680998Y-117393200D01*
X157625814Y-117226666D01*
X157533712Y-117077344D01*
X157409656Y-116953288D01*
X157260334Y-116861186D01*
X157093797Y-116806001D01*
X157093795Y-116806000D01*
X156991010Y-116795500D01*
X155990998Y-116795500D01*
X155990980Y-116795501D01*
X155888203Y-116806000D01*
X155888200Y-116806001D01*
X155721668Y-116861185D01*
X155721663Y-116861187D01*
X155572342Y-116953289D01*
X155507451Y-117018181D01*
X155446128Y-117051666D01*
X155419770Y-117054500D01*
X155276554Y-117054500D01*
X155209515Y-117034815D01*
X155170827Y-116995290D01*
X155109262Y-116894825D01*
X155109261Y-116894823D01*
X155073453Y-116852897D01*
X154950759Y-116709241D01*
X154802265Y-116582415D01*
X154765176Y-116550738D01*
X154765173Y-116550737D01*
X154557089Y-116423222D01*
X154331618Y-116329830D01*
X154331621Y-116329830D01*
X154225992Y-116304470D01*
X154094302Y-116272854D01*
X154094300Y-116272853D01*
X154094297Y-116272853D01*
X153851000Y-116253706D01*
X153607702Y-116272853D01*
X153607698Y-116272854D01*
X153431301Y-116315204D01*
X153370380Y-116329830D01*
X153144910Y-116423222D01*
X152936826Y-116550737D01*
X152936823Y-116550738D01*
X152751241Y-116709241D01*
X152592738Y-116894823D01*
X152592737Y-116894825D01*
X152531173Y-116995290D01*
X152479362Y-117042165D01*
X152425446Y-117054500D01*
X143025499Y-117054500D01*
X142958460Y-117034815D01*
X142912705Y-116982011D01*
X142901499Y-116930500D01*
X142901499Y-116711129D01*
X142901498Y-116711123D01*
X142895091Y-116651516D01*
X142844797Y-116516671D01*
X142844793Y-116516664D01*
X142758547Y-116401455D01*
X142758544Y-116401452D01*
X142643335Y-116315206D01*
X142643328Y-116315202D01*
X142508482Y-116264908D01*
X142508483Y-116264908D01*
X142448883Y-116258501D01*
X142448881Y-116258500D01*
X142448873Y-116258500D01*
X142448864Y-116258500D01*
X140253129Y-116258500D01*
X140253123Y-116258501D01*
X140193516Y-116264908D01*
X140058671Y-116315202D01*
X140058664Y-116315206D01*
X139943455Y-116401452D01*
X139943452Y-116401455D01*
X139857206Y-116516664D01*
X139857202Y-116516671D01*
X139832682Y-116582415D01*
X139790811Y-116638349D01*
X139725347Y-116662766D01*
X139657074Y-116647915D01*
X139607668Y-116598509D01*
X139592500Y-116539082D01*
X139592500Y-113821500D01*
X139612185Y-113754461D01*
X139664989Y-113708706D01*
X139716500Y-113697500D01*
X186467500Y-113697500D01*
X186534539Y-113717185D01*
G37*
G04 #@! TD.AperFunction*
G04 #@! TA.AperFunction,Conductor*
G36*
X172492485Y-133583185D02*
G01*
X172531173Y-133622710D01*
X172592737Y-133723174D01*
X172592738Y-133723176D01*
X172592741Y-133723179D01*
X172751241Y-133908759D01*
X172894897Y-134031453D01*
X172936823Y-134067261D01*
X172936826Y-134067262D01*
X173144910Y-134194777D01*
X173370381Y-134288169D01*
X173370378Y-134288169D01*
X173370384Y-134288170D01*
X173370388Y-134288172D01*
X173607698Y-134345146D01*
X173851000Y-134364294D01*
X174094302Y-134345146D01*
X174208875Y-134317638D01*
X174278657Y-134321127D01*
X174325505Y-134350530D01*
X174756030Y-134781056D01*
X174756031Y-134781057D01*
X174756034Y-134781059D01*
X174879611Y-134863630D01*
X174960043Y-134896945D01*
X174960044Y-134896946D01*
X174983603Y-134906704D01*
X175016920Y-134920505D01*
X175016929Y-134920506D01*
X175016930Y-134920507D01*
X175041103Y-134925315D01*
X175041110Y-134925316D01*
X175162686Y-134949501D01*
X175162688Y-134949501D01*
X175317426Y-134949501D01*
X175317446Y-134949500D01*
X177799270Y-134949500D01*
X177866309Y-134969185D01*
X177886951Y-134985819D01*
X177899345Y-134998213D01*
X177902594Y-135000217D01*
X177904354Y-135002174D01*
X177905013Y-135002695D01*
X177904924Y-135002807D01*
X177949320Y-135052163D01*
X177961500Y-135105757D01*
X177961500Y-135578500D01*
X177941815Y-135645539D01*
X177889011Y-135691294D01*
X177837506Y-135702500D01*
X177821001Y-135702500D01*
X177820980Y-135702501D01*
X177718203Y-135713000D01*
X177718200Y-135713001D01*
X177551668Y-135768185D01*
X177551663Y-135768187D01*
X177402342Y-135860289D01*
X177278289Y-135984342D01*
X177186187Y-136133663D01*
X177186185Y-136133668D01*
X177158349Y-136217670D01*
X177131001Y-136300203D01*
X177131001Y-136300204D01*
X177131000Y-136300204D01*
X177120500Y-136402983D01*
X177120500Y-137743001D01*
X177120501Y-137743018D01*
X177131000Y-137845796D01*
X177131001Y-137845799D01*
X177186185Y-138012331D01*
X177186186Y-138012334D01*
X177278288Y-138161656D01*
X177402344Y-138285712D01*
X177551666Y-138377814D01*
X177551667Y-138377814D01*
X177551670Y-138377816D01*
X177552828Y-138378356D01*
X177553488Y-138378937D01*
X177557813Y-138381605D01*
X177557357Y-138382343D01*
X177605268Y-138424527D01*
X177624422Y-138491720D01*
X177604208Y-138558601D01*
X177588108Y-138578420D01*
X177446022Y-138720506D01*
X177319271Y-138894963D01*
X177221372Y-139087098D01*
X177154733Y-139292190D01*
X177143519Y-139363000D01*
X178173291Y-139363000D01*
X178161548Y-139383339D01*
X178121000Y-139534667D01*
X178121000Y-139691333D01*
X178161548Y-139842661D01*
X178173291Y-139863000D01*
X177143519Y-139863000D01*
X177154733Y-139933809D01*
X177221372Y-140138901D01*
X177319271Y-140331036D01*
X177446025Y-140505496D01*
X177446025Y-140505497D01*
X177598502Y-140657974D01*
X177769720Y-140782372D01*
X177812385Y-140837702D01*
X177818364Y-140907316D01*
X177785758Y-140969110D01*
X177769720Y-140983008D01*
X177598177Y-141107642D01*
X177445643Y-141260176D01*
X177445643Y-141260177D01*
X177445641Y-141260179D01*
X177416447Y-141300361D01*
X177318843Y-141434700D01*
X177220909Y-141626908D01*
X177154245Y-141832077D01*
X177120500Y-142045133D01*
X177120500Y-142260866D01*
X177139939Y-142383597D01*
X177154246Y-142473926D01*
X177220908Y-142679089D01*
X177318843Y-142871299D01*
X177445641Y-143045821D01*
X177598179Y-143198359D01*
X177647788Y-143234402D01*
X177769294Y-143322682D01*
X177811959Y-143378012D01*
X177817938Y-143447626D01*
X177785332Y-143509421D01*
X177769294Y-143523318D01*
X177598179Y-143647641D01*
X177598177Y-143647643D01*
X177598176Y-143647643D01*
X177445643Y-143800176D01*
X177445643Y-143800177D01*
X177445641Y-143800179D01*
X177391186Y-143875129D01*
X177318843Y-143974700D01*
X177220909Y-144166908D01*
X177154245Y-144372077D01*
X177120500Y-144585133D01*
X177120500Y-144800866D01*
X177151921Y-144999249D01*
X177154246Y-145013926D01*
X177220908Y-145219089D01*
X177318843Y-145411299D01*
X177445641Y-145585821D01*
X177598179Y-145738359D01*
X177719454Y-145826471D01*
X177769294Y-145862682D01*
X177811959Y-145918012D01*
X177817938Y-145987626D01*
X177785332Y-146049421D01*
X177769294Y-146063318D01*
X177598179Y-146187641D01*
X177598177Y-146187643D01*
X177598176Y-146187643D01*
X177445643Y-146340176D01*
X177445643Y-146340177D01*
X177445641Y-146340179D01*
X177401122Y-146401454D01*
X177318843Y-146514700D01*
X177220909Y-146706908D01*
X177220908Y-146706910D01*
X177220908Y-146706911D01*
X177191974Y-146795960D01*
X177154245Y-146912077D01*
X177120500Y-147125133D01*
X177120500Y-147340866D01*
X177154245Y-147553922D01*
X177154245Y-147553923D01*
X177217433Y-147748397D01*
X177219428Y-147818239D01*
X177187183Y-147874396D01*
X176656425Y-148405156D01*
X176537992Y-148523589D01*
X176498081Y-148563500D01*
X176450586Y-148610994D01*
X176450585Y-148610996D01*
X176381920Y-148713760D01*
X176381916Y-148713768D01*
X176377393Y-148724689D01*
X176334614Y-148827964D01*
X176334612Y-148827972D01*
X176315999Y-148921548D01*
X176310500Y-148949192D01*
X176310500Y-153301500D01*
X176290815Y-153368539D01*
X176238011Y-153414294D01*
X176186501Y-153425500D01*
X176090130Y-153425500D01*
X176090123Y-153425501D01*
X176030516Y-153431908D01*
X175895671Y-153482202D01*
X175895664Y-153482206D01*
X175780455Y-153568452D01*
X175780452Y-153568455D01*
X175694206Y-153683664D01*
X175694202Y-153683671D01*
X175643908Y-153818517D01*
X175637501Y-153878116D01*
X175637500Y-153878135D01*
X175637500Y-155573870D01*
X175637501Y-155573876D01*
X175643908Y-155633483D01*
X175694202Y-155768328D01*
X175694206Y-155768335D01*
X175780452Y-155883544D01*
X175780453Y-155883544D01*
X175780454Y-155883546D01*
X175797649Y-155896418D01*
X175798071Y-155896734D01*
X175839941Y-155952668D01*
X175844925Y-156022360D01*
X175811439Y-156083683D01*
X175798071Y-156095266D01*
X175780452Y-156108455D01*
X175694206Y-156223664D01*
X175694202Y-156223671D01*
X175643908Y-156358517D01*
X175639292Y-156401455D01*
X175637501Y-156418123D01*
X175637500Y-156418135D01*
X175637500Y-158113870D01*
X175637501Y-158113876D01*
X175643908Y-158173483D01*
X175694202Y-158308328D01*
X175694206Y-158308335D01*
X175780452Y-158423544D01*
X175780453Y-158423544D01*
X175780454Y-158423546D01*
X175797758Y-158436500D01*
X175798071Y-158436734D01*
X175839941Y-158492668D01*
X175844925Y-158562360D01*
X175811439Y-158623683D01*
X175798071Y-158635266D01*
X175780452Y-158648455D01*
X175694206Y-158763664D01*
X175694202Y-158763671D01*
X175643908Y-158898517D01*
X175637501Y-158958116D01*
X175637501Y-158958123D01*
X175637500Y-158958135D01*
X175637500Y-159054500D01*
X175617815Y-159121539D01*
X175565011Y-159167294D01*
X175513500Y-159178500D01*
X166711908Y-159178500D01*
X166644869Y-159158815D01*
X166624227Y-159142181D01*
X161919424Y-154437378D01*
X161885939Y-154376055D01*
X161890923Y-154306363D01*
X161932795Y-154250430D01*
X161959653Y-154235136D01*
X162057089Y-154194777D01*
X162265179Y-154067259D01*
X162450759Y-153908759D01*
X162609259Y-153723179D01*
X162670827Y-153622710D01*
X162722638Y-153575835D01*
X162776554Y-153563500D01*
X172425446Y-153563500D01*
X172492485Y-153583185D01*
X172531173Y-153622710D01*
X172592737Y-153723174D01*
X172592738Y-153723176D01*
X172592741Y-153723179D01*
X172751241Y-153908759D01*
X172894897Y-154031453D01*
X172936823Y-154067261D01*
X172936826Y-154067262D01*
X173144910Y-154194777D01*
X173370381Y-154288169D01*
X173370378Y-154288169D01*
X173370384Y-154288170D01*
X173370388Y-154288172D01*
X173607698Y-154345146D01*
X173851000Y-154364294D01*
X174094302Y-154345146D01*
X174331612Y-154288172D01*
X174557089Y-154194777D01*
X174765179Y-154067259D01*
X174950759Y-153908759D01*
X175109259Y-153723179D01*
X175236777Y-153515089D01*
X175330172Y-153289612D01*
X175387146Y-153052302D01*
X175406294Y-152809000D01*
X175387146Y-152565698D01*
X175330172Y-152328388D01*
X175326747Y-152320119D01*
X175236777Y-152102910D01*
X175109262Y-151894826D01*
X175109261Y-151894823D01*
X175029128Y-151801000D01*
X174950759Y-151709241D01*
X174828063Y-151604449D01*
X174765176Y-151550738D01*
X174765173Y-151550737D01*
X174557089Y-151423222D01*
X174331618Y-151329830D01*
X174331621Y-151329830D01*
X174194334Y-151296870D01*
X174094302Y-151272854D01*
X174094300Y-151272853D01*
X174094297Y-151272853D01*
X173851000Y-151253706D01*
X173607702Y-151272853D01*
X173607698Y-151272854D01*
X173376020Y-151328476D01*
X173370380Y-151329830D01*
X173144910Y-151423222D01*
X172936826Y-151550737D01*
X172936823Y-151550738D01*
X172751241Y-151709241D01*
X172592738Y-151894823D01*
X172592737Y-151894825D01*
X172531173Y-151995290D01*
X172479362Y-152042165D01*
X172425446Y-152054500D01*
X162776554Y-152054500D01*
X162709515Y-152034815D01*
X162670827Y-151995290D01*
X162609262Y-151894825D01*
X162609261Y-151894823D01*
X162529128Y-151801000D01*
X162450759Y-151709241D01*
X162328063Y-151604449D01*
X162265176Y-151550738D01*
X162265173Y-151550737D01*
X162057089Y-151423222D01*
X161831618Y-151329830D01*
X161831621Y-151329830D01*
X161694334Y-151296870D01*
X161594302Y-151272854D01*
X161594300Y-151272853D01*
X161594297Y-151272853D01*
X161351000Y-151253706D01*
X161107700Y-151272853D01*
X160993121Y-151300361D01*
X160923338Y-151296870D01*
X160876493Y-151267468D01*
X160637819Y-151028794D01*
X160604334Y-150967471D01*
X160601500Y-150941113D01*
X160601500Y-149483499D01*
X160621185Y-149416460D01*
X160673989Y-149370705D01*
X160725500Y-149359499D01*
X162448871Y-149359499D01*
X162448872Y-149359499D01*
X162508483Y-149353091D01*
X162643331Y-149302796D01*
X162758546Y-149216546D01*
X162844796Y-149101331D01*
X162895091Y-148966483D01*
X162901500Y-148906873D01*
X162901500Y-148687500D01*
X162921185Y-148620461D01*
X162973989Y-148574706D01*
X163025500Y-148563500D01*
X172425446Y-148563500D01*
X172492485Y-148583185D01*
X172531173Y-148622710D01*
X172592737Y-148723174D01*
X172592738Y-148723176D01*
X172646449Y-148786063D01*
X172751241Y-148908759D01*
X172846950Y-148990502D01*
X172936823Y-149067261D01*
X172936826Y-149067262D01*
X173144910Y-149194777D01*
X173370381Y-149288169D01*
X173370378Y-149288169D01*
X173370384Y-149288170D01*
X173370388Y-149288172D01*
X173607698Y-149345146D01*
X173851000Y-149364294D01*
X174094302Y-149345146D01*
X174331612Y-149288172D01*
X174557089Y-149194777D01*
X174765179Y-149067259D01*
X174950759Y-148908759D01*
X175109259Y-148723179D01*
X175236777Y-148515089D01*
X175330172Y-148289612D01*
X175387146Y-148052302D01*
X175406294Y-147809000D01*
X175387146Y-147565698D01*
X175330172Y-147328388D01*
X175236777Y-147102911D01*
X175236777Y-147102910D01*
X175109262Y-146894826D01*
X175109261Y-146894823D01*
X175024828Y-146795965D01*
X174950759Y-146709241D01*
X174798257Y-146578992D01*
X174765176Y-146550738D01*
X174765173Y-146550737D01*
X174557089Y-146423222D01*
X174331618Y-146329830D01*
X174331621Y-146329830D01*
X174225992Y-146304470D01*
X174094302Y-146272854D01*
X174094300Y-146272853D01*
X174094297Y-146272853D01*
X173851000Y-146253706D01*
X173607702Y-146272853D01*
X173607698Y-146272854D01*
X173431301Y-146315204D01*
X173370380Y-146329830D01*
X173144910Y-146423222D01*
X172936826Y-146550737D01*
X172936823Y-146550738D01*
X172751241Y-146709241D01*
X172592738Y-146894823D01*
X172592737Y-146894825D01*
X172531173Y-146995290D01*
X172479362Y-147042165D01*
X172425446Y-147054500D01*
X163025499Y-147054500D01*
X162958460Y-147034815D01*
X162912705Y-146982011D01*
X162901499Y-146930500D01*
X162901499Y-146711129D01*
X162901498Y-146711123D01*
X162901045Y-146706911D01*
X162895091Y-146651517D01*
X162868041Y-146578993D01*
X162844797Y-146516671D01*
X162844793Y-146516664D01*
X162758547Y-146401455D01*
X162758544Y-146401452D01*
X162643335Y-146315206D01*
X162643328Y-146315202D01*
X162508482Y-146264908D01*
X162508483Y-146264908D01*
X162448883Y-146258501D01*
X162448881Y-146258500D01*
X162448873Y-146258500D01*
X162448865Y-146258500D01*
X161814500Y-146258500D01*
X161747461Y-146238815D01*
X161701706Y-146186011D01*
X161690500Y-146134500D01*
X161690500Y-142288490D01*
X161710185Y-142221451D01*
X161749408Y-142182948D01*
X161754656Y-142179712D01*
X161848675Y-142085692D01*
X161909994Y-142052210D01*
X161979686Y-142057194D01*
X162024034Y-142085695D01*
X162117654Y-142179315D01*
X162266875Y-142271356D01*
X162266880Y-142271358D01*
X162433302Y-142326505D01*
X162433309Y-142326506D01*
X162536019Y-142336999D01*
X162685999Y-142336999D01*
X163186000Y-142336999D01*
X163335972Y-142336999D01*
X163335986Y-142336998D01*
X163438697Y-142326505D01*
X163605119Y-142271358D01*
X163605124Y-142271356D01*
X163754345Y-142179315D01*
X163878315Y-142055345D01*
X163970356Y-141906124D01*
X163970358Y-141906119D01*
X164025505Y-141739697D01*
X164025506Y-141739690D01*
X164035999Y-141636986D01*
X164036000Y-141636973D01*
X164036000Y-141387000D01*
X163186000Y-141387000D01*
X163186000Y-142336999D01*
X162685999Y-142336999D01*
X162686000Y-142336998D01*
X162686000Y-140887000D01*
X163186000Y-140887000D01*
X164035999Y-140887000D01*
X164035999Y-140637028D01*
X164035998Y-140637013D01*
X164025505Y-140534302D01*
X163970358Y-140367880D01*
X163970356Y-140367875D01*
X163878315Y-140218654D01*
X163754345Y-140094684D01*
X163605124Y-140002643D01*
X163605119Y-140002641D01*
X163438697Y-139947494D01*
X163438690Y-139947493D01*
X163335986Y-139937000D01*
X163186000Y-139937000D01*
X163186000Y-140887000D01*
X162686000Y-140887000D01*
X162686000Y-139937000D01*
X162536027Y-139937000D01*
X162536012Y-139937001D01*
X162433302Y-139947494D01*
X162266880Y-140002641D01*
X162266875Y-140002643D01*
X162117657Y-140094682D01*
X162024034Y-140188305D01*
X161962710Y-140221789D01*
X161893019Y-140216805D01*
X161848672Y-140188304D01*
X161754657Y-140094289D01*
X161754656Y-140094288D01*
X161605334Y-140002186D01*
X161438797Y-139947001D01*
X161438795Y-139947000D01*
X161336016Y-139936500D01*
X161336009Y-139936500D01*
X160725500Y-139936500D01*
X160658461Y-139916815D01*
X160612706Y-139864011D01*
X160601500Y-139812500D01*
X160601500Y-134676885D01*
X160621185Y-134609846D01*
X160637815Y-134589208D01*
X160876494Y-134350528D01*
X160937815Y-134317045D01*
X160993118Y-134317636D01*
X161107698Y-134345146D01*
X161351000Y-134364294D01*
X161594302Y-134345146D01*
X161831612Y-134288172D01*
X162057089Y-134194777D01*
X162265179Y-134067259D01*
X162450759Y-133908759D01*
X162609259Y-133723179D01*
X162670827Y-133622710D01*
X162722638Y-133575835D01*
X162776554Y-133563500D01*
X172425446Y-133563500D01*
X172492485Y-133583185D01*
G37*
G04 #@! TD.AperFunction*
G04 #@! TA.AperFunction,Conductor*
G36*
X152492485Y-118583185D02*
G01*
X152531173Y-118622710D01*
X152592737Y-118723174D01*
X152592738Y-118723176D01*
X152607082Y-118739970D01*
X152751241Y-118908759D01*
X152839377Y-118984034D01*
X152936823Y-119067261D01*
X152936826Y-119067262D01*
X153144910Y-119194777D01*
X153370381Y-119288169D01*
X153370378Y-119288169D01*
X153370384Y-119288170D01*
X153370388Y-119288172D01*
X153607698Y-119345146D01*
X153851000Y-119364294D01*
X154094302Y-119345146D01*
X154331612Y-119288172D01*
X154557089Y-119194777D01*
X154765179Y-119067259D01*
X154950759Y-118908759D01*
X155109259Y-118723179D01*
X155170827Y-118622710D01*
X155222638Y-118575835D01*
X155276554Y-118563500D01*
X155285848Y-118563500D01*
X155352887Y-118583185D01*
X155391387Y-118622404D01*
X155448287Y-118714655D01*
X155542304Y-118808672D01*
X155575789Y-118869995D01*
X155570805Y-118939687D01*
X155542305Y-118984034D01*
X155448682Y-119077657D01*
X155356643Y-119226875D01*
X155356641Y-119226880D01*
X155301494Y-119393302D01*
X155301493Y-119393309D01*
X155291000Y-119496013D01*
X155291000Y-119646000D01*
X156367000Y-119646000D01*
X156434039Y-119665685D01*
X156479794Y-119718489D01*
X156491000Y-119770000D01*
X156491000Y-119896000D01*
X156617000Y-119896000D01*
X156684039Y-119915685D01*
X156729794Y-119968489D01*
X156741000Y-120020000D01*
X156741000Y-120995999D01*
X156766500Y-120995999D01*
X156833539Y-121015684D01*
X156879294Y-121068488D01*
X156890500Y-121119999D01*
X156890500Y-131044650D01*
X156870815Y-131111689D01*
X156818011Y-131157444D01*
X156748853Y-131167388D01*
X156685297Y-131138363D01*
X156660962Y-131109747D01*
X156639319Y-131074659D01*
X156639316Y-131074655D01*
X156515345Y-130950684D01*
X156366124Y-130858643D01*
X156366119Y-130858641D01*
X156199697Y-130803494D01*
X156199690Y-130803493D01*
X156096986Y-130793000D01*
X155947000Y-130793000D01*
X155947000Y-133192999D01*
X156096972Y-133192999D01*
X156096986Y-133192998D01*
X156199697Y-133182505D01*
X156366119Y-133127358D01*
X156366124Y-133127356D01*
X156515345Y-133035315D01*
X156639317Y-132911343D01*
X156660961Y-132876253D01*
X156712908Y-132829528D01*
X156781871Y-132818305D01*
X156845953Y-132846148D01*
X156884810Y-132904217D01*
X156890500Y-132941349D01*
X156890500Y-149751144D01*
X156870815Y-149818183D01*
X156818011Y-149863938D01*
X156748853Y-149873882D01*
X156685297Y-149844857D01*
X156678819Y-149838825D01*
X155891819Y-149051825D01*
X155858334Y-148990502D01*
X155855500Y-148964144D01*
X155855500Y-139124194D01*
X155831386Y-139002970D01*
X155831385Y-139002969D01*
X155831385Y-139002965D01*
X155816274Y-138966483D01*
X155784086Y-138888773D01*
X155784079Y-138888760D01*
X155715412Y-138785993D01*
X155715411Y-138785992D01*
X155628008Y-138698589D01*
X155356206Y-138426787D01*
X155322721Y-138365464D01*
X155327705Y-138295772D01*
X155329311Y-138291689D01*
X155330172Y-138289612D01*
X155387146Y-138052302D01*
X155406294Y-137809000D01*
X155387146Y-137565698D01*
X155330172Y-137328388D01*
X155236777Y-137102911D01*
X155236777Y-137102910D01*
X155109262Y-136894826D01*
X155109261Y-136894823D01*
X155073453Y-136852897D01*
X154950759Y-136709241D01*
X154802967Y-136583015D01*
X154765176Y-136550738D01*
X154765173Y-136550737D01*
X154557094Y-136423226D01*
X154557093Y-136423225D01*
X154557089Y-136423223D01*
X154528044Y-136411192D01*
X154473642Y-136367349D01*
X154451579Y-136301055D01*
X154451500Y-136296632D01*
X154451500Y-133144490D01*
X154471185Y-133077451D01*
X154510408Y-133038948D01*
X154515656Y-133035712D01*
X154609675Y-132941692D01*
X154670994Y-132908210D01*
X154740686Y-132913194D01*
X154785034Y-132941695D01*
X154878654Y-133035315D01*
X155027875Y-133127356D01*
X155027880Y-133127358D01*
X155194302Y-133182505D01*
X155194309Y-133182506D01*
X155297019Y-133192999D01*
X155446999Y-133192999D01*
X155447000Y-133192998D01*
X155447000Y-130793000D01*
X155297027Y-130793000D01*
X155297012Y-130793001D01*
X155194302Y-130803494D01*
X155027880Y-130858641D01*
X155027875Y-130858643D01*
X154878657Y-130950682D01*
X154785034Y-131044305D01*
X154723710Y-131077789D01*
X154654019Y-131072805D01*
X154609672Y-131044304D01*
X154515657Y-130950289D01*
X154515656Y-130950288D01*
X154366334Y-130858186D01*
X154199797Y-130803001D01*
X154199795Y-130803000D01*
X154097010Y-130792500D01*
X153296998Y-130792500D01*
X153296980Y-130792501D01*
X153194203Y-130803000D01*
X153194200Y-130803001D01*
X153027668Y-130858185D01*
X153027663Y-130858187D01*
X152878342Y-130950289D01*
X152754289Y-131074342D01*
X152662187Y-131223663D01*
X152662185Y-131223668D01*
X152645887Y-131272853D01*
X152607001Y-131390203D01*
X152607001Y-131390204D01*
X152607000Y-131390204D01*
X152596500Y-131492983D01*
X152596500Y-132493001D01*
X152596501Y-132493019D01*
X152607000Y-132595796D01*
X152607001Y-132595799D01*
X152662185Y-132762331D01*
X152662186Y-132762334D01*
X152754288Y-132911656D01*
X152878344Y-133035712D01*
X152883591Y-133038948D01*
X152930318Y-133090892D01*
X152942500Y-133144490D01*
X152942500Y-136488725D01*
X152922815Y-136555764D01*
X152899032Y-136583015D01*
X152751241Y-136709241D01*
X152592738Y-136894823D01*
X152592737Y-136894825D01*
X152531173Y-136995290D01*
X152479362Y-137042165D01*
X152425446Y-137054500D01*
X143025499Y-137054500D01*
X142958460Y-137034815D01*
X142912705Y-136982011D01*
X142901499Y-136930500D01*
X142901499Y-136711129D01*
X142901498Y-136711123D01*
X142895091Y-136651516D01*
X142844797Y-136516671D01*
X142844793Y-136516664D01*
X142758547Y-136401455D01*
X142758544Y-136401452D01*
X142643335Y-136315206D01*
X142643328Y-136315202D01*
X142508482Y-136264908D01*
X142508483Y-136264908D01*
X142448883Y-136258501D01*
X142448881Y-136258500D01*
X142448873Y-136258500D01*
X142448865Y-136258500D01*
X140725500Y-136258500D01*
X140658461Y-136238815D01*
X140612706Y-136186011D01*
X140601500Y-136134500D01*
X140601500Y-124676885D01*
X140621185Y-124609846D01*
X140637815Y-124589208D01*
X140876494Y-124350528D01*
X140937815Y-124317045D01*
X140993118Y-124317636D01*
X141107698Y-124345146D01*
X141351000Y-124364294D01*
X141594302Y-124345146D01*
X141831612Y-124288172D01*
X142057089Y-124194777D01*
X142265179Y-124067259D01*
X142450759Y-123908759D01*
X142609259Y-123723179D01*
X142659829Y-123640657D01*
X142670827Y-123622710D01*
X142722638Y-123575835D01*
X142776554Y-123563500D01*
X152425446Y-123563500D01*
X152492485Y-123583185D01*
X152531173Y-123622710D01*
X152592737Y-123723174D01*
X152592738Y-123723176D01*
X152627874Y-123764315D01*
X152751241Y-123908759D01*
X152894897Y-124031453D01*
X152936823Y-124067261D01*
X152936826Y-124067262D01*
X153144910Y-124194777D01*
X153370381Y-124288169D01*
X153370378Y-124288169D01*
X153370384Y-124288170D01*
X153370388Y-124288172D01*
X153607698Y-124345146D01*
X153851000Y-124364294D01*
X154094302Y-124345146D01*
X154331612Y-124288172D01*
X154557089Y-124194777D01*
X154765179Y-124067259D01*
X154950759Y-123908759D01*
X155109259Y-123723179D01*
X155236777Y-123515089D01*
X155330172Y-123289612D01*
X155387146Y-123052302D01*
X155406294Y-122809000D01*
X155387146Y-122565698D01*
X155330172Y-122328388D01*
X155286117Y-122222028D01*
X155236777Y-122102910D01*
X155109262Y-121894826D01*
X155109261Y-121894823D01*
X155071774Y-121850932D01*
X154950759Y-121709241D01*
X154808386Y-121587643D01*
X154765176Y-121550738D01*
X154765173Y-121550737D01*
X154557089Y-121423222D01*
X154331618Y-121329830D01*
X154331621Y-121329830D01*
X154225992Y-121304470D01*
X154094302Y-121272854D01*
X154094300Y-121272853D01*
X154094297Y-121272853D01*
X153851000Y-121253706D01*
X153607702Y-121272853D01*
X153370380Y-121329830D01*
X153144910Y-121423222D01*
X152936826Y-121550737D01*
X152936823Y-121550738D01*
X152751241Y-121709241D01*
X152592738Y-121894823D01*
X152592737Y-121894825D01*
X152531173Y-121995290D01*
X152479362Y-122042165D01*
X152425446Y-122054500D01*
X142776554Y-122054500D01*
X142709515Y-122034815D01*
X142670827Y-121995290D01*
X142609262Y-121894825D01*
X142609261Y-121894823D01*
X142571774Y-121850932D01*
X142450759Y-121709241D01*
X142308386Y-121587643D01*
X142265176Y-121550738D01*
X142265173Y-121550737D01*
X142057089Y-121423222D01*
X141831618Y-121329830D01*
X141831621Y-121329830D01*
X141725992Y-121304470D01*
X141594302Y-121272854D01*
X141594300Y-121272853D01*
X141594297Y-121272853D01*
X141351000Y-121253706D01*
X141107702Y-121272853D01*
X140870380Y-121329830D01*
X140644910Y-121423222D01*
X140436826Y-121550737D01*
X140436823Y-121550738D01*
X140251241Y-121709241D01*
X140092738Y-121894823D01*
X140092737Y-121894826D01*
X139965222Y-122102910D01*
X139871830Y-122328380D01*
X139871828Y-122328387D01*
X139871828Y-122328388D01*
X139837072Y-122473150D01*
X139802283Y-122533740D01*
X139740256Y-122565904D01*
X139670687Y-122559428D01*
X139615664Y-122516368D01*
X139592655Y-122450395D01*
X139592500Y-122444201D01*
X139592500Y-120295986D01*
X155291001Y-120295986D01*
X155301494Y-120398697D01*
X155356641Y-120565119D01*
X155356643Y-120565124D01*
X155448684Y-120714345D01*
X155572654Y-120838315D01*
X155721875Y-120930356D01*
X155721880Y-120930358D01*
X155888302Y-120985505D01*
X155888309Y-120985506D01*
X155991019Y-120995999D01*
X156240999Y-120995999D01*
X156241000Y-120995998D01*
X156241000Y-120146000D01*
X155291001Y-120146000D01*
X155291001Y-120295986D01*
X139592500Y-120295986D01*
X139592500Y-119078917D01*
X139612185Y-119011878D01*
X139664989Y-118966123D01*
X139734147Y-118956179D01*
X139797703Y-118985204D01*
X139832682Y-119035585D01*
X139857201Y-119101326D01*
X139857206Y-119101335D01*
X139943452Y-119216544D01*
X139943455Y-119216547D01*
X140058664Y-119302793D01*
X140058671Y-119302797D01*
X140193517Y-119353091D01*
X140193516Y-119353091D01*
X140200444Y-119353835D01*
X140253127Y-119359500D01*
X142448872Y-119359499D01*
X142508483Y-119353091D01*
X142643331Y-119302796D01*
X142758546Y-119216546D01*
X142844796Y-119101331D01*
X142895091Y-118966483D01*
X142901500Y-118906873D01*
X142901500Y-118687500D01*
X142921185Y-118620461D01*
X142973989Y-118574706D01*
X143025500Y-118563500D01*
X152425446Y-118563500D01*
X152492485Y-118583185D01*
G37*
G04 #@! TD.AperFunction*
M02*
