G04 #@! TF.GenerationSoftware,KiCad,Pcbnew,8.0.8*
G04 #@! TF.CreationDate,2025-03-03T22:19:49-06:00*
G04 #@! TF.ProjectId,group13_buttons,67726f75-7031-4335-9f62-7574746f6e73,rev?*
G04 #@! TF.SameCoordinates,Original*
G04 #@! TF.FileFunction,Copper,L2,Bot*
G04 #@! TF.FilePolarity,Positive*
%FSLAX46Y46*%
G04 Gerber Fmt 4.6, Leading zero omitted, Abs format (unit mm)*
G04 Created by KiCad (PCBNEW 8.0.8) date 2025-03-03 22:19:49*
%MOMM*%
%LPD*%
G01*
G04 APERTURE LIST*
G04 Aperture macros list*
%AMRoundRect*
0 Rectangle with rounded corners*
0 $1 Rounding radius*
0 $2 $3 $4 $5 $6 $7 $8 $9 X,Y pos of 4 corners*
0 Add a 4 corners polygon primitive as box body*
4,1,4,$2,$3,$4,$5,$6,$7,$8,$9,$2,$3,0*
0 Add four circle primitives for the rounded corners*
1,1,$1+$1,$2,$3*
1,1,$1+$1,$4,$5*
1,1,$1+$1,$6,$7*
1,1,$1+$1,$8,$9*
0 Add four rect primitives between the rounded corners*
20,1,$1+$1,$2,$3,$4,$5,0*
20,1,$1+$1,$4,$5,$6,$7,0*
20,1,$1+$1,$6,$7,$8,$9,0*
20,1,$1+$1,$8,$9,$2,$3,0*%
G04 Aperture macros list end*
G04 #@! TA.AperFunction,ComponentPad*
%ADD10C,2.100000*%
G04 #@! TD*
G04 #@! TA.AperFunction,ComponentPad*
%ADD11R,2.100000X2.100000*%
G04 #@! TD*
G04 #@! TA.AperFunction,ComponentPad*
%ADD12O,2.190000X1.740000*%
G04 #@! TD*
G04 #@! TA.AperFunction,ComponentPad*
%ADD13RoundRect,0.250000X-0.845000X0.620000X-0.845000X-0.620000X0.845000X-0.620000X0.845000X0.620000X0*%
G04 #@! TD*
G04 #@! TA.AperFunction,ViaPad*
%ADD14C,0.600000*%
G04 #@! TD*
G04 #@! TA.AperFunction,Conductor*
%ADD15C,0.508000*%
G04 #@! TD*
G04 #@! TA.AperFunction,Conductor*
%ADD16C,0.254000*%
G04 #@! TD*
G04 APERTURE END LIST*
D10*
X173851000Y-192809000D03*
X161351000Y-192809000D03*
X173851000Y-187809000D03*
D11*
X161351000Y-187809000D03*
X161351000Y-167809000D03*
D10*
X173851000Y-167809000D03*
X161351000Y-172809000D03*
X173851000Y-172809000D03*
D11*
X161351000Y-147809000D03*
D10*
X173851000Y-147809000D03*
X161351000Y-152809000D03*
X173851000Y-152809000D03*
D11*
X161351000Y-127809000D03*
D10*
X173851000Y-127809000D03*
X161351000Y-132809000D03*
X173851000Y-132809000D03*
X153851000Y-182809000D03*
X141351000Y-182809000D03*
X153851000Y-177809000D03*
D11*
X141351000Y-177809000D03*
X141351000Y-157809000D03*
D10*
X153851000Y-157809000D03*
X141351000Y-162809000D03*
X153851000Y-162809000D03*
D11*
X141351000Y-137809000D03*
D10*
X153851000Y-137809000D03*
X141351000Y-142809000D03*
X153851000Y-142809000D03*
D11*
X141351000Y-117809000D03*
D10*
X153851000Y-117809000D03*
X141351000Y-122809000D03*
X153851000Y-122809000D03*
D12*
X178716000Y-147233000D03*
X178716000Y-144693000D03*
X178716000Y-142153000D03*
X178716000Y-139613000D03*
D13*
X178716000Y-137073000D03*
D14*
X143156000Y-176189000D03*
X163476000Y-170220000D03*
X158777000Y-170855000D03*
X161063000Y-159044000D03*
X180367000Y-144820000D03*
X180240000Y-167299000D03*
X181002000Y-159806000D03*
X181002000Y-168188000D03*
X182526000Y-167426000D03*
X178462000Y-151678000D03*
X156491000Y-153837000D03*
X158904000Y-141010000D03*
X157126000Y-173522000D03*
X156110000Y-121706000D03*
X165000000Y-121960000D03*
X158904000Y-120817000D03*
D15*
X153851000Y-125309000D02*
X153851000Y-122809000D01*
X161351000Y-132809000D02*
X153851000Y-125309000D01*
D16*
X180240000Y-144947000D02*
X180367000Y-144820000D01*
X180240000Y-167299000D02*
X180240000Y-144947000D01*
X181002000Y-168188000D02*
X181002000Y-159806000D01*
X182526000Y-136484000D02*
X173851000Y-127809000D01*
X182526000Y-167426000D02*
X182526000Y-136484000D01*
X178462000Y-151678000D02*
X177720000Y-151678000D01*
X177720000Y-151678000D02*
X173851000Y-147809000D01*
G04 #@! TA.AperFunction,Conductor*
G36*
X186534539Y-113717185D02*
G01*
X186580294Y-113769989D01*
X186591500Y-113821500D01*
X186591500Y-196514005D01*
X186571815Y-196581044D01*
X186519011Y-196626799D01*
X186468161Y-196638003D01*
X175500625Y-196696498D01*
X175499964Y-196696500D01*
X139716500Y-196696500D01*
X139649461Y-196676815D01*
X139603706Y-196624011D01*
X139592500Y-196572500D01*
X139592500Y-192809000D01*
X159795706Y-192809000D01*
X159814853Y-193052297D01*
X159871830Y-193289619D01*
X159965222Y-193515089D01*
X160092737Y-193723173D01*
X160092738Y-193723176D01*
X160092741Y-193723179D01*
X160251241Y-193908759D01*
X160394897Y-194031453D01*
X160436823Y-194067261D01*
X160436826Y-194067262D01*
X160644910Y-194194777D01*
X160870381Y-194288169D01*
X160870378Y-194288169D01*
X160870384Y-194288170D01*
X160870388Y-194288172D01*
X161107698Y-194345146D01*
X161351000Y-194364294D01*
X161594302Y-194345146D01*
X161831612Y-194288172D01*
X162057089Y-194194777D01*
X162265179Y-194067259D01*
X162450759Y-193908759D01*
X162609259Y-193723179D01*
X162736777Y-193515089D01*
X162830172Y-193289612D01*
X162887146Y-193052302D01*
X162906294Y-192809000D01*
X172295706Y-192809000D01*
X172314853Y-193052297D01*
X172371830Y-193289619D01*
X172465222Y-193515089D01*
X172592737Y-193723173D01*
X172592738Y-193723176D01*
X172592741Y-193723179D01*
X172751241Y-193908759D01*
X172894897Y-194031453D01*
X172936823Y-194067261D01*
X172936826Y-194067262D01*
X173144910Y-194194777D01*
X173370381Y-194288169D01*
X173370378Y-194288169D01*
X173370384Y-194288170D01*
X173370388Y-194288172D01*
X173607698Y-194345146D01*
X173851000Y-194364294D01*
X174094302Y-194345146D01*
X174331612Y-194288172D01*
X174557089Y-194194777D01*
X174765179Y-194067259D01*
X174950759Y-193908759D01*
X175109259Y-193723179D01*
X175236777Y-193515089D01*
X175330172Y-193289612D01*
X175387146Y-193052302D01*
X175406294Y-192809000D01*
X175387146Y-192565698D01*
X175330172Y-192328388D01*
X175236777Y-192102911D01*
X175236777Y-192102910D01*
X175109262Y-191894826D01*
X175109261Y-191894823D01*
X175071774Y-191850932D01*
X174950759Y-191709241D01*
X174828063Y-191604449D01*
X174765176Y-191550738D01*
X174765173Y-191550737D01*
X174557089Y-191423222D01*
X174331618Y-191329830D01*
X174331621Y-191329830D01*
X174225992Y-191304470D01*
X174094302Y-191272854D01*
X174094300Y-191272853D01*
X174094297Y-191272853D01*
X173851000Y-191253706D01*
X173607702Y-191272853D01*
X173370380Y-191329830D01*
X173144910Y-191423222D01*
X172936826Y-191550737D01*
X172936823Y-191550738D01*
X172751241Y-191709241D01*
X172592738Y-191894823D01*
X172592737Y-191894826D01*
X172465222Y-192102910D01*
X172371830Y-192328380D01*
X172314853Y-192565702D01*
X172295706Y-192809000D01*
X162906294Y-192809000D01*
X162887146Y-192565698D01*
X162830172Y-192328388D01*
X162736777Y-192102911D01*
X162736777Y-192102910D01*
X162609262Y-191894826D01*
X162609261Y-191894823D01*
X162571774Y-191850932D01*
X162450759Y-191709241D01*
X162328063Y-191604449D01*
X162265176Y-191550738D01*
X162265173Y-191550737D01*
X162057089Y-191423222D01*
X161831618Y-191329830D01*
X161831621Y-191329830D01*
X161725992Y-191304470D01*
X161594302Y-191272854D01*
X161594300Y-191272853D01*
X161594297Y-191272853D01*
X161351000Y-191253706D01*
X161107702Y-191272853D01*
X160870380Y-191329830D01*
X160644910Y-191423222D01*
X160436826Y-191550737D01*
X160436823Y-191550738D01*
X160251241Y-191709241D01*
X160092738Y-191894823D01*
X160092737Y-191894826D01*
X159965222Y-192102910D01*
X159871830Y-192328380D01*
X159814853Y-192565702D01*
X159795706Y-192809000D01*
X139592500Y-192809000D01*
X139592500Y-190187711D01*
X145750500Y-190187711D01*
X145750500Y-190430288D01*
X145782161Y-190670785D01*
X145844947Y-190905104D01*
X145937773Y-191129205D01*
X145937776Y-191129212D01*
X146059064Y-191339289D01*
X146059066Y-191339292D01*
X146059067Y-191339293D01*
X146206733Y-191531736D01*
X146206739Y-191531743D01*
X146378256Y-191703260D01*
X146378262Y-191703265D01*
X146570711Y-191850936D01*
X146780788Y-191972224D01*
X147004900Y-192065054D01*
X147239211Y-192127838D01*
X147419586Y-192151584D01*
X147479711Y-192159500D01*
X147479712Y-192159500D01*
X147722289Y-192159500D01*
X147770388Y-192153167D01*
X147962789Y-192127838D01*
X148197100Y-192065054D01*
X148421212Y-191972224D01*
X148631289Y-191850936D01*
X148823738Y-191703265D01*
X148995265Y-191531738D01*
X149142936Y-191339289D01*
X149264224Y-191129212D01*
X149357054Y-190905100D01*
X149419838Y-190670789D01*
X149451500Y-190430288D01*
X149451500Y-190187712D01*
X149419838Y-189947211D01*
X149357054Y-189712900D01*
X149264224Y-189488788D01*
X149142936Y-189278711D01*
X148995265Y-189086262D01*
X148995260Y-189086256D01*
X148823743Y-188914739D01*
X148823736Y-188914733D01*
X148631293Y-188767067D01*
X148631292Y-188767066D01*
X148631289Y-188767064D01*
X148421212Y-188645776D01*
X148421205Y-188645773D01*
X148197104Y-188552947D01*
X147962785Y-188490161D01*
X147722289Y-188458500D01*
X147722288Y-188458500D01*
X147479712Y-188458500D01*
X147479711Y-188458500D01*
X147239214Y-188490161D01*
X147004895Y-188552947D01*
X146780794Y-188645773D01*
X146780785Y-188645777D01*
X146570706Y-188767067D01*
X146378263Y-188914733D01*
X146378256Y-188914739D01*
X146206739Y-189086256D01*
X146206733Y-189086263D01*
X146059067Y-189278706D01*
X145937777Y-189488785D01*
X145937773Y-189488794D01*
X145844947Y-189712895D01*
X145782161Y-189947214D01*
X145750500Y-190187711D01*
X139592500Y-190187711D01*
X139592500Y-186711135D01*
X159800500Y-186711135D01*
X159800500Y-188906870D01*
X159800501Y-188906876D01*
X159806908Y-188966483D01*
X159857202Y-189101328D01*
X159857206Y-189101335D01*
X159943452Y-189216544D01*
X159943455Y-189216547D01*
X160058664Y-189302793D01*
X160058671Y-189302797D01*
X160193517Y-189353091D01*
X160193516Y-189353091D01*
X160200444Y-189353835D01*
X160253127Y-189359500D01*
X162448872Y-189359499D01*
X162508483Y-189353091D01*
X162643331Y-189302796D01*
X162758546Y-189216546D01*
X162844796Y-189101331D01*
X162895091Y-188966483D01*
X162901500Y-188906873D01*
X162901499Y-187809000D01*
X172295706Y-187809000D01*
X172314853Y-188052297D01*
X172371830Y-188289619D01*
X172465222Y-188515089D01*
X172592737Y-188723173D01*
X172592738Y-188723176D01*
X172592741Y-188723179D01*
X172751241Y-188908759D01*
X172894897Y-189031453D01*
X172936823Y-189067261D01*
X172936826Y-189067262D01*
X173144910Y-189194777D01*
X173370381Y-189288169D01*
X173370378Y-189288169D01*
X173370384Y-189288170D01*
X173370388Y-189288172D01*
X173607698Y-189345146D01*
X173851000Y-189364294D01*
X174094302Y-189345146D01*
X174331612Y-189288172D01*
X174557089Y-189194777D01*
X174765179Y-189067259D01*
X174950759Y-188908759D01*
X175109259Y-188723179D01*
X175236777Y-188515089D01*
X175330172Y-188289612D01*
X175387146Y-188052302D01*
X175406294Y-187809000D01*
X175387146Y-187565698D01*
X175330172Y-187328388D01*
X175236777Y-187102911D01*
X175236777Y-187102910D01*
X175109262Y-186894826D01*
X175109261Y-186894823D01*
X175073453Y-186852897D01*
X174950759Y-186709241D01*
X174828063Y-186604449D01*
X174765176Y-186550738D01*
X174765173Y-186550737D01*
X174557089Y-186423222D01*
X174331618Y-186329830D01*
X174331621Y-186329830D01*
X174225992Y-186304470D01*
X174094302Y-186272854D01*
X174094300Y-186272853D01*
X174094297Y-186272853D01*
X173851000Y-186253706D01*
X173607702Y-186272853D01*
X173607698Y-186272854D01*
X173431301Y-186315204D01*
X173370380Y-186329830D01*
X173144910Y-186423222D01*
X172936826Y-186550737D01*
X172936823Y-186550738D01*
X172751241Y-186709241D01*
X172592738Y-186894823D01*
X172592737Y-186894826D01*
X172465222Y-187102910D01*
X172371830Y-187328380D01*
X172314853Y-187565702D01*
X172295706Y-187809000D01*
X162901499Y-187809000D01*
X162901499Y-186711128D01*
X162895091Y-186651517D01*
X162844796Y-186516669D01*
X162844795Y-186516668D01*
X162844793Y-186516664D01*
X162758547Y-186401455D01*
X162758544Y-186401452D01*
X162643335Y-186315206D01*
X162643328Y-186315202D01*
X162508482Y-186264908D01*
X162508483Y-186264908D01*
X162448883Y-186258501D01*
X162448881Y-186258500D01*
X162448873Y-186258500D01*
X162448864Y-186258500D01*
X160253129Y-186258500D01*
X160253123Y-186258501D01*
X160193516Y-186264908D01*
X160058671Y-186315202D01*
X160058664Y-186315206D01*
X159943455Y-186401452D01*
X159943452Y-186401455D01*
X159857206Y-186516664D01*
X159857202Y-186516671D01*
X159806908Y-186651517D01*
X159800703Y-186709241D01*
X159800501Y-186711123D01*
X159800500Y-186711135D01*
X139592500Y-186711135D01*
X139592500Y-183173798D01*
X139612185Y-183106759D01*
X139664989Y-183061004D01*
X139734147Y-183051060D01*
X139797703Y-183080085D01*
X139835477Y-183138863D01*
X139837065Y-183144818D01*
X139871828Y-183289612D01*
X139871830Y-183289619D01*
X139965222Y-183515089D01*
X140092737Y-183723173D01*
X140092738Y-183723176D01*
X140092741Y-183723179D01*
X140251241Y-183908759D01*
X140394897Y-184031453D01*
X140436823Y-184067261D01*
X140436826Y-184067262D01*
X140644910Y-184194777D01*
X140870381Y-184288169D01*
X140870378Y-184288169D01*
X140870384Y-184288170D01*
X140870388Y-184288172D01*
X141107698Y-184345146D01*
X141351000Y-184364294D01*
X141594302Y-184345146D01*
X141831612Y-184288172D01*
X142057089Y-184194777D01*
X142265179Y-184067259D01*
X142450759Y-183908759D01*
X142609259Y-183723179D01*
X142736777Y-183515089D01*
X142830172Y-183289612D01*
X142887146Y-183052302D01*
X142906294Y-182809000D01*
X152295706Y-182809000D01*
X152314853Y-183052297D01*
X152371830Y-183289619D01*
X152465222Y-183515089D01*
X152592737Y-183723173D01*
X152592738Y-183723176D01*
X152592741Y-183723179D01*
X152751241Y-183908759D01*
X152894897Y-184031453D01*
X152936823Y-184067261D01*
X152936826Y-184067262D01*
X153144910Y-184194777D01*
X153370381Y-184288169D01*
X153370378Y-184288169D01*
X153370384Y-184288170D01*
X153370388Y-184288172D01*
X153607698Y-184345146D01*
X153851000Y-184364294D01*
X154094302Y-184345146D01*
X154331612Y-184288172D01*
X154557089Y-184194777D01*
X154765179Y-184067259D01*
X154950759Y-183908759D01*
X155109259Y-183723179D01*
X155236777Y-183515089D01*
X155330172Y-183289612D01*
X155387146Y-183052302D01*
X155406294Y-182809000D01*
X155387146Y-182565698D01*
X155330172Y-182328388D01*
X155236777Y-182102911D01*
X155236777Y-182102910D01*
X155109262Y-181894826D01*
X155109261Y-181894823D01*
X155073453Y-181852897D01*
X154950759Y-181709241D01*
X154828063Y-181604449D01*
X154765176Y-181550738D01*
X154765173Y-181550737D01*
X154557089Y-181423222D01*
X154331618Y-181329830D01*
X154331621Y-181329830D01*
X154225992Y-181304470D01*
X154094302Y-181272854D01*
X154094300Y-181272853D01*
X154094297Y-181272853D01*
X153851000Y-181253706D01*
X153607702Y-181272853D01*
X153370380Y-181329830D01*
X153144910Y-181423222D01*
X152936826Y-181550737D01*
X152936823Y-181550738D01*
X152751241Y-181709241D01*
X152592738Y-181894823D01*
X152592737Y-181894826D01*
X152465222Y-182102910D01*
X152371830Y-182328380D01*
X152314853Y-182565702D01*
X152295706Y-182809000D01*
X142906294Y-182809000D01*
X142887146Y-182565698D01*
X142830172Y-182328388D01*
X142736777Y-182102911D01*
X142736777Y-182102910D01*
X142609262Y-181894826D01*
X142609261Y-181894823D01*
X142573453Y-181852897D01*
X142450759Y-181709241D01*
X142328063Y-181604449D01*
X142265176Y-181550738D01*
X142265173Y-181550737D01*
X142057089Y-181423222D01*
X141831618Y-181329830D01*
X141831621Y-181329830D01*
X141725992Y-181304470D01*
X141594302Y-181272854D01*
X141594300Y-181272853D01*
X141594297Y-181272853D01*
X141351000Y-181253706D01*
X141107702Y-181272853D01*
X140870380Y-181329830D01*
X140644910Y-181423222D01*
X140436826Y-181550737D01*
X140436823Y-181550738D01*
X140251241Y-181709241D01*
X140092738Y-181894823D01*
X140092737Y-181894826D01*
X139965222Y-182102910D01*
X139871830Y-182328380D01*
X139871828Y-182328387D01*
X139871828Y-182328388D01*
X139837072Y-182473150D01*
X139802283Y-182533740D01*
X139740256Y-182565904D01*
X139670687Y-182559428D01*
X139615664Y-182516368D01*
X139592655Y-182450395D01*
X139592500Y-182444201D01*
X139592500Y-179078917D01*
X139612185Y-179011878D01*
X139664989Y-178966123D01*
X139734147Y-178956179D01*
X139797703Y-178985204D01*
X139832682Y-179035585D01*
X139857201Y-179101326D01*
X139857206Y-179101335D01*
X139943452Y-179216544D01*
X139943455Y-179216547D01*
X140058664Y-179302793D01*
X140058671Y-179302797D01*
X140193517Y-179353091D01*
X140193516Y-179353091D01*
X140200444Y-179353835D01*
X140253127Y-179359500D01*
X142448872Y-179359499D01*
X142508483Y-179353091D01*
X142643331Y-179302796D01*
X142758546Y-179216546D01*
X142844796Y-179101331D01*
X142895091Y-178966483D01*
X142901500Y-178906873D01*
X142901499Y-177809000D01*
X152295706Y-177809000D01*
X152314853Y-178052297D01*
X152371830Y-178289619D01*
X152465222Y-178515089D01*
X152592737Y-178723173D01*
X152592738Y-178723176D01*
X152592741Y-178723179D01*
X152751241Y-178908759D01*
X152840747Y-178985204D01*
X152936823Y-179067261D01*
X152936826Y-179067262D01*
X153144910Y-179194777D01*
X153370381Y-179288169D01*
X153370378Y-179288169D01*
X153370384Y-179288170D01*
X153370388Y-179288172D01*
X153607698Y-179345146D01*
X153851000Y-179364294D01*
X154094302Y-179345146D01*
X154331612Y-179288172D01*
X154557089Y-179194777D01*
X154765179Y-179067259D01*
X154950759Y-178908759D01*
X155109259Y-178723179D01*
X155236777Y-178515089D01*
X155330172Y-178289612D01*
X155387146Y-178052302D01*
X155406294Y-177809000D01*
X155387146Y-177565698D01*
X155330172Y-177328388D01*
X155236777Y-177102911D01*
X155236777Y-177102910D01*
X155109262Y-176894826D01*
X155109261Y-176894823D01*
X155073453Y-176852897D01*
X154950759Y-176709241D01*
X154802265Y-176582415D01*
X154765176Y-176550738D01*
X154765173Y-176550737D01*
X154557089Y-176423222D01*
X154331618Y-176329830D01*
X154331621Y-176329830D01*
X154225992Y-176304470D01*
X154094302Y-176272854D01*
X154094300Y-176272853D01*
X154094297Y-176272853D01*
X153851000Y-176253706D01*
X153607702Y-176272853D01*
X153607698Y-176272854D01*
X153431301Y-176315204D01*
X153370380Y-176329830D01*
X153144910Y-176423222D01*
X152936826Y-176550737D01*
X152936823Y-176550738D01*
X152751241Y-176709241D01*
X152592738Y-176894823D01*
X152592737Y-176894826D01*
X152465222Y-177102910D01*
X152371830Y-177328380D01*
X152314853Y-177565702D01*
X152295706Y-177809000D01*
X142901499Y-177809000D01*
X142901499Y-176711128D01*
X142895091Y-176651517D01*
X142875320Y-176598509D01*
X142844797Y-176516671D01*
X142844793Y-176516664D01*
X142758547Y-176401455D01*
X142758544Y-176401452D01*
X142643335Y-176315206D01*
X142643328Y-176315202D01*
X142508482Y-176264908D01*
X142508483Y-176264908D01*
X142448883Y-176258501D01*
X142448881Y-176258500D01*
X142448873Y-176258500D01*
X142448864Y-176258500D01*
X140253129Y-176258500D01*
X140253123Y-176258501D01*
X140193516Y-176264908D01*
X140058671Y-176315202D01*
X140058664Y-176315206D01*
X139943455Y-176401452D01*
X139943452Y-176401455D01*
X139857206Y-176516664D01*
X139857202Y-176516671D01*
X139832682Y-176582415D01*
X139790811Y-176638349D01*
X139725347Y-176662766D01*
X139657074Y-176647915D01*
X139607668Y-176598509D01*
X139592500Y-176539082D01*
X139592500Y-172809000D01*
X159795706Y-172809000D01*
X159814853Y-173052297D01*
X159871830Y-173289619D01*
X159965222Y-173515089D01*
X160092737Y-173723173D01*
X160092738Y-173723176D01*
X160092741Y-173723179D01*
X160251241Y-173908759D01*
X160394897Y-174031453D01*
X160436823Y-174067261D01*
X160436826Y-174067262D01*
X160644910Y-174194777D01*
X160870381Y-174288169D01*
X160870378Y-174288169D01*
X160870384Y-174288170D01*
X160870388Y-174288172D01*
X161107698Y-174345146D01*
X161351000Y-174364294D01*
X161594302Y-174345146D01*
X161831612Y-174288172D01*
X162057089Y-174194777D01*
X162265179Y-174067259D01*
X162450759Y-173908759D01*
X162609259Y-173723179D01*
X162736777Y-173515089D01*
X162830172Y-173289612D01*
X162887146Y-173052302D01*
X162906294Y-172809000D01*
X172295706Y-172809000D01*
X172314853Y-173052297D01*
X172371830Y-173289619D01*
X172465222Y-173515089D01*
X172592737Y-173723173D01*
X172592738Y-173723176D01*
X172592741Y-173723179D01*
X172751241Y-173908759D01*
X172894897Y-174031453D01*
X172936823Y-174067261D01*
X172936826Y-174067262D01*
X173144910Y-174194777D01*
X173370381Y-174288169D01*
X173370378Y-174288169D01*
X173370384Y-174288170D01*
X173370388Y-174288172D01*
X173607698Y-174345146D01*
X173851000Y-174364294D01*
X174094302Y-174345146D01*
X174331612Y-174288172D01*
X174557089Y-174194777D01*
X174765179Y-174067259D01*
X174950759Y-173908759D01*
X175109259Y-173723179D01*
X175236777Y-173515089D01*
X175330172Y-173289612D01*
X175387146Y-173052302D01*
X175406294Y-172809000D01*
X175387146Y-172565698D01*
X175330172Y-172328388D01*
X175236777Y-172102911D01*
X175236777Y-172102910D01*
X175109262Y-171894826D01*
X175109261Y-171894823D01*
X175073453Y-171852897D01*
X174950759Y-171709241D01*
X174828063Y-171604449D01*
X174765176Y-171550738D01*
X174765173Y-171550737D01*
X174557089Y-171423222D01*
X174331618Y-171329830D01*
X174331621Y-171329830D01*
X174225992Y-171304470D01*
X174094302Y-171272854D01*
X174094300Y-171272853D01*
X174094297Y-171272853D01*
X173851000Y-171253706D01*
X173607702Y-171272853D01*
X173370380Y-171329830D01*
X173144910Y-171423222D01*
X172936826Y-171550737D01*
X172936823Y-171550738D01*
X172751241Y-171709241D01*
X172592738Y-171894823D01*
X172592737Y-171894826D01*
X172465222Y-172102910D01*
X172371830Y-172328380D01*
X172314853Y-172565702D01*
X172295706Y-172809000D01*
X162906294Y-172809000D01*
X162887146Y-172565698D01*
X162830172Y-172328388D01*
X162736777Y-172102911D01*
X162736777Y-172102910D01*
X162609262Y-171894826D01*
X162609261Y-171894823D01*
X162573453Y-171852897D01*
X162450759Y-171709241D01*
X162328063Y-171604449D01*
X162265176Y-171550738D01*
X162265173Y-171550737D01*
X162057089Y-171423222D01*
X161831618Y-171329830D01*
X161831621Y-171329830D01*
X161725992Y-171304470D01*
X161594302Y-171272854D01*
X161594300Y-171272853D01*
X161594297Y-171272853D01*
X161351000Y-171253706D01*
X161107702Y-171272853D01*
X160870380Y-171329830D01*
X160644910Y-171423222D01*
X160436826Y-171550737D01*
X160436823Y-171550738D01*
X160251241Y-171709241D01*
X160092738Y-171894823D01*
X160092737Y-171894826D01*
X159965222Y-172102910D01*
X159871830Y-172328380D01*
X159814853Y-172565702D01*
X159795706Y-172809000D01*
X139592500Y-172809000D01*
X139592500Y-166711135D01*
X159800500Y-166711135D01*
X159800500Y-168906870D01*
X159800501Y-168906876D01*
X159806908Y-168966483D01*
X159857202Y-169101328D01*
X159857206Y-169101335D01*
X159943452Y-169216544D01*
X159943455Y-169216547D01*
X160058664Y-169302793D01*
X160058671Y-169302797D01*
X160193517Y-169353091D01*
X160193516Y-169353091D01*
X160200444Y-169353835D01*
X160253127Y-169359500D01*
X162448872Y-169359499D01*
X162508483Y-169353091D01*
X162643331Y-169302796D01*
X162758546Y-169216546D01*
X162844796Y-169101331D01*
X162895091Y-168966483D01*
X162901500Y-168906873D01*
X162901499Y-167809000D01*
X172295706Y-167809000D01*
X172314853Y-168052297D01*
X172314853Y-168052300D01*
X172314854Y-168052302D01*
X172347433Y-168188003D01*
X172371830Y-168289619D01*
X172465222Y-168515089D01*
X172592737Y-168723173D01*
X172592738Y-168723176D01*
X172592741Y-168723179D01*
X172751241Y-168908759D01*
X172894897Y-169031453D01*
X172936823Y-169067261D01*
X172936826Y-169067262D01*
X173144910Y-169194777D01*
X173370381Y-169288169D01*
X173370378Y-169288169D01*
X173370384Y-169288170D01*
X173370388Y-169288172D01*
X173607698Y-169345146D01*
X173851000Y-169364294D01*
X174094302Y-169345146D01*
X174331612Y-169288172D01*
X174557089Y-169194777D01*
X174765179Y-169067259D01*
X174950759Y-168908759D01*
X175109259Y-168723179D01*
X175236777Y-168515089D01*
X175330172Y-168289612D01*
X175387146Y-168052302D01*
X175406294Y-167809000D01*
X175387146Y-167565698D01*
X175330172Y-167328388D01*
X175330169Y-167328380D01*
X175236777Y-167102910D01*
X175109262Y-166894826D01*
X175109261Y-166894823D01*
X175023510Y-166794422D01*
X174950759Y-166709241D01*
X174828063Y-166604449D01*
X174765176Y-166550738D01*
X174765173Y-166550737D01*
X174557089Y-166423222D01*
X174331618Y-166329830D01*
X174331621Y-166329830D01*
X174225992Y-166304470D01*
X174094302Y-166272854D01*
X174094300Y-166272853D01*
X174094297Y-166272853D01*
X173851000Y-166253706D01*
X173607702Y-166272853D01*
X173607698Y-166272854D01*
X173431301Y-166315204D01*
X173370380Y-166329830D01*
X173144910Y-166423222D01*
X172936826Y-166550737D01*
X172936823Y-166550738D01*
X172751241Y-166709241D01*
X172592738Y-166894823D01*
X172592737Y-166894826D01*
X172465222Y-167102910D01*
X172371830Y-167328380D01*
X172314853Y-167565702D01*
X172295706Y-167809000D01*
X162901499Y-167809000D01*
X162901499Y-166711128D01*
X162895091Y-166651517D01*
X162844796Y-166516669D01*
X162844795Y-166516668D01*
X162844793Y-166516664D01*
X162758547Y-166401455D01*
X162758544Y-166401452D01*
X162643335Y-166315206D01*
X162643328Y-166315202D01*
X162508482Y-166264908D01*
X162508483Y-166264908D01*
X162448883Y-166258501D01*
X162448881Y-166258500D01*
X162448873Y-166258500D01*
X162448864Y-166258500D01*
X160253129Y-166258500D01*
X160253123Y-166258501D01*
X160193516Y-166264908D01*
X160058671Y-166315202D01*
X160058664Y-166315206D01*
X159943455Y-166401452D01*
X159943452Y-166401455D01*
X159857206Y-166516664D01*
X159857202Y-166516671D01*
X159806908Y-166651517D01*
X159800703Y-166709241D01*
X159800501Y-166711123D01*
X159800500Y-166711135D01*
X139592500Y-166711135D01*
X139592500Y-163173798D01*
X139612185Y-163106759D01*
X139664989Y-163061004D01*
X139734147Y-163051060D01*
X139797703Y-163080085D01*
X139835477Y-163138863D01*
X139837065Y-163144818D01*
X139871828Y-163289612D01*
X139871830Y-163289619D01*
X139965222Y-163515089D01*
X140092737Y-163723173D01*
X140092738Y-163723176D01*
X140092741Y-163723179D01*
X140251241Y-163908759D01*
X140394897Y-164031453D01*
X140436823Y-164067261D01*
X140436826Y-164067262D01*
X140644910Y-164194777D01*
X140870381Y-164288169D01*
X140870378Y-164288169D01*
X140870384Y-164288170D01*
X140870388Y-164288172D01*
X141107698Y-164345146D01*
X141351000Y-164364294D01*
X141594302Y-164345146D01*
X141831612Y-164288172D01*
X142057089Y-164194777D01*
X142265179Y-164067259D01*
X142450759Y-163908759D01*
X142609259Y-163723179D01*
X142736777Y-163515089D01*
X142830172Y-163289612D01*
X142887146Y-163052302D01*
X142906294Y-162809000D01*
X152295706Y-162809000D01*
X152314853Y-163052297D01*
X152371830Y-163289619D01*
X152465222Y-163515089D01*
X152592737Y-163723173D01*
X152592738Y-163723176D01*
X152592741Y-163723179D01*
X152751241Y-163908759D01*
X152894897Y-164031453D01*
X152936823Y-164067261D01*
X152936826Y-164067262D01*
X153144910Y-164194777D01*
X153370381Y-164288169D01*
X153370378Y-164288169D01*
X153370384Y-164288170D01*
X153370388Y-164288172D01*
X153607698Y-164345146D01*
X153851000Y-164364294D01*
X154094302Y-164345146D01*
X154331612Y-164288172D01*
X154557089Y-164194777D01*
X154765179Y-164067259D01*
X154950759Y-163908759D01*
X155109259Y-163723179D01*
X155236777Y-163515089D01*
X155330172Y-163289612D01*
X155387146Y-163052302D01*
X155406294Y-162809000D01*
X155387146Y-162565698D01*
X155330172Y-162328388D01*
X155236777Y-162102911D01*
X155236777Y-162102910D01*
X155109262Y-161894826D01*
X155109261Y-161894823D01*
X155073453Y-161852897D01*
X154950759Y-161709241D01*
X154828063Y-161604449D01*
X154765176Y-161550738D01*
X154765173Y-161550737D01*
X154557089Y-161423222D01*
X154331618Y-161329830D01*
X154331621Y-161329830D01*
X154225992Y-161304470D01*
X154094302Y-161272854D01*
X154094300Y-161272853D01*
X154094297Y-161272853D01*
X153851000Y-161253706D01*
X153607702Y-161272853D01*
X153370380Y-161329830D01*
X153144910Y-161423222D01*
X152936826Y-161550737D01*
X152936823Y-161550738D01*
X152751241Y-161709241D01*
X152592738Y-161894823D01*
X152592737Y-161894826D01*
X152465222Y-162102910D01*
X152371830Y-162328380D01*
X152314853Y-162565702D01*
X152295706Y-162809000D01*
X142906294Y-162809000D01*
X142887146Y-162565698D01*
X142830172Y-162328388D01*
X142736777Y-162102911D01*
X142736777Y-162102910D01*
X142609262Y-161894826D01*
X142609261Y-161894823D01*
X142573453Y-161852897D01*
X142450759Y-161709241D01*
X142328063Y-161604449D01*
X142265176Y-161550738D01*
X142265173Y-161550737D01*
X142057089Y-161423222D01*
X141831618Y-161329830D01*
X141831621Y-161329830D01*
X141725992Y-161304470D01*
X141594302Y-161272854D01*
X141594300Y-161272853D01*
X141594297Y-161272853D01*
X141351000Y-161253706D01*
X141107702Y-161272853D01*
X140870380Y-161329830D01*
X140644910Y-161423222D01*
X140436826Y-161550737D01*
X140436823Y-161550738D01*
X140251241Y-161709241D01*
X140092738Y-161894823D01*
X140092737Y-161894826D01*
X139965222Y-162102910D01*
X139871830Y-162328380D01*
X139871828Y-162328387D01*
X139871828Y-162328388D01*
X139837072Y-162473150D01*
X139802283Y-162533740D01*
X139740256Y-162565904D01*
X139670687Y-162559428D01*
X139615664Y-162516368D01*
X139592655Y-162450395D01*
X139592500Y-162444201D01*
X139592500Y-159078917D01*
X139612185Y-159011878D01*
X139664989Y-158966123D01*
X139734147Y-158956179D01*
X139797703Y-158985204D01*
X139832682Y-159035585D01*
X139857201Y-159101326D01*
X139857206Y-159101335D01*
X139943452Y-159216544D01*
X139943455Y-159216547D01*
X140058664Y-159302793D01*
X140058671Y-159302797D01*
X140193517Y-159353091D01*
X140193516Y-159353091D01*
X140200444Y-159353835D01*
X140253127Y-159359500D01*
X142448872Y-159359499D01*
X142508483Y-159353091D01*
X142643331Y-159302796D01*
X142758546Y-159216546D01*
X142844796Y-159101331D01*
X142895091Y-158966483D01*
X142901500Y-158906873D01*
X142901499Y-157809000D01*
X152295706Y-157809000D01*
X152314853Y-158052297D01*
X152371830Y-158289619D01*
X152465222Y-158515089D01*
X152592737Y-158723173D01*
X152592738Y-158723176D01*
X152592741Y-158723179D01*
X152751241Y-158908759D01*
X152840747Y-158985204D01*
X152936823Y-159067261D01*
X152936826Y-159067262D01*
X153144910Y-159194777D01*
X153370381Y-159288169D01*
X153370378Y-159288169D01*
X153370384Y-159288170D01*
X153370388Y-159288172D01*
X153607698Y-159345146D01*
X153851000Y-159364294D01*
X154094302Y-159345146D01*
X154331612Y-159288172D01*
X154557089Y-159194777D01*
X154765179Y-159067259D01*
X154950759Y-158908759D01*
X155109259Y-158723179D01*
X155236777Y-158515089D01*
X155330172Y-158289612D01*
X155387146Y-158052302D01*
X155406294Y-157809000D01*
X155387146Y-157565698D01*
X155330172Y-157328388D01*
X155236777Y-157102911D01*
X155236777Y-157102910D01*
X155109262Y-156894826D01*
X155109261Y-156894823D01*
X155073453Y-156852897D01*
X154950759Y-156709241D01*
X154802265Y-156582415D01*
X154765176Y-156550738D01*
X154765173Y-156550737D01*
X154557089Y-156423222D01*
X154331618Y-156329830D01*
X154331621Y-156329830D01*
X154225992Y-156304470D01*
X154094302Y-156272854D01*
X154094300Y-156272853D01*
X154094297Y-156272853D01*
X153851000Y-156253706D01*
X153607702Y-156272853D01*
X153607698Y-156272854D01*
X153431301Y-156315204D01*
X153370380Y-156329830D01*
X153144910Y-156423222D01*
X152936826Y-156550737D01*
X152936823Y-156550738D01*
X152751241Y-156709241D01*
X152592738Y-156894823D01*
X152592737Y-156894826D01*
X152465222Y-157102910D01*
X152371830Y-157328380D01*
X152314853Y-157565702D01*
X152295706Y-157809000D01*
X142901499Y-157809000D01*
X142901499Y-156711128D01*
X142895091Y-156651517D01*
X142875320Y-156598509D01*
X142844797Y-156516671D01*
X142844793Y-156516664D01*
X142758547Y-156401455D01*
X142758544Y-156401452D01*
X142643335Y-156315206D01*
X142643328Y-156315202D01*
X142508482Y-156264908D01*
X142508483Y-156264908D01*
X142448883Y-156258501D01*
X142448881Y-156258500D01*
X142448873Y-156258500D01*
X142448864Y-156258500D01*
X140253129Y-156258500D01*
X140253123Y-156258501D01*
X140193516Y-156264908D01*
X140058671Y-156315202D01*
X140058664Y-156315206D01*
X139943455Y-156401452D01*
X139943452Y-156401455D01*
X139857206Y-156516664D01*
X139857202Y-156516671D01*
X139832682Y-156582415D01*
X139790811Y-156638349D01*
X139725347Y-156662766D01*
X139657074Y-156647915D01*
X139607668Y-156598509D01*
X139592500Y-156539082D01*
X139592500Y-152809000D01*
X159795706Y-152809000D01*
X159814853Y-153052297D01*
X159871830Y-153289619D01*
X159965222Y-153515089D01*
X160092737Y-153723173D01*
X160092738Y-153723176D01*
X160092741Y-153723179D01*
X160251241Y-153908759D01*
X160394897Y-154031453D01*
X160436823Y-154067261D01*
X160436826Y-154067262D01*
X160644910Y-154194777D01*
X160870381Y-154288169D01*
X160870378Y-154288169D01*
X160870384Y-154288170D01*
X160870388Y-154288172D01*
X161107698Y-154345146D01*
X161351000Y-154364294D01*
X161594302Y-154345146D01*
X161831612Y-154288172D01*
X162057089Y-154194777D01*
X162265179Y-154067259D01*
X162450759Y-153908759D01*
X162609259Y-153723179D01*
X162736777Y-153515089D01*
X162830172Y-153289612D01*
X162887146Y-153052302D01*
X162906294Y-152809000D01*
X172295706Y-152809000D01*
X172314853Y-153052297D01*
X172371830Y-153289619D01*
X172465222Y-153515089D01*
X172592737Y-153723173D01*
X172592738Y-153723176D01*
X172592741Y-153723179D01*
X172751241Y-153908759D01*
X172894897Y-154031453D01*
X172936823Y-154067261D01*
X172936826Y-154067262D01*
X173144910Y-154194777D01*
X173370381Y-154288169D01*
X173370378Y-154288169D01*
X173370384Y-154288170D01*
X173370388Y-154288172D01*
X173607698Y-154345146D01*
X173851000Y-154364294D01*
X174094302Y-154345146D01*
X174331612Y-154288172D01*
X174557089Y-154194777D01*
X174765179Y-154067259D01*
X174950759Y-153908759D01*
X175109259Y-153723179D01*
X175236777Y-153515089D01*
X175330172Y-153289612D01*
X175387146Y-153052302D01*
X175406294Y-152809000D01*
X175387146Y-152565698D01*
X175330172Y-152328388D01*
X175321651Y-152307816D01*
X175236777Y-152102910D01*
X175109262Y-151894826D01*
X175109261Y-151894823D01*
X175073453Y-151852897D01*
X174950759Y-151709241D01*
X174828063Y-151604449D01*
X174765176Y-151550738D01*
X174765173Y-151550737D01*
X174557089Y-151423222D01*
X174331618Y-151329830D01*
X174331621Y-151329830D01*
X174225992Y-151304470D01*
X174094302Y-151272854D01*
X174094300Y-151272853D01*
X174094297Y-151272853D01*
X173851000Y-151253706D01*
X173607702Y-151272853D01*
X173607698Y-151272854D01*
X173376020Y-151328476D01*
X173370380Y-151329830D01*
X173144910Y-151423222D01*
X172936826Y-151550737D01*
X172936823Y-151550738D01*
X172751241Y-151709241D01*
X172592738Y-151894823D01*
X172592737Y-151894826D01*
X172465222Y-152102910D01*
X172371830Y-152328380D01*
X172314853Y-152565702D01*
X172295706Y-152809000D01*
X162906294Y-152809000D01*
X162887146Y-152565698D01*
X162830172Y-152328388D01*
X162821651Y-152307816D01*
X162736777Y-152102910D01*
X162609262Y-151894826D01*
X162609261Y-151894823D01*
X162573453Y-151852897D01*
X162450759Y-151709241D01*
X162328063Y-151604449D01*
X162265176Y-151550738D01*
X162265173Y-151550737D01*
X162057089Y-151423222D01*
X161831618Y-151329830D01*
X161831621Y-151329830D01*
X161725992Y-151304470D01*
X161594302Y-151272854D01*
X161594300Y-151272853D01*
X161594297Y-151272853D01*
X161351000Y-151253706D01*
X161107702Y-151272853D01*
X161107698Y-151272854D01*
X160876020Y-151328476D01*
X160870380Y-151329830D01*
X160644910Y-151423222D01*
X160436826Y-151550737D01*
X160436823Y-151550738D01*
X160251241Y-151709241D01*
X160092738Y-151894823D01*
X160092737Y-151894826D01*
X159965222Y-152102910D01*
X159871830Y-152328380D01*
X159814853Y-152565702D01*
X159795706Y-152809000D01*
X139592500Y-152809000D01*
X139592500Y-146711135D01*
X159800500Y-146711135D01*
X159800500Y-148906870D01*
X159800501Y-148906876D01*
X159806908Y-148966483D01*
X159857202Y-149101328D01*
X159857206Y-149101335D01*
X159943452Y-149216544D01*
X159943455Y-149216547D01*
X160058664Y-149302793D01*
X160058671Y-149302797D01*
X160193517Y-149353091D01*
X160193516Y-149353091D01*
X160200444Y-149353835D01*
X160253127Y-149359500D01*
X162448872Y-149359499D01*
X162508483Y-149353091D01*
X162643331Y-149302796D01*
X162758546Y-149216546D01*
X162844796Y-149101331D01*
X162895091Y-148966483D01*
X162901500Y-148906873D01*
X162901499Y-147809000D01*
X172295706Y-147809000D01*
X172314853Y-148052297D01*
X172314853Y-148052300D01*
X172314854Y-148052302D01*
X172369126Y-148278359D01*
X172371830Y-148289619D01*
X172465222Y-148515089D01*
X172592737Y-148723173D01*
X172592738Y-148723176D01*
X172592741Y-148723179D01*
X172751241Y-148908759D01*
X172894897Y-149031453D01*
X172936823Y-149067261D01*
X172936826Y-149067262D01*
X173144910Y-149194777D01*
X173326347Y-149269930D01*
X173368128Y-149287236D01*
X173370381Y-149288169D01*
X173370378Y-149288169D01*
X173370384Y-149288170D01*
X173370388Y-149288172D01*
X173607698Y-149345146D01*
X173851000Y-149364294D01*
X174094302Y-149345146D01*
X174331612Y-149288172D01*
X174333652Y-149287326D01*
X174334489Y-149287236D01*
X174336246Y-149286666D01*
X174336365Y-149287034D01*
X174403119Y-149279857D01*
X174465599Y-149311130D01*
X174468787Y-149314206D01*
X177319988Y-152165408D01*
X177319992Y-152165411D01*
X177422760Y-152234079D01*
X177422773Y-152234086D01*
X177536960Y-152281383D01*
X177536965Y-152281385D01*
X177536969Y-152281385D01*
X177536970Y-152281386D01*
X177658194Y-152305500D01*
X177658197Y-152305500D01*
X177781803Y-152305500D01*
X177920328Y-152305500D01*
X177986299Y-152324505D01*
X178112478Y-152403789D01*
X178282745Y-152463368D01*
X178282750Y-152463369D01*
X178461996Y-152483565D01*
X178462000Y-152483565D01*
X178462004Y-152483565D01*
X178641249Y-152463369D01*
X178641252Y-152463368D01*
X178641255Y-152463368D01*
X178811522Y-152403789D01*
X178964262Y-152307816D01*
X179091816Y-152180262D01*
X179187789Y-152027522D01*
X179247368Y-151857255D01*
X179267565Y-151678000D01*
X179253226Y-151550741D01*
X179247369Y-151498750D01*
X179247368Y-151498745D01*
X179187788Y-151328476D01*
X179091815Y-151175737D01*
X178964262Y-151048184D01*
X178811523Y-150952211D01*
X178641254Y-150892631D01*
X178641249Y-150892630D01*
X178462004Y-150872435D01*
X178461996Y-150872435D01*
X178282750Y-150892630D01*
X178282737Y-150892633D01*
X178112480Y-150952209D01*
X178054436Y-150988680D01*
X177987199Y-151007679D01*
X177920365Y-150987310D01*
X177900785Y-150971366D01*
X175356206Y-148426787D01*
X175322721Y-148365464D01*
X175327705Y-148295772D01*
X175329311Y-148291689D01*
X175330172Y-148289612D01*
X175387146Y-148052302D01*
X175406294Y-147809000D01*
X175387146Y-147565698D01*
X175330172Y-147328388D01*
X175236777Y-147102911D01*
X175236777Y-147102910D01*
X175109262Y-146894826D01*
X175109261Y-146894823D01*
X175073453Y-146852897D01*
X174950759Y-146709241D01*
X174828063Y-146604449D01*
X174765176Y-146550738D01*
X174765173Y-146550737D01*
X174557089Y-146423222D01*
X174331618Y-146329830D01*
X174331621Y-146329830D01*
X174225992Y-146304470D01*
X174094302Y-146272854D01*
X174094300Y-146272853D01*
X174094297Y-146272853D01*
X173851000Y-146253706D01*
X173607702Y-146272853D01*
X173607698Y-146272854D01*
X173431301Y-146315204D01*
X173370380Y-146329830D01*
X173144910Y-146423222D01*
X172936826Y-146550737D01*
X172936823Y-146550738D01*
X172751241Y-146709241D01*
X172592738Y-146894823D01*
X172592737Y-146894826D01*
X172465222Y-147102910D01*
X172371830Y-147328380D01*
X172371828Y-147328387D01*
X172371828Y-147328388D01*
X172368832Y-147340866D01*
X172314853Y-147565702D01*
X172295706Y-147809000D01*
X162901499Y-147809000D01*
X162901499Y-146711128D01*
X162895091Y-146651517D01*
X162844796Y-146516669D01*
X162844795Y-146516668D01*
X162844793Y-146516664D01*
X162758547Y-146401455D01*
X162758544Y-146401452D01*
X162643335Y-146315206D01*
X162643328Y-146315202D01*
X162508482Y-146264908D01*
X162508483Y-146264908D01*
X162448883Y-146258501D01*
X162448881Y-146258500D01*
X162448873Y-146258500D01*
X162448864Y-146258500D01*
X160253129Y-146258500D01*
X160253123Y-146258501D01*
X160193516Y-146264908D01*
X160058671Y-146315202D01*
X160058664Y-146315206D01*
X159943455Y-146401452D01*
X159943452Y-146401455D01*
X159857206Y-146516664D01*
X159857202Y-146516671D01*
X159806908Y-146651517D01*
X159800953Y-146706911D01*
X159800501Y-146711123D01*
X159800500Y-146711135D01*
X139592500Y-146711135D01*
X139592500Y-143173798D01*
X139612185Y-143106759D01*
X139664989Y-143061004D01*
X139734147Y-143051060D01*
X139797703Y-143080085D01*
X139835477Y-143138863D01*
X139837065Y-143144818D01*
X139849920Y-143198359D01*
X139871830Y-143289619D01*
X139965222Y-143515089D01*
X140092737Y-143723173D01*
X140092738Y-143723176D01*
X140092741Y-143723179D01*
X140251241Y-143908759D01*
X140333065Y-143978643D01*
X140436823Y-144067261D01*
X140436826Y-144067262D01*
X140644910Y-144194777D01*
X140870381Y-144288169D01*
X140870378Y-144288169D01*
X140870384Y-144288170D01*
X140870388Y-144288172D01*
X141107698Y-144345146D01*
X141351000Y-144364294D01*
X141594302Y-144345146D01*
X141831612Y-144288172D01*
X142057089Y-144194777D01*
X142265179Y-144067259D01*
X142450759Y-143908759D01*
X142609259Y-143723179D01*
X142736777Y-143515089D01*
X142830172Y-143289612D01*
X142887146Y-143052302D01*
X142906294Y-142809000D01*
X152295706Y-142809000D01*
X152314853Y-143052297D01*
X152371830Y-143289619D01*
X152465222Y-143515089D01*
X152592737Y-143723173D01*
X152592738Y-143723176D01*
X152592741Y-143723179D01*
X152751241Y-143908759D01*
X152833065Y-143978643D01*
X152936823Y-144067261D01*
X152936826Y-144067262D01*
X153144910Y-144194777D01*
X153370381Y-144288169D01*
X153370378Y-144288169D01*
X153370384Y-144288170D01*
X153370388Y-144288172D01*
X153607698Y-144345146D01*
X153851000Y-144364294D01*
X154094302Y-144345146D01*
X154331612Y-144288172D01*
X154557089Y-144194777D01*
X154765179Y-144067259D01*
X154950759Y-143908759D01*
X155109259Y-143723179D01*
X155236777Y-143515089D01*
X155330172Y-143289612D01*
X155387146Y-143052302D01*
X155406294Y-142809000D01*
X155387146Y-142565698D01*
X155330172Y-142328388D01*
X155236777Y-142102911D01*
X155236777Y-142102910D01*
X155109262Y-141894826D01*
X155109261Y-141894823D01*
X155055668Y-141832074D01*
X154950759Y-141709241D01*
X154828063Y-141604449D01*
X154765176Y-141550738D01*
X154765173Y-141550737D01*
X154557089Y-141423222D01*
X154331618Y-141329830D01*
X154331621Y-141329830D01*
X154225992Y-141304470D01*
X154094302Y-141272854D01*
X154094300Y-141272853D01*
X154094297Y-141272853D01*
X153851000Y-141253706D01*
X153607702Y-141272853D01*
X153370380Y-141329830D01*
X153144910Y-141423222D01*
X152936826Y-141550737D01*
X152936823Y-141550738D01*
X152751241Y-141709241D01*
X152592738Y-141894823D01*
X152592737Y-141894826D01*
X152465222Y-142102910D01*
X152371830Y-142328380D01*
X152314853Y-142565702D01*
X152295706Y-142809000D01*
X142906294Y-142809000D01*
X142887146Y-142565698D01*
X142830172Y-142328388D01*
X142736777Y-142102911D01*
X142736777Y-142102910D01*
X142609262Y-141894826D01*
X142609261Y-141894823D01*
X142555668Y-141832074D01*
X142450759Y-141709241D01*
X142328063Y-141604449D01*
X142265176Y-141550738D01*
X142265173Y-141550737D01*
X142057089Y-141423222D01*
X141831618Y-141329830D01*
X141831621Y-141329830D01*
X141725992Y-141304470D01*
X141594302Y-141272854D01*
X141594300Y-141272853D01*
X141594297Y-141272853D01*
X141351000Y-141253706D01*
X141107702Y-141272853D01*
X140870380Y-141329830D01*
X140644910Y-141423222D01*
X140436826Y-141550737D01*
X140436823Y-141550738D01*
X140251241Y-141709241D01*
X140092738Y-141894823D01*
X140092737Y-141894826D01*
X139965222Y-142102910D01*
X139871830Y-142328380D01*
X139871828Y-142328387D01*
X139871828Y-142328388D01*
X139837072Y-142473150D01*
X139802283Y-142533740D01*
X139740256Y-142565904D01*
X139670687Y-142559428D01*
X139615664Y-142516368D01*
X139592655Y-142450395D01*
X139592500Y-142444201D01*
X139592500Y-139078917D01*
X139612185Y-139011878D01*
X139664989Y-138966123D01*
X139734147Y-138956179D01*
X139797703Y-138985204D01*
X139832682Y-139035585D01*
X139857201Y-139101326D01*
X139857206Y-139101335D01*
X139943452Y-139216544D01*
X139943455Y-139216547D01*
X140058664Y-139302793D01*
X140058671Y-139302797D01*
X140193517Y-139353091D01*
X140193516Y-139353091D01*
X140200444Y-139353835D01*
X140253127Y-139359500D01*
X142448872Y-139359499D01*
X142508483Y-139353091D01*
X142643331Y-139302796D01*
X142758546Y-139216546D01*
X142844796Y-139101331D01*
X142895091Y-138966483D01*
X142901500Y-138906873D01*
X142901499Y-137809000D01*
X152295706Y-137809000D01*
X152314853Y-138052297D01*
X152314853Y-138052300D01*
X152314854Y-138052302D01*
X152370891Y-138285710D01*
X152371830Y-138289619D01*
X152465222Y-138515089D01*
X152592737Y-138723173D01*
X152592738Y-138723176D01*
X152592741Y-138723179D01*
X152751241Y-138908759D01*
X152840747Y-138985204D01*
X152936823Y-139067261D01*
X152936826Y-139067262D01*
X153144910Y-139194777D01*
X153370381Y-139288169D01*
X153370378Y-139288169D01*
X153370384Y-139288170D01*
X153370388Y-139288172D01*
X153607698Y-139345146D01*
X153851000Y-139364294D01*
X154094302Y-139345146D01*
X154331612Y-139288172D01*
X154557089Y-139194777D01*
X154765179Y-139067259D01*
X154950759Y-138908759D01*
X155109259Y-138723179D01*
X155236777Y-138515089D01*
X155330172Y-138289612D01*
X155387146Y-138052302D01*
X155406294Y-137809000D01*
X155387146Y-137565698D01*
X155330172Y-137328388D01*
X155236777Y-137102911D01*
X155236777Y-137102910D01*
X155109262Y-136894826D01*
X155109261Y-136894823D01*
X155001732Y-136768923D01*
X154950759Y-136709241D01*
X154802265Y-136582415D01*
X154765176Y-136550738D01*
X154765173Y-136550737D01*
X154557089Y-136423222D01*
X154331618Y-136329830D01*
X154331621Y-136329830D01*
X154208204Y-136300200D01*
X154094302Y-136272854D01*
X154094300Y-136272853D01*
X154094297Y-136272853D01*
X153851000Y-136253706D01*
X153607702Y-136272853D01*
X153607698Y-136272854D01*
X153431301Y-136315204D01*
X153370380Y-136329830D01*
X153144910Y-136423222D01*
X152936826Y-136550737D01*
X152936823Y-136550738D01*
X152751241Y-136709241D01*
X152592738Y-136894823D01*
X152592737Y-136894826D01*
X152465222Y-137102910D01*
X152371830Y-137328380D01*
X152314853Y-137565702D01*
X152295706Y-137809000D01*
X142901499Y-137809000D01*
X142901499Y-136711128D01*
X142895091Y-136651517D01*
X142875320Y-136598509D01*
X142844797Y-136516671D01*
X142844793Y-136516664D01*
X142758547Y-136401455D01*
X142758544Y-136401452D01*
X142643335Y-136315206D01*
X142643328Y-136315202D01*
X142508482Y-136264908D01*
X142508483Y-136264908D01*
X142448883Y-136258501D01*
X142448881Y-136258500D01*
X142448873Y-136258500D01*
X142448864Y-136258500D01*
X140253129Y-136258500D01*
X140253123Y-136258501D01*
X140193516Y-136264908D01*
X140058671Y-136315202D01*
X140058664Y-136315206D01*
X139943455Y-136401452D01*
X139943452Y-136401455D01*
X139857206Y-136516664D01*
X139857202Y-136516671D01*
X139832682Y-136582415D01*
X139790811Y-136638349D01*
X139725347Y-136662766D01*
X139657074Y-136647915D01*
X139607668Y-136598509D01*
X139592500Y-136539082D01*
X139592500Y-123173798D01*
X139612185Y-123106759D01*
X139664989Y-123061004D01*
X139734147Y-123051060D01*
X139797703Y-123080085D01*
X139835477Y-123138863D01*
X139837065Y-123144818D01*
X139871828Y-123289612D01*
X139871830Y-123289619D01*
X139965222Y-123515089D01*
X140092737Y-123723173D01*
X140092738Y-123723176D01*
X140092741Y-123723179D01*
X140251241Y-123908759D01*
X140394897Y-124031453D01*
X140436823Y-124067261D01*
X140436826Y-124067262D01*
X140644910Y-124194777D01*
X140870381Y-124288169D01*
X140870378Y-124288169D01*
X140870384Y-124288170D01*
X140870388Y-124288172D01*
X141107698Y-124345146D01*
X141351000Y-124364294D01*
X141594302Y-124345146D01*
X141831612Y-124288172D01*
X142057089Y-124194777D01*
X142265179Y-124067259D01*
X142450759Y-123908759D01*
X142609259Y-123723179D01*
X142736777Y-123515089D01*
X142830172Y-123289612D01*
X142887146Y-123052302D01*
X142906294Y-122809000D01*
X152295706Y-122809000D01*
X152314853Y-123052297D01*
X152371830Y-123289619D01*
X152465222Y-123515089D01*
X152592737Y-123723173D01*
X152592738Y-123723176D01*
X152592741Y-123723179D01*
X152751241Y-123908759D01*
X152870030Y-124010214D01*
X152936818Y-124067257D01*
X152936820Y-124067258D01*
X152936821Y-124067259D01*
X152936826Y-124067262D01*
X153037290Y-124128827D01*
X153084165Y-124180638D01*
X153096500Y-124234554D01*
X153096500Y-125229552D01*
X153096499Y-125229578D01*
X153096499Y-125234688D01*
X153096499Y-125383312D01*
X153096499Y-125383314D01*
X153096498Y-125383314D01*
X153125493Y-125529073D01*
X153125496Y-125529083D01*
X153182366Y-125666381D01*
X153182372Y-125666392D01*
X153264942Y-125789968D01*
X153264943Y-125789969D01*
X159809468Y-132334492D01*
X159842953Y-132395815D01*
X159842361Y-132451119D01*
X159814853Y-132565698D01*
X159814853Y-132565700D01*
X159795706Y-132809000D01*
X159814853Y-133052297D01*
X159871830Y-133289619D01*
X159965222Y-133515089D01*
X160092737Y-133723173D01*
X160092738Y-133723176D01*
X160092741Y-133723179D01*
X160251241Y-133908759D01*
X160394897Y-134031453D01*
X160436823Y-134067261D01*
X160436826Y-134067262D01*
X160644910Y-134194777D01*
X160870381Y-134288169D01*
X160870378Y-134288169D01*
X160870384Y-134288170D01*
X160870388Y-134288172D01*
X161107698Y-134345146D01*
X161351000Y-134364294D01*
X161594302Y-134345146D01*
X161831612Y-134288172D01*
X162057089Y-134194777D01*
X162265179Y-134067259D01*
X162450759Y-133908759D01*
X162609259Y-133723179D01*
X162736777Y-133515089D01*
X162830172Y-133289612D01*
X162887146Y-133052302D01*
X162906294Y-132809000D01*
X172295706Y-132809000D01*
X172314853Y-133052297D01*
X172371830Y-133289619D01*
X172465222Y-133515089D01*
X172592737Y-133723173D01*
X172592738Y-133723176D01*
X172592741Y-133723179D01*
X172751241Y-133908759D01*
X172894897Y-134031453D01*
X172936823Y-134067261D01*
X172936826Y-134067262D01*
X173144910Y-134194777D01*
X173370381Y-134288169D01*
X173370378Y-134288169D01*
X173370384Y-134288170D01*
X173370388Y-134288172D01*
X173607698Y-134345146D01*
X173851000Y-134364294D01*
X174094302Y-134345146D01*
X174331612Y-134288172D01*
X174557089Y-134194777D01*
X174765179Y-134067259D01*
X174950759Y-133908759D01*
X175109259Y-133723179D01*
X175236777Y-133515089D01*
X175330172Y-133289612D01*
X175387146Y-133052302D01*
X175406294Y-132809000D01*
X175387146Y-132565698D01*
X175330172Y-132328388D01*
X175236777Y-132102911D01*
X175236777Y-132102910D01*
X175109262Y-131894826D01*
X175109261Y-131894823D01*
X175073453Y-131852897D01*
X174950759Y-131709241D01*
X174828063Y-131604449D01*
X174765176Y-131550738D01*
X174765173Y-131550737D01*
X174557089Y-131423222D01*
X174331618Y-131329830D01*
X174331621Y-131329830D01*
X174194334Y-131296870D01*
X174094302Y-131272854D01*
X174094300Y-131272853D01*
X174094297Y-131272853D01*
X173851000Y-131253706D01*
X173607702Y-131272853D01*
X173370380Y-131329830D01*
X173144910Y-131423222D01*
X172936826Y-131550737D01*
X172936823Y-131550738D01*
X172751241Y-131709241D01*
X172592738Y-131894823D01*
X172592737Y-131894826D01*
X172465222Y-132102910D01*
X172371830Y-132328380D01*
X172314853Y-132565702D01*
X172295706Y-132809000D01*
X162906294Y-132809000D01*
X162887146Y-132565698D01*
X162830172Y-132328388D01*
X162736777Y-132102911D01*
X162736777Y-132102910D01*
X162609262Y-131894826D01*
X162609261Y-131894823D01*
X162573453Y-131852897D01*
X162450759Y-131709241D01*
X162328063Y-131604449D01*
X162265176Y-131550738D01*
X162265173Y-131550737D01*
X162057089Y-131423222D01*
X161831618Y-131329830D01*
X161831621Y-131329830D01*
X161694334Y-131296870D01*
X161594302Y-131272854D01*
X161594300Y-131272853D01*
X161594297Y-131272853D01*
X161351000Y-131253706D01*
X161107700Y-131272853D01*
X161107698Y-131272853D01*
X160993119Y-131300361D01*
X160923337Y-131296870D01*
X160876492Y-131267468D01*
X156320160Y-126711135D01*
X159800500Y-126711135D01*
X159800500Y-128906870D01*
X159800501Y-128906876D01*
X159806908Y-128966483D01*
X159857202Y-129101328D01*
X159857206Y-129101335D01*
X159943452Y-129216544D01*
X159943455Y-129216547D01*
X160058664Y-129302793D01*
X160058671Y-129302797D01*
X160193517Y-129353091D01*
X160193516Y-129353091D01*
X160200444Y-129353835D01*
X160253127Y-129359500D01*
X162448872Y-129359499D01*
X162508483Y-129353091D01*
X162643331Y-129302796D01*
X162758546Y-129216546D01*
X162844796Y-129101331D01*
X162895091Y-128966483D01*
X162901500Y-128906873D01*
X162901499Y-127809000D01*
X172295706Y-127809000D01*
X172314853Y-128052297D01*
X172371830Y-128289619D01*
X172465222Y-128515089D01*
X172592737Y-128723173D01*
X172592738Y-128723176D01*
X172592741Y-128723179D01*
X172751241Y-128908759D01*
X172894897Y-129031453D01*
X172936823Y-129067261D01*
X172936826Y-129067262D01*
X173144910Y-129194777D01*
X173326347Y-129269930D01*
X173368128Y-129287236D01*
X173370381Y-129288169D01*
X173370378Y-129288169D01*
X173370384Y-129288170D01*
X173370388Y-129288172D01*
X173607698Y-129345146D01*
X173851000Y-129364294D01*
X174094302Y-129345146D01*
X174331612Y-129288172D01*
X174333652Y-129287326D01*
X174334489Y-129287236D01*
X174336246Y-129286666D01*
X174336365Y-129287034D01*
X174403119Y-129279857D01*
X174465599Y-129311130D01*
X174468787Y-129314206D01*
X181862181Y-136707600D01*
X181895666Y-136768923D01*
X181898500Y-136795281D01*
X181898500Y-159297749D01*
X181878815Y-159364788D01*
X181826011Y-159410543D01*
X181756853Y-159420487D01*
X181693297Y-159391462D01*
X181669507Y-159363722D01*
X181631817Y-159303739D01*
X181504262Y-159176184D01*
X181351523Y-159080211D01*
X181181254Y-159020631D01*
X181181249Y-159020630D01*
X181002004Y-159000435D01*
X180995037Y-159000435D01*
X180995037Y-158998244D01*
X180936545Y-158987991D01*
X180885173Y-158940634D01*
X180867500Y-158876833D01*
X180867500Y-145502940D01*
X180887185Y-145435901D01*
X180903819Y-145415259D01*
X180907779Y-145411299D01*
X180996816Y-145322262D01*
X181092789Y-145169522D01*
X181152368Y-144999255D01*
X181172565Y-144820000D01*
X181170409Y-144800866D01*
X181152369Y-144640750D01*
X181152368Y-144640745D01*
X181132911Y-144585139D01*
X181092789Y-144470478D01*
X180996816Y-144317738D01*
X180869262Y-144190184D01*
X180716523Y-144094211D01*
X180546254Y-144034631D01*
X180546249Y-144034630D01*
X180367004Y-144014435D01*
X180366996Y-144014435D01*
X180230719Y-144029789D01*
X180161897Y-144017734D01*
X180117740Y-143977393D01*
X180116021Y-143978643D01*
X180065246Y-143908758D01*
X179986359Y-143800179D01*
X179833821Y-143647641D01*
X179662704Y-143523317D01*
X179620040Y-143467988D01*
X179614061Y-143398374D01*
X179646667Y-143336580D01*
X179662702Y-143322684D01*
X179833821Y-143198359D01*
X179986359Y-143045821D01*
X180113157Y-142871299D01*
X180211092Y-142679089D01*
X180277754Y-142473926D01*
X180300806Y-142328380D01*
X180311500Y-142260866D01*
X180311500Y-142045133D01*
X180277754Y-141832077D01*
X180277754Y-141832074D01*
X180211092Y-141626911D01*
X180113157Y-141434701D01*
X179986359Y-141260179D01*
X179833821Y-141107641D01*
X179662279Y-140983008D01*
X179619614Y-140927678D01*
X179613635Y-140858064D01*
X179646241Y-140796269D01*
X179662280Y-140782372D01*
X179833491Y-140657979D01*
X179833497Y-140657974D01*
X179985974Y-140505497D01*
X179985974Y-140505496D01*
X180112728Y-140331036D01*
X180210627Y-140138901D01*
X180277266Y-139933809D01*
X180288481Y-139863000D01*
X179258709Y-139863000D01*
X179270452Y-139842661D01*
X179311000Y-139691333D01*
X179311000Y-139534667D01*
X179270452Y-139383339D01*
X179258709Y-139363000D01*
X180288481Y-139363000D01*
X180277266Y-139292190D01*
X180210627Y-139087098D01*
X180112728Y-138894963D01*
X179985974Y-138720503D01*
X179985974Y-138720502D01*
X179843892Y-138578420D01*
X179810407Y-138517097D01*
X179815391Y-138447405D01*
X179857263Y-138391472D01*
X179879177Y-138378353D01*
X179880323Y-138377817D01*
X179880334Y-138377814D01*
X180029656Y-138285712D01*
X180153712Y-138161656D01*
X180245814Y-138012334D01*
X180300999Y-137845797D01*
X180311500Y-137743009D01*
X180311499Y-136402992D01*
X180300999Y-136300203D01*
X180245814Y-136133666D01*
X180153712Y-135984344D01*
X180029656Y-135860288D01*
X179880334Y-135768186D01*
X179713797Y-135713001D01*
X179713795Y-135713000D01*
X179611010Y-135702500D01*
X177820998Y-135702500D01*
X177820981Y-135702501D01*
X177718203Y-135713000D01*
X177718200Y-135713001D01*
X177551668Y-135768185D01*
X177551663Y-135768187D01*
X177402342Y-135860289D01*
X177278289Y-135984342D01*
X177186187Y-136133663D01*
X177186186Y-136133666D01*
X177131001Y-136300203D01*
X177131001Y-136300204D01*
X177131000Y-136300204D01*
X177120500Y-136402983D01*
X177120500Y-137743001D01*
X177120501Y-137743018D01*
X177131000Y-137845796D01*
X177131001Y-137845799D01*
X177186185Y-138012331D01*
X177186186Y-138012334D01*
X177278288Y-138161656D01*
X177402344Y-138285712D01*
X177551666Y-138377814D01*
X177551667Y-138377814D01*
X177551670Y-138377816D01*
X177552828Y-138378356D01*
X177553488Y-138378937D01*
X177557813Y-138381605D01*
X177557357Y-138382343D01*
X177605268Y-138424527D01*
X177624422Y-138491720D01*
X177604208Y-138558601D01*
X177588108Y-138578420D01*
X177446022Y-138720506D01*
X177319271Y-138894963D01*
X177221372Y-139087098D01*
X177154733Y-139292190D01*
X177143519Y-139363000D01*
X178173291Y-139363000D01*
X178161548Y-139383339D01*
X178121000Y-139534667D01*
X178121000Y-139691333D01*
X178161548Y-139842661D01*
X178173291Y-139863000D01*
X177143519Y-139863000D01*
X177154733Y-139933809D01*
X177221372Y-140138901D01*
X177319271Y-140331036D01*
X177446025Y-140505496D01*
X177446025Y-140505497D01*
X177598502Y-140657974D01*
X177769720Y-140782372D01*
X177812385Y-140837702D01*
X177818364Y-140907316D01*
X177785758Y-140969110D01*
X177769720Y-140983008D01*
X177598177Y-141107642D01*
X177445643Y-141260176D01*
X177445643Y-141260177D01*
X177445641Y-141260179D01*
X177395038Y-141329828D01*
X177318843Y-141434700D01*
X177220909Y-141626908D01*
X177154245Y-141832077D01*
X177120500Y-142045133D01*
X177120500Y-142260866D01*
X177131195Y-142328388D01*
X177154246Y-142473926D01*
X177220908Y-142679089D01*
X177318843Y-142871299D01*
X177445641Y-143045821D01*
X177598179Y-143198359D01*
X177719454Y-143286471D01*
X177769294Y-143322682D01*
X177811959Y-143378012D01*
X177817938Y-143447626D01*
X177785332Y-143509421D01*
X177769294Y-143523318D01*
X177598179Y-143647641D01*
X177598177Y-143647643D01*
X177598176Y-143647643D01*
X177445643Y-143800176D01*
X177445643Y-143800177D01*
X177445641Y-143800179D01*
X177391186Y-143875129D01*
X177318843Y-143974700D01*
X177220909Y-144166908D01*
X177154245Y-144372077D01*
X177120500Y-144585133D01*
X177120500Y-144800866D01*
X177151921Y-144999249D01*
X177154246Y-145013926D01*
X177220908Y-145219089D01*
X177318843Y-145411299D01*
X177445641Y-145585821D01*
X177598179Y-145738359D01*
X177719454Y-145826471D01*
X177769294Y-145862682D01*
X177811959Y-145918012D01*
X177817938Y-145987626D01*
X177785332Y-146049421D01*
X177769294Y-146063318D01*
X177598179Y-146187641D01*
X177598177Y-146187643D01*
X177598176Y-146187643D01*
X177445643Y-146340176D01*
X177445643Y-146340177D01*
X177445641Y-146340179D01*
X177401122Y-146401454D01*
X177318843Y-146514700D01*
X177220909Y-146706908D01*
X177220908Y-146706910D01*
X177220908Y-146706911D01*
X177219536Y-146711135D01*
X177154245Y-146912077D01*
X177120500Y-147125133D01*
X177120500Y-147340866D01*
X177154245Y-147553922D01*
X177154246Y-147553926D01*
X177220908Y-147759089D01*
X177318843Y-147951299D01*
X177445641Y-148125821D01*
X177598179Y-148278359D01*
X177772701Y-148405157D01*
X177964911Y-148503092D01*
X178170074Y-148569754D01*
X178249973Y-148582408D01*
X178383134Y-148603500D01*
X178383139Y-148603500D01*
X179048866Y-148603500D01*
X179167230Y-148584752D01*
X179261926Y-148569754D01*
X179450183Y-148508584D01*
X179520023Y-148506590D01*
X179579856Y-148542670D01*
X179610684Y-148605371D01*
X179612500Y-148626516D01*
X179612500Y-166757328D01*
X179593494Y-166823300D01*
X179514211Y-166949476D01*
X179454631Y-167119745D01*
X179454630Y-167119750D01*
X179434435Y-167298996D01*
X179434435Y-167299003D01*
X179454630Y-167478249D01*
X179454631Y-167478254D01*
X179514211Y-167648523D01*
X179536140Y-167683422D01*
X179610184Y-167801262D01*
X179737738Y-167928816D01*
X179864944Y-168008745D01*
X179890478Y-168024789D01*
X180060747Y-168084369D01*
X180088086Y-168087449D01*
X180152500Y-168114515D01*
X180192056Y-168172109D01*
X180197424Y-168196785D01*
X180216630Y-168367250D01*
X180216631Y-168367254D01*
X180276211Y-168537523D01*
X180372184Y-168690262D01*
X180499738Y-168817816D01*
X180590080Y-168874582D01*
X180644472Y-168908759D01*
X180652478Y-168913789D01*
X180803066Y-168966482D01*
X180822745Y-168973368D01*
X180822750Y-168973369D01*
X181001996Y-168993565D01*
X181002000Y-168993565D01*
X181002004Y-168993565D01*
X181181249Y-168973369D01*
X181181252Y-168973368D01*
X181181255Y-168973368D01*
X181351522Y-168913789D01*
X181504262Y-168817816D01*
X181631816Y-168690262D01*
X181727789Y-168537522D01*
X181787368Y-168367255D01*
X181787369Y-168367249D01*
X181807565Y-168188003D01*
X181807565Y-168187996D01*
X181803008Y-168147551D01*
X181815063Y-168078729D01*
X181862412Y-168027350D01*
X181930022Y-168009726D01*
X181996428Y-168031453D01*
X182013909Y-168045987D01*
X182023738Y-168055816D01*
X182176478Y-168151789D01*
X182279952Y-168187996D01*
X182346745Y-168211368D01*
X182346750Y-168211369D01*
X182525996Y-168231565D01*
X182526000Y-168231565D01*
X182526004Y-168231565D01*
X182705249Y-168211369D01*
X182705252Y-168211368D01*
X182705255Y-168211368D01*
X182875522Y-168151789D01*
X183028262Y-168055816D01*
X183155816Y-167928262D01*
X183251789Y-167775522D01*
X183311368Y-167605255D01*
X183315825Y-167565698D01*
X183331565Y-167426003D01*
X183331565Y-167425996D01*
X183311369Y-167246750D01*
X183311368Y-167246745D01*
X183251789Y-167076478D01*
X183222592Y-167030012D01*
X183172506Y-166950300D01*
X183153500Y-166884328D01*
X183153500Y-136422196D01*
X183153499Y-136422195D01*
X183140995Y-136359329D01*
X183129386Y-136300966D01*
X183084407Y-136192379D01*
X183082763Y-136187784D01*
X183013414Y-136083996D01*
X183013413Y-136083994D01*
X183013411Y-136083992D01*
X182926008Y-135996589D01*
X175356206Y-128426787D01*
X175322721Y-128365464D01*
X175327705Y-128295772D01*
X175329311Y-128291689D01*
X175330172Y-128289612D01*
X175387146Y-128052302D01*
X175406294Y-127809000D01*
X175387146Y-127565698D01*
X175330172Y-127328388D01*
X175236777Y-127102911D01*
X175236777Y-127102910D01*
X175109262Y-126894826D01*
X175109261Y-126894823D01*
X175073453Y-126852897D01*
X174950759Y-126709241D01*
X174828063Y-126604449D01*
X174765176Y-126550738D01*
X174765173Y-126550737D01*
X174557089Y-126423222D01*
X174331618Y-126329830D01*
X174331621Y-126329830D01*
X174225992Y-126304470D01*
X174094302Y-126272854D01*
X174094300Y-126272853D01*
X174094297Y-126272853D01*
X173851000Y-126253706D01*
X173607702Y-126272853D01*
X173607698Y-126272854D01*
X173431301Y-126315204D01*
X173370380Y-126329830D01*
X173144910Y-126423222D01*
X172936826Y-126550737D01*
X172936823Y-126550738D01*
X172751241Y-126709241D01*
X172592738Y-126894823D01*
X172592737Y-126894826D01*
X172465222Y-127102910D01*
X172371830Y-127328380D01*
X172314853Y-127565702D01*
X172295706Y-127809000D01*
X162901499Y-127809000D01*
X162901499Y-126711128D01*
X162895091Y-126651517D01*
X162844796Y-126516669D01*
X162844795Y-126516668D01*
X162844793Y-126516664D01*
X162758547Y-126401455D01*
X162758544Y-126401452D01*
X162643335Y-126315206D01*
X162643328Y-126315202D01*
X162508482Y-126264908D01*
X162508483Y-126264908D01*
X162448883Y-126258501D01*
X162448881Y-126258500D01*
X162448873Y-126258500D01*
X162448864Y-126258500D01*
X160253129Y-126258500D01*
X160253123Y-126258501D01*
X160193516Y-126264908D01*
X160058671Y-126315202D01*
X160058664Y-126315206D01*
X159943455Y-126401452D01*
X159943452Y-126401455D01*
X159857206Y-126516664D01*
X159857202Y-126516671D01*
X159806908Y-126651517D01*
X159800703Y-126709241D01*
X159800501Y-126711123D01*
X159800500Y-126711135D01*
X156320160Y-126711135D01*
X154641819Y-125032794D01*
X154608334Y-124971471D01*
X154605500Y-124945113D01*
X154605500Y-124234554D01*
X154625185Y-124167515D01*
X154664710Y-124128827D01*
X154713131Y-124099153D01*
X154765179Y-124067259D01*
X154950759Y-123908759D01*
X155109259Y-123723179D01*
X155236777Y-123515089D01*
X155330172Y-123289612D01*
X155387146Y-123052302D01*
X155406294Y-122809000D01*
X155387146Y-122565698D01*
X155330172Y-122328388D01*
X155236777Y-122102911D01*
X155236777Y-122102910D01*
X155109262Y-121894826D01*
X155109261Y-121894823D01*
X155071774Y-121850932D01*
X154950759Y-121709241D01*
X154828063Y-121604449D01*
X154765176Y-121550738D01*
X154765173Y-121550737D01*
X154557089Y-121423222D01*
X154331618Y-121329830D01*
X154331621Y-121329830D01*
X154225992Y-121304470D01*
X154094302Y-121272854D01*
X154094300Y-121272853D01*
X154094297Y-121272853D01*
X153851000Y-121253706D01*
X153607702Y-121272853D01*
X153370380Y-121329830D01*
X153144910Y-121423222D01*
X152936826Y-121550737D01*
X152936823Y-121550738D01*
X152751241Y-121709241D01*
X152592738Y-121894823D01*
X152592737Y-121894826D01*
X152465222Y-122102910D01*
X152371830Y-122328380D01*
X152314853Y-122565702D01*
X152295706Y-122809000D01*
X142906294Y-122809000D01*
X142887146Y-122565698D01*
X142830172Y-122328388D01*
X142736777Y-122102911D01*
X142736777Y-122102910D01*
X142609262Y-121894826D01*
X142609261Y-121894823D01*
X142571774Y-121850932D01*
X142450759Y-121709241D01*
X142328063Y-121604449D01*
X142265176Y-121550738D01*
X142265173Y-121550737D01*
X142057089Y-121423222D01*
X141831618Y-121329830D01*
X141831621Y-121329830D01*
X141725992Y-121304470D01*
X141594302Y-121272854D01*
X141594300Y-121272853D01*
X141594297Y-121272853D01*
X141351000Y-121253706D01*
X141107702Y-121272853D01*
X140870380Y-121329830D01*
X140644910Y-121423222D01*
X140436826Y-121550737D01*
X140436823Y-121550738D01*
X140251241Y-121709241D01*
X140092738Y-121894823D01*
X140092737Y-121894826D01*
X139965222Y-122102910D01*
X139871830Y-122328380D01*
X139871828Y-122328387D01*
X139871828Y-122328388D01*
X139837072Y-122473150D01*
X139802283Y-122533740D01*
X139740256Y-122565904D01*
X139670687Y-122559428D01*
X139615664Y-122516368D01*
X139592655Y-122450395D01*
X139592500Y-122444201D01*
X139592500Y-120187711D01*
X165750500Y-120187711D01*
X165750500Y-120430288D01*
X165782161Y-120670785D01*
X165844947Y-120905104D01*
X165937773Y-121129205D01*
X165937776Y-121129212D01*
X166059064Y-121339289D01*
X166059066Y-121339292D01*
X166059067Y-121339293D01*
X166206733Y-121531736D01*
X166206739Y-121531743D01*
X166378256Y-121703260D01*
X166378262Y-121703265D01*
X166570711Y-121850936D01*
X166780788Y-121972224D01*
X167004900Y-122065054D01*
X167239211Y-122127838D01*
X167419586Y-122151584D01*
X167479711Y-122159500D01*
X167479712Y-122159500D01*
X167722289Y-122159500D01*
X167770388Y-122153167D01*
X167962789Y-122127838D01*
X168197100Y-122065054D01*
X168421212Y-121972224D01*
X168631289Y-121850936D01*
X168823738Y-121703265D01*
X168995265Y-121531738D01*
X169142936Y-121339289D01*
X169264224Y-121129212D01*
X169357054Y-120905100D01*
X169419838Y-120670789D01*
X169451500Y-120430288D01*
X169451500Y-120187712D01*
X169419838Y-119947211D01*
X169357054Y-119712900D01*
X169264224Y-119488788D01*
X169142936Y-119278711D01*
X168995265Y-119086262D01*
X168995260Y-119086256D01*
X168823743Y-118914739D01*
X168823736Y-118914733D01*
X168631293Y-118767067D01*
X168631292Y-118767066D01*
X168631289Y-118767064D01*
X168421212Y-118645776D01*
X168421205Y-118645773D01*
X168197104Y-118552947D01*
X167962785Y-118490161D01*
X167722289Y-118458500D01*
X167722288Y-118458500D01*
X167479712Y-118458500D01*
X167479711Y-118458500D01*
X167239214Y-118490161D01*
X167004895Y-118552947D01*
X166780794Y-118645773D01*
X166780785Y-118645777D01*
X166570706Y-118767067D01*
X166378263Y-118914733D01*
X166378256Y-118914739D01*
X166206739Y-119086256D01*
X166206733Y-119086263D01*
X166059067Y-119278706D01*
X165937777Y-119488785D01*
X165937773Y-119488794D01*
X165844947Y-119712895D01*
X165782161Y-119947214D01*
X165750500Y-120187711D01*
X139592500Y-120187711D01*
X139592500Y-119078917D01*
X139612185Y-119011878D01*
X139664989Y-118966123D01*
X139734147Y-118956179D01*
X139797703Y-118985204D01*
X139832682Y-119035585D01*
X139857201Y-119101326D01*
X139857206Y-119101335D01*
X139943452Y-119216544D01*
X139943455Y-119216547D01*
X140058664Y-119302793D01*
X140058671Y-119302797D01*
X140193517Y-119353091D01*
X140193516Y-119353091D01*
X140200444Y-119353835D01*
X140253127Y-119359500D01*
X142448872Y-119359499D01*
X142508483Y-119353091D01*
X142643331Y-119302796D01*
X142758546Y-119216546D01*
X142844796Y-119101331D01*
X142895091Y-118966483D01*
X142901500Y-118906873D01*
X142901499Y-117809000D01*
X152295706Y-117809000D01*
X152314853Y-118052297D01*
X152371830Y-118289619D01*
X152465222Y-118515089D01*
X152592737Y-118723173D01*
X152592738Y-118723176D01*
X152592741Y-118723179D01*
X152751241Y-118908759D01*
X152840747Y-118985204D01*
X152936823Y-119067261D01*
X152936826Y-119067262D01*
X153144910Y-119194777D01*
X153370381Y-119288169D01*
X153370378Y-119288169D01*
X153370384Y-119288170D01*
X153370388Y-119288172D01*
X153607698Y-119345146D01*
X153851000Y-119364294D01*
X154094302Y-119345146D01*
X154331612Y-119288172D01*
X154557089Y-119194777D01*
X154765179Y-119067259D01*
X154950759Y-118908759D01*
X155109259Y-118723179D01*
X155236777Y-118515089D01*
X155330172Y-118289612D01*
X155387146Y-118052302D01*
X155406294Y-117809000D01*
X155387146Y-117565698D01*
X155330172Y-117328388D01*
X155236777Y-117102911D01*
X155236777Y-117102910D01*
X155109262Y-116894826D01*
X155109261Y-116894823D01*
X155073453Y-116852897D01*
X154950759Y-116709241D01*
X154802265Y-116582415D01*
X154765176Y-116550738D01*
X154765173Y-116550737D01*
X154557089Y-116423222D01*
X154331618Y-116329830D01*
X154331621Y-116329830D01*
X154225992Y-116304470D01*
X154094302Y-116272854D01*
X154094300Y-116272853D01*
X154094297Y-116272853D01*
X153851000Y-116253706D01*
X153607702Y-116272853D01*
X153607698Y-116272854D01*
X153431301Y-116315204D01*
X153370380Y-116329830D01*
X153144910Y-116423222D01*
X152936826Y-116550737D01*
X152936823Y-116550738D01*
X152751241Y-116709241D01*
X152592738Y-116894823D01*
X152592737Y-116894826D01*
X152465222Y-117102910D01*
X152371830Y-117328380D01*
X152314853Y-117565702D01*
X152295706Y-117809000D01*
X142901499Y-117809000D01*
X142901499Y-116711128D01*
X142895091Y-116651517D01*
X142875320Y-116598509D01*
X142844797Y-116516671D01*
X142844793Y-116516664D01*
X142758547Y-116401455D01*
X142758544Y-116401452D01*
X142643335Y-116315206D01*
X142643328Y-116315202D01*
X142508482Y-116264908D01*
X142508483Y-116264908D01*
X142448883Y-116258501D01*
X142448881Y-116258500D01*
X142448873Y-116258500D01*
X142448864Y-116258500D01*
X140253129Y-116258500D01*
X140253123Y-116258501D01*
X140193516Y-116264908D01*
X140058671Y-116315202D01*
X140058664Y-116315206D01*
X139943455Y-116401452D01*
X139943452Y-116401455D01*
X139857206Y-116516664D01*
X139857202Y-116516671D01*
X139832682Y-116582415D01*
X139790811Y-116638349D01*
X139725347Y-116662766D01*
X139657074Y-116647915D01*
X139607668Y-116598509D01*
X139592500Y-116539082D01*
X139592500Y-113821500D01*
X139612185Y-113754461D01*
X139664989Y-113708706D01*
X139716500Y-113697500D01*
X186467500Y-113697500D01*
X186534539Y-113717185D01*
G37*
G04 #@! TD.AperFunction*
M02*
