G04 #@! TF.GenerationSoftware,KiCad,Pcbnew,8.0.8*
G04 #@! TF.CreationDate,2025-03-03T22:19:49-06:00*
G04 #@! TF.ProjectId,group13_buttons,67726f75-7031-4335-9f62-7574746f6e73,rev?*
G04 #@! TF.SameCoordinates,Original*
G04 #@! TF.FileFunction,Soldermask,Top*
G04 #@! TF.FilePolarity,Negative*
%FSLAX46Y46*%
G04 Gerber Fmt 4.6, Leading zero omitted, Abs format (unit mm)*
G04 Created by KiCad (PCBNEW 8.0.8) date 2025-03-03 22:19:49*
%MOMM*%
%LPD*%
G01*
G04 APERTURE LIST*
G04 Aperture macros list*
%AMRoundRect*
0 Rectangle with rounded corners*
0 $1 Rounding radius*
0 $2 $3 $4 $5 $6 $7 $8 $9 X,Y pos of 4 corners*
0 Add a 4 corners polygon primitive as box body*
4,1,4,$2,$3,$4,$5,$6,$7,$8,$9,$2,$3,0*
0 Add four circle primitives for the rounded corners*
1,1,$1+$1,$2,$3*
1,1,$1+$1,$4,$5*
1,1,$1+$1,$6,$7*
1,1,$1+$1,$8,$9*
0 Add four rect primitives between the rounded corners*
20,1,$1+$1,$2,$3,$4,$5,0*
20,1,$1+$1,$4,$5,$6,$7,0*
20,1,$1+$1,$6,$7,$8,$9,0*
20,1,$1+$1,$8,$9,$2,$3,0*%
G04 Aperture macros list end*
%ADD10C,2.304000*%
%ADD11RoundRect,0.102000X-1.050000X-1.050000X1.050000X-1.050000X1.050000X1.050000X-1.050000X1.050000X0*%
%ADD12RoundRect,0.250000X-0.350000X-0.450000X0.350000X-0.450000X0.350000X0.450000X-0.350000X0.450000X0*%
%ADD13RoundRect,0.250000X0.350000X0.450000X-0.350000X0.450000X-0.350000X-0.450000X0.350000X-0.450000X0*%
%ADD14RoundRect,0.250000X-0.450000X0.350000X-0.450000X-0.350000X0.450000X-0.350000X0.450000X0.350000X0*%
%ADD15O,2.190000X1.740000*%
%ADD16RoundRect,0.250000X-0.845000X0.620000X-0.845000X-0.620000X0.845000X-0.620000X0.845000X0.620000X0*%
%ADD17C,3.200000*%
%ADD18RoundRect,0.250000X0.475000X-0.337500X0.475000X0.337500X-0.475000X0.337500X-0.475000X-0.337500X0*%
%ADD19R,1.600000X1.600000*%
G04 APERTURE END LIST*
D10*
X173851000Y-192809000D03*
X161351000Y-192809000D03*
X173851000Y-187809000D03*
D11*
X161351000Y-187809000D03*
X161351000Y-167809000D03*
D10*
X173851000Y-167809000D03*
X161351000Y-172809000D03*
X173851000Y-172809000D03*
D11*
X161351000Y-147809000D03*
D10*
X173851000Y-147809000D03*
X161351000Y-152809000D03*
X173851000Y-152809000D03*
D11*
X161351000Y-127809000D03*
D10*
X173851000Y-127809000D03*
X161351000Y-132809000D03*
X173851000Y-132809000D03*
X153851000Y-182809000D03*
X141351000Y-182809000D03*
X153851000Y-177809000D03*
D11*
X141351000Y-177809000D03*
X141351000Y-157809000D03*
D10*
X153851000Y-157809000D03*
X141351000Y-162809000D03*
X153851000Y-162809000D03*
D11*
X141351000Y-137809000D03*
D10*
X153851000Y-137809000D03*
X141351000Y-142809000D03*
X153851000Y-142809000D03*
D11*
X141351000Y-117809000D03*
D10*
X153851000Y-117809000D03*
X141351000Y-122809000D03*
X153851000Y-122809000D03*
D12*
X163444000Y-181650000D03*
X161444000Y-181650000D03*
D13*
X158523000Y-161076000D03*
X160523000Y-161076000D03*
D12*
X162936000Y-141137000D03*
X160936000Y-141137000D03*
X163460000Y-122722000D03*
X161460000Y-122722000D03*
X155824000Y-171744000D03*
X153824000Y-171744000D03*
D13*
X151284000Y-151551000D03*
X153284000Y-151551000D03*
D12*
X155697000Y-131993000D03*
X153697000Y-131993000D03*
D14*
X156491000Y-119896000D03*
X156491000Y-117896000D03*
D15*
X178716000Y-147233000D03*
X178716000Y-144693000D03*
X178716000Y-142153000D03*
X178716000Y-139613000D03*
D16*
X178716000Y-137073000D03*
D17*
X147601000Y-190309000D03*
X167601000Y-120309000D03*
D18*
X178843000Y-131993000D03*
X178843000Y-134068000D03*
D19*
X184558000Y-172506000D03*
X184558000Y-169966000D03*
X184558000Y-167426000D03*
X184558000Y-164886000D03*
X184558000Y-162346000D03*
X184558000Y-159806000D03*
X184558000Y-157266000D03*
X184558000Y-154726000D03*
X176938000Y-154726000D03*
X176938000Y-157266000D03*
X176938000Y-159806000D03*
X176938000Y-162346000D03*
X176938000Y-164886000D03*
X176938000Y-167426000D03*
X176938000Y-169966000D03*
X176938000Y-172506000D03*
M02*
